<svg id="Layer_1" data-name="Layer 1" xmlns="http://www.w3.org/2000/svg" viewBox="0 0 32 30"><path d="M3,5.21H6.11c0,.36,0,.68,0,1a2.07,2.07,0,1,0,4.14,0V5.25H19.6c0,.31,0,.61,0,.92a2.08,2.08,0,1,0,4.15,0V5.24h3.08v9.23c-.65-.39-1.28-.76-1.9-1.16a.57.57,0,0,1-.14-.39c0-.48,0-1,0-1.46H5.11V24.92h.55c2.34,0,4.67,0,7,0a.64.64,0,0,1,.67.4c.29.56.65,1.09,1,1.68H3Z"/><path d="M20.32,28l-.94-.23a6.75,6.75,0,1,1,2.89.14L22,28Zm5.5-6.73A4.67,4.67,0,1,0,21.11,26,4.68,4.68,0,0,0,25.82,21.3Z"/><path d="M9.22,5.19c0,.36,0,.73,0,1.09a1,1,0,0,1-1,1,1,1,0,0,1-1-1q0-1.06,0-2.13a1,1,0,0,1,1-1,1,1,0,0,1,1,1C9.24,4.5,9.22,4.84,9.22,5.19Z"/><path d="M22.71,5.24c0,.34,0,.69,0,1a1,1,0,0,1-1,1,1,1,0,0,1-1-1c0-.71,0-1.42,0-2.12a1,1,0,0,1,2.07,0C22.72,4.51,22.71,4.88,22.71,5.24Z"/><path d="M20.67,17.68h1v3.09h2.06v1h-3Z"/></svg>