<svg id="Layer_1" data-name="Layer 1" xmlns="http://www.w3.org/2000/svg" viewBox="0 0 32 30"><defs><style>.cls-1{fill:#1b3866;}</style></defs><path class="cls-1" d="M14,21.15c-.29-1.2-1.26-5.52-1.26-5.52A1,1,0,0,1,12,16H9a1,1,0,0,1,0-2h2.28l.77-2.32a.92.92,0,0,1,1.8.1c.22,1,1,4.41,1,4.41S15.89,9,16,7.86A1,1,0,0,1,18,7.78l1.24,6.6A1,1,0,0,1,20,14h3a1,1,0,0,1,0,2H20.72L20,18.32a.89.89,0,0,1-1.76-.1c-.29-1.17-1.1-5-1.1-5S16.13,20,16,21.1A1,1,0,0,1,15,22,1,1,0,0,1,14,21.15ZM6,15A10,10,0,1,0,16,5,10,10,0,0,0,6,15Zm22,0A12,12,0,1,1,16,3,12,12,0,0,1,28,15Z"/></svg>