<svg id="Layer_1" data-name="Layer 1" xmlns="http://www.w3.org/2000/svg" viewBox="0 0 32 30"><defs><style>.cls-1{fill:#213f7c;}</style></defs><path class="cls-1" d="M29.76,15c-.71.77-1.38,1.59-2.15,2.31a18.93,18.93,0,0,1-7.25,4.41,14,14,0,0,1-9.87-.43A20.06,20.06,0,0,1,2.4,15.18,1.58,1.58,0,0,1,2.24,15c.47-.53.92-1.08,1.42-1.6a19.92,19.92,0,0,1,7.15-4.82A14.14,14.14,0,0,1,22.24,9a20.27,20.27,0,0,1,7.28,5.7l.24.28ZM10.93,13.69A5.29,5.29,0,0,0,14.45,20a5.22,5.22,0,1,0-2-8.8c-.21-.24-.43-.47-.63-.72s-.2-.15-.37-.09a16.82,16.82,0,0,0-4.38,2.54c-.79.65-1.54,1.35-2.33,2.05a18.32,18.32,0,0,0,6.81,4.68A6.37,6.37,0,0,1,9.8,13.5ZM27.22,15c-1.09-1.53-5.29-4.41-6.76-4.64a6.45,6.45,0,0,1,0,9.28A18.11,18.11,0,0,0,27.22,15Z"/><path class="cls-1" d="M12.7,14l2.51.42,0-.06-1.63-1.84A3.42,3.42,0,0,1,18,12.19,3.47,3.47,0,1,1,12.7,14Z"/></svg>