<svg id="Layer_1" data-name="Layer 1" xmlns="http://www.w3.org/2000/svg" viewBox="0 0 32 30"><path d="M2.43,14c.06-.11.13-.22.18-.33a2.2,2.2,0,0,1,2.11-1.37h15.8a2.24,2.24,0,0,1,2.32,2.33q0,4.47,0,9a2.24,2.24,0,0,1-2.32,2.32H4.77a2.47,2.47,0,0,1-2.34-1.7Zm12.46.57a2.84,2.84,0,1,0,2.85,2.83A2.83,2.83,0,0,0,14.89,14.58ZM11.8,15a2.8,2.8,0,0,0-3.71.74,2.84,2.84,0,0,0,.3,3.72,2.71,2.71,0,0,0,3.39.34A3.64,3.64,0,0,1,11.8,15ZM8.08,22.56H5.86v1.06H8.08Zm3.39,0H9.27v1.06h2.2Zm2.34,0V23.6H16V22.54Zm3.36,1.07H19.4V22.54H17.2c0,.1,0,.17,0,.24Z"/><path d="M25.12,16.84V14.58h1.56c.4,0,.68-.17.69-.59,0-1.3,0-2.59,0-3.93H9.28c0-.18,0-.33,0-.47v-4a2.25,2.25,0,0,1,2.33-2.32q7.87,0,15.76,0a2.24,2.24,0,0,1,2.32,2.32c0,3,0,6,0,9a2.24,2.24,0,0,1-2.32,2.32C26.6,16.85,25.89,16.84,25.12,16.84ZM27.33,6.61c.11-.94,0-1.11-.93-1.11H12.47c-.9,0-1,.18-.91,1.11Z"/></svg>