<svg id="Layer_1" data-name="Layer 1" xmlns="http://www.w3.org/2000/svg" viewBox="0 0 640 480"><defs><style>.cls-1{fill:#fff;}</style></defs><path class="cls-1" d="M55.44,242.74a20.75,20.75,0,0,1-8.82,4.1,28.88,28.88,0,0,1-5.84.54,23,23,0,0,1-9.07-1.78,21.85,21.85,0,0,1-12-12.12A23.42,23.42,0,0,1,18,224.53v-.12a23.06,23.06,0,0,1,6.47-16.22,22.24,22.24,0,0,1,7.3-4.95,23.85,23.85,0,0,1,9.39-1.8,29.28,29.28,0,0,1,5.68.5,23.84,23.84,0,0,1,4.66,1.4,20,20,0,0,1,3.88,2.16,25.9,25.9,0,0,1,3.3,2.79l-6.22,7.17a23.49,23.49,0,0,0-5.3-3.68,13.48,13.48,0,0,0-6.06-1.33,12.49,12.49,0,0,0-5.17,1.07,12.33,12.33,0,0,0-4.1,3,13.86,13.86,0,0,0-2.66,4.41,14.82,14.82,0,0,0-1,5.36v.13a15.1,15.1,0,0,0,1,5.39,14.08,14.08,0,0,0,2.63,4.44,12.18,12.18,0,0,0,9.3,4.13,13.62,13.62,0,0,0,6.44-1.4,24.92,24.92,0,0,0,5.23-3.81L59,239.45A32,32,0,0,1,55.44,242.74Z"/><path class="cls-1" d="M66,246.62V202.2h9.78v44.42Z"/><path class="cls-1" d="M146,233.13a22.88,22.88,0,0,1-4.63,7.33,21.92,21.92,0,0,1-7.17,5,22.42,22.42,0,0,1-9.27,1.88,22.67,22.67,0,0,1-9.23-1.84A21.84,21.84,0,0,1,104,233.26a24,24,0,0,1-1.62-8.79,23.6,23.6,0,0,1,1.65-8.79,23.17,23.17,0,0,1,4.63-7.33,22.07,22.07,0,0,1,7.17-5,24.05,24.05,0,0,1,18.5,0A21.92,21.92,0,0,1,146,215.55a24,24,0,0,1,1.62,8.79A23.6,23.6,0,0,1,146,233.13Zm-4.85-15.83a17.37,17.37,0,0,0-9.21-9.77,16.57,16.57,0,0,0-7-1.46,17.06,17.06,0,0,0-7,1.42,16.7,16.7,0,0,0-5.49,3.91,18.14,18.14,0,0,0-3.58,5.8,19.39,19.39,0,0,0-1.3,7.14,19.63,19.63,0,0,0,1.3,7.17,17.39,17.39,0,0,0,9.2,9.77,16.57,16.57,0,0,0,7,1.46,17.06,17.06,0,0,0,7-1.42,16.6,16.6,0,0,0,5.49-3.91,18.34,18.34,0,0,0,3.59-5.8,19.6,19.6,0,0,0,1.3-7.14A19.84,19.84,0,0,0,141.14,217.3Z"/><path class="cls-1" d="M188.89,206.83H162v15.86H186v4.57H162v19.36h-5V202.2h31.92Z"/><path class="cls-1" d="M214.08,246.62h-5V206.83H194.15V202.2H229v4.63H214.08Z"/><path class="cls-1" d="M272.84,246.62h-5.4l-5.2-11.74H238.06l-5.26,11.74h-5.14l20.24-44.74h4.69Zm-22.66-38.84L240,230.43h20.24Z"/><path class="cls-1" d="M280.32,202.2h5V242h25v4.64h-30Z"/><path class="cls-1" d="M339.65,234.43h-.25L323.22,210.7v35.92h-4.89V202.2h5.08l16.18,24.24,16.18-24.24h5.08v44.42h-5v-36Z"/><path class="cls-1" d="M413.83,233.13a22.88,22.88,0,0,1-4.63,7.33,21.92,21.92,0,0,1-7.17,5,22.41,22.41,0,0,1-9.26,1.88,22.68,22.68,0,0,1-9.24-1.84,22.15,22.15,0,0,1-7.14-5,22.39,22.39,0,0,1-4.6-7.3,24.59,24.59,0,0,1,0-17.58,23.19,23.19,0,0,1,4.64-7.33,22,22,0,0,1,7.17-5,22.4,22.4,0,0,1,9.26-1.87,22.63,22.63,0,0,1,9.23,1.83,21.92,21.92,0,0,1,11.74,12.28,24,24,0,0,1,1.62,8.79A23.6,23.6,0,0,1,413.83,233.13ZM409,217.3a17.39,17.39,0,0,0-9.2-9.77,16.64,16.64,0,0,0-7-1.46,17.1,17.1,0,0,0-7,1.42,16.66,16.66,0,0,0-5.48,3.91,18.17,18.17,0,0,0-3.59,5.8,19.39,19.39,0,0,0-1.3,7.14,19.63,19.63,0,0,0,1.3,7.17,17.39,17.39,0,0,0,9.2,9.77,16.61,16.61,0,0,0,7,1.46,17.1,17.1,0,0,0,7-1.42,16.66,16.66,0,0,0,5.48-3.91,18.17,18.17,0,0,0,3.59-5.8,19.39,19.39,0,0,0,1.3-7.14A19.63,19.63,0,0,0,409,217.3Z"/><path class="cls-1" d="M424.81,202.2h5V242h25v4.64h-30Z"/><path class="cls-1" d="M502,233.13a22.88,22.88,0,0,1-4.63,7.33,21.92,21.92,0,0,1-7.17,5,22.41,22.41,0,0,1-9.26,1.88,22.68,22.68,0,0,1-9.24-1.84,22.15,22.15,0,0,1-7.14-5,22.39,22.39,0,0,1-4.6-7.3,24.59,24.59,0,0,1,0-17.58,23.19,23.19,0,0,1,4.64-7.33,22.07,22.07,0,0,1,7.17-5,22.4,22.4,0,0,1,9.26-1.87,22.63,22.63,0,0,1,9.23,1.83,21.81,21.81,0,0,1,7.14,5,22.11,22.11,0,0,1,4.61,7.29,24.22,24.22,0,0,1,1.61,8.79A23.6,23.6,0,0,1,502,233.13Zm-4.85-15.83a17.39,17.39,0,0,0-9.2-9.77,16.64,16.64,0,0,0-7-1.46,17.1,17.1,0,0,0-7,1.42,16.66,16.66,0,0,0-5.48,3.91,18.17,18.17,0,0,0-3.59,5.8,19.39,19.39,0,0,0-1.3,7.14,19.63,19.63,0,0,0,1.3,7.17,17.39,17.39,0,0,0,9.2,9.77,16.61,16.61,0,0,0,7,1.46,17.1,17.1,0,0,0,7-1.42,16.66,16.66,0,0,0,5.48-3.91,18.17,18.17,0,0,0,3.59-5.8,19.39,19.39,0,0,0,1.3-7.14A19.63,19.63,0,0,0,497.12,217.3Z"/><path class="cls-1" d="M543.76,245.38a25.07,25.07,0,0,1-10.19,2,23.83,23.83,0,0,1-9.42-1.78,20.85,20.85,0,0,1-11.61-12.18,25.48,25.48,0,0,1-1.56-8.95,24.06,24.06,0,0,1,1.62-8.76,23,23,0,0,1,4.54-7.36,21.46,21.46,0,0,1,16.12-6.91,30.79,30.79,0,0,1,5.1.38,21.68,21.68,0,0,1,4.32,1.14,20.1,20.1,0,0,1,3.74,1.87,30.65,30.65,0,0,1,3.4,2.51l-3.24,3.8a22.79,22.79,0,0,0-2.66-2.06,18.4,18.4,0,0,0-3-1.59,18.93,18.93,0,0,0-3.55-1,21.77,21.77,0,0,0-4.28-.38,15.79,15.79,0,0,0-6.79,1.46,16.38,16.38,0,0,0-5.33,3.94,18.09,18.09,0,0,0-3.49,5.82,19.63,19.63,0,0,0-1.27,7.08,21.66,21.66,0,0,0,1.23,7.41,17.22,17.22,0,0,0,3.53,5.88,16.17,16.17,0,0,0,5.52,3.88,18.23,18.23,0,0,0,7.29,1.4,19.63,19.63,0,0,0,7.17-1.31,20.89,20.89,0,0,0,5.65-3.15V227.39H533.07V223H551.4V240.6A28.53,28.53,0,0,1,543.76,245.38Z"/><path class="cls-1" d="M566.89,202.2v44.42h-5V202.2Zm-4.44-3.94,6-9.2,5.08,2.35-7.17,6.85Z"/><path class="cls-1" d="M620,246.62h-5.39l-5.21-11.74H585.23L580,246.62h-5.14l20.24-44.74h4.7Zm-22.65-38.84-10.16,22.65h20.24Z"/><path class="cls-1" d="M95.09,309.92c-9,0-15.73-7.19-15.73-16.27v-.09c0-8.95,6.69-16.36,15.82-16.36,5.65,0,9,2.08,12.29,5.06L105.8,284c-2.76-2.66-5.92-4.65-10.67-4.65-7.59,0-13.33,6.19-13.33,14.14v.09c0,8,5.83,14.23,13.38,14.23,4.56,0,7.68-1.76,10.89-4.92l1.58,1.54C104.31,307.7,100.69,309.92,95.09,309.92Z"/><path class="cls-1" d="M124.37,309.38V277.75h2.35v31.63Z"/><path class="cls-1" d="M169.15,309.38l-10.08-13.11H148.72v13.11h-2.35V277.75h13.29c6.82,0,11.29,3.7,11.29,9v.09c0,5.28-3.93,8.31-9.26,9l10.44,13.51Zm-.55-22.55c0-4.25-3.34-6.91-9.08-6.91h-10.8v14.23h10.66c5.29,0,9.22-2.67,9.22-7.23Z"/><path class="cls-1" d="M201.45,309.87c-7.59,0-13-4.79-13-13.64V277.75h2.35V296c0,7.46,4,11.75,10.7,11.75,6.42,0,10.53-3.89,10.53-11.52V277.75h2.35V296C214.42,305,209.13,309.87,201.45,309.87Z"/><path class="cls-1" d="M247.77,309.92c-10,0-15.91-7.37-15.91-16.27v-.09c0-8.54,6.19-16.36,15.64-16.36a16.61,16.61,0,0,1,11.57,4.16l-1.54,1.76a14.25,14.25,0,0,0-10.17-3.79c-7.68,0-13.06,6.5-13.06,14.14v.09c0,8.18,5.11,14.28,13.56,14.28a16.18,16.18,0,0,0,10.07-3.62v-9.08H247.36V293h12.83v12.2A19,19,0,0,1,247.77,309.92Z"/><path class="cls-1" d="M279,309.38V277.75h2.35v31.63Zm.31-34.57,4-6,2.76,1.35-4.84,4.66Z"/><path class="cls-1" d="M327.39,309.38l-4-8.86H304.7l-4,8.86h-2.44L313,277.52h2.26L330,309.38ZM314.06,280.1l-8.36,18.29h16.67Z"/><path class="cls-1" d="M370.09,309.38V277.75h2.35v29.46H391v2.17Z"/><path class="cls-1" d="M434.43,309.38l-4-8.86H411.75l-4,8.86h-2.44L420,277.52h2.25L437,309.38ZM421.1,280.1l-8.36,18.29h16.67Zm-.72-5.29,4-6,2.76,1.35-4.84,4.66Z"/><path class="cls-1" d="M464.34,309.83a18,18,0,0,1-12.74-5.06l1.54-1.76c3.48,3.2,6.68,4.69,11.34,4.69s8-2.66,8-6.28v-.09c0-3.34-1.77-5.28-9-6.73-7.59-1.54-10.66-4.11-10.66-8.9v-.09c0-4.7,4.29-8.32,10.16-8.32a15.81,15.81,0,0,1,10.85,3.84l-1.5,1.86a13.58,13.58,0,0,0-9.44-3.57c-4.65,0-7.73,2.66-7.73,6v.09c0,3.35,1.72,5.38,9.22,6.92,7.32,1.49,10.4,4.11,10.4,8.72v.09C474.83,306.3,470.44,309.83,464.34,309.83Z"/><path class="cls-1" d="M492.49,309.38V277.75H515v2.17H494.84v12.42H513v2.17H494.84v12.7h20.38v2.17Z"/><path class="cls-1" d="M555.48,309.38l-10.07-13.11H535.06v13.11h-2.35V277.75H546c6.83,0,11.3,3.7,11.3,9v.09c0,5.28-3.93,8.31-9.26,9l10.43,13.51Zm-.54-22.55c0-4.25-3.35-6.91-9.08-6.91h-10.8v14.23h10.66c5.29,0,9.22-2.67,9.22-7.23Z"/></svg>