<svg id="Layer_1" data-name="Layer 1" xmlns="http://www.w3.org/2000/svg" viewBox="0 0 372.84 79.11"><defs><style>.cls-1{fill:#0688a6;}</style></defs><path class="cls-1" d="M27.12,34.77a13.17,13.17,0,0,1-2.44,1.52,12.91,12.91,0,0,1-2.91,1,18,18,0,0,1-3.53.32,14,14,0,0,1-5.5-1.07,13.29,13.29,0,0,1-7.27-7.35,14.17,14.17,0,0,1-1-5.42v-.07a13.93,13.93,0,0,1,3.92-9.83,13.43,13.43,0,0,1,4.42-3,14.4,14.4,0,0,1,5.69-1.1,17.45,17.45,0,0,1,3.44.31,14.39,14.39,0,0,1,2.82.84,12.45,12.45,0,0,1,2.35,1.31,16.24,16.24,0,0,1,2,1.69l-3.77,4.35A13.89,13.89,0,0,0,22.1,16a8.14,8.14,0,0,0-3.67-.81,7.56,7.56,0,0,0-3.13.65,7.46,7.46,0,0,0-2.48,1.81,8.6,8.6,0,0,0-1.62,2.67,9.18,9.18,0,0,0-.57,3.25v.08a9.28,9.28,0,0,0,.57,3.26,8.66,8.66,0,0,0,1.6,2.7,7.59,7.59,0,0,0,2.46,1.82,7.38,7.38,0,0,0,3.17.67,8.27,8.27,0,0,0,3.9-.84A14.64,14.64,0,0,0,25.5,29l3.77,3.81A20,20,0,0,1,27.12,34.77Z"/><path class="cls-1" d="M33.5,37.11V10.2h5.92V37.11Z"/><path class="cls-1" d="M82,28.94a14,14,0,0,1-2.81,4.44,13.27,13.27,0,0,1-4.34,3.06,14.59,14.59,0,0,1-11.21,0A13.29,13.29,0,0,1,56.51,29a14.82,14.82,0,0,1,0-10.65,13.83,13.83,0,0,1,2.8-4.44,13.52,13.52,0,0,1,10-4.19,13.55,13.55,0,0,1,5.59,1.12,13.31,13.31,0,0,1,4.33,3A13.71,13.71,0,0,1,82,18.29a14.66,14.66,0,0,1,1,5.33A14.41,14.41,0,0,1,82,28.94ZM79,19.35a10.59,10.59,0,0,0-5.58-5.92,10.1,10.1,0,0,0-4.25-.88,10.4,10.4,0,0,0-4.24.86,10,10,0,0,0-3.33,2.37,11,11,0,0,0-2.17,3.51,12.29,12.29,0,0,0,0,8.67,10.55,10.55,0,0,0,2.21,3.54A10.74,10.74,0,0,0,65,33.88a10.14,10.14,0,0,0,4.25.89,10.29,10.29,0,0,0,4.25-.87,9.9,9.9,0,0,0,3.32-2.36A11,11,0,0,0,79,28a11.91,11.91,0,0,0,.78-4.32A12.08,12.08,0,0,0,79,19.35Z"/><path class="cls-1" d="M108,13H91.66v9.61h14.57v2.77H91.66V37.11h-3V10.2H108Z"/><path class="cls-1" d="M123.22,37.11h-3V13h-9V10.2h21.11V13h-9Z"/><path class="cls-1" d="M158.82,37.11h-3.26L152.4,30H137.76l-3.19,7.11h-3.12L143.72,10h2.84ZM145.1,13.58,139,27.31h12.26Z"/><path class="cls-1" d="M163.36,10.2h3V34.31h15.14v2.8H163.36Z"/><path class="cls-1" d="M199.3,29.73h-.15l-9.8-14.38V37.11h-3V10.2h3.07l9.8,14.69,9.81-14.69h3.07V37.11h-3V15.32Z"/><path class="cls-1" d="M244.24,28.94a13.83,13.83,0,0,1-2.8,4.44,13.42,13.42,0,0,1-10,4.19,13.67,13.67,0,0,1-5.59-1.11,13.23,13.23,0,0,1-4.33-3A13.61,13.61,0,0,1,218.77,29a14.82,14.82,0,0,1,0-10.65,13.86,13.86,0,0,1,2.81-4.44,13.24,13.24,0,0,1,4.34-3,14.47,14.47,0,0,1,11.21,0,13.16,13.16,0,0,1,4.32,3,13.38,13.38,0,0,1,2.79,4.42,14.66,14.66,0,0,1,1,5.33A14.21,14.21,0,0,1,244.24,28.94Zm-2.94-9.59a10.55,10.55,0,0,0-2.21-3.54,10.9,10.9,0,0,0-3.36-2.38,10.14,10.14,0,0,0-4.25-.88,10.41,10.41,0,0,0-4.25.86,10.06,10.06,0,0,0-3.32,2.37,11.06,11.06,0,0,0-2.18,3.51,12.44,12.44,0,0,0,0,8.67,10.88,10.88,0,0,0,2.21,3.54,10.67,10.67,0,0,0,3.37,2.38,10.11,10.11,0,0,0,4.25.89,10.24,10.24,0,0,0,4.24-.87,9.84,9.84,0,0,0,3.33-2.36A11,11,0,0,0,241.3,28a11.71,11.71,0,0,0,.79-4.32A11.87,11.87,0,0,0,241.3,19.35Z"/><path class="cls-1" d="M250.89,10.2h3V34.31h15.15v2.8H250.89Z"/><path class="cls-1" d="M297.64,28.94a13.86,13.86,0,0,1-2.81,4.44,13.27,13.27,0,0,1-4.34,3.06,13.52,13.52,0,0,1-5.61,1.13,13.76,13.76,0,0,1-5.6-1.11A13.29,13.29,0,0,1,272.17,29a14.6,14.6,0,0,1-1-5.32,14.26,14.26,0,0,1,1-5.33A13.86,13.86,0,0,1,275,13.93a13.24,13.24,0,0,1,4.34-3,14.47,14.47,0,0,1,11.21,0,13.23,13.23,0,0,1,7.11,7.43,14.66,14.66,0,0,1,1,5.33A14.21,14.21,0,0,1,297.64,28.94Zm-2.94-9.59a10.71,10.71,0,0,0-2.21-3.54,10.83,10.83,0,0,0-3.37-2.38,10.09,10.09,0,0,0-4.24-.88,10.41,10.41,0,0,0-4.25.86,10.11,10.11,0,0,0-3.33,2.37,11.21,11.21,0,0,0-2.17,3.51,12.29,12.29,0,0,0,0,8.67,10.5,10.5,0,0,0,5.58,5.92,10.1,10.1,0,0,0,4.24.89,10.26,10.26,0,0,0,4.25-.87,9.94,9.94,0,0,0,3.33-2.36A11.15,11.15,0,0,0,294.7,28a11.92,11.92,0,0,0,.79-4.32A12.08,12.08,0,0,0,294.7,19.35Z"/><path class="cls-1" d="M323,36.37a15.26,15.26,0,0,1-6.17,1.2,14.57,14.57,0,0,1-5.71-1.07,12.65,12.65,0,0,1-7-7.38,15.44,15.44,0,0,1-.94-5.42,14.46,14.46,0,0,1,1-5.31,13.86,13.86,0,0,1,2.75-4.46,13,13,0,0,1,9.76-4.19,19.68,19.68,0,0,1,3.1.23,14.66,14.66,0,0,1,2.61.69,12.68,12.68,0,0,1,2.27,1.14,19.12,19.12,0,0,1,2.06,1.52l-2,2.3a14.77,14.77,0,0,0-1.61-1.25,10.57,10.57,0,0,0-1.83-1,11,11,0,0,0-2.15-.63,13,13,0,0,0-2.59-.23,9.58,9.58,0,0,0-4.12.88,10.11,10.11,0,0,0-3.23,2.39A11.3,11.3,0,0,0,307,19.34a12.05,12.05,0,0,0-.77,4.3,13,13,0,0,0,.75,4.48,10.47,10.47,0,0,0,2.13,3.57A9.89,9.89,0,0,0,312.48,34a11.13,11.13,0,0,0,4.42.84,11.82,11.82,0,0,0,4.34-.79,12.62,12.62,0,0,0,3.42-1.91V25.46h-8.18V22.77h11.11v10.7A17.32,17.32,0,0,1,323,36.37Z"/><path class="cls-1" d="M337,10.2V37.11h-3V10.2Zm-2.7-2.38,3.66-5.58L341,3.67l-4.34,4.15Z"/><path class="cls-1" d="M369.14,37.11h-3.26L362.72,30H348.08l-3.19,7.11h-3.12L354,10h2.85ZM355.42,13.58l-6.15,13.73h12.26Z"/><path class="cls-1" d="M47.85,75.46a9.52,9.52,0,0,1-9.52-9.85v-.06a9.63,9.63,0,0,1,9.58-9.91,10.08,10.08,0,0,1,7.44,3.07l-1,1a8.76,8.76,0,0,0-6.46-2.82c-4.6,0-8.07,3.75-8.07,8.57v0c0,4.85,3.53,8.63,8.1,8.63a8.79,8.79,0,0,0,6.6-3l1,.93A10.08,10.08,0,0,1,47.85,75.46Z"/><path class="cls-1" d="M65.59,75.13V56H67V75.13Z"/><path class="cls-1" d="M92.72,75.13l-6.1-7.93H80.35v7.93H78.92V56h8c4.13,0,6.84,2.25,6.84,5.45v0c0,3.21-2.38,5-5.61,5.48l6.33,8.18Zm-.33-13.66c0-2.57-2-4.18-5.5-4.18H80.35v8.62h6.46c3.2,0,5.58-1.62,5.58-4.38Z"/><path class="cls-1" d="M112.29,75.43c-4.6,0-7.85-2.9-7.85-8.26V56h1.42V67c0,4.52,2.44,7.12,6.49,7.12,3.88,0,6.38-2.36,6.38-7V56h1.42V67C120.15,72.51,117,75.43,112.29,75.43Z"/><path class="cls-1" d="M140.35,75.46c-6,0-9.63-4.46-9.63-9.85v-.06c0-5.17,3.75-9.91,9.47-9.91a10,10,0,0,1,7,2.52l-.94,1.07a8.62,8.62,0,0,0-6.15-2.3c-4.66,0-7.92,3.94-7.92,8.57v0c0,5,3.1,8.65,8.22,8.65a9.81,9.81,0,0,0,6.1-2.19v-5.5h-6.4V65.2h7.77v7.39A11.53,11.53,0,0,1,140.35,75.46Z"/><path class="cls-1" d="M159.24,75.13V56h1.42V75.13Zm.19-20.94,2.41-3.64,1.67.82-2.93,2.82Z"/><path class="cls-1" d="M188.59,75.13l-2.44-5.36H174.84l-2.43,5.36h-1.48l8.92-19.3h1.37l8.93,19.3ZM180.51,57.4l-5.06,11.08h10.1Z"/><path class="cls-1" d="M214.45,75.13V56h1.43V73.82h11.25v1.31Z"/><path class="cls-1" d="M253.44,75.13,251,69.77H239.69l-2.43,5.36h-1.48l8.92-19.3h1.37L255,75.13ZM245.36,57.4,240.3,68.48h10.1Zm-.44-3.21,2.41-3.64,1.67.82-2.93,2.82Z"/><path class="cls-1" d="M271.56,75.41a10.92,10.92,0,0,1-7.72-3.07l.93-1.07a9.28,9.28,0,0,0,6.87,2.85c2.87,0,4.84-1.61,4.84-3.8v-.06c0-2-1.06-3.2-5.42-4.08-4.59-.93-6.46-2.49-6.46-5.39v0c0-2.85,2.61-5,6.16-5A9.53,9.53,0,0,1,277.33,58l-.9,1.13A8.26,8.26,0,0,0,270.71,57C267.89,57,266,58.6,266,60.6v0c0,2,1,3.26,5.58,4.19s6.3,2.49,6.3,5.28v.06C277.91,73.27,275.25,75.41,271.56,75.41Z"/><path class="cls-1" d="M288.61,75.13V56h13.63v1.32H290v7.52h11v1.32H290v7.69h12.34v1.31Z"/><path class="cls-1" d="M326.77,75.13l-6.1-7.93H314.4v7.93H313V56h8c4.14,0,6.85,2.25,6.85,5.45v0c0,3.21-2.38,5-5.61,5.48l6.32,8.18Zm-.33-13.66c0-2.57-2-4.18-5.5-4.18H314.4v8.62h6.46c3.2,0,5.58-1.62,5.58-4.38Z"/></svg>