<svg id="Layer_1" data-name="Layer 1" xmlns="http://www.w3.org/2000/svg" viewBox="0 0 640 480"><defs><style>.cls-1{fill:#777;}.cls-2{fill:#767676;}.cls-3{fill:#7b7b7b;}.cls-4{fill:none;}.cls-5{fill:#35a853;}.cls-6{fill:#f9bb06;}.cls-7{fill:#4385f3;}.cls-8{fill:#e94436;}.cls-9{fill:#1b73e7;}</style></defs><path class="cls-1" d="M234.67,320.7c3.87,0,7.74.14,11.6-.06,2.32-.12,2.87.81,3,2.89,1.6,26-22.57,35.71-40.57,28-13.62-5.86-21-19.77-18.17-33.79s15.35-24.33,29.93-24.58a29.14,29.14,0,0,1,19.81,7c1.21,1,1.46,1.75.17,2.87-1.49,1.3-2.63,3.38-4.32,4s-3-1.73-4.6-2.63a22.08,22.08,0,0,0-24.62,2.39c-6.87,5.7-9.48,15.69-6.38,24.42a21.44,21.44,0,0,0,19.76,14.36c9.91.09,17.17-4.61,19.56-12.65,1-3.5.92-3.66-2.66-3.67-4.72,0-9.44-.07-14.15,0-1.9,0-2.61-.41-2.6-2.47,0-6.06-.06-6.06,6-6.06Z"/><path class="cls-1" d="M498,312.56c-.84,1.4-1.55,2.55-2.22,3.73q-6.58,11.54-13.16,23.07c-1.8,3.14-4.81,3.12-6.61,0Q469,327.2,462.11,315.05c-.4-.69-.55-1.59-1.58-2v6.72c0,10.27,0,20.54,0,30.81,0,1.85-.5,2.39-2.36,2.37-4.83-.05-4.84,0-4.84-4.7,0-15.36.06-30.73-.05-46.09,0-2.41.52-3.11,3.07-3.23,3.21-.15,4.83,1,6.32,3.74,4.77,8.76,9.84,17.37,14.8,26,.5.88,1,1.74,1.79,3,1-1.72,1.86-3.12,2.68-4.55q7.27-12.74,14.56-25.5c1.25-2.19,5.82-3.57,8-2.48.81.41.64,1.08.64,1.7,0,16.77,0,33.55,0,50.33,0,1.39-.55,1.69-1.83,1.75-5.4.26-5.44.31-5.38-5,.13-11.49-.39-23,.35-34.47C498.36,313.31,498.23,313.16,498,312.56Z"/><path class="cls-1" d="M366.44,350c-8.54,6-17.6,5-24.3-2.53a19.93,19.93,0,0,1,.54-26.79c5.79-6.19,16-8.51,23.73-1.89-.29-2.88,1.38-2.9,3.39-2.86,5.12.11,5.12,0,5.12,5.27,0,9.9,0,19.81,0,29.71a30.36,30.36,0,0,1-.73,6.73c-1.74,7.91-7.3,12.9-15.22,13.78-8.31.93-16-3-19.45-9.83-.65-1.29-.62-2,.86-2.46a8.25,8.25,0,0,0,1.57-.65c2.63-1.39,4.57-2,6.68,1.44,2.23,3.66,6.38,4.38,10.6,3.35,4.05-1,6.15-3.77,7-7.68A17.41,17.41,0,0,0,366.44,350Zm.71-15.69c-.06-6.72-4.57-11.74-10.49-11.66S346,328,346,334.62c0,6.44,4.8,11.52,10.76,11.52S367.21,341,367.15,334.34Z"/><path class="cls-2" d="M559.14,320.66c5-5.67,10.83-6.91,17.42-5.17,4.33,1.14,7.44,4.07,9.64,7.82,4.18,7.16,4.3,14.58.23,21.76-6.36,11.22-19.91,11.53-27.27,3.15v10.57c0,2.73-.08,5.47,0,8.19.06,1.61-.5,2.08-2.09,2.12-4.91.11-4.91.18-4.91-4.65q0-22.59,0-45.2c0-1.8-.37-3.48,2.57-3.32,5,.28,4.19-.24,4.25,3.33C559,319.54,559.05,319.82,559.14,320.66ZM559,334.17c-.06,6.6,3.31,11.71,8.61,13a11.56,11.56,0,0,0,14-8.29c2.19-7.45-1.28-15.2-7.71-17.22C566.17,319.26,559.07,325.21,559,334.17Z"/><path class="cls-1" d="M314.49,314.87c11.14,0,19.6,8.37,19.66,19.41a19.75,19.75,0,0,1-39.49.08C294.68,323.2,303.17,314.85,314.49,314.87Zm-10.93,19.31c-.05,6.79,4.65,12,10.84,12s10.82-5.09,10.85-11.7-4.51-11.67-10.72-11.77S303.61,327.57,303.56,334.18Z"/><path class="cls-2" d="M271.7,314.87c11.25,0,19.83,8.46,19.8,19.55A19.43,19.43,0,0,1,271.93,354c-11.3,0-19.81-8.34-19.83-19.5C252.09,323.17,260.37,314.88,271.7,314.87Zm11,19.46c0-6.49-4.87-11.71-10.94-11.77s-11.17,5.59-11,12,5.08,11.59,11.15,11.55S282.71,340.88,282.69,334.33Z"/><path class="cls-2" d="M412.24,314.74a18.52,18.52,0,0,1,17.3,13.51c.51,1.67-.48,1.69-1.39,2.07l-21.65,9c-2.72,1.13-2.78,1.44-.88,3.62,3.81,4.33,11.18,4.44,15.34-.13,1.73-1.9,2.76-1.64,4.56-.38,4.78,3.34,4.83,3.27.23,7.15a19.88,19.88,0,0,1-22.26,2c-6.78-3.69-10.74-11.86-9.64-19.89,1.17-8.5,6.41-14.58,14.2-16.39A39.32,39.32,0,0,1,412.24,314.74Zm-9.77,18.9c5-2.07,9.76-4,14.48-6,.88-.37,2.42-.32,2.38-1.52s-1.23-1.83-2.22-2.4a8.64,8.64,0,0,0-9.13.08C404.37,325.87,402.49,329,402.47,333.64Z"/><path class="cls-1" d="M538,330.77c.24-4.23-1.47-7.11-4.92-8.75a10.86,10.86,0,0,0-11.4,1.62c-.81.69-1.33,2.38-2.51,1.88a22.18,22.18,0,0,1-5.21-3.33c-.74-.61.34-1.31.78-1.83,3.43-4,8-5.37,13.08-5.62,9.09-.45,16.17,4.62,17,12.58.36,3.64.17,7.33.19,11,0,4.14,0,8.29,0,12.43,0,1.52-.32,2.36-2,2.12a5.12,5.12,0,0,0-1.41,0c-2.57.42-4-.35-3.43-3.24A8.35,8.35,0,0,0,538,348c-3.53,4.6-7.77,6.42-13,6.05-8.55-.61-14.25-7.74-12.35-15.71,1.13-4.72,4.54-7.3,8.92-8.57A24,24,0,0,1,538,330.77Zm-8.37,3.62c-2.14.32-4,.41-5.75,1.26-2.86,1.4-4.62,3.91-4.35,6.33s2.32,4.61,5.41,5.46c4.42,1.21,9.85-1.45,12.21-6,1.87-3.6,1.32-5.06-2.55-6.16A47.93,47.93,0,0,0,529.65,334.39Z"/><path class="cls-1" d="M607.51,314.78c5.45,0,10.16,1.63,13.57,6.14,1.18,1.56,1.35,2.62-.9,3.51s-4.07,1.68-6.19-.93c-2.27-2.81-7.34-3.17-10.51-1.56-1.55.78-3,1.78-2.93,3.78.1,1.82,1.45,2.85,3,3.36,2.68.86,5.42,1.55,8.14,2.29a21.71,21.71,0,0,1,6.52,2.62,10,10,0,0,1,1.36,16c-7.49,7-21.23,4.78-26.31-4.09-1-1.82-1-2.89,1.16-3.48a7.48,7.48,0,0,0,1.81-.79c1.5-.88,2.32-.57,3.29,1,2.94,4.83,8.09,6.36,12.94,4.16,1.63-.73,3-1.74,3.16-3.64s-1.19-3.29-2.82-4.2c-1.92-1.08-4.1-1.37-6.19-1.92a34.92,34.92,0,0,1-8-2.7c-6.78-3.7-7.31-12.21-1-16.73A16.2,16.2,0,0,1,607.51,314.78Z"/><path class="cls-3" d="M389.66,324.23c0,8.75,0,17.51,0,26.27,0,1.78-.4,2.42-2.33,2.43-6.51,0-6.51.1-6.51-6.43,0-16,.05-32-.05-48,0-2.48.48-3.44,3.21-3.33,5.64.23,5.64.06,5.64,5.63Z"/><path class="cls-4" d="M168.54,178.26l.28-.07-.28.07Z"/><path class="cls-4" d="M168.61,178.69a3.49,3.49,0,0,0-.07-.43h0A3.49,3.49,0,0,1,168.61,178.69Z"/><path class="cls-4" d="M168.52,178.17c3.83-12.62,4.37-25-2.47-36.95-9.87-17.24-34.27-29.87-60.42-13.53h0l-7.38,6.67c-1.28,1.75-2.56,3.49-3.83,5.24-.17.85-.4,1.65-1.47,1.75l1.47-1.75L93,141.35l.21,0A260.31,260.31,0,0,0,74.6,162.19a260.31,260.31,0,0,1,18.56-20.86c-.51,1.55-1,3.13-1.54,4.66-9.21,23.8,3.68,49.26,28.39,55.63,11.5,3,22.35.3,32.73-4.89.46-1.41,1.76-1.74,2.91-2.27a4.23,4.23,0,0,1-1.31,2.09,4.23,4.23,0,0,0,1.31-2.09,85.58,85.58,0,0,0,11.29-13.26A3.15,3.15,0,0,1,168.52,178.17Z"/><path class="cls-4" d="M151.4,200.68a7.82,7.82,0,0,0,1.42-3.92h0A7.82,7.82,0,0,1,151.4,200.68Z"/><path class="cls-4" d="M156.14,66.06c.61-.75,1.2-1.51,1.75-2.3C157.34,64.55,156.75,65.31,156.14,66.06Z"/><path class="cls-4" d="M154.25,68.26c.65-.72,1.28-1.45,1.89-2.2C155.53,66.81,154.9,67.54,154.25,68.26Z"/><path class="cls-5" d="M226.23,111q-27.9,33.32-55.84,66.61a1.63,1.63,0,0,1-.85.42l-.72.16-.28.07a3.49,3.49,0,0,1,.07.43,2.19,2.19,0,0,1-.13.9,3.36,3.36,0,0,1-1.54,1.61,85.58,85.58,0,0,1-11.29,13.26,4.23,4.23,0,0,1-1.31,2.09,2,2,0,0,1-1.52.21,7.82,7.82,0,0,1-1.42,3.92c-1.31,1.89-3.22,3.38-4.67,5.11q-16.28,19.5-32.67,38.91T81.3,283.55h0c.9,1.38,1.7,2.83,2.7,4.13,15.22,19.89,28.2,40.94,34.65,65.47A24.8,24.8,0,0,0,121.1,359c4.28,7.58,13.36,7.72,17.59.16a48,48,0,0,0,3.91-9.88,157.57,157.57,0,0,1,20.47-43.49c12.92-19.35,28-37,42.17-55.45,12.92-16.81,24.38-34.48,29.55-55.35C242,166.05,241,137.79,226.23,111Z"/><polygon class="cls-5" points="168.54 178.26 168.54 178.26 168.54 178.26 168.54 178.26 168.54 178.26"/><path class="cls-6" d="M114.06,244.7q16.38-19.42,32.67-38.91c1.45-1.73,3.36-3.22,4.67-5.11a7.82,7.82,0,0,0,1.42-3.92h0a2,2,0,0,0,1.52-.21,4.23,4.23,0,0,0,1.31-2.09c-1.15.53-2.45.86-2.91,2.27-10.38,5.19-21.23,7.86-32.73,4.89C95.3,195.25,82.41,169.79,91.62,146c.58-1.53,1-3.11,1.54-4.66A260.31,260.31,0,0,0,74.6,162.19c-2,2.5-4.11,5-6.17,7.5-2.66,3.23-5.35,6.43-8.12,9.57q-3.63,4.11-7.22,8.27c-7.17,8.31-14.25,16.71-21.4,25,1.33,3,2.46,6.11,4,9,12.45,22.67,29.36,42.08,45.58,62h0Q97.68,264.13,114.06,244.7Z"/><path class="cls-7" d="M156.14,66.06c-.61.75-1.24,1.48-1.89,2.2-2.26,2.51-4.67,4.91-6.81,7.5-13.32,16.16-27.07,32-40.56,48a3,3,0,0,0-.48.84c-.38.93-.47,2.09-.77,3.08,26.15-16.34,50.55-3.71,60.42,13.53,6.84,11.93,6.3,24.33,2.47,36.95a3.15,3.15,0,0,0-1.58,3,3.36,3.36,0,0,0,1.54-1.61,2.19,2.19,0,0,0,.13-.9,3.49,3.49,0,0,0-.07-.43h0l.28-.07.72-.16a1.63,1.63,0,0,0,.85-.42q28-33.27,55.84-66.61c-14-27.14-35.88-44.78-65-53.72a24.25,24.25,0,0,1-1.82,4,28.05,28.05,0,0,1-1.56,2.44C157.34,64.55,156.75,65.31,156.14,66.06Z"/><path class="cls-8" d="M53.09,187.53q3.6-4.16,7.22-8.27c2.77-3.14,5.46-6.34,8.12-9.57,2.06-2.49,4.12-5,6.17-7.5a260.31,260.31,0,0,1,18.56-20.86l-.21,0,1.47-1.75c1.27-1.75,2.55-3.49,3.83-5.24L47,91.43C19.4,120.6,12.55,175.05,31.69,212.57h0C38.84,204.24,45.92,195.84,53.09,187.53Z"/><path class="cls-9" d="M105.63,127.69h0c.3-1,.39-2.15.77-3.08a3,3,0,0,1,.48-.84c13.49-16,27.24-31.85,40.56-48,2.14-2.59,4.55-5,6.81-7.5.65-.72,1.28-1.45,1.89-2.2s1.2-1.51,1.75-2.3a28.05,28.05,0,0,0,1.56-2.44,24.25,24.25,0,0,0,1.82-4C120.41,44.44,72.18,58.85,47,91.43l51.3,42.93Z"/><path class="cls-6" d="M94.42,139.6,93,141.35C94,141.25,94.25,140.45,94.42,139.6Z"/></svg>