<svg id="Layer_1" data-name="Layer 1" xmlns="http://www.w3.org/2000/svg" viewBox="0 0 32 30"><defs><style>.cls-1{fill:#fff;}</style></defs><path class="cls-1" d="M5.62,14.54H4.3c-.43,0-.43,0-.41.43,0,.1,0,.14.14.14H5c.24,0,.24,0,.17.24a1.23,1.23,0,0,1-1.3.85,1.42,1.42,0,0,1-1.33-1A1.51,1.51,0,0,1,3,13.59a1.45,1.45,0,0,1,1.64-.13c.1.06.18.21.3.16s.16-.16.26-.24.09-.14,0-.23a2,2,0,0,0-1.76-.39,2,2,0,0,0,.25,4,1.81,1.81,0,0,0,2.12-2C5.79,14.57,5.74,14.53,5.62,14.54Z"/><path class="cls-1" d="M22.82,13.1a.52.52,0,0,0-.53.15c-.33.59-.67,1.18-1,1.76l-.14.26L21,15c-.33-.57-.67-1.14-1-1.72a.38.38,0,0,0-.41-.23c-.15,0-.2,0-.2.2,0,1,0,2.06,0,3.09,0,.31,0,.3.31.31.14,0,.16-.06.16-.18,0-.66,0-1.33,0-2V14l.12.19.93,1.63a.22.22,0,0,0,.41,0l.39-.68c.21-.38.43-.75.64-1.12h0s0,0,0,.06c0,.76,0,1.52,0,2.28,0,.37,0,.37.37.33.09,0,.11,0,.11-.11V13.22S22.87,13.13,22.82,13.1Z"/><path class="cls-1" d="M13.81,14.22c-.13,0-.22,0-.19.18a1.17,1.17,0,0,0-1.59.14,1.33,1.33,0,0,0-.12,1.67,1.24,1.24,0,0,0,.79.53,1,1,0,0,0,.91-.26,1.7,1.7,0,0,1,0,.32.62.62,0,0,1-.44.57.7.7,0,0,1-.74-.19c-.07-.07-.08-.22-.19-.22s-.19.08-.29.12l-.07,0c-.11,0-.09.09-.05.17a1.27,1.27,0,0,0,1.29.65,1.11,1.11,0,0,0,1-.94,2.3,2.3,0,0,0,0-.45V14.59C14.18,14.22,14.18,14.23,13.81,14.22Zm-.84,2a.74.74,0,0,1-.72-.76.77.77,0,0,1,.72-.81.74.74,0,0,1,.69.79A.72.72,0,0,1,13,16.23Z"/><path class="cls-1" d="M27.12,14.15a1.17,1.17,0,0,0-.67.38s0-.08,0-.1,0-.24-.2-.21h-.11c-.11,0-.14,0-.14.13v3.26c0,.11,0,.14.14.13h.15c.15,0,.18,0,.18-.18,0-.39,0-.77,0-1.19l.08.06a1.06,1.06,0,0,0,1.53,0,1.42,1.42,0,0,0,.21-1.7A1.11,1.11,0,0,0,27.12,14.15ZM28,15.74a.77.77,0,0,1-.92.57.84.84,0,0,1-.59-.88.78.78,0,0,1,1-.82A.9.9,0,0,1,28,15.74Z"/><path class="cls-1" d="M10.16,14.15a1.31,1.31,0,1,0,0,2.61,1.3,1.3,0,0,0,1.32-1.31A1.27,1.27,0,0,0,10.16,14.15Zm0,2.08a.74.74,0,0,1-.71-.79.73.73,0,1,1,1.45,0A.74.74,0,0,1,10.13,16.23Z"/><path class="cls-1" d="M7.32,14.15a1.31,1.31,0,1,0,0,2.61,1.28,1.28,0,0,0,1.31-1.31A1.26,1.26,0,0,0,7.32,14.15Zm0,2.08a.75.75,0,0,1-.74-.77.77.77,0,0,1,.74-.8.76.76,0,0,1,.72.79A.74.74,0,0,1,7.31,16.23Z"/><path class="cls-1" d="M16.67,14.15a1.2,1.2,0,0,0-1.22,1.1,1.29,1.29,0,0,0,2.14,1.18c.27-.24.26-.23,0-.44-.14-.1-.21-.08-.33,0a.7.7,0,0,1-1,0c-.09-.1-.1-.16.05-.22.49-.19,1-.4,1.46-.6.05,0,.13,0,.1-.13A1.22,1.22,0,0,0,16.67,14.15Zm.41.81-1,.44a.68.68,0,0,1,.84-.72.51.51,0,0,1,.23.15C17.15,14.88,17.17,14.92,17.08,15Z"/><path class="cls-1" d="M25.38,14.62a1.25,1.25,0,0,0-1.91-.07s-.07.07,0,.11a1.68,1.68,0,0,0,.34.2c.08,0,.12-.11.19-.16a.7.7,0,0,1,.75-.06.52.52,0,0,1,.31.57,1.78,1.78,0,0,0-.91-.11.82.82,0,0,0-.8.77.86.86,0,0,0,.85.89.94.94,0,0,0,.84-.39c.06.32.06.32.35.31.11,0,.13,0,.13-.14V15.07A1,1,0,0,0,25.38,14.62ZM25,15.8a.8.8,0,0,1-.71.54.5.5,0,0,1-.51-.36.46.46,0,0,1,.35-.47,1.07,1.07,0,0,1,.75,0A.18.18,0,0,1,25,15.8Z"/><path class="cls-1" d="M30.37,15.42a1.48,1.48,0,0,0-.41-.17c-.18-.05-.37-.09-.55-.15a.27.27,0,0,1-.2-.23c0-.13.09-.2.19-.25a.64.64,0,0,1,.77.17.15.15,0,0,0,.22,0,.76.76,0,0,1,.16-.06c.11,0,.12-.09.06-.18a1,1,0,0,0-.91-.44,1.11,1.11,0,0,0-.68.18.64.64,0,0,0,.06,1.11,2,2,0,0,0,.41.15,2.23,2.23,0,0,1,.57.18.26.26,0,0,1,0,.49.65.65,0,0,1-.87-.21c-.1-.18-.2-.16-.33-.08l-.07,0c-.11,0-.12.08-.07.18a1.19,1.19,0,0,0,1.8.29A.66.66,0,0,0,30.37,15.42Z"/><path class="cls-1" d="M15.16,14.78V13.21c0-.37,0-.36-.37-.37-.19,0-.22.06-.22.22,0,1.08,0,2.15,0,3.22,0,.41,0,.4.4.41.16,0,.18-.06.18-.2Z"/></svg>