<svg id="Layer_1" data-name="Layer 1" xmlns="http://www.w3.org/2000/svg" viewBox="0 0 93.45 30"><defs><style>.cls-1{fill:#313d4e;}</style></defs><path class="cls-1" d="M64.37,12.13a1.69,1.69,0,0,0-1.71.48l-3.3,5.76c-.14.26-.29.52-.48.85l-.46-.75c-1.06-1.87-2.16-3.73-3.18-5.62a1.26,1.26,0,0,0-1.34-.77c-.51,0-.65.14-.65.66,0,3.36,0,6.73,0,10.09,0,1,0,1,1,1,.47,0,.53-.17.53-.57,0-2.18,0-4.35,0-6.52V15l.37.62q1.52,2.67,3.05,5.34a.74.74,0,0,0,1.34,0c.43-.75.85-1.5,1.27-2.25.7-1.22,1.4-2.44,2.09-3.66l.11,0c0,.08,0,.15,0,.22-.16,2.48-.06,5-.09,7.44,0,1.21,0,1.2,1.23,1.09.27,0,.34-.12.34-.37,0-3.65,0-7.31,0-11C64.5,12.37,64.54,12.22,64.37,12.13Z"/><path class="cls-1" d="M78.42,15.57a3.54,3.54,0,0,0-2.17,1.23,1.62,1.62,0,0,1,0-.33c.09-.53-.1-.77-.66-.67a1.53,1.53,0,0,1-.37,0c-.34,0-.46.09-.46.44,0,3.55,0,7.09,0,10.64,0,.36.13.48.47.44a2.67,2.67,0,0,1,.49,0c.48.08.58-.14.57-.59,0-1.26,0-2.53,0-3.91l.23.22a3.5,3.5,0,0,0,5,0,4.62,4.62,0,0,0,.67-5.56A3.59,3.59,0,0,0,78.42,15.57Zm2.73,5.17a2.51,2.51,0,0,1-3,1.86,2.68,2.68,0,0,1-1.92-2.86c0-1.95,1.58-3.24,3.26-2.7A3,3,0,0,1,81.15,20.74Z"/><path class="cls-1" d="M72.76,17.1c-1.11-2-5-2.12-6.26-.25-.08.12-.21.24,0,.36a4.52,4.52,0,0,0,1.11.66c.27.08.4-.35.63-.51a2.26,2.26,0,0,1,2.44-.21,1.74,1.74,0,0,1,1,1.88,5.54,5.54,0,0,0-3-.38,2.7,2.7,0,0,0-2.63,2.52,2.78,2.78,0,0,0,2.79,2.9,3,3,0,0,0,2.74-1.25c.18,1,.18,1,1.12,1,.36,0,.45-.12.45-.46,0-1.6,0-3.2,0-4.8A3.17,3.17,0,0,0,72.76,17.1Zm-1.12,3.84a2.6,2.6,0,0,1-2.34,1.77,1.61,1.61,0,0,1-1.65-1.19A1.48,1.48,0,0,1,68.81,20a3.51,3.51,0,0,1,2.45.13A.58.58,0,0,1,71.64,20.94Z"/><path class="cls-1" d="M89.06,19.69a4.83,4.83,0,0,0-1.36-.54c-.6-.16-1.19-.31-1.78-.5a.84.84,0,0,1-.66-.73c0-.43.29-.65.63-.83a2.12,2.12,0,0,1,2.52.54.48.48,0,0,0,.71.16,2.31,2.31,0,0,1,.51-.22c.36-.1.38-.27.18-.57a3.34,3.34,0,0,0-2.94-1.46,3.7,3.7,0,0,0-2.22.59,2.1,2.1,0,0,0,.2,3.65,6.13,6.13,0,0,0,1.32.48,6.79,6.79,0,0,1,1.87.59.86.86,0,0,1-.05,1.6,2.11,2.11,0,0,1-2.82-.69c-.34-.58-.65-.51-1.1-.27a1.07,1.07,0,0,1-.22.1c-.35.1-.39.26-.23.59a3.87,3.87,0,0,0,5.87.94A2.16,2.16,0,0,0,89.06,19.69Z"/><path class="cls-1" d="M13.83,17.47c-.75,0-1.51,0-2.26,0H10c-1.26,0-1.25,0-1.22,1.25,0,.31.1.41.41.41,1,0,1.92,0,2.87,0,.71,0,.71,0,.51.69a3.59,3.59,0,0,1-3.79,2.49,4.16,4.16,0,0,1-3.89-2.82,4.33,4.33,0,0,1,1.31-4.78,4.25,4.25,0,0,1,4.8-.39c.29.17.51.61.85.48s.5-.48.76-.71.28-.42,0-.67a5.71,5.71,0,0,0-5.13-1.13,5.9,5.9,0,0,0,.73,11.63,5.31,5.31,0,0,0,6.21-6C14.33,17.56,14.17,17.46,13.83,17.47Z"/><path class="cls-1" d="M37.78,16.55c-.38,0-.65,0-.57.53-1.78-1.1-3.36-.95-4.65.42a3.86,3.86,0,0,0-.35,4.86,3.62,3.62,0,0,0,2.32,1.54,2.94,2.94,0,0,0,2.67-.74,6.83,6.83,0,0,1,0,.92,1.8,1.8,0,0,1-1.3,1.67,2,2,0,0,1-2.16-.56c-.21-.2-.23-.63-.54-.63a2.85,2.85,0,0,0-.87.34l-.2.08c-.32.07-.27.24-.15.47a3.7,3.7,0,0,0,3.79,1.91,3.25,3.25,0,0,0,3-2.75,6.39,6.39,0,0,0,.12-1.31c0-1.89,0-3.78,0-5.68C38.85,16.56,38.85,16.57,37.78,16.55Zm-2.46,5.88a2.17,2.17,0,0,1-2.1-2.22,2.22,2.22,0,0,1,2.1-2.37,2.17,2.17,0,0,1,2,2.31A2.12,2.12,0,0,1,35.32,22.43Z"/><path class="cls-1" d="M27.1,16.34a3.81,3.81,0,1,0,3.8,3.8A3.75,3.75,0,0,0,27.1,16.34ZM27,22.44A2.18,2.18,0,0,1,25,20.12a2.12,2.12,0,1,1,4.22,0A2.18,2.18,0,0,1,27,22.44Z"/><path class="cls-1" d="M18.79,16.34A3.81,3.81,0,1,0,18.73,24a3.81,3.81,0,0,0,.06-7.62Zm0,6.09a2.22,2.22,0,0,1-2.15-2.26,2.26,2.26,0,0,1,2.17-2.33,2.23,2.23,0,0,1,2.11,2.31A2.19,2.19,0,0,1,18.75,22.43Z"/><path class="cls-1" d="M46.13,16.34a3.53,3.53,0,0,0-3.58,3.22A3.8,3.8,0,0,0,48.84,23c.76-.7.74-.67-.1-1.29-.41-.31-.62-.26-1,.1a2,2,0,0,1-3-.07c-.25-.3-.3-.47.15-.65,1.43-.56,2.85-1.16,4.27-1.76.16-.06.39-.05.29-.39A3.55,3.55,0,0,0,46.13,16.34Zm1.21,2.36L44.25,20a2,2,0,0,1,2.47-2.09,1.41,1.41,0,0,1,.68.44C47.53,18.49,47.6,18.6,47.34,18.7Z"/><path class="cls-1" d="M41.72,18.18V13.61c0-1.1,0-1.06-1.1-1.11-.54,0-.62.19-.62.66,0,3.14,0,6.28,0,9.42,0,1.17,0,1.15,1.18,1.18.47,0,.54-.16.54-.57C41.71,21.52,41.72,19.85,41.72,18.18Z"/></svg>