<svg id="Layer_1" data-name="Layer 1" xmlns="http://www.w3.org/2000/svg" viewBox="0 0 32 30"><defs><style>.cls-1{fill:#313d4e;}</style></defs><path class="cls-1" d="M11.21,16a1.1,1.1,0,0,0-1.12.32c-.73,1.27-1.46,2.53-2.18,3.8l-.32.56c-.12-.2-.22-.35-.3-.5-.71-1.23-1.43-2.45-2.1-3.7a.83.83,0,0,0-.89-.51c-.33,0-.43.09-.43.43,0,2.22,0,4.44,0,6.66,0,.67,0,.65.67.67.31,0,.35-.11.34-.38,0-1.43,0-2.87,0-4.3V17.85c.09.16.17.28.24.41l2,3.52a.48.48,0,0,0,.88,0l.84-1.48,1.38-2.42.07,0c0,.05,0,.1,0,.14-.11,1.64,0,3.28-.06,4.91,0,.8,0,.79.81.72.18,0,.22-.08.22-.24V16.2C11.3,16.11,11.33,16,11.21,16Z"/><path class="cls-1" d="M20.48,18.22a2.4,2.4,0,0,0-1.43.81,1,1,0,0,1,0-.21c.06-.35-.07-.51-.43-.45a.7.7,0,0,1-.25,0c-.22,0-.3.06-.3.3q0,3.51,0,7c0,.24.09.32.31.3a1.14,1.14,0,0,1,.32,0c.32.05.39-.1.38-.39,0-.84,0-1.68,0-2.58a.85.85,0,0,1,.16.14,2.31,2.31,0,0,0,3.31,0A3.05,3.05,0,0,0,23,19.47,2.36,2.36,0,0,0,20.48,18.22Zm1.81,3.42a1.66,1.66,0,0,1-2,1.22A1.77,1.77,0,0,1,19,21a1.69,1.69,0,0,1,2.15-1.78A2,2,0,0,1,22.29,21.64Z"/><path class="cls-1" d="M16.75,19.23a2.72,2.72,0,0,0-4.13-.16c-.06.08-.14.16,0,.24a3.41,3.41,0,0,0,.73.43c.18.05.27-.23.42-.33a1.46,1.46,0,0,1,1.61-.14A1.14,1.14,0,0,1,16,20.51a3.59,3.59,0,0,0-2-.25,1.77,1.77,0,0,0-1.74,1.66,1.84,1.84,0,0,0,1.84,1.91A2,2,0,0,0,16,23c.12.69.12.68.74.67.24,0,.3-.07.3-.3,0-1.06,0-2.11,0-3.17A2.07,2.07,0,0,0,16.75,19.23ZM16,21.76a1.72,1.72,0,0,1-1.54,1.18,1.09,1.09,0,0,1-1.1-.79,1,1,0,0,1,.77-1,2.32,2.32,0,0,1,1.62.08A.39.39,0,0,1,16,21.76Z"/><path class="cls-1" d="M27.51,20.94a3.6,3.6,0,0,0-.91-.36c-.39-.1-.78-.2-1.17-.33a.54.54,0,0,1-.43-.48c0-.28.19-.43.41-.54a1.39,1.39,0,0,1,1.66.35c.16.2.28.21.47.11a2.07,2.07,0,0,1,.34-.15c.24-.06.25-.18.12-.37a2.18,2.18,0,0,0-1.94-1,2.45,2.45,0,0,0-1.47.39A1.39,1.39,0,0,0,24.72,21a4,4,0,0,0,.88.32,4.52,4.52,0,0,1,1.23.39.56.56,0,0,1,0,1.05,1.39,1.39,0,0,1-1.86-.45c-.23-.39-.43-.34-.73-.18a.52.52,0,0,1-.15.07c-.22.06-.25.17-.14.38a2.54,2.54,0,0,0,3.87.62A1.43,1.43,0,0,0,27.51,20.94Z"/><path class="cls-1" d="M7.87,10.79c-.5,0-1,0-1.51,0H5.29c-.85,0-.84,0-.82.83,0,.21.07.28.28.28.64,0,1.28,0,1.92,0,.47,0,.47,0,.34.47A2.42,2.42,0,0,1,4.47,14a2.78,2.78,0,0,1-2.6-1.89,2.91,2.91,0,0,1,.87-3.2A2.88,2.88,0,0,1,6,8.68c.19.12.34.41.57.32s.33-.32.51-.47.18-.28,0-.45a3.83,3.83,0,0,0-3.44-.75,3.94,3.94,0,0,0,.49,7.77,3.54,3.54,0,0,0,4.15-4C8.21,10.85,8.1,10.78,7.87,10.79Z"/><path class="cls-1" d="M23.89,10.18c-.25,0-.43,0-.38.35a2.24,2.24,0,0,0-3.11.28,2.6,2.6,0,0,0-.24,3.25,2.43,2.43,0,0,0,1.56,1,2,2,0,0,0,1.78-.5,4.24,4.24,0,0,1,0,.62,1.22,1.22,0,0,1-.87,1.12A1.36,1.36,0,0,1,21.18,16c-.13-.13-.15-.42-.36-.41a1.81,1.81,0,0,0-.58.22l-.13.05c-.22,0-.18.17-.11.32a2.5,2.5,0,0,0,2.54,1.28,2.19,2.19,0,0,0,2-1.84,4.37,4.37,0,0,0,.08-.88c0-1.27,0-2.53,0-3.8C24.61,10.18,24.61,10.19,23.89,10.18Zm-1.64,3.93a1.45,1.45,0,0,1-1.41-1.49A1.48,1.48,0,0,1,22.24,11a1.45,1.45,0,0,1,1.36,1.54A1.42,1.42,0,0,1,22.25,14.11Z"/><path class="cls-1" d="M16.74,10a2.5,2.5,0,0,0-2.59,2.52,2.57,2.57,0,0,0,5.14,0A2.5,2.5,0,0,0,16.74,10Zm0,4.07a1.44,1.44,0,0,1-1.39-1.54,1.41,1.41,0,1,1,2.82,0A1.45,1.45,0,0,1,16.7,14.11Z"/><path class="cls-1" d="M11.19,10a2.55,2.55,0,1,0,0,5.09,2.55,2.55,0,1,0,0-5.09Zm0,4.07a1.5,1.5,0,0,1-1.44-1.52A1.51,1.51,0,0,1,11.17,11a1.49,1.49,0,0,1,1.42,1.54A1.47,1.47,0,0,1,11.16,14.11Z"/><path class="cls-1" d="M29.48,10a2.35,2.35,0,0,0-2.39,2.15,2.54,2.54,0,0,0,4.2,2.31c.51-.47.49-.45-.06-.86-.28-.21-.42-.17-.65.07a1.37,1.37,0,0,1-2-.05c-.17-.2-.21-.32.09-.43,1-.38,1.91-.78,2.86-1.18.11-.05.26,0,.2-.26A2.38,2.38,0,0,0,29.48,10Zm.81,1.57-2.07.86a1.33,1.33,0,0,1,1.65-1.39.93.93,0,0,1,.46.29C30.41,11.47,30.46,11.54,30.29,11.61Z"/><path class="cls-1" d="M26.53,11.26v-3c0-.74,0-.71-.74-.74-.36,0-.41.12-.41.44,0,2.1,0,4.2,0,6.3,0,.78,0,.77.8.79.31,0,.35-.11.35-.38C26.52,13.5,26.53,12.38,26.53,11.26Z"/></svg>