<svg id="Layer_1" data-name="Layer 1" xmlns="http://www.w3.org/2000/svg" viewBox="0 0 82.45 30"><defs><style>.cls-1{fill:#313d4e;}</style></defs><path class="cls-1" d="M33.6,18.51c.06-.18.11-.35.16-.52q.74-2.34,1.45-4.66a1.69,1.69,0,0,1,.72-1,1.45,1.45,0,0,1,.73-.22,1.84,1.84,0,0,1,.9.14,1.55,1.55,0,0,1,.83,1c.33,1,.65,2.09,1,3.14l.66,2.1,0,.11c0-.06,0-.1,0-.14.53-1.71,1-3.42,1.58-5.13a1.61,1.61,0,0,1,.65-.94,1.38,1.38,0,0,1,2.12.9,1.59,1.59,0,0,1-.09.86q-1.3,3.74-2.63,7.47a2.12,2.12,0,0,1-.55.86,1.56,1.56,0,0,1-1,.38,1.67,1.67,0,0,1-1.14-.31,1.88,1.88,0,0,1-.64-1l-1.59-5.06a.59.59,0,0,1,0-.13c-.09.28-.18.54-.26.8-.47,1.47-.94,2.94-1.4,4.41a1.89,1.89,0,0,1-.7,1,1.44,1.44,0,0,1-.8.26,1.68,1.68,0,0,1-1-.19,1.82,1.82,0,0,1-.8-1c-.44-1.24-.87-2.49-1.3-3.74l-1.26-3.64a2.26,2.26,0,0,1-.15-.72,1.33,1.33,0,0,1,1.14-1.36A1.46,1.46,0,0,1,32,13.28q.78,2.57,1.55,5.13l0,.09Z"/><path class="cls-1" d="M66.18,18.45c0,.08,0,.15,0,.21a2.36,2.36,0,0,0,1.36,1.62,3,3,0,0,0,1.55.19,3.33,3.33,0,0,0,1.7-.7,1.22,1.22,0,0,1,1.36,0,1.18,1.18,0,0,1,.07,1.84,5.15,5.15,0,0,1-2.69,1.17,6,6,0,0,1-2.76-.22,4.91,4.91,0,0,1-3.4-3.71,5.74,5.74,0,0,1,.52-4.16,4.83,4.83,0,0,1,3.49-2.56,5,5,0,0,1,3.75.7,4.82,4.82,0,0,1,1.89,2.44A5,5,0,0,1,73.39,17a1.32,1.32,0,0,1-.69,1.25,1.41,1.41,0,0,1-.73.17H66.18Zm0-1.84h4.44c0-.08,0-.16,0-.23s-.09-.36-.15-.54a2.09,2.09,0,0,0-2.71-1.33A2.47,2.47,0,0,0,66.15,16.61Z"/><path class="cls-1" d="M50.93,16.71a1.84,1.84,0,0,0-.63-1.64,1.9,1.9,0,0,0-1-.39,6.46,6.46,0,0,0-2.69.26,1.21,1.21,0,0,1-.82-2.27,7.16,7.16,0,0,1,1.65-.43,10.41,10.41,0,0,1,2.3-.1,5.34,5.34,0,0,1,2,.49,3.4,3.4,0,0,1,1.8,2.12,6.18,6.18,0,0,1,.25,1.86v4.68a1.41,1.41,0,0,1-.89,1.34,1.53,1.53,0,0,1-1.63-.34,1.17,1.17,0,0,1-.32-.69.41.41,0,0,0,0-.1l-.08.08a3.89,3.89,0,0,1-2.39,1.19,4.69,4.69,0,0,1-2.17-.21,3,3,0,0,1-1.83-1.69,3.29,3.29,0,0,1-.23-1.21,3.49,3.49,0,0,1,.32-1.56,2.91,2.91,0,0,1,1.32-1.3,5.06,5.06,0,0,1,1.74-.47,7.86,7.86,0,0,1,1.68,0,7.61,7.61,0,0,1,1.49.32ZM49.1,18a3,3,0,0,0-1.19.2,1.3,1.3,0,0,0-.82,1.61,1.13,1.13,0,0,0,.87.83,2.73,2.73,0,0,0,2.21-.3,1.54,1.54,0,0,0,.75-1.07,6.16,6.16,0,0,0,0-.75c0-.11,0-.15-.13-.18A4.73,4.73,0,0,0,49.1,18Z"/><path class="cls-1" d="M22.34,22.25a1.94,1.94,0,0,1-.5,2.12l.27.05a4.58,4.58,0,0,1,.53.14c.09,0,.2.06.2.17s-.11.15-.19.17a4.67,4.67,0,0,1-.74.17,8.63,8.63,0,0,1-2.27,0,4.43,4.43,0,0,1-.72-.17c-.09,0-.19-.06-.19-.17s.1-.14.18-.17l.39-.13a2,2,0,0,1-.69-1.4H15.83a2,2,0,0,1-.66,1.37l.34.07a2.13,2.13,0,0,1,.35.14c.13.07.13.17,0,.25a2.16,2.16,0,0,1-.7.2,9.33,9.33,0,0,1-2.42,0A4.32,4.32,0,0,1,12,24.9c-.08,0-.19-.06-.19-.17s.11-.14.19-.17l.53-.14.07,0a2,2,0,0,1-.56-2.07l-.49-.19a7.52,7.52,0,0,1-3.14-2.38,1,1,0,0,1,.76-1.57l.36,0a.86.86,0,0,0,.7-.56,3.16,3.16,0,0,0,.25-1c.07-.63.11-1.26.18-1.89a6.26,6.26,0,0,1,1.6-3.63A8.48,8.48,0,0,1,21.38,8.8,8,8,0,0,1,24.75,11a6.72,6.72,0,0,1,1.71,3.35,6.82,6.82,0,0,1-1.65,6,7.81,7.81,0,0,1-2.39,1.83ZM9.19,19.16l.08.1a6.74,6.74,0,0,0,3.28,2.22.12.12,0,0,0,.13,0A1.83,1.83,0,0,1,13.86,21a1.88,1.88,0,0,1,1.71,1,.16.16,0,0,0,.14.08c.2,0,.4,0,.61,0h2.39a.14.14,0,0,0,.14-.09,1.93,1.93,0,0,1,2.84-.59.15.15,0,0,0,.17,0,7.22,7.22,0,0,0,1.37-.87A6,6,0,0,0,25.63,16a5.57,5.57,0,0,0-.86-3.3,7.12,7.12,0,0,0-5.89-3.38,6.76,6.76,0,0,0-2.44.32A7.26,7.26,0,0,0,12.84,12a5.15,5.15,0,0,0-1.18,2.71c-.07.61-.11,1.22-.17,1.83a4.89,4.89,0,0,1-.32,1.41,1.81,1.81,0,0,1-1.3,1.16A4.84,4.84,0,0,1,9.19,19.16Z"/><path class="cls-1" d="M58,20.24h4.24a1.19,1.19,0,1,1,.11,2.37c-.72,0-1.44,0-2.17,0H55.69a1.68,1.68,0,0,1-.93-.24,1.1,1.1,0,0,1-.54-1,1.72,1.72,0,0,1,.44-1.21c.29-.34.58-.66.88-1,1.36-1.5,2.72-3,4.07-4.49l.1-.12H55.63A1.17,1.17,0,0,1,54.57,14a1.19,1.19,0,0,1,.82-1.78.93.93,0,0,1,.23,0H62a1.64,1.64,0,0,1,1,.29,1.08,1.08,0,0,1,.46.88A1.86,1.86,0,0,1,63,14.77l-2.07,2.28-2.83,3.11Z"/><path class="cls-1" d="M18.22,19a3.39,3.39,0,0,1-2.69-1.3,2.44,2.44,0,0,1-.52-1.2.48.48,0,0,1,.38-.56.47.47,0,0,1,.56.39A1.84,1.84,0,0,0,17,17.75a2.8,2.8,0,0,0,3-.3,1.87,1.87,0,0,0,.62-1,.48.48,0,1,1,.92.25,2.82,2.82,0,0,1-1.14,1.61A4,4,0,0,1,18.22,19Z"/><path class="cls-1" d="M20.46,13a.92.92,0,1,1-.92.92A.92.92,0,0,1,20.46,13Z"/><path class="cls-1" d="M16,15a.93.93,0,1,1,.92-.93A.92.92,0,0,1,16,15Z"/></svg>