<svg id="Layer_1" data-name="Layer 1" xmlns="http://www.w3.org/2000/svg" viewBox="0 0 32 30"><defs><style>.cls-1{fill:#313d4e;}</style></defs><path class="cls-1" d="M23.65,6.42l-4.77,5.66-.34.34h0a7.44,7.44,0,0,1-.93,1.09h0c-1.38,1.66-2.75,3.32-4.13,5L11.2,21.19c.1.15.19.31.3.45a15.78,15.78,0,0,1,2.89,5.46,2.37,2.37,0,0,0,.25.62.83.83,0,0,0,1.45,0,1.75,1.75,0,0,0,.23-.5,18.35,18.35,0,0,1,3.73-6.64,26,26,0,0,0,3.66-5.23A10,10,0,0,0,23.65,6.42Z"/><path class="cls-1" d="M17.61,13.51h0a3.65,3.65,0,0,1-3.12.65,3.53,3.53,0,0,1-2.33-4.93l.15-.35h0c-1,1.12-1.93,2.24-2.89,3.37-.82.95-1.64,1.9-2.45,2.86H7c.11.25.21.52.34.76a36.4,36.4,0,0,0,3.91,5.32l2.28-2.71C14.86,16.83,16.23,15.17,17.61,13.51Z"/><path class="cls-1" d="M16.91,3.33c-1.16,1.41-2.36,2.79-3.54,4.19a1.55,1.55,0,0,0-.19.36h0a3.85,3.85,0,0,1,2.63-.67,3.53,3.53,0,0,1,2.8,5c0,.08-.05.16-.07.23h0l.34-.34,4.77-5.66a9.11,9.11,0,0,0-5.6-4.63h0A4.94,4.94,0,0,1,16.91,3.33Z"/><path class="cls-1" d="M12.29,8.88l0,0,.33-.44L8.25,4.72h0A9.77,9.77,0,0,0,7,15.11H7c.81-1,1.63-1.91,2.45-2.86C10.36,11.12,11.33,10,12.29,8.88Z"/><path class="cls-1" d="M13.17,7.9v0a1.55,1.55,0,0,1,.19-.36c1.18-1.4,2.38-2.78,3.54-4.19a4.94,4.94,0,0,0,1.14-1.54h0a9.25,9.25,0,0,0-9.8,2.93h0l4.4,3.68Z"/></svg>