<svg id="Layer_1" data-name="Layer 1" xmlns="http://www.w3.org/2000/svg" viewBox="0 0 32 30"><defs><style>.cls-1{fill:#fff;}</style></defs><path class="cls-1" d="M6.73,25.87c0-.1.07-.2.1-.3L7.64,23a.92.92,0,0,1,.41-.57.73.73,0,0,1,.41-.12,1.11,1.11,0,0,1,.51.07.88.88,0,0,1,.46.54c.19.59.38,1.18.56,1.78l.37,1.18,0,.06,0-.08c.3-1,.59-1.93.89-2.89a.9.9,0,0,1,.36-.53.78.78,0,0,1,1.2.51.87.87,0,0,1,0,.48c-.49,1.41-1,2.81-1.48,4.22a1.19,1.19,0,0,1-.32.48.82.82,0,0,1-.54.22.92.92,0,0,1-.64-.18,1.09,1.09,0,0,1-.36-.55l-.9-2.86s0,0,0-.08c0,.16-.09.31-.14.46-.27.83-.53,1.65-.79,2.48a1.08,1.08,0,0,1-.4.58.77.77,0,0,1-.45.14,1,1,0,0,1-.55-.1,1,1,0,0,1-.45-.57L5,25.5c-.23-.68-.47-1.37-.71-2.05A1.42,1.42,0,0,1,4.23,23a.74.74,0,0,1,.64-.76.81.81,0,0,1,1,.64c.29,1,.58,1.93.88,2.9v.05Z"/><path class="cls-1" d="M25.12,25.84l0,.12a1.32,1.32,0,0,0,.76.91,1.76,1.76,0,0,0,.88.11,1.87,1.87,0,0,0,1-.4.7.7,0,0,1,.77,0,.66.66,0,0,1,0,1,2.83,2.83,0,0,1-1.51.66,3.3,3.3,0,0,1-1.56-.12,2.79,2.79,0,0,1-1.92-2.1,3.18,3.18,0,0,1,.3-2.34,2.69,2.69,0,0,1,2-1.45,2.88,2.88,0,0,1,2.12.39A2.9,2.9,0,0,1,29.19,25a.75.75,0,0,1-.39.7.86.86,0,0,1-.41.1H25.12Zm0-1h2.51c0-.05,0-.09,0-.13s-.05-.2-.09-.3A1.18,1.18,0,0,0,26,23.61,1.41,1.41,0,0,0,25.1,24.8Z"/><path class="cls-1" d="M16.51,24.86a1,1,0,0,0-.35-.93,1.09,1.09,0,0,0-.56-.22,3.55,3.55,0,0,0-1.52.15.69.69,0,0,1-.84-.36.67.67,0,0,1,.37-.92,4.26,4.26,0,0,1,.93-.25,6.29,6.29,0,0,1,1.3,0,3,3,0,0,1,1.11.27,1.92,1.92,0,0,1,1,1.2,3.38,3.38,0,0,1,.15,1.05v2.64a.81.81,0,0,1-.51.76.89.89,0,0,1-.92-.19.7.7,0,0,1-.18-.39v-.06l-.05,0a2.13,2.13,0,0,1-1.35.67,2.64,2.64,0,0,1-1.22-.11,1.66,1.66,0,0,1-1.16-1.64,1.79,1.79,0,0,1,.18-.88,1.59,1.59,0,0,1,.74-.73,2.81,2.81,0,0,1,1-.27,5,5,0,0,1,1,0,3.93,3.93,0,0,1,.84.18Zm-1,.75a1.68,1.68,0,0,0-.67.11.72.72,0,0,0-.46.91.65.65,0,0,0,.49.47,1.61,1.61,0,0,0,1.25-.17.9.9,0,0,0,.42-.61c0-.13,0-.28,0-.42s0-.08-.08-.11A2.7,2.7,0,0,0,15.48,25.61Z"/><path class="cls-1" d="M20.49,26.85h2.39A.67.67,0,1,1,23,28.19H19.2a.9.9,0,0,1-.53-.14.63.63,0,0,1-.3-.53,1,1,0,0,1,.25-.69l.49-.56,2.3-2.53.06-.07H19.16a.65.65,0,0,1-.59-.32.68.68,0,0,1,.46-1h3.74a1,1,0,0,1,.57.16.63.63,0,0,1,.26.5,1,1,0,0,1-.31.77l-1.16,1.29c-.54.58-1.07,1.17-1.6,1.75Z"/><path class="cls-1" d="M21.07,17.75a2,2,0,0,1-.51,2.16l.28.05a5.36,5.36,0,0,1,.54.14c.09,0,.2.07.2.18s-.11.15-.2.18-.49.13-.75.17a8.93,8.93,0,0,1-2.31,0,5.93,5.93,0,0,1-.73-.16c-.09,0-.2-.07-.2-.18s.11-.14.19-.18L18,20a2,2,0,0,1-.71-1.42H14.45a2,2,0,0,1-.68,1.39l.34.08a1.55,1.55,0,0,1,.36.13c.14.07.13.18,0,.26a2.15,2.15,0,0,1-.71.2,8.81,8.81,0,0,1-2.46,0,4.55,4.55,0,0,1-.73-.17c-.08,0-.19-.06-.19-.18s.11-.14.19-.16l.54-.15.07,0a2,2,0,0,1-.57-2.1l-.49-.2a7.59,7.59,0,0,1-3.2-2.42,1,1,0,0,1-.13-1.05,1,1,0,0,1,.9-.56,2.22,2.22,0,0,0,.37,0A.89.89,0,0,0,8.77,13,3,3,0,0,0,9,12c.07-.64.12-1.28.18-1.92a6.42,6.42,0,0,1,1.64-3.7A8.42,8.42,0,0,1,14,4.22a8.64,8.64,0,0,1,2.45-.61,8.43,8.43,0,0,1,3.66.45,8.23,8.23,0,0,1,3.44,2.27,7.07,7.07,0,0,1,.06,9.5,8.19,8.19,0,0,1-2.43,1.87ZM7.68,14.61l.08.1A6.87,6.87,0,0,0,11.1,17a.12.12,0,0,0,.13,0,1.85,1.85,0,0,1,1.21-.45,2,2,0,0,1,1.74,1,.14.14,0,0,0,.14.09c.21,0,.41,0,.62,0h2.44c.07,0,.1,0,.14-.09a2,2,0,0,1,2.89-.61.12.12,0,0,0,.17,0A7,7,0,0,0,22,16a6.16,6.16,0,0,0,2.44-4.67A5.68,5.68,0,0,0,23.54,8a7.23,7.23,0,0,0-6-3.44,6.91,6.91,0,0,0-2.48.32A7.48,7.48,0,0,0,11.4,7.26,5.25,5.25,0,0,0,10.2,10c-.07.62-.11,1.25-.18,1.87a5.09,5.09,0,0,1-.32,1.44,1.88,1.88,0,0,1-1.33,1.18C8.15,14.56,7.92,14.58,7.68,14.61Z"/><path class="cls-1" d="M16.88,14.48a3.46,3.46,0,0,1-2.75-1.33,2.62,2.62,0,0,1-.53-1.23.5.5,0,0,1,.4-.56.47.47,0,0,1,.56.39,1.86,1.86,0,0,0,1.1,1.42,2.85,2.85,0,0,0,3.11-.31,1.85,1.85,0,0,0,.63-1,.49.49,0,0,1,.6-.36.48.48,0,0,1,.34.61,2.83,2.83,0,0,1-1.17,1.64A4,4,0,0,1,16.88,14.48Z"/><path class="cls-1" d="M19.15,8.35a.94.94,0,1,1-.93.93A.92.92,0,0,1,19.15,8.35Z"/><path class="cls-1" d="M14.66,10.37a.94.94,0,1,1,.94-.94A.95.95,0,0,1,14.66,10.37Z"/></svg>