<svg id="Layer_1" data-name="Layer 1" xmlns="http://www.w3.org/2000/svg" viewBox="0 0 32 30"><defs><style>.cls-1{fill:none;}.cls-2{fill:#fcfcfc;}.cls-3{fill:#fff;}</style></defs><path class="cls-1" d="M18.61,12.18a3.53,3.53,0,0,0-2.8-5,3.85,3.85,0,0,0-2.63.67h0v0l-.52.5-.33.44,0,0h0l-.15.35a3.53,3.53,0,0,0,2.33,4.93,3.65,3.65,0,0,0,3.12-.65h0a7.44,7.44,0,0,0,.93-1.09h0C18.56,12.34,18.58,12.26,18.61,12.18Z"/><path class="cls-2" d="M15.37,27.65a.36.36,0,0,1-.3-.19,2.18,2.18,0,0,1-.2-.49,16.22,16.22,0,0,0-3-5.63,1,1,0,0,0-.08-.11l.45-.53,1.59-1.9c1-1.19,4.14-5,4.14-5a7.24,7.24,0,0,0,.94-1.12l0,0a2.29,2.29,0,0,0,.27-.27l4.26-5.06a9.39,9.39,0,0,1-.27,7.81,19.31,19.31,0,0,1-2.83,4.17l-.76.95a18.72,18.72,0,0,0-3.82,6.83,1.86,1.86,0,0,1-.17.36A.38.38,0,0,1,15.37,27.65Z"/><path class="cls-3" d="M23.35,8.33a9,9,0,0,1-.56,6.61A18.74,18.74,0,0,1,20,19l-.76.95a19.32,19.32,0,0,0-3.9,6.94s0,0,0-.06a16.36,16.36,0,0,0-2.89-5.59l.21-.26c.53-.62,1.06-1.24,1.58-1.87l2.94-3.53,1.15-1.39a7.86,7.86,0,0,0,.95-1.12l0,0a3.11,3.11,0,0,0,.31-.32l3.71-4.39m.3-1.91-4.77,5.66-.34.34h0a7.44,7.44,0,0,1-.93,1.09h0c-1.38,1.66-2.75,3.32-4.13,5L11.2,21.19c.1.15.19.31.3.45a15.78,15.78,0,0,1,2.89,5.46,2.37,2.37,0,0,0,.25.62.87.87,0,0,0,.73.43.83.83,0,0,0,.72-.43,1.75,1.75,0,0,0,.23-.5,18.35,18.35,0,0,1,3.73-6.64,26,26,0,0,0,3.66-5.23,10,10,0,0,0-.06-8.93Z"/><path class="cls-2" d="M11,20.12a30,30,0,0,1-3.24-4.49,4.14,4.14,0,0,1-.2-.43l3.8-4.43a4,4,0,0,0,.38,1.7,4.15,4.15,0,0,0,3.68,2.31,5.27,5.27,0,0,0,.56,0L13.1,18.16c-.53.64-1.06,1.26-1.6,1.89l-.29.36Z"/><path class="cls-3" d="M11,11.94a4.16,4.16,0,0,0,.28.74,4.56,4.56,0,0,0,3,2.44,3.78,3.78,0,0,0,.64.12l-2.16,2.6-1.5,1.79a28.25,28.25,0,0,1-3-4.24l-.06-.11L8.4,15l1.75-2,.83-1m1.31-3.06c-1,1.12-1.93,2.24-2.89,3.37-.82.95-1.64,1.9-2.45,2.86H7c.11.25.21.52.34.76a36.4,36.4,0,0,0,3.91,5.32l2.28-2.71c1.38-1.65,2.75-3.31,4.13-5h0a3.8,3.8,0,0,1-2.22.77,3.6,3.6,0,0,1-.9-.12,3.53,3.53,0,0,1-2.33-4.93l.15-.35Z"/><path class="cls-2" d="M19.41,10.67a3.9,3.9,0,0,0-.5-1.92,4.17,4.17,0,0,0-3-2,3.88,3.88,0,0,0-.57,0,3.3,3.3,0,0,0-.64.07c.11-.13.21-.26.32-.38.77-.9,1.54-1.8,2.29-2.71a3.8,3.8,0,0,1,.33-.37,5.18,5.18,0,0,0,.69-.87,8.53,8.53,0,0,1,4.72,4Z"/><path class="cls-3" d="M18.52,3a7.85,7.85,0,0,1,3.91,3.3L22,6.84c-.74.89-1.49,1.77-2.23,2.65a4.23,4.23,0,0,0-.41-1A4.65,4.65,0,0,0,16,6.23l-.18,0c.63-.74,1.26-1.48,1.88-2.24L18,3.62A6.83,6.83,0,0,0,18.52,3m-.47-1.22h0a4.94,4.94,0,0,1-1.14,1.54c-1.16,1.41-2.36,2.79-3.54,4.19a1.55,1.55,0,0,0-.19.36h0a4.34,4.34,0,0,1,2.15-.72,2.61,2.61,0,0,1,.48,0,3.53,3.53,0,0,1,2.8,5c0,.08-.05.16-.07.23h0l.34-.34,4.77-5.66a9.11,9.11,0,0,0-5.6-4.63Z"/><path class="cls-2" d="M7.08,14.18A9.41,9.41,0,0,1,8.31,5.42L12,8.48l-.05.07L9,11.92Z"/><path class="cls-3" d="M8.39,6.14,10.64,8l.62.52-.57.67-2,2.39L7.28,13.18a9,9,0,0,1,1.11-7M8.25,4.72h0A9.77,9.77,0,0,0,7,15.11H7c.81-1,1.63-1.91,2.45-2.86,1-1.13,1.93-2.25,2.89-3.37l0,0,.33-.44L8.25,4.72Z"/><path class="cls-2" d="M9,4.66a8.89,8.89,0,0,1,8.36-2.55,4.75,4.75,0,0,1-.42.49,4.72,4.72,0,0,0-.37.41c-.75.91-1.51,1.8-2.28,2.7L13,7.2a1.22,1.22,0,0,0-.21.38l0,0-.12.13Z"/><path class="cls-3" d="M15.4,2.39a7.46,7.46,0,0,1,1,.06l-.21.24c-.75.91-1.51,1.8-2.27,2.69L12.6,6.87,12.52,7,12,6.53,9.69,4.62A8.32,8.32,0,0,1,15.4,2.39m0-1A9.16,9.16,0,0,0,8.25,4.72h0l4.4,3.68.52-.5v0a1.55,1.55,0,0,1,.19-.36c1.18-1.4,2.38-2.78,3.54-4.19a4.94,4.94,0,0,0,1.14-1.54h0a8.82,8.82,0,0,0-2.65-.4Z"/></svg>