<svg id="Layer_1" data-name="Layer 1" xmlns="http://www.w3.org/2000/svg" viewBox="0 0 99.63 100.28"><defs><style>.cls-1{fill:#213245;}</style></defs><path class="cls-1" d="M51.52,26.42A1.65,1.65,0,0,0,51.36,24,1.68,1.68,0,1,0,49,26.34,1.65,1.65,0,0,0,51.52,26.42Z"/><path class="cls-1" d="M39.17,23.62A1.64,1.64,0,0,0,39,21.15a1.68,1.68,0,1,0-2.33,2.39A1.64,1.64,0,0,0,39.17,23.62Z"/><path class="cls-1" d="M3.2,55.35l-.51.52,2.63,2.56.51-.52a1.68,1.68,0,0,0,0-2.6A1.69,1.69,0,0,0,3.2,55.35Z"/><polygon class="cls-1" points="38.06 38.88 39.14 37.76 36.94 36.71 38.06 38.88"/><path class="cls-1" d="M12.18,61.59a1.63,1.63,0,0,0,.15,2.48,1.68,1.68,0,1,0,2.33-2.39A1.64,1.64,0,0,0,12.18,61.59Z"/><path class="cls-1" d="M54.29,4.19a.67.67,0,0,0,0-1,.69.69,0,1,0-.95,1A.66.66,0,0,0,54.29,4.19Z"/><path class="cls-1" d="M47.48,0,0,48.8v51.48L99.63,0Zm4.86,2.81a1.3,1.3,0,0,1,1.06-.46l-.28-.27.81-.84L56.2,3.47l-.81.84L55.12,4a1.28,1.28,0,0,1-.42,1,1.51,1.51,0,0,1-2.23,0A1.5,1.5,0,0,1,52.34,2.83ZM50.57,4.41,55.28,9l-1.12,1.15L50.48,6.56l-.62.63-1-1Zm-6.32,6.85,4.61.89L46.05,9.42l1.07-1.11,4.53,4.41-1.07,1.1L46,13l2.79,2.72-1.07,1.1-4.53-4.41ZM39.16,41.05,38,42.2l-2.94-6,1.25-1.28,6.12,2.77-1.14,1.16-1.06-.5L38.63,40Zm-2.54,2.61-1.07,1.1L31.9,41.21l-1.17,1.2-.88-.86,3.41-3.5.88.86L33,40.11Zm6.45-15.79a2.93,2.93,0,0,1,3.67-.61l-1.18,1.22a1.38,1.38,0,0,0-1.5.38,1.83,1.83,0,0,0,2.61,2.53A1.4,1.4,0,0,0,47,29.88l1.18-1.21a2.93,2.93,0,0,1-.51,3.69,3.22,3.22,0,0,1-4.61-4.49Zm4.87-.4a3.24,3.24,0,1,1,4.59-.07A3.16,3.16,0,0,1,47.94,27.47ZM42.48,13.08l.89.86-1.63,1.67.92.89L44.1,15l.85.82-1.44,1.48,1,1,1.63-1.67.88.86-2.69,2.77-4.54-4.41Zm-6.94,7a3.24,3.24,0,1,1,.05,4.58A3.16,3.16,0,0,1,35.54,20.09ZM33,22.85l.89.86-1.17,1.2,3.65,3.54-1.08,1.11L31.63,26l-1.17,1.2-.89-.86Zm-6.81,7,4.6.89L28,28,29,26.9l4.53,4.41-1.08,1.1-4.59-.87,2.8,2.72-1.08,1.1L25.09,31ZM24.4,31.67l.88.86L23.66,34.2l.91.89L26,33.62l.85.83-1.44,1.47,1,1L28,35.22l.89.86-2.7,2.77-4.53-4.4Zm-6.07,6.24L21,40.55A1.11,1.11,0,1,0,22.58,39l-2.71-2.64L21,35.22l2.7,2.63a2.48,2.48,0,0,1,0,3.74,2.42,2.42,0,0,1-3.69,0L17.26,39Zm-3.86,3.86a2.94,2.94,0,0,1,3.68-.61L17,42.38a1.38,1.38,0,0,0-1.5.38,1.61,1.61,0,0,0,.19,2.41,1.63,1.63,0,0,0,2.42.13,1.42,1.42,0,0,0,.34-1.52l1.18-1.21a2.93,2.93,0,0,1-.51,3.69,3.07,3.07,0,0,1-4.52,0A3.06,3.06,0,0,1,14.47,41.77Zm-4.41,4.51c1-1,2.1-1.18,3-.38l-1.16,1.19a.69.69,0,0,0-1,.07.55.55,0,0,0,0,.86c.79.77,2.61-1.81,4.13-.34a2,2,0,0,1-.22,3c-.94,1-2.17,1.26-3.12.4l1.14-1.17a.73.73,0,0,0,1.07-.06c.31-.32.35-.69.09-.94-.84-.82-2.6,1.89-4.19.31C8.93,48.39,9.14,47.23,10.06,46.28ZM7.94,48.59l.88.86L7.2,51.12l.91.89,1.44-1.47.85.83L9,52.84l1,1,1.62-1.67.89.86-2.7,2.77-4.53-4.4ZM.68,56.06l1.65-1.7a3,3,0,0,1,4.57-.17,3.07,3.07,0,0,1,0,4.58L5.2,60.46ZM11,70.09a3.07,3.07,0,0,1-4.52,0,3.07,3.07,0,0,1-.09-4.52A2.94,2.94,0,0,1,10,65L8.86,66.21a1.4,1.4,0,0,0-1.51.38A1.62,1.62,0,0,0,7.55,69a1.61,1.61,0,0,0,2.41.13,1.39,1.39,0,0,0,.34-1.52l1.18-1.21A2.93,2.93,0,0,1,11,70.09Zm4.85-5a3.24,3.24,0,1,1-.07-4.58A3.18,3.18,0,0,1,15.82,65.13Zm5.67-5.92-4.59-.87,2.8,2.72-1.08,1.1-4.53-4.41,1.08-1.1,4.6.89L17,54.8,18,53.7l4.53,4.41ZM25,55.71c-.95,1-2.17,1.27-3.12.41L23,55a.74.74,0,0,0,1.07-.06c.31-.33.35-.69.08-1-.83-.81-2.59,1.89-4.18.31-.86-.83-.65-2,.27-3s2.1-1.17,3-.38l-1.16,1.2a.69.69,0,0,0-1,.06.56.56,0,0,0,0,.87c.79.76,2.61-1.82,4.13-.34A2,2,0,0,1,25,55.71Zm4.07-4.18a2.42,2.42,0,0,1-3.69,0L22.65,49l1.07-1.1,2.72,2.64A1.11,1.11,0,1,0,28,48.9l-2.71-2.64,1.07-1.1,2.71,2.63A2.49,2.49,0,0,1,29.05,51.53Zm2.58-2.74-4.53-4.4,1.07-1.11,3.68,3.58,1.4-1.44.86.82Zm8.21,7.14c-1,1-2.17,1.26-3.12.4l1.14-1.17a.72.72,0,0,0,1.06-.06c.32-.32.36-.69.09-.94-.84-.82-2.59,1.89-4.18.31-.86-.84-.65-2,.27-2.95s2.1-1.18,3-.38l-1.17,1.19a.69.69,0,0,0-1,.07.55.55,0,0,0,0,.86c.78.77,2.61-1.81,4.12-.34A2,2,0,0,1,39.84,55.93Zm4.32-4.46A3.22,3.22,0,1,1,39.54,47a2.79,2.79,0,0,1,3.53-.66l-1.18,1.22a1.3,1.3,0,0,0-1.33.44,1.61,1.61,0,0,0,.14,2.43,1.65,1.65,0,0,0,2.56,0,1.49,1.49,0,0,0,.27-1.87L42.17,50l-.81-.79,2.33-2.4,1,1A3.1,3.1,0,0,1,44.16,51.47Zm6.6-6.85L48,42l1.73,3.66-.86.89-3.72-1.63,2.72,2.65-1.07,1.1-4.53-4.41,1.27-1.3L48,44.71,46,40.4l1.26-1.3,4.53,4.41Zm5.76-5.93L53.8,36.05l1.73,3.66-.86.89L51,39l2.73,2.65-1.08,1.1-4.53-4.41L49.34,37l4.37,1.78L51.8,34.48l1.26-1.3,4.53,4.41ZM58.2,21.48l-4.59-.87,2.79,2.72-1.07,1.1L50.8,20l1.07-1.1,4.6.88-2.8-2.73L54.74,16l4.53,4.41Zm5.44-5.59L60,12.34l-1.17,1.2-.88-.86,3.41-3.5.88.86-1.16,1.2,3.64,3.54Zm.93-4.62-2.7-2.63,1.07-1.1,2.71,2.64a1,1,0,0,0,1.61,0,1,1,0,0,0-.06-1.62L64.49,6l1.07-1.1,2.7,2.63a2.47,2.47,0,0,1,0,3.74A2.42,2.42,0,0,1,64.57,11.27Z"/></svg>