<svg id="Layer_1" data-name="Layer 1" xmlns="http://www.w3.org/2000/svg" viewBox="0 0 99.63 100.28"><defs><style>.cls-1{fill:#dbe442;}</style></defs><path class="cls-1" d="M60.9,17.4a1.64,1.64,0,0,0-.14-2.47,1.68,1.68,0,1,0-2.34,2.38A1.64,1.64,0,0,0,60.9,17.4Z"/><path class="cls-1" d="M51.09,12a1.68,1.68,0,0,0,0-2.6,1.69,1.69,0,0,0-2.61,0L48,9.94l2.62,2.58Z"/><path class="cls-1" d="M8.79,51.16a.67.67,0,0,0,0-1,.65.65,0,0,0-1,0,.71.71,0,0,0,1,1Z"/><path class="cls-1" d="M20.83,42.77a1.65,1.65,0,0,0-.14-2.48,1.68,1.68,0,1,0-2.34,2.38A1.64,1.64,0,0,0,20.83,42.77Z"/><polygon class="cls-1" points="45.3 16.5 43.1 15.44 44.21 17.61 45.3 16.5"/><path class="cls-1" d="M22.05,51.7a1.64,1.64,0,0,0,.13,2.48,1.68,1.68,0,1,0-.13-2.48Z"/><path class="cls-1" d="M27.77,61.3l-.51.52,2.62,2.57.51-.52a1.84,1.84,0,1,0-2.62-2.57Z"/><polygon class="cls-1" points="32.35 45.09 33.44 43.98 31.24 42.91 32.35 45.09"/><polygon class="cls-1" points="16.71 61 14.51 59.94 15.62 62.11 16.71 61"/><path class="cls-1" d="M45.06,33.53a1.66,1.66,0,0,0-.15-2.48,1.63,1.63,0,0,0-2.47-.1,1.85,1.85,0,0,0,2.62,2.58Z"/><path class="cls-1" d="M47.48,0,0,48.8v51.48L99.63,0ZM50,30.46l-1.08,1.1-4.51-4.44L45.45,26l4.6.91-2.8-2.75,1.08-1.1,4.51,4.43-1.08,1.1-4.58-.89ZM33.44,47.26l-1.13,1.15-2.9-6.06,1.24-1.27,6.12,2.8L35.62,45l-1.06-.51-1.65,1.68ZM29.57,51.2l-1.08,1.1L24,47.87,25.79,46a2,2,0,0,1,3.05-.26,1.85,1.85,0,0,1,.32,2.28l2.81.71L30.75,50l-2.63-.73-.25.26Zm5.24-9.85a3.07,3.07,0,0,1-.07-4.53,2.94,2.94,0,0,1,3.68-.58l-1.19,1.21a1.38,1.38,0,0,0-1.51.37,1.84,1.84,0,0,0,2.6,2.55,1.4,1.4,0,0,0,.35-1.51l1.18-1.21a2.93,2.93,0,0,1-.52,3.69A3.06,3.06,0,0,1,34.81,41.35Zm2.74-7.29L38.63,33l4.51,4.43-1.08,1.09Zm3.92.5a3.24,3.24,0,1,1,4.59-.05A3.17,3.17,0,0,1,41.47,34.56ZM52.52,23.33a3.07,3.07,0,0,1-.08-4.52,2.94,2.94,0,0,1,3.69-.59l-1.19,1.21a1.41,1.41,0,0,0-1.51.37,1.63,1.63,0,0,0,.18,2.42,1.62,1.62,0,0,0,2.42.13,1.39,1.39,0,0,0,.35-1.51l1.18-1.21A2.93,2.93,0,0,1,57,23.32,3.06,3.06,0,0,1,52.52,23.33Zm4.8-4.89a3.24,3.24,0,1,1,4.58-.05A3.17,3.17,0,0,1,57.32,18.44ZM53.24,2.69l.88.87L52.49,5.22l.91.9,1.44-1.47.85.83L54.25,7l1,1,1.64-1.66.88.86L55,9.88,50.53,5.45ZM47.6,8.43a3.06,3.06,0,0,1,4.58-.15,3.07,3.07,0,0,1-.07,4.58l-1.66,1.69-4.51-4.43ZM42.52,13.6l6.11,2.8-1.15,1.17-1.06-.52-1.65,1.68.53,1.06-1.13,1.15-2.9-6.06Zm-3.11,3.16.88.87-1.17,1.19,3.63,3.57-1.08,1.09L38,19.92l-1.17,1.19L36,20.25ZM34.3,22,38,25.56l1.41-1.43.85.83-2.5,2.54-4.5-4.43Zm-4.47,4.54,2.7,2.65a1,1,0,0,0,1.61.05,1,1,0,0,0-.06-1.63l-2.7-2.65,1.08-1.1,2.69,2.65a2.47,2.47,0,0,1,0,3.74,2.41,2.41,0,0,1-3.69,0l-2.69-2.64ZM26.33,30c1-1,2.1-1.17,3-.37l-1.16,1.19a.69.69,0,0,0-1,.06.56.56,0,0,0-.05.87c.79.77,2.62-1.81,4.13-.33a2,2,0,0,1-.22,3c-1,1-2.18,1.26-3.13.39l1.15-1.17a.72.72,0,0,0,1.06-.05c.32-.32.36-.69.1-.94-.84-.82-2.6,1.87-4.19.29C25.19,32.06,25.4,30.89,26.33,30Zm-5.11,5.32,4.6.91L23,33.43l1.08-1.1,4.51,4.43-1.08,1.1L23,37l2.78,2.73-1.08,1.1-4.51-4.43Zm-4,3.95a3.23,3.23,0,0,1,4.61,4.53,3.23,3.23,0,1,1-4.61-4.53Zm-4.85,5a2.94,2.94,0,0,1,3.68-.59l-1.18,1.21a1.4,1.4,0,0,0-1.51.38,1.62,1.62,0,0,0,.18,2.41,1.63,1.63,0,0,0,2.42.14,1.38,1.38,0,0,0,.34-1.51L17.49,45A2.91,2.91,0,0,1,17,48.68a3.07,3.07,0,0,1-4.52,0A3.09,3.09,0,0,1,12.37,44.17ZM6.84,49.79a1.32,1.32,0,0,1,1.07-.46l-.29-.27.82-.83,2.26,2.22-.82.83L9.61,51a1.23,1.23,0,0,1-.43,1A1.51,1.51,0,0,1,7,52,1.5,1.5,0,0,1,6.84,49.79ZM4.33,54.14l-1-1,1.75-1.77L9.75,56,8.62,57.11,5,53.5ZM12.5,68.57,6.42,65.73l1.15-1.16,4.5,2.22-2.3-4.47,1.15-1.16,2.93,6Zm6.39-6.51-1.06-.51-1.65,1.68.53,1.05-1.13,1.15-2.9-6.06,1.25-1.27L20,60.9Zm1.63-1.65L16,56l1.08-1.1,3.66,3.6L22.16,57l.85.83Zm.56-5.11a3.24,3.24,0,1,1,4.59,0A3.17,3.17,0,0,1,21.08,55.3Zm10.33,9.44-1.66,1.68L25.24,62l1.66-1.68a3.16,3.16,0,1,1,4.51,4.43Zm2.93-3-4.51-4.43,2.71-2.76.88.86L31.79,57.1l.91.89,1.44-1.47.85.83-1.44,1.47,1,1,1.63-1.67.88.87ZM39.4,56.7c-1,1-2.18,1.25-3.13.39l1.15-1.17a.73.73,0,0,0,1.06-.05c.32-.33.36-.69.1-.95-.84-.82-2.6,1.88-4.19.29-.85-.84-.64-2,.29-3s2.1-1.16,3-.36l-1.17,1.19a.68.68,0,0,0-1,.06.55.55,0,0,0,0,.86c.78.78,2.62-1.8,4.13-.32A2,2,0,0,1,39.4,56.7Zm4.3-4.41a3.22,3.22,0,0,1-4.59-4.51,2.94,2.94,0,0,1,3.68-.59L41.61,48.4a1.4,1.4,0,0,0-1.51.38,1.83,1.83,0,0,0,2.6,2.54,1.39,1.39,0,0,0,.35-1.51l1.18-1.2A2.91,2.91,0,0,1,43.7,52.29Zm4.59-4.64a2.42,2.42,0,0,1-3.69,0L41.91,45,43,43.94l2.69,2.65A1.11,1.11,0,1,0,47.24,45l-2.7-2.65,1.08-1.1,2.69,2.64A2.49,2.49,0,0,1,48.29,47.65Zm2.59-2.73-4.5-4.43,2.71-2.76.88.87-1.64,1.66.92.9,1.44-1.47.85.83L50.09,42l1,1,1.64-1.66.88.86Zm6.3-6.41-4.59-.89,2.79,2.73-1.08,1.1L49.79,37l1.08-1.1,4.6.91-2.8-2.75L53.75,33l4.51,4.43ZM60,35.67l-3.62-3.56L55.17,33.3l-.88-.86L57.72,29l.88.87L57.42,31l3.63,3.56Zm4.94-4.93a3.24,3.24,0,1,1-4.62-4.54,3.24,3.24,0,0,1,4.62,4.54ZM63,11.6l2.78,2.73-1.08,1.1L60.22,11,61.3,9.9l4.59.91L63.1,8.07,64.18,7l4.51,4.43-1.08,1.1Z"/><path class="cls-1" d="M61.29,27.18a1.85,1.85,0,0,0,2.62,2.58,1.66,1.66,0,0,0-.15-2.48A1.63,1.63,0,0,0,61.29,27.18Z"/><path class="cls-1" d="M26.64,47l-.67.68,1.12,1.1.67-.68A.79.79,0,1,0,26.64,47Z"/></svg>