<svg id="Layer_1" data-name="Layer 1" xmlns="http://www.w3.org/2000/svg" viewBox="0 0 99.63 100.28"><defs><style>.cls-1{fill:#dbe442;}</style></defs><path class="cls-1" d="M15.26,66.05a2,2,0,0,0,.16,3,2,2,0,1,0,2.86-2.9A2,2,0,0,0,15.26,66.05Z"/><path class="cls-1" d="M28.15,53l-.63.63,3.2,3.15.63-.63A2.25,2.25,0,1,0,28.15,53Z"/><polygon class="cls-1" points="55.04 11.54 52.35 10.24 53.7 12.89 55.04 11.54"/><path class="cls-1" d="M10.38,53.86a.81.81,0,0,0,0-1.21.8.8,0,0,0-1.2,0,.81.81,0,0,0,0,1.21A.8.8,0,0,0,10.38,53.86Z"/><path class="cls-1" d="M69.15,11.3a2,2,0,0,0,.16,3,2,2,0,1,0,2.86-2.9A2,2,0,0,0,69.15,11.3Z"/><path class="cls-1" d="M47.48,0,0,48.8v51.48L99.63,0Zm4.16,8,7.47,3.43-1.4,1.42-1.3-.63-2,2.06L55,15.55,53.66,17,50.11,9.55Zm-3.79,3.86,1.07,1.06-1.43,1.46,4.43,4.36-1.33,1.34-4.42-4.36-1.44,1.46-1.07-1.06Zm-6.26,6.36,4.47,4.4,1.73-1.76,1,1-3,3.1-5.5-5.42Zm-5.47,5.55L39.42,27a1.26,1.26,0,0,0,2,.06,1.28,1.28,0,0,0-.07-2L38,21.83l1.32-1.34,3.29,3.23a3,3,0,0,1,0,4.58,3,3,0,0,1-4.51,0L34.81,25.1ZM31.84,28c1.18-1.2,2.57-1.42,3.68-.44L34.09,29a.84.84,0,0,0-1.2.07.69.69,0,0,0,0,1.06c.95.95,3.2-2.2,5-.39.93.91,1,2.39-.28,3.68s-2.66,1.53-3.81.47l1.4-1.43a.88.88,0,0,0,1.3-.06c.38-.39.44-.84.11-1.15-1-1-3.18,2.29-5.11.35C30.45,30.53,30.71,29.11,31.84,28Zm-6.24,6.5,5.62,1.12-3.41-3.36,1.32-1.34,5.5,5.42-1.32,1.34-5.6-1.1,3.39,3.34-1.32,1.34-5.5-5.42Zm-4.9,4.82a4,4,0,1,1,0,5.6A3.85,3.85,0,0,1,20.7,39.27Zm-5.93,6.06a3.59,3.59,0,0,1,4.5-.72l-1.45,1.48a1.69,1.69,0,0,0-1.84.46,2,2,0,0,0,.22,2.94,2,2,0,0,0,2.95.17,1.71,1.71,0,0,0,.43-1.84L21,46.34a3.58,3.58,0,0,1-.65,4.5,3.73,3.73,0,0,1-5.52,0A3.75,3.75,0,0,1,14.77,45.33ZM8,52.19a1.62,1.62,0,0,1,1.31-.56L9,51.29l1-1L12.72,53l-1,1-.33-.33A1.54,1.54,0,0,1,10.87,55a1.85,1.85,0,0,1-2.73-.08A1.83,1.83,0,0,1,8,52.19ZM4.94,57.5,3.69,56.27,5.83,54.1l5.72,5.64-1.37,1.39L5.7,56.72Zm8.78,18.93a3.74,3.74,0,0,1-5.52,0,3.75,3.75,0,0,1-.09-5.53,3.59,3.59,0,0,1,4.5-.71l-1.45,1.47a1.7,1.7,0,0,0-1.84.46,2,2,0,0,0,.22,2.94,2,2,0,0,0,3,.17,1.69,1.69,0,0,0,.43-1.84l1.45-1.48A3.59,3.59,0,0,1,13.72,76.43Zm6-6A4,4,0,1,1,14,64.86a4,4,0,0,1,5.64,5.54Zm7-7.19-5.6-1.1,3.4,3.34-1.32,1.34-5.51-5.42L18.94,60l5.62,1.12-3.41-3.36,1.32-1.34L28,61.87Zm5.94-6-2,2.06-5.51-5.41,2-2.06a3.86,3.86,0,1,1,5.5,5.41Zm3.58-3.63-5.5-5.42L34,44.75l1.07,1-2,2,1.12,1.1,1.76-1.79,1,1L35.21,50l1.21,1.19,2-2,1.07,1Zm6.19-6.18c-1.16,1.18-2.66,1.53-3.81.47L40,46.4a.89.89,0,0,0,1.3-.06c.39-.39.44-.84.12-1.15-1-1-3.18,2.29-5.12.35-1-1-.78-2.45.35-3.61s2.57-1.42,3.68-.44l-1.43,1.45a.85.85,0,0,0-1.2.07.69.69,0,0,0,0,1.06c1,.94,3.2-2.2,5-.39C43.57,44.59,43.63,46.07,42.36,47.36ZM47.63,42A3.93,3.93,0,0,1,42,36.45a3.59,3.59,0,0,1,4.5-.71l-1.45,1.48a1.69,1.69,0,0,0-1.84.45,2.24,2.24,0,0,0,3.16,3.12,1.69,1.69,0,0,0,.43-1.85l1.45-1.47A3.56,3.56,0,0,1,47.63,42Zm5.61-5.67a3,3,0,0,1-4.51,0l-3.28-3.23,1.32-1.34L50.06,35a1.25,1.25,0,0,0,2,.05,1.27,1.27,0,0,0-.07-2l-3.29-3.24L50,28.5l3.28,3.23A3,3,0,0,1,53.24,36.3ZM56.41,33l-5.5-5.41,3.32-3.38,1.07,1.06-2,2,1.12,1.1,1.76-1.8,1,1-1.77,1.8,1.21,1.19,2-2,1.07,1.06Zm7.71-7.82-5.61-1.1,3.4,3.34-1.32,1.34-5.51-5.42L56.41,22,62,23.09l-3.41-3.36,1.32-1.34,5.51,5.42Zm3.41-3.47L63.1,17.32l-1.43,1.45-1.08-1.05,4.2-4.26,1.07,1.06L64.42,16l4.43,4.36Zm.43-6a3.88,3.88,0,0,1,0-5.6,3.85,3.85,0,0,1,5.59,0A4,4,0,0,1,68,15.71Z"/><path class="cls-1" d="M25.11,43.62a2,2,0,0,0-.17-3,2,2,0,1,0-2.86,2.91A2,2,0,0,0,25.11,43.62Z"/></svg>