<svg id="Layer_1" data-name="Layer 1" xmlns="http://www.w3.org/2000/svg" viewBox="0 0 99.63 100.28"><defs><style>.cls-1{fill:#f8b03d;}</style></defs><path class="cls-1" d="M7.74,66.17a.73.73,0,0,0-1.17.07l-.59.6L7.11,68l.59-.6A.74.74,0,0,0,7.74,66.17Z"/><path class="cls-1" d="M10.61,62.18l-.67.68L11.06,64l.67-.68a.79.79,0,1,0-1.12-1.1Z"/><path class="cls-1" d="M25.91,36.49a1.66,1.66,0,0,0,0-2.59,1.69,1.69,0,0,0-2.61,0l-.51.52L25.4,37Z"/><path class="cls-1" d="M25.17,47.4a1.64,1.64,0,0,0,.14,2.48,1.68,1.68,0,1,0-.14-2.48Z"/><polygon class="cls-1" points="58.98 16.87 56.78 15.81 57.88 17.98 58.98 16.87"/><path class="cls-1" d="M43.34,30a.73.73,0,0,0-1.17.07l-.59.6,1.13,1.11.59-.6A.75.75,0,0,0,43.34,30Z"/><path class="cls-1" d="M47.84,14.17a1.65,1.65,0,0,0-.14-2.48,1.65,1.65,0,0,0-2.48-.09,1.63,1.63,0,0,0,.14,2.48A1.65,1.65,0,0,0,47.84,14.17Z"/><path class="cls-1" d="M32.86,29.42a1.66,1.66,0,0,0-.15-2.48,1.68,1.68,0,1,0-2.34,2.38A1.66,1.66,0,0,0,32.86,29.42Z"/><path class="cls-1" d="M33.78,54.05a1.85,1.85,0,1,0,2.47.1A1.65,1.65,0,0,0,33.78,54.05Z"/><path class="cls-1" d="M47.48,0,0,48.8v51.48L99.63,0ZM59.36,10.75,63,14.35l1.41-1.44.85.84-2.49,2.53-4.51-4.43Zm2.94,6-1.14,1.17-1.06-.52-1.65,1.69L59,20.16l-1.13,1.15-2.91-6.06L56.19,14ZM32.44,44.64c-.83-.82-2.6,1.88-4.18.29-.86-.84-.65-2,.28-3s2.11-1.16,3-.36l-1.17,1.19a.68.68,0,0,0-1,.06.56.56,0,0,0,0,.86c.78.77,2.62-1.8,4.13-.32a2,2,0,0,1-.23,3c-.95,1-2.18,1.25-3.12.39l1.14-1.17a.73.73,0,0,0,1.07-.06C32.66,45.26,32.7,44.9,32.44,44.64Zm-.12-6.38L35,35.5l.89.87L34.28,38l.91.9,1.45-1.47.84.83L36,39.76l1,1,1.63-1.66.88.86-2.71,2.76ZM38.77,38l1.15-1.17A.72.72,0,0,0,41,36.8c.31-.32.36-.68.09-.94-.83-.82-2.6,1.88-4.18.29-.86-.84-.65-2,.28-2.95s2.1-1.16,3-.36L39,34a.69.69,0,0,0-1,0A.57.57,0,0,0,38,35c.78.77,2.62-1.8,4.13-.32a2,2,0,0,1-.23,3C40.94,38.61,39.71,38.89,38.77,38Zm.84-7.19,1.75-1.77a2,2,0,1,1,2.89,2.84l-.67.68,1.62,1.59-1.08,1.09Zm3.94-4,2.71-2.76.88.86-1.63,1.67.91.89L47.87,26l.84.83-1.44,1.47,1,1,1.63-1.67.88.87-2.71,2.76ZM49,25.76A3.06,3.06,0,0,1,49,21.24a2.93,2.93,0,0,1,3.68-.59l-1.19,1.21a1.4,1.4,0,0,0-1.5.37,1.62,1.62,0,0,0,.18,2.42,1.61,1.61,0,0,0,2.41.13,1.39,1.39,0,0,0,.35-1.51l1.19-1.21a2.94,2.94,0,0,1-.53,3.69A3.06,3.06,0,0,1,49,25.76Zm2.74-7.28,1.08-1.1,4.51,4.43-1.08,1.1ZM48.23,6.67l4.6.91L50,4.83l1.08-1.09,4.5,4.43L54.54,9.26,50,8.37l2.78,2.73-1.08,1.1L47.15,7.77Zm-4,3.95a3.23,3.23,0,0,1,4.61,4.53,3.23,3.23,0,1,1-4.61-4.53Zm-4.85,5A2.92,2.92,0,0,1,43.06,15l-1.19,1.2a1.39,1.39,0,0,0-1.5.38A1.61,1.61,0,0,0,40.55,19a1.62,1.62,0,0,0,2.41.14,1.38,1.38,0,0,0,.35-1.51L44.5,16.4A2.93,2.93,0,0,1,44,20.08a3.07,3.07,0,0,1-4.52,0A3.07,3.07,0,0,1,39.38,15.57Zm-5.77,5.85c1-1,2.1-1.16,3-.36l-1.17,1.18a.7.7,0,0,0-1,.06.56.56,0,0,0,0,.87c.78.77,2.62-1.8,4.12-.32a2,2,0,0,1-.22,3c-1,1-2.18,1.26-3.13.39l1.15-1.16A.73.73,0,0,0,37.41,25c.32-.32.36-.68.1-.94-.84-.82-2.6,1.87-4.19.29C32.47,23.53,32.68,22.36,33.61,21.42Zm-4.37,4.44a3.24,3.24,0,1,1,0,4.59A3.16,3.16,0,0,1,29.24,25.86Zm-2.81,3,4.51,4.43-1.08,1.1L25.35,30Zm-4,4.08a3.16,3.16,0,1,1,4.51,4.43l-1.66,1.69-4.51-4.43Zm-5,5.13,2.69,2.65a1,1,0,0,0,1.61,0,1,1,0,0,0-.05-1.63l-2.7-2.65L20,35.39,22.7,38a2.48,2.48,0,0,1,0,3.74,2.42,2.42,0,0,1-3.69,0L16.3,39.16Zm-1.61,1.63.88.87-1.17,1.19,3.63,3.57L18,46.42,14.4,42.85,13.23,44l-.88-.86Zm-5.62,5.6c1-1,2.1-1.16,3-.36L12,46.12a.68.68,0,0,0-1,.06A.55.55,0,0,0,11,47c.79.77,2.62-1.8,4.13-.32a2,2,0,0,1-.23,3c-.95,1-2.18,1.25-3.12.39L12.89,49A.72.72,0,0,0,14,48.89c.32-.32.36-.68.1-.94-.84-.82-2.6,1.88-4.19.29C9,47.4,9.22,46.24,10.15,45.29ZM8,47.59l.88.87L7.25,50.12l.92.9,1.44-1.47.85.83L9,51.85l1,1,1.64-1.66.88.86L9.8,54.79,5.3,50.36ZM8.52,71.5,4,67.06l1.74-1.77a2,2,0,1,1,2.89,2.84L8,68.81,9.6,70.4Zm6.2-6.31-2.62-.73-.26.26,1.7,1.67-1.08,1.1L8,63.06l1.81-1.84A2,2,0,0,1,12.81,61a1.85,1.85,0,0,1,.32,2.28l2.81.71Zm1.85-1.89-4.51-4.43,2.72-2.76.88.87L14,58.64l.92.9,1.44-1.47.85.83-1.45,1.47,1,1,1.64-1.66.87.86Zm5.49-5.52a3.07,3.07,0,0,1-4.52,0,3.07,3.07,0,0,1-.07-4.53,2.92,2.92,0,0,1,3.68-.58L20,53.89a1.39,1.39,0,0,0-1.5.38,1.61,1.61,0,0,0,.18,2.41,1.62,1.62,0,0,0,2.41.14,1.4,1.4,0,0,0,.35-1.51l1.19-1.21A2.93,2.93,0,0,1,22.06,57.78Zm2.73-2.84-4.51-4.43,1.08-1.1,4.51,4.43ZM24.2,51a3.25,3.25,0,1,1,4.59,0A3.18,3.18,0,0,1,24.2,51Zm8.33,11.53A3.22,3.22,0,0,1,27.94,58a2.92,2.92,0,0,1,3.68-.58l-1.19,1.2a1.38,1.38,0,0,0-1.5.38,1.83,1.83,0,0,0,2.59,2.55,1.4,1.4,0,0,0,.35-1.51l1.19-1.21A2.93,2.93,0,0,1,32.53,62.54Zm4.87-4.93a3.24,3.24,0,1,1-4.62-4.53,3.24,3.24,0,0,1,4.62,4.53Zm5.7-5.89-4.58-.89,2.77,2.73-1.07,1.1-4.51-4.43,1.08-1.1,4.6.91-2.8-2.75,1.08-1.1,4.51,4.43Zm4.84-4.84c-.95,1-2.17,1.26-3.12.39L46,46.1A.72.72,0,0,0,47,46.05c.32-.32.36-.68.1-.94-.84-.82-2.6,1.87-4.19.29-.85-.84-.64-2,.29-2.95s2.1-1.17,3-.37l-1.16,1.19a.69.69,0,0,0-1,.06.56.56,0,0,0-.05.87c.79.77,2.62-1.81,4.13-.32A2,2,0,0,1,47.94,46.88Zm4.35-4.44a3.22,3.22,0,1,1-4.6-4.51,2.81,2.81,0,0,1,3.54-.64L50,38.5a1.34,1.34,0,0,0-1.34.43,1.63,1.63,0,0,0,.13,2.44,1.67,1.67,0,0,0,2.57,0,1.52,1.52,0,0,0,.28-1.87L50.3,40.92l-.8-.79,2.34-2.39,1,1A3.11,3.11,0,0,1,52.29,42.44Zm6.63-6.82L56.22,33l1.71,3.66-.87.89-3.71-1.65,2.71,2.66L55,39.63l-4.5-4.43,1.27-1.3,4.37,1.81-1.89-4.32,1.26-1.29L60,34.53Zm5.79-5.89L62,27.07l1.71,3.67-.87.88L59.14,30l2.71,2.66-1.07,1.1-4.51-4.43L57.54,28l4.37,1.8L60,25.49l1.26-1.29,4.51,4.43ZM65.8,13.22,61.29,8.79,64,6l.88.86L63.25,8.56l.91.89L65.61,8l.84.84L65,10.29l1,1,1.63-1.67.88.87Zm1.94-4.67,1.14-1.17a.73.73,0,0,0,1.07,0c.31-.32.35-.69.09-.94-.83-.83-2.6,1.87-4.19.29-.85-.84-.64-2,.29-2.95s2.1-1.17,3-.37L68,4.55a.69.69,0,0,0-1,.06.57.57,0,0,0,0,.87c.78.77,2.62-1.81,4.13-.33a2,2,0,0,1-.23,3C69.91,9.13,68.68,9.41,67.74,8.55Z"/></svg>