<svg id="Layer_1" data-name="Layer 1" xmlns="http://www.w3.org/2000/svg" viewBox="0 0 32 30"><defs><style>.cls-1{fill:#1b3866;fill-rule:evenodd;}</style></defs><path class="cls-1" d="M8.22,23.35H7.38a3,3,0,0,1-2.12-.88,3,3,0,0,1-.88-2.12v-3c0-7.17,5.37-13,12-13s12,5.83,12,13v3a3,3,0,0,1-3,3h-.85a9.47,9.47,0,0,1-8.15,5A9.47,9.47,0,0,1,8.22,23.35Zm16.16-5.88a.91.91,0,0,1-1.27-.79,7.11,7.11,0,0,0-.06-.92A4.43,4.43,0,0,1,19.36,12c-1.32,2-4.53,4.17-7,4.17a5.88,5.88,0,0,0,1.9-3.51,9,9,0,0,1-4.55,3.49v.49a.91.91,0,0,1-1.27.79v3.78a2.86,2.86,0,0,0,1,.59.91.91,0,0,1,.52.42c2.2,4,5.42,4.09,6.44,4.09a6.71,6.71,0,0,0,5.87-3.17,10.64,10.64,0,0,1-3.76.65,2.47,2.47,0,0,1-2.11,1c-1.29,0-2.34-.78-2.34-1.75s1.05-1.75,2.34-1.75a2.48,2.48,0,0,1,2.11,1c1.9,0,4.33-.34,5.89-2.65Zm-11-.62a1.39,1.39,0,0,1,1.24,1.5,1.39,1.39,0,0,1-1.24,1.5,1.39,1.39,0,0,1-1.25-1.5A1.39,1.39,0,0,1,13.38,16.85Zm6,0a1.39,1.39,0,0,1,1.24,1.5,1.39,1.39,0,0,1-1.24,1.5,1.39,1.39,0,0,1-1.25-1.5A1.39,1.39,0,0,1,19.38,16.85Zm5.47-1.5h1.36c-.85-5.12-4.94-9-9.83-9s-9,3.88-9.84,9H7.9c.52-4,3.41-7.72,8.48-7.72S24.33,11.33,24.85,15.35Z"/></svg>