<svg id="Layer_1" data-name="Layer 1" xmlns="http://www.w3.org/2000/svg" viewBox="0 0 32 30"><defs><style>.cls-1{fill:#fff;}</style></defs><path class="cls-1" d="M25.87,11.69h-.35v-2c0-1.91-4.24-3.42-9.57-3.42S6.37,7.73,6.37,9.64v2H6a1,1,0,0,0-1,1v3.42a1,1,0,0,0,1,1h.34V24a1.37,1.37,0,0,0,1.37,1.37v1.37a1.37,1.37,0,0,0,1.37,1.37h1.37a1.37,1.37,0,0,0,1.37-1.37V25.37h8.2v1.37a1.37,1.37,0,0,0,1.37,1.37h1.37a1.37,1.37,0,0,0,1.37-1.37V25.37h.27a1.07,1.07,0,0,0,1.09-1.09V17.17h.35a1,1,0,0,0,1-1V12.72A1,1,0,0,0,25.87,11.69ZM9.79,23.32A1.37,1.37,0,1,1,11.16,22,1.36,1.36,0,0,1,9.79,23.32Zm.69-4.79a1.36,1.36,0,0,1-1.37-1.36V11.69a1.36,1.36,0,0,1,1.37-1.36H21.42a1.36,1.36,0,0,1,1.37,1.36v5.48a1.36,1.36,0,0,1-1.37,1.36ZM22.1,23.32A1.37,1.37,0,1,1,23.47,22,1.36,1.36,0,0,1,22.1,23.32Z"/></svg>