<svg id="Layer_1" data-name="Layer 1" xmlns="http://www.w3.org/2000/svg" viewBox="0 0 32 30"><defs><style>.cls-1{fill:#213f7c;fill-rule:evenodd;}</style></defs><path class="cls-1" d="M1.3,19.88a2.26,2.26,0,0,1,1.48-1.51c.32-.14.63-.32,1-.47a.53.53,0,0,0,.33-.55v0A1.34,1.34,0,0,0,3.57,16a2.81,2.81,0,0,1-.89-2.17,12.47,12.47,0,0,1,0-1.37A3,3,0,0,1,4,10.38.3.3,0,0,0,4.1,10a1.78,1.78,0,0,1,.8-1.86,1.73,1.73,0,0,1,2,0,1.74,1.74,0,0,1,.77,1.85.29.29,0,0,0,.14.32A3.12,3.12,0,0,1,9.06,13,14.14,14.14,0,0,1,9,14.43,2.94,2.94,0,0,1,7.91,16.3a.49.49,0,0,0-.23.5.48.48,0,0,1,0,.17.88.88,0,0,0,.62,1.08.41.41,0,0,1,.25.6.45.45,0,0,1-.64.15l-.58-.29c-.31.32-.64.64-1,1a.45.45,0,0,0-.07.29V24a.44.44,0,0,1-.42.43A.43.43,0,0,1,5.45,24c0-.25,0-.5,0-.75,0-1.14,0-2.28,0-3.41a.59.59,0,0,0-.21-.5c-.28-.26-.54-.54-.82-.83l-2,1,.94.9A1.91,1.91,0,0,1,4,21.93c0,.64,0,1.28,0,1.92,0,.36-.16.56-.44.56s-.42-.21-.42-.57c0-.63,0-1.26,0-1.89A1.17,1.17,0,0,0,2.75,21c-.18-.17-.35-.37-.52-.55l-.07,0v3.32c0,.24,0,.46-.28.57s-.43-.07-.58-.25Zm2.25-6.06a2.32,2.32,0,0,0,2.39,2.36A2.28,2.28,0,0,0,8.16,14,3.54,3.54,0,0,1,5,13.11Zm4.63-.73a2.3,2.3,0,1,0-4.6-.18c.32-.21.63-.38.9-.6.45-.36.54-.36.94,0A2.65,2.65,0,0,0,8.18,13.09Zm-2.3,5.7.91-.94a.2.2,0,0,0,.06-.12c0-.27,0-.54,0-.75H4.93c0,.21,0,.46,0,.72a.3.3,0,0,0,.08.17C5.26,18.17,5.55,18.46,5.88,18.79Zm.93-9a.89.89,0,0,0-.45-.9.94.94,0,0,0-1.05,0A.84.84,0,0,0,5,9.79Z"/><path class="cls-1" d="M30.7,24.13c-.15.18-.3.35-.58.25s-.28-.33-.28-.57V19.14c-.49.42-1,.75-1,1.53,0,1,0,2.12,0,3.18,0,.22,0,.41-.24.51S28,24.3,28,23.92V22.14c0-.55,0-1.11,0-1.66a1.81,1.81,0,0,1,.57-1.39l.7-.65-2.59-1.31c-.32.32-.65.63-1,1a.53.53,0,0,0-.07.31c0,1.78,0,3.56,0,5.34a1.23,1.23,0,0,1,0,.34.38.38,0,0,1-.43.31.39.39,0,0,1-.39-.38,2.62,2.62,0,0,1,0-.28c0-1.77,0-3.55,0-5.32A.63.63,0,0,0,24.6,18c-.27-.31-.57-.59-.86-.89l-.14.08c-.29.15-.52.1-.65-.12s-.06-.42.19-.61a.93.93,0,0,0,.14-1.16,2.7,2.7,0,0,1-.8-2.05c0-.19,0-.37-.24-.43a.35.35,0,0,1-.2-.28,5,5,0,0,1,.12-1.88,2.57,2.57,0,0,1,2.26-1.81,6.79,6.79,0,0,1,1.91.06,2.64,2.64,0,0,1,2.07,2.54c0,.28,0,.56,0,.84s-.06.48-.44.63c0,.27,0,.55-.05.82a2.7,2.7,0,0,1-.75,1.55.87.87,0,0,0,.2,1.21c.62.32,1.23.65,1.87.93A2.32,2.32,0,0,1,30.7,19ZM27.06,12.87l-.21,0c-.67-.17-1.35-.3-2-.53a1.07,1.07,0,0,0-1,.08,1,1,0,0,0-.55,1.11A1.88,1.88,0,0,0,26,15.09,2,2,0,0,0,27.06,12.87Zm-4.15-.94a2.49,2.49,0,0,0,1-.64.51.51,0,0,1,.65-.08,10.07,10.07,0,0,0,1.13.48,5.92,5.92,0,0,0,1.84.32v-.42A1.84,1.84,0,0,0,25.86,9.7a6,6,0,0,0-1.34,0A1.86,1.86,0,0,0,22.91,11.93Zm3.22,4a3,3,0,0,1-1.88,0c0,.19,0,.4,0,.49.28.33.61.63.93.95a10.33,10.33,0,0,1,.74-.74A.56.56,0,0,0,26.13,16Z"/><path class="cls-1" d="M21.56,18.2c-.43.41-.88.78-1.25,1.21a1,1,0,0,0-.18.66c0,1.23,0,2.45,0,3.68,0,.44-.14.65-.43.66s-.43-.21-.43-.65c0-1.22,0-2.44,0-3.67a2,2,0,0,1,.64-1.54c.42-.4.83-.82,1.28-1.26a2.86,2.86,0,0,0-.46-.31l-2.25-1a.26.26,0,0,0-.35.06c-.51.52-1,1-1.53,1.55a.63.63,0,0,0-.14.4c0,1.92,0,3.83,0,5.75,0,.1,0,.21,0,.31a.4.4,0,0,1-.42.36.38.38,0,0,1-.41-.35,2.06,2.06,0,0,1,0-.35V18a.58.58,0,0,0-.19-.48q-.74-.71-1.44-1.44A.33.33,0,0,0,13.5,16c-.71.33-1.42.63-2.12,1a6.2,6.2,0,0,0-.57.33c.32.31.57.61.87.85a2.78,2.78,0,0,1,1.08,2.57c-.07,1,0,2,0,3.07a1.31,1.31,0,0,1,0,.28.42.42,0,0,1-.82.06,2,2,0,0,1,0-.34c0-1.22,0-2.43,0-3.65a1.24,1.24,0,0,0-.41-1c-.33-.31-.64-.64-1-1l-.08,0v5.55c0,.1,0,.23,0,.31s-.22.32-.36.33-.32-.12-.42-.24-.06-.24-.06-.36V18.41a2.29,2.29,0,0,1,1.48-2.27c.76-.33,1.52-.69,2.28-1a.61.61,0,0,0,.39-.6,1.07,1.07,0,0,0-.35-.93,3.48,3.48,0,0,1-1-2.48.89.89,0,0,0-.15-.33c-.09-.17-.25-.33-.27-.5a4.4,4.4,0,0,1,.49-2.91,3.49,3.49,0,0,1,2.91-1.77,7.25,7.25,0,0,1,2.08.13,3.59,3.59,0,0,1,2.72,3.49,1.07,1.07,0,0,1-.34.82.48.48,0,0,0-.12.29c0,.5,0,1-.1,1.51a3.38,3.38,0,0,1-1.1,1.93.89.89,0,0,0,.22,1.35l2.31,1a2.28,2.28,0,0,1,1.43,2.21V23.8a1.06,1.06,0,0,1,0,.31.38.38,0,0,1-.43.29.39.39,0,0,1-.38-.37,2.71,2.71,0,0,1,0-.29V18.2ZM19.24,9.37a2.73,2.73,0,0,0-2-2.8,6.59,6.59,0,0,0-1.83-.1c-1.72.1-3,1.58-2.58,3.69l.63-.42a.43.43,0,0,1,.59,0,.41.41,0,0,1,0,.59c-.19.16-.41.28-.6.44a.47.47,0,0,0-.17.28,2.69,2.69,0,0,0,1.47,2.43,2.66,2.66,0,0,0,2.83-.1,2.94,2.94,0,0,0,1.24-3.08c-.47,0-.94,0-1.41,0a4.55,4.55,0,0,1-2.95-1.18c-.23-.22-.26-.46-.09-.65a.43.43,0,0,1,.66,0A4.84,4.84,0,0,0,19.24,9.37Zm-4.78,5.89,1.61,1.61,1.42-1.44a.23.23,0,0,0,.07-.16c0-.26-.13-.51-.2-.79a3.73,3.73,0,0,1-2.73,0C14.56,14.78,14.5,15.05,14.46,15.26Z"/></svg>