<svg id="Layer_1" data-name="Layer 1" xmlns="http://www.w3.org/2000/svg" viewBox="0 0 32 30"><defs><style>.cls-1{fill:#1b3866;}</style></defs><path class="cls-1" d="M4.15,4.75H7.26c0,.36,0,.68,0,1a2.08,2.08,0,1,0,4.15-.06V4.79h9.34c0,.31,0,.61,0,.92a2.07,2.07,0,1,0,4.14,0c0-.29,0-.58,0-.91H28V14c-.65-.39-1.29-.76-1.9-1.15-.1-.06-.14-.26-.14-.4,0-.48,0-1,0-1.46H6.26V24.46h.55c2.33,0,4.67,0,7,0a.65.65,0,0,1,.67.4c.29.56.66,1.09,1,1.69H4.15Z"/><path class="cls-1" d="M21.47,27.57c-.32-.07-.63-.14-.95-.23a6.75,6.75,0,1,1,2.9.14c-.1,0-.19.06-.29.09ZM27,20.85a4.67,4.67,0,1,0-4.71,4.65A4.69,4.69,0,0,0,27,20.85Z"/><path class="cls-1" d="M10.37,4.73c0,.36,0,.73,0,1.09a1,1,0,0,1-2.07,0q0-1.07,0-2.13a1,1,0,0,1,2.07,0C10.38,4,10.37,4.39,10.37,4.73Z"/><path class="cls-1" d="M23.86,4.78c0,.34,0,.69,0,1a1,1,0,0,1-2.06,0c0-.71,0-1.41,0-2.12a1,1,0,0,1,2.06,0C23.87,4.05,23.86,4.42,23.86,4.78Z"/><path class="cls-1" d="M21.81,17.22h1v3.09h2.07v1H21.81Z"/></svg>