<svg xmlns="http://www.w3.org/2000/svg" viewBox="0 0 32 30"><defs><style>.cls-1{isolation:isolate;}.cls-2{fill:#213f7c;}.cls-3{fill:#66cdf5;stroke:#fff;stroke-miterlimit:10;stroke-width:2px;}.cls-4{fill:#fff;opacity:0.85;mix-blend-mode:overlay;}.cls-5{fill:#63addf;}</style></defs><g class="cls-1"><g id="Layer_1" data-name="Layer 1"><circle class="cls-2" cx="18" cy="15.64" r="6.66"/><circle class="cls-3" cx="18" cy="15.64" r="4.38"/><circle class="cls-4" cx="20.06" cy="12.94" r="3.17"/><path class="cls-5" d="M1,15c.24-.29,5.57-6.47,12.64-7.83-4.13,2.26-7.08,7.49-7.24,7.77a1.55,1.55,0,0,0,0,1.41c.16.28,3.1,5.5,7.22,7.77h0C6.51,22.74,1.21,16.59,1,16.3a1,1,0,0,1-.24-.65A1,1,0,0,1,1,15Z"/><path class="cls-5" d="M31.74,15.09c-.19-.26-4.21-5.58-9.57-6.75,3.13,1.95,5.36,6.46,5.48,6.7a1.33,1.33,0,0,1,.13.61,1.32,1.32,0,0,1-.13.6c-.12.25-2.34,4.74-5.46,6.7h0c5.33-1.19,9.34-6.49,9.53-6.74a1,1,0,0,0,0-1.12Z"/></g></g></svg>