<svg id="Layer_1" data-name="Layer 1" xmlns="http://www.w3.org/2000/svg" viewBox="0 0 32 30"><defs><style>.cls-1{fill:#1b3866;fill-rule:evenodd;}</style></defs><path class="cls-1" d="M15,7.44V6.73A2,2,0,0,1,16,3a2,2,0,0,1,2,2,2,2,0,0,1-1,1.73v.71a1.45,1.45,0,0,0,.36-.09c1.21-.46,1.87-2.28,3.95-2.35s3.41,2.25,5.17,2.77A7,7,0,0,0,28,7.94c-.63,4.11-6.59,5.87-11,4.73v6.92a6.85,6.85,0,0,1,2.54,1.2A2.67,2.67,0,0,1,18,25.58v-1c1.27-.63,1.51-2-1-2.88V26a1,1,0,0,1-2,0V21.1c-2-.51-5.37-1.17-5.34-4A3.29,3.29,0,0,1,13,14h0a1,1,0,0,1,0,2,1.28,1.28,0,0,0-1.35,1.19c.1,1.13,2.22,1.56,3.34,1.85V12.67c-4.41,1.14-10.37-.62-11-4.73a7,7,0,0,0,1.52-.17C7.27,7.25,8.48,5,10.69,5s2.74,1.89,4,2.35A1.45,1.45,0,0,0,15,7.44ZM12,21.36c.86.25,1.66.47,2.35.63-1.69.87-1.49,2-.31,2.59v1A2.63,2.63,0,0,1,12,21.36ZM18,18.76c.89-.26,2.23-.65,2.31-1.57A1.28,1.28,0,0,0,19,16a1,1,0,0,1,0-2h0a3.29,3.29,0,0,1,3.33,3.1,3.33,3.33,0,0,1-2,2.93A8.57,8.57,0,0,0,18,18.76Zm5.78-8.65a4.44,4.44,0,0,0,1.3-.88C23.71,8.84,22.54,7,21.35,7s-2,2.35-4.35,2.46v1.19a7.81,7.81,0,0,0,2.55.33,6.67,6.67,0,0,1-.18-1.61,5.78,5.78,0,0,0,1.52,1.52,13.17,13.17,0,0,0,1.42-.26,5,5,0,0,1-.73-1.88A5.7,5.7,0,0,0,23.81,10.11ZM15,9.46C12.69,9.35,11.89,7,10.65,7S8.29,8.84,6.89,9.23a4.44,4.44,0,0,0,1.3.88,5.7,5.7,0,0,0,2.23-1.36,5,5,0,0,1-.73,1.88,13.17,13.17,0,0,0,1.42.26,5.78,5.78,0,0,0,1.52-1.52A6.67,6.67,0,0,1,12.45,11,7.81,7.81,0,0,0,15,10.65Z"/></svg>