<svg id="Layer_1" data-name="Layer 1" xmlns="http://www.w3.org/2000/svg" viewBox="0 0 32 30"><defs><style>.cls-1{fill:#213245;}</style></defs><path class="cls-1" d="M15.2,27.37c-2.08,0-4.16,0-6.24,0A5,5,0,0,1,3.62,22q0-6.17,0-12.33c0-3.36,2-5.34,5.42-5.36,1.42,0,2.85,0,4.27,0,1.17,0,1.84.62,1.85,1.6a1.64,1.64,0,0,1-1.82,1.65c-1.46,0-2.92,0-4.39,0s-2,.57-2,1.94q0,6.27,0,12.55c0,1.4.58,2,2,2q6.24,0,12.48,0c1.5,0,2-.6,2.05-2.15,0-1.38,0-2.76,0-4.14s.63-1.92,1.67-1.9,1.58.67,1.6,1.85c0,1.46,0,2.92,0,4.38a5,5,0,0,1-5.28,5.27C19.36,27.39,17.28,27.37,15.2,27.37Z"/><path class="cls-1" d="M22.79,6C21.68,6,21,6,20.24,6A1.66,1.66,0,0,1,18.5,4.33a1.6,1.6,0,0,1,1.7-1.64c2.15,0,4.31-.07,6.46-.06a1.61,1.61,0,0,1,1.73,1.73q0,3.22,0,6.45a1.55,1.55,0,0,1-1.63,1.69,1.62,1.62,0,0,1-1.63-1.72c0-.72,0-1.44,0-2.5C24,9.33,23.18,10.17,22.34,11s-1.79,1.8-2.7,2.68a1.69,1.69,0,0,1-2.55.14,1.65,1.65,0,0,1,.21-2.45C19,9.65,20.78,7.93,22.79,6Z"/></svg>