<svg id="Layer_1" data-name="Layer 1" xmlns="http://www.w3.org/2000/svg" viewBox="0 0 707.3 695.04"><defs><style>.cls-1{fill:#1b3866;}</style></defs><path class="cls-1" d="M363.28,39.36c0,8.48-.08,17,0,25.43.05,3.8-1.61,5.45-5.37,5.44q-25.68-.08-51.36,0c-3.74,0-5.55-1.51-5.43-5.34.11-3.65.11-7.31,0-11s1.49-5.54,5.35-5.4c3.65.13,7.31,0,11,0s5.4-1.69,5.36-5.49c-.08-9.64.13-19.28,0-28.92C322.75,9.63,324.45,7.9,329,8c9.63.24,19.27.17,28.91.06,3.84-.05,5.43,1.61,5.4,5.36C363.24,22.08,363.29,30.72,363.28,39.36Z"/><path class="cls-1" d="M508.87,8c5,0,9.94.06,14.91,0,3.28,0,4.85,1.33,4.82,4.74-.12,15.78,1.78,14.33-13.3,14.37-7.12,0-14.24-.06-21.37,0-4.28.05-6.32-1.61-6.24-6.21C487.94,6.8,486.23,8.07,500.43,8Z"/><path class="cls-1" d="M14.76,470.65c0-14.63.14-29.26-.09-43.89-.06-4.42,1.07-6.2,5.83-6.11,11.27.23,11.28,0,11.3,11.25,0,10.6,0,10.6,10.6,10.64,11.22,0,11.22,0,11.22,11.24,0,8.38,0,8.38-8.46,8.56a65,65,0,0,1-7,0c-4.85-.43-6.46,1.84-6.42,6.46.13,15.62-.09,31.26.13,46.88.07,4.55-1.36,6-5.94,5.94-11.19-.13-11.19.09-11.19-11.06Q14.77,490.6,14.76,470.65Z"/><path class="cls-1" d="M75.32,502.59c-5,0-10,0-15,0-3.32,0-4.85-1.55-4.83-4.87,0-9.8.08-19.61-.05-29.42,0-3.1,1.26-3.91,4.14-4,12.67-.55,12.67-.62,13,12.06.15,6.21.75,6.84,6.9,7,3.82.07,7.64.13,11.47.05,2.57-.05,3.52,1,3.43,3.59-.14,3.81-.15,7.65,0,11.46.11,3-1.12,4.25-4.09,4.19-5-.09-10,0-15,0Z"/><path class="cls-1" d="M94.24,442.79c0,5,.05,10,.13,15,0,3.06-1.31,4.69-4.46,4.62h-.5c-15,.79-17.37-2.06-15-17.21.38-2.36,1.7-2.6,3.42-2.59,5.48,0,11,.16,16.44.24Z"/><path class="cls-1" d="M197.09,483.87c0,5,.09,9.95,0,14.92-.07,4.08,1.51,6.23,5.86,6.07,4.64-.18,9.29-.1,13.93-.13,2.79,4.65,1.22,9.68,1.17,14.54,0,1.76-1.77,2.19-3.39,2.19l-9.49,0c-7.45,0-8.06.63-8.09,7.88,0,3-.07,6,0,9,.08,2.84-1,4.45-4,4.41s-6,0-9,0c-2.75,0-3.85-1.33-3.77-4,.09-3.5,0-7,0-10.48-.07-5.8-.89-6.71-6.68-6.72q-34.68-.07-69.36,0c-7.91,0-7.91,0-7.93-8.1v-1c0-7.46,0-7.5,7.74-7.51q21.95,0,43.91,0c10.51,0,10.51,0,10.54-10.63,0-10.87,0-11,11.13-10.84C178.82,483.5,188,482.77,197.09,483.87Z"/><path class="cls-1" d="M126.28,480.75c-8.12,0-16.25-.13-24.37.06-4,.1-5.65-1.05-5.64-5.33,0-11.12-.14-11.12,10.94-11.12,14.59,0,29.19.13,43.78-.05,4-.06,5.57,1.09,5.45,5.31-.32,12.16,1.53,11.17-11.25,11.13C138.89,480.73,132.59,480.75,126.28,480.75Z"/><path class="cls-1" d="M105.54,191.09c-14.62,0-29.25-.15-43.86.09-4.65.08-6.48-1.15-6.37-6.12.23-10.9,0-10.88,10.89-10.88q41.86,0,83.74,0c6,0,6.81.8,7,6.86.3,10.05.3,10.05-9.51,10.06Z"/><path class="cls-1" d="M23.45,191.38c-9,0-9,0-9.06-6.64,0-11.26,0-11.26,8.34-11.29,9.66,0,9.7,0,9.68,8.24C32.37,192.51,33.4,191.25,23.45,191.38Z"/><path class="cls-1" d="M146.67,399.81c-10.56-.23-9.49,1.71-9.48-9.51,0-12-1.42-10.15,10.22-10.34a26.92,26.92,0,0,0,3,0c4.43-.55,6.57,1.06,6,5.8a68.54,68.54,0,0,0-.05,7.45c0,6.5-.06,6.56-6.73,6.61Z"/><path class="cls-1" d="M146.67,420.79c10.31.12,9.66-1.35,9.65,9.52,0,1.66,0,3.31,0,5,.15,3.79-1.67,5.35-5.42,5.28-15.18-.31-13.78,1.9-13.72-13.3C137.24,419.63,136.6,420.92,146.67,420.79Z"/><path class="cls-1" d="M146.78,356.69c-10.75,0-9.57,1.1-9.66-9.5-.06-8.08,0-8.11,8.31-8.06,12,.09,10.94-1,11,9.91C156.44,356.68,156.43,356.68,146.78,356.69Z"/><path class="cls-1" d="M693.27,212c-7.73,1.75-15.56.5-23.34.81-4.32.17-8.65.12-13,0-3.16-.07-4.59,1.4-4.58,4.49,0,4.82,0,9.65,0,14.47,0,3.15,1.48,4.53,4.6,4.47,4-.06,8,.1,12,0,3.49-.1,5.3,1.21,5.24,4.91-.24,14.91,2.05,11.86-11.36,12.11-8.81.17-17.63.15-26.45,0-4.24-.06-6.11,1.64-5.86,6,.2,3.65-.15,7.33.08,11s-.79,5.08-4.7,5c-9.64-.24-19.29-.18-28.94,0-3.78.06-5.32-1.12-5.28-5.14q.26-24.95,0-49.91c0-3.95,1.39-5.44,5.23-5.23,3.49.2,7,.12,10.48.06,2.92-.05,4.27,1.19,4.2,4.19-.1,4,0,8,0,12,0,3.55,1.63,5.18,5.18,5.11,3.82-.07,7.65,0,11.47,0,2.87,0,4.29-1.34,4.26-4.27-.06-5-.09-10-.06-15,0-3-1.44-4.2-4.31-4.16-3.16,0-6.32-.14-9.48,0-3.73.17-5.55-1-5.21-5.15.31-3.8,0-7.65.07-11.48,0-3.47-1.43-5.27-5.07-5.2-4.49.09-9,.14-13.47,0-3.51-.14-4.85,1.77-5,4.8-.19,4.31-.28,8.64-.18,13,.07,2.8-1.18,4-3.8,4q-15.21,0-30.44,0c-2.84,0-4.16-1.25-4.12-4.27.11-9.65.08-19.3,0-28.95,0-3.49,1.4-5.29,5-5.29q45.68,0,91.34,0c3.06,0,4.62,1.46,4.59,4.58s0,6,0,9c-.05,3.78,1.78,5.38,5.52,5.35,9.82-.07,19.64.11,29.45-.05,4.27-.06,6.09,1.55,5.88,5.88s0,8.65.06,13Z"/><path class="cls-1" d="M552.62,245.43c0-7.41,0-7.41,6.83-7.42,8,0,8,0,8,7.23,0,7.47-.22,7.72-8,7.68S552.74,253.67,552.62,245.43Z"/><path class="cls-1" d="M464.92,28.65v12c0,8.56,1,9.54,9.31,9.58,2.66,0,5.32.09,8,0,3-.15,4.43.82,4.56,4.2.56,14,.67,14-13.38,14.21-7.21.13-8.4,1.31-8.44,8.43-.07,10.69-.07,10.51-10.94,10.65-4.22,0-5.34-1.43-5.31-5.47.1-13.59,0-13.59-13.72-13.61-8,0-8,0-8-7.82,0-9,.07-17.94,0-26.91,0-3.9,1.21-5.91,5.52-5.5,3.29.31,6.64,0,10,.05,4.41.05,6.3-2.3,6.35-6.48a37.86,37.86,0,0,1,.06-4c.32-2.69-1.45-6.57,1.45-7.8,4.09-1.73,8.84-1,13.25-.28,1.8.29,1.34,2.46,1.36,3.86C465,18.68,464.91,23.67,464.92,28.65Z"/><path class="cls-1" d="M405.56,9.43c5,0,10,.09,14.95,0,2.54-.06,3.65,1.08,3.85,3.44,0,.5.11,1,.15,1.49.79,11,.67,11.11-10.21,11.1-1.16,0-2.33,0-3.49,0-7.21.09-8,.88-8.08,8,0,1,0,2,0,3,0,11.61-.66,12.12-12.46,10.82-2.47-.28-3.58-1.31-3.57-3.75,0-10.14.05-20.27,0-30.41,0-2.75,1.15-3.83,3.91-3.75,5,.13,10,0,14.95,0Z"/><path class="cls-1" d="M414.48,131.24h-2c-7.85,0-7.85,0-7-7.78a14.72,14.72,0,0,1,.13-1.49c.61-3.11-1.82-7.73,1.77-9.09,4.72-1.79,10.16-.79,15.27-.35,1.56.13,1.75,1.84,1.82,3.18.09,1.82.12,3.66.09,5.48C424.39,132.49,426.22,131.1,414.48,131.24Z"/><path class="cls-1" d="M445.76,109.16l-14.91.22c-2,0-3.77-.45-3.81-2.86-.06-4.14-1-8.67.31-12.34,2.74-7.54,9.69-2.44,14.65-3.53,3.15-.69,4.13,1.67,4,4.66-.23,4.63-.21,9.27-.29,13.9Z"/><path class="cls-1" d="M485.7,225.27c0,8.71,0,8.71-8.52,8.72a33.18,33.18,0,0,0-4,0c-3.54.44-4.9-1.11-4.45-4.54a16.51,16.51,0,0,0,0-2c0-12,1.76-13.41,13.87-11.39,2,.33,3,1.21,3.07,3.2S485.7,223.28,485.7,225.27Z"/><path class="cls-1" d="M76.12,238c11.82,0,23.63,0,35.44,0,5.7,0,7.65-2,7.76-7.8.06-3.32.1-6.65,0-10-.09-3,1.29-4.15,4.22-4.12q13.72.12,27.45,0c2.9,0,4.11,1,4.29,4.06.82,13.39.57,13.73-12.87,13.76-9,0-9.1.12-9.09,9.32a52.39,52.39,0,0,0,.07,7c.53,3.94,2.35,6.82,7,6.76,3.16-.05,6.32,0,9.48,0a8.23,8.23,0,0,1,2,0c6.47,1.67,2.64,6.85,3.25,10.37.47,2.7,1.48,7.11-3.37,7.28-9.64.33-19.3.08-28.94.1-2.65,0-3.44-1.46-3.41-3.82,0-3.82,0-7.65,0-11.48,0-4.37-1.57-6.91-6.5-6.63a96,96,0,0,1-13.46,0c-4.59-.37-5.9,2-6,5.86q-.12,5.49,0,11c.06,3.55-1.56,5.2-5.13,5.13-3.83-.07-7.66.16-11.48,0-3.53-.17-4.72,1.36-4.54,4.74.19,3.65-.07,7.32,0,11S70.82,296,67,296c-11.59-.15-9.5,1.28-9.59-9.34-.11-11.88,0-11.88-12.12-11.82-9.83.05-9.83.05-9.83-9.58,0-7.65.14-15.3,0-23-.08-3.25,1-4.34,4.28-4.3C51.84,238.14,64,238,76.12,238Z"/><path class="cls-1" d="M157.82,315.81c-5.48,0-11-.08-16.44,0-3,.06-4.2-1.16-4.16-4.13.21-15.22-1.74-12.58,12-12.78,7.8-.11,15.62.11,23.42-.08,3.76-.09,5.53,1.14,5.46,5.09-.26,14.23,1.6,11.61-11.31,11.87C163.8,315.87,160.81,315.82,157.82,315.81Z"/><path class="cls-1" d="M168.57,253.22c-10.21-.23-10.06,2.17-10-10.25,0-5.94.64-6.58,6.47-6.68h1.5c12.93,0,11.35-.93,11.7,12,.11,4.07-1.4,5.38-5.17,5A44.62,44.62,0,0,0,168.57,253.22Z"/><path class="cls-1" d="M394.25,88.12c-8.24,0-8.24,0-8.23-8.9,0-7.57.35-7.88,8.3-7.87,8.58,0,8.58,0,8.56,10.19C402.87,88.13,402.87,88.13,394.25,88.12Z"/><path class="cls-1" d="M527.6,80.2c0,7.86,0,7.86-7.53,7.87-9.38,0-9.38,0-9.39-8.51,0-8.11,0-8.11,8.8-8.11C527.59,71.44,527.59,71.44,527.6,80.2Z"/><path class="cls-1" d="M128,402.62c-2.88,0-6,1.07-8.69-.83a7.32,7.32,0,0,0-.93-.09c-1.85-.86-2.43-2.36-2.7-4.35-.64-4.63-.29-9.26-.29-13.89,0-3.48,1.43-5.14,5.42-5.29,13.92-.5,13.79-.68,13.55-14.52-.07-4.2-1.75-5.48-5.72-5.36-7,.21-13.92.06-20.88.06-10.6,0-10.35,0-11,10.8-.22,3.54,1.12,7.73-2.37,10.65-3.48.07-7,.19-10.45.18-13.08,0-11.41,1-11.36-11.48.05-12.8-2.31-11.81,12-11.87,11.2-.05,9.69,1.31,9.75-9.79,0-7.55,0-7.55-7.67-7.64-1,0-2,0-3,0-15.26,0-30.52-.1-45.78.07-4.45.06-6.39-1.4-6.15-6,.23-4.46-.05-8.95-.1-13.42a18.41,18.41,0,0,1-4.89-.66c-8.27-1.66-10.17-.08-10.18,8.14,0,14.44,0,28.88,0,43.32,0,1.74-.66,3.69.95,5.16h0c1.3,1.54,3.08,1,4.67,1q13.44.08,26.88,0c2.21,0,4.32.15,6.16,1.5,4.2,3.08,2.95,21.05-1.64,23.67-4.49,1.73-9.16.45-13.74.77-2.13.16-3.84.28-4.34,3-1.71,9.21-.28,11.09,8.79,11.09,2,0,4-.07,6,0A7.12,7.12,0,0,1,57.39,424c.11,3.64,0,7.29,0,10.94,0,1.12-.24,2.37.79,3.25,2.72,2.33,12.34-.17,14-3.63-.22-7.11-.8-14.22-.53-21.3.16-4.5-1.71-9.4,1.69-13.53a50.41,50.41,0,0,1,21.11-.08l1.84,1.18c1.58,2,.85,4.44,1,6.69.26,3.08-.73,6.29,1,9.22,1.82,1.05,3.82,1,5.81.95,6.48,0,12.95,0,19.43,0,10.79,0,9.56,1.15,9.8-10C133.48,403.61,131.72,402.59,128,402.62Z"/><path class="cls-1" d="M98.34,318.39c0-4.65.08-9.3,0-13.94-.06-2.5.79-3.62,3.43-3.59,15.06.18,12.36-1.64,12.56,11.69.1,6.14-.09,12.29,0,18.43.09,4.06-1.16,6-5.71,5.92-11.54-.32-10.24,1-10.3-10C98.32,324,98.33,321.22,98.34,318.39Z"/><path class="cls-1" d="M236.21,472.2c0,7.45,0,7.45-6.49,7.46-7.62,0-7.62,0-7.62-8.18,0-6.77,0-6.83,6.19-6.76C237.11,464.82,236.08,463.54,236.21,472.2Z"/><path class="cls-1" d="M16.47,287v-2c0-7.36,0-7.36,7.16-6.26,7.79,1.2,7.79,1.2,7.79,9.23a21.14,21.14,0,0,0,0,3c.58,3.94-1.06,5.58-5,5a6.54,6.54,0,0,0-1,0C15,295.78,16.64,297.42,16.47,287Z"/><path class="cls-1" d="M686.63,8.08H557.94c-7.56,0-7.72.14-7.72,7.89q0,64.1,0,128.19c0,7,.13,7.13,7.36,7.14q32.17,0,64.35,0v0H687.3c6.38,0,6.72-.35,6.73-6.82q0-64.59,0-129.19C694,8.31,693.77,8.08,686.63,8.08ZM669,133.16q-47.13-.09-94.26,0c-4.48,0-6.17-1.75-6.15-6.25q.17-47.13,0-94.27c0-4.77,1.79-6.45,6.47-6.44,31.25.11,62.5,0,93.76.07,5.86,0,6.58.78,6.6,6.67,0,15.63,0,31.25,0,46.88s-.15,31.26.08,46.88C675.6,131.65,673.56,133.17,669,133.16Z"/><path class="cls-1" d="M653.32,80.21h-.05c0-8.82-.11-17.64.05-26.45.07-3.69-1.59-5.19-5-5.19q-26.46,0-52.9.06c-3.06,0-4.52,1.49-4.52,4.62q0,26.46,0,52.9c0,3.19,1.46,4.49,4.55,4.49,17.46,0,34.93,0,52.39.13,4.42,0,5.71-1.93,5.59-6.11C653.15,96.52,653.32,88.36,653.32,80.21Z"/><path class="cls-1" d="M157,15.67c0-4.86-1.51-6.57-6.62-6.55-43.09.2-86.18.12-129.26.12-6.35,0-6.44.06-6.44,6.4,0,42.75.06,85.51-.13,128.26,0,5,1.38,6.61,6.47,6.55,21.46-.25,42.92-.1,64.38-.1v0c21.79,0,43.59-.07,65.38.07,4.39,0,6.26-1.25,6.24-6Q156.82,80.05,157,15.67Zm-26.7,116.71q-46.12-.12-92.24,0c-3.81,0-5.28-1.55-5.25-5.4.13-15.79.05-31.58.05-47.37,0-15.29,0-30.58,0-45.87,0-6.21.48-6.66,6.43-6.66,30.08,0,60.16.09,90.24-.08,5.08,0,6.55,1.78,6.52,6.69q-.24,46.36,0,92.74C136.07,130.73,134.57,132.39,130.29,132.38Z"/><path class="cls-1" d="M117,54.63c0-4.57-1.77-6.16-6.19-6.13q-24.95.2-49.88,0c-4.55,0-6.56,1.48-6.5,6.39q.34,24.95,0,49.88c-.06,4.78,1.95,6,6.27,5.94,8.31-.18,16.62,0,24.94-.06,8.64,0,17.29-.08,25.93,0,3.68,0,5.47-1.13,5.43-5.16Q116.82,80.07,117,54.63Z"/><path class="cls-1" d="M402.71,142.56c0,7.63,0,7.63-9,7.63-7,0-7,0-7-7.3.11-10.08-1-8.7,8.77-8.79C402.7,134,402.7,134.09,402.71,142.56Z"/><path class="cls-1" d="M321.15,162.61c0,7.8-.14,15.6.06,23.39.09,3.59-1,5-4.77,5-13.74.24-13.71.36-13.74-13.29,0-12.61,0-25.22-.22-37.83-.08-4.44,1.36-6.09,6-5.89,14.48.62,12.53-2.38,12.68,12.66C321.19,152,321.15,157.3,321.15,162.61Z"/><path class="cls-1" d="M261.92,152.84c0-5,.1-10,0-14.94-.07-2.77,1-3.85,3.76-3.82,18.54.23,14.94-2.43,15.27,14,.13,6.31-.05,12.62,0,18.92.06,3.6-1.51,4.91-5.1,5-14,.47-14,.56-14-13.24v-6Z"/><path class="cls-1" d="M362,152.71c0,5.15-.07,10.3,0,15.44.05,2.76-1.08,3.9-3.83,3.88-15-.09-12,1.42-12.25-11.44-.14-7.31.1-14.61,0-21.92-.06-3.47,1.39-4.72,4.75-4.65,13.86.31,11-1.59,11.34,10.73C362,147.4,362,150.06,362,152.71Z"/><path class="cls-1" d="M154.32,615.67c0-21.28-.1-42.56.08-63.85,0-4.07-1-5.38-5.25-5.36q-63.84.22-127.69,0c-4,0-5,1.21-5,5.09q.18,64.1,0,128.19c0,4.5,1.61,5.7,5.85,5.6,10.23-.24,20.46-.08,30.7-.08,32,0,64.08-.07,96.12.1,4.17,0,5.34-1.22,5.31-5.34C154.22,658.57,154.32,637.12,154.32,615.67Zm-16.88,48.07c0,6.78-.76,7.53-7.39,7.53q-45.63,0-91.26,0c-6.75,0-7.31-.59-7.32-7.52q0-23.19,0-46.38t0-46.38c0-6.53,1-7.43,7.54-7.43h90.26c7.23,0,8.17.87,8.18,7.9Q137.48,617.61,137.44,663.74Z"/><path class="cls-1" d="M117,590.89c0-4-1.21-5.75-5.4-5.72-17.3.11-34.59.06-51.89,0-3.81,0-5.28,1.59-5.25,5.44q.19,25.44,0,50.89c0,4.37,1.74,5.92,5.94,5.85,8.48-.15,17,0,25.45-.05,8.31,0,16.63-.16,25,.05,4.45.11,6.25-1.44,6.2-6.06C116.86,624.49,116.89,607.68,117,590.89Z"/><path class="cls-1" d="M282.4,658.39c-.14-11.26-.14-11.26-11.61-11.23-10.47,0-10.47,0-10.39,10.77,0,1.49,0,3,0,4.47.16,6.15.71,6.69,7,6.75,3,0,6-.07,8.94.05,4.48.17,6.36-2,6.15-6.34C282.37,661.37,282.42,659.88,282.4,658.39Z"/><path class="cls-1" d="M694.14,347.59c-.21-9.1,1.84-9.31-9.51-9.28h-.49c-9.31,0-9.32,0-9.34,9.48,0,11.78.1,9.65,9.5,9.76C695.74,357.68,694,357.7,694.14,347.59Z"/><path class="cls-1" d="M674.08,478c.07-2.66,0-5.32,0-8,0-3.88-1.32-6.25-5.92-5.64a44,44,0,0,1-9,0c-3.53-.26-5.29.73-4.88,4.66.3,3,0,6,.05,9,.13,3.74-1.39,5.54-5.29,5.4-4.15-.15-8.31.1-12.46,0-2.93-.1-4.27.88-4.08,4a70.59,70.59,0,0,1,0,10c-.3,3.94,1.28,5.26,5.16,5.19,10.13-.18,20.27-.07,30.41-.05,7.57,0,8,.46,8,7.82.06,11.46.05,11.31,11.43,11.16,4.54-.06,6-2.18,5.43-6.2-.78-5.14-.3-10.29-.48-14.75,0-4.66-.16-8.66.05-12.64.2-3.55-1.31-4.74-4.69-4.52-2.81.2-5.65-.07-8.47.05C675.52,483.59,674,481.67,674.08,478Z"/><path class="cls-1" d="M688.12,461.8c3.62.06,5-1.73,5-5.24-.09-7.81,0-15.61,0-23.41,0-15.37-.32-11.87-12.82-12.39-3.49-.15-4.22,1.45-4.14,4.47.15,5.32,0,10.64,0,16,0,3.16-.08,6.32,0,9.48C676.49,463.55,673.39,461.55,688.12,461.8Z"/><path class="cls-1" d="M192.16,461.83c3.32,0,4.92-1.53,4.91-4.82s.18-6.66,0-10c-.28-4.69,1.68-6.63,6.42-6.54,11,.19,21.94.08,32.91.16,2.32,0,4-.07,4.73-3,2.57-10.12,5.13-20.27,8.39-30.18,3.34-10.15,1.72-19.11-4.52-27.5a1.12,1.12,0,0,1-.83-.2c-5,1.07-6.66-1.58-6.82-6-.06-1.66,0-3.33-.05-5-.19-11.81,2.29-10.6-11.58-10.6-3.26,0-4.73,1.21-4.63,4.74.21,8.14.07,16.29.06,24.44,0,12.12,0,12.12,12.05,12.47,6.12.18,7,1,7,6.93-.18,15.18,2.07,13.83-13.77,14.08-5,.07-7.51-.91-7.9-6.67-.26-4,2.37-9.7-1.95-11.86-3.48-1.75-8.47-.38-12.77-.6-3.61-.19-4.66,1.54-4.47,4.83.18,3-.1,6,.08,9,.24,4-1.65,5.39-5.36,5.25-2.83-.1-5.67.14-8.48-.06-3.79-.26-5.36,1-5.24,5.1.27,8.3,0,16.62.1,24.93C180.49,462.74,178.22,461.84,192.16,461.83Z"/><path class="cls-1" d="M441.92,441.69a17,17,0,0,0,3.86-1c-6,.67-12.1-1-18,.95a45.91,45.91,0,0,1,4.69.07A47.46,47.46,0,0,0,441.92,441.69Z"/><path class="cls-1" d="M261,430.63a36.18,36.18,0,0,1-1.31,5.19c-1.57,5,.27,7.12,5.41,6.41a17.83,17.83,0,0,0,2.89-.5,5.24,5.24,0,0,0,1.47-.51c2.42-1.41,5.16-1.19,7.78-1.55a20,20,0,0,0,4.22-1.16,34.52,34.52,0,0,1,8.56-1.95,8.58,8.58,0,0,0,1.38-.54c3.38-1.33,7.09-1.59,10.42-3,7.06-3,13.11-.51,19,3.17,12.24,5.22,25.14,6.42,38.24,6.21,5-.08,9.72-1.88,14.61-2.67A73.58,73.58,0,0,0,406,426.68c9-6.57,17.33-13.76,24.36-22.44A76.49,76.49,0,0,0,448.25,366c2.25-13.86,2.52-28.06-1.08-42.28-3.95-15.64-11.95-28.66-22.23-40.43-13.25-15.19-30.23-24.66-49.77-29.25-10.73-2.51-21.64-2.05-32.63-1.15-15.86,1.29-29.84,6.9-42.62,16l-5,3.95c-2.51,1.94-5.41,3.44-7.07,6.33-3.63,3.64-7.37,7.18-10.39,11.39a109.61,109.61,0,0,0-16.54,35.27c-2.85,10.31-2.17,20.83-1.59,31.19a71.54,71.54,0,0,0,6.83,26.21c2.62,5.61,5.94,10.88,3.09,17.86C265.37,410.56,264.07,420.86,261,430.63Zm19.63-114c6.15-15.12,16.87-26.68,30.19-35.49,12.78-8.44,27.17-12.9,38.27-12.49,33.69,0,56.7,12.38,72.68,36.29,11,16.45,14.73,35.39,11.59,55.24-3.8,24.08-16.55,43-36.95,55.3-24.64,14.9-51.08,16.55-77.33,3.28-6.82-3.44-13.07-2-19.64-.64-4.39.9-8.71,2.15-13.11,3-4.06.79-5.53-.84-4.58-4.82,1.58-6.62,3.21-13.23,4.84-19.83a9.11,9.11,0,0,0-.76-6.66c-5.55-11.34-10.35-22.79-11.28-35.78A82,82,0,0,1,280.65,316.64Z"/><path class="cls-1" d="M317.67,544.5c-5.15.06-10.3,0-15.44,0v0c-4.49,0-9-.3-13.45.08-4.88.42-6.57-1-6.56-6.23,0-17.72,3.43-15.46-16.4-15.59a14.74,14.74,0,0,0-2,.1c-2.1.26-3.35,1.45-3.36,3.59,0,4.65,0,9.3.15,13.94.1,3,1.78,4.4,4.88,4.26s6.31,0,9.47,0c7.18,0,7.18,0,7.19,6.93,0,3.15,0,6.31,0,9.46,0,3.69,1.73,5.36,5.54,5.32,10-.12,19.92-.07,29.89,0,3.78,0,5.44-1.8,5.39-5.49s-.15-7.32,0-11C323.2,546,321.37,544.46,317.67,544.5Z"/><path class="cls-1" d="M559.57,338h-.5c-9.41,0-9.45,0-9.46,9.55,0,11.27-1.05,10.3,10.5,10.4,9.59.08,9.59,0,9.61-9.75C569.58,337.3,571,338,559.57,338Z"/><path class="cls-1" d="M586.37,522.82c-17.62,0-35.23,0-52.85,0-3.4,0-5.1,1.35-5.07,5.09q.19,25.68,0,51.36c0,4.37,1.86,6,6,5.94q25.44-.06,50.86.06c4,0,5.7-1.66,5.64-5.68-.13-8.64,0-17.28,0-25.93s-.07-17.28,0-25.92C591,524.43,589.85,522.81,586.37,522.82Z"/><path class="cls-1" d="M692.41,572.27c-.11-3.31-1.17-5-4.68-4.8-2.82.14-5.65.06-8.48,0-5.12-.08-5.81-.7-5.84-5.73-.06-10.47,0-21,0-31.42,0-2,.45-4-1-5.76l0,0c-11.6-1-23.22,0-34.82-.53-3.78-.17-4.79,1-4.71,4.72.25,11,.14,21.94.07,32.92,0,4.89-1.4,6.22-6.2,6.35-3,.07-6,0-9,0-5.23,0-7.1-1.45-7.2-6.55-.23-11.3-.18-22.61,0-33.91.06-4.41,2.85-6.85,7.32-7,2.49-.06,5,0,7.48,0s4.09-1,4.08-3.78,0-5.65,0-8.48c0-2.25-1.07-3.35-3.41-3.2-1.32.09-2.66,0-4,0-11.53,0-11.53,0-11.53-11.73v-.5c0-12.2,0-12.2,12.11-12.25,6.83,0,7,0,6.81-7-.35-11.24,1.06-12.41,12-12,1.66.07,3.33,0,5,0s3.54-.29,4.64-1.85c.39-1.77.2-14.14.19-15.17a2.91,2.91,0,0,0-1.85-1.86l-16.77-.23c-4.82-2.89-3-7.67-3.09-11.73-.2-13.07-.07-13.07,12.77-13.08,9.11,0,9.11,0,9.12-9.28,0-8,1.43-9.43,9.52-9.67a33.84,33.84,0,0,1,3.49,0c8.67.65,8.93.4,9-8.37,0-11.18.49-10.14-10.35-10.12-9.73,0-11.34,1.89-11.25-11.27q.15-22.18,0-44.38c0-5.69-1.46-7-7.15-7.14-2.49-.08-5,.23-7.47.21-5.19,0-7.15-2.06-7.29-7.21,0-1.5,0-3,0-4.49-.19-5.23-.92-6-6-6.59-7-.76-13.91.19-20.88.06-11-.21-10.86-.07-10.47,11,.12,3.68,1.62,4.89,5.18,4.92,4.59,0,9.23-.79,13.78.51,2.14.93,2.58,2.64,2.61,4.84.05,3.63.08,7.25,0,10.88-.11,4.66.85,5.55,5.43,5.64,3,.07,6,0,9,0,2.53,0,4.43,1.33,4.42,3.73,0,5.23.91,10.51-.54,15.69-4.32,2.65-9.09,1.07-13.64,1.34-3.53.21-5.65,1-5.23,5.18a78.59,78.59,0,0,1,0,11c-.11,2.79,1,3.85,3.77,3.83,3.81,0,7.63.22,11.44.37,2.66.1,3.83,1.51,3.8,4.16-.06,4.82,0,9.64,0,14.46,0,3.42-1.78,4.73-5,4.67-3.66-.07-7.32-.12-11,0s-5-1.76-5-5.2c.06-3.83-.22-7.66.05-11.47s-.86-5.49-4.94-5.16c-3.8.31-7.64-.08-11.46.08-3.54.14-5.34-1.36-5.38-4.88,0-4.65,0-9.31,0-14,0-3.1,1.63-4.52,4.69-4.45,1.5,0,3,0,4.49,0,12.95,0,12.84,0,12.65-13.05,0-3.06-1.17-4.27-4-4.31-4.32-.07-8.65-.23-13-.12-3.66.09-5.1-1.51-5-5.1.15-4.15-.05-8.31,0-12.46.06-2.74-1.1-3.89-3.84-3.88-5.31,0-10.63-.16-15.94-.25-2.73-1.74-2.31-4.58-2.34-7.15-.1-7.13,0-14.27,0-21.4,0-11.08,0-11.08-10.9-11.07h-.23s0,0-.26-.08c-3.44-.75-4.51,1.08-4.55,4.08-.06,4,0,8,0,11.94,0,2.65-1,4.94-3.73,4.95-6.42,0-12.91,1.11-19.26-.76l-1-1.05c-1.05-6-.2-12.11-.47-18.16a3.51,3.51,0,0,1,2.25-3.49c3.71-1.17,7.56-.85,11.37-1,2.38-.06,5-.2,6.16-2.5,2-4,1.71-8.55.43-12.63-1.16-3.69-5-2.56-7.84-2.57q-41.62-.11-83.26,0a25,25,0,0,1-5.47-.2c-3.14-.71-5.58-2.26-5.53-6,.09-7.46-.38-14.92-.13-22.37.3-9.14-.23-18.27,0-27.4a9.24,9.24,0,0,0-1.81-5.61c-4.06-2.44-8.55-.82-12.82-1.35-2.45,0-4.31-1.28-6-2.86-1.85-5.67-2.6-11.31.52-16.82a6.63,6.63,0,0,1,4.11-1.42c10.24-1.05,20.51-.09,30.75-.34,2.33-.06,5.08-.22,6.87,2.09a9.69,9.69,0,0,0,1,1.27c1.22,3,.44,6.06.66,9.1.16,2.27.12,4.58,2.38,6,5.28,1.09,10.67-.28,15.94.77.47.29.92.59,1.36.91,1.64,1.81,1.16,4.05,1.29,6.17.22,3.46-.51,7,.67,10.37,1.55,2.86,4.49,2.95,7.16,3.6a39.09,39.09,0,0,0,6.58-.17c3.24-1.41,3.05-4.34,3.3-7.16.33-3.89-1.08-7.95,1.13-11.65a14.76,14.76,0,0,1,2.47-2.06c4.69-1,9.47.09,14.17-.61a4.43,4.43,0,0,0,2.67-3.35,41.18,41.18,0,0,0,.11-6c-.22-5.22-1.7-6.65-7-6.86-2.32-.09-4.65,0-7-.05-3.24-.06-4.9-1.67-4.93-4.93,0-3.66,0-7.31,0-11,0-3.91-2-5.79-5.78-5.91-3.33-.1-6.65,0-10-.07-2.13,0-4.26-.45-4.88-2.66-1.54-5.51-2.1-11.36.33-16.53,1.78-3.79,6.32-1.37,9.59-1.95a9.25,9.25,0,0,1,1.49,0c12.15-.17,12,.21,11.88,11.76-.05,6.23,1,7.12,7.29,7.2.83,0,1.66,0,2.49,0,5.3-.23,6.5-1.35,6.52-6.53,0-8.63.1-17.27,0-25.91-1.39-5.86-1.71-6.18-7.61-6.23-9-.08-18-.11-26.94,0-4,.06-5.79-1.76-5.87-5.62-.07-3.15,0-6.31-.09-9.47-.06-2.07-.4-4.17-2.23-5.31-4.29-2.65-9.06-2.08-13.5-.85-3.92,1.08-4,4.86-4,8.28q0,20.7,0,41.41c0,12.54,0,12.54-12.69,12.46-6.8-.05-8.57-1.91-8.16-8.56.54-8.62-1.06-10.37-9.55-10.41-1,0-2,.05-3,0-3.89-.18-6.27,1.17-6.73,5.49-.28,2.63-.84,5.23-.86,7.9,0,3.68-1.91,5.47-5.56,5.53q-4.74.09-9.48,0c-3.9,0-5.87,1.71-5.85,5.69,0,2.83,0,5.65-.05,8.48-.15,5.78-2.05,7.69-7.92,7.76-7.48.09-15,0-22.45,0-10.35,0-10.35,0-10.55,10.52-.12,6.55-1.78,8.28-8.27,8.39-7.81.13-15.63.06-23.44,0-8.51-.07-9.16.61-9.21,8.92,0,2.66.05,5.32-.07,8-.09,2-.92,3.85-3.07,3.89-5.93.13-11.92,1.1-17.8-.63a8.77,8.77,0,0,1-1.68-1.86c-1.43-5,.21-10.24-1-15.26a4.52,4.52,0,0,0-1-1.49c-2.1-1.82-4.68-1.46-7.13-1.47-15.26,0-30.51,0-45.77,0-6.5,0-8.46-1.91-8.48-8.18q-.09-23.38,0-46.77c0-2-.14-4,1.65-5.49,2.08-1.82,4.62-1.62,7.11-1.62,14.3,0,13.16.78,13.2-13.32,0-7.21.42-7.64,7.61-7.64q44.67,0,89.33,0c7,0,7.93,1,8.05,8.11.21,13.39,1.28,14.26,14.74,12.8,3.19-.35,4.93-1.76,5-5,.14-10.64.17-21.29,0-31.93-.05-3-1.66-4.56-4.67-4.69-1.83-.07-3.66-.07-5.49-.07-28.61,0-57.22,0-85.83,0-5.86,0-6.65-.71-6.69-6.06-.1-13.52,1.67-13-14.14-12.84-.33,0-.66,0-1,0-3.37.12-5.17,1.86-5.52,5.21a57.36,57.36,0,0,0-.16,8c.16,4-1.4,5.9-5.54,5.73-3.65-.15-7.32,0-11,0-5-.12-6.6-1.61-6.51-6.66C237.94,69,236.19,71,225.26,70.86c-4.64,0-6.4-1.58-6.52-6.28-.24-10.14-.29-20.3,0-30.43.2-6.9,2-8.31,8.93-8.34,8.48,0,17,0,25.45,0,2,0,4.4.2,5.37-1.85a15.8,15.8,0,0,0,.31-11.69C257.65,8.63,254.13,9,251.16,9Q229.44,9,207.74,9c-7.85,0-8.9,1.11-8.94,9-.06,8.49,0,17,0,25.45,0,3.68-1.59,5.63-5.42,5.47-1.16,0-2.33,0-3.49,0-8.45.1-10,1.57-10,9.85q0,53.15,0,106.29c0,2.14-.29,4.36,1.09,6.27,4.27,2.15,8.78,1.12,13.19.87,2.13-.12,3-1.78,3.31-3.78a43.57,43.57,0,0,0,.17-5.48c0-15.29-.06-30.57,0-45.86,0-5.41,1.08-6.33,6.47-6.44,2.16,0,4.32,0,6.48,0,9.16,0,9,0,9.2,9.24.26,13.94.34,27.91.3,41.82,0,11.2,2.17,12.32-11,12-.67,0-1.33,0-2,0-6.72.19-8.22,1.64-8.28,8.29-.07,8.64,0,17.29-.05,25.93,0,5.29-1.23,6.46-6.41,6.66-2.49.1-5-.12-7.47.21s-4.2,1.36-4.1,4.08c.15,4.13-.55,8.23-.16,12.4.26,2.78,1.36,3.3,3.72,3.22,3.49-.11,7,0,10.47,0,2.89,0,4.3,1.39,4.35,4.22.08,4,0,8,0,12,0,2.9-1.47,4.07-4.27,4.37-3.31.35-6.62.53-9.93.6s-4.8,1.53-4.78,4.94q.1,15.94,0,31.9c0,3.49,1.69,4.69,4.87,4.81,3,.11,6-.4,8.89.69,2.48.26,3.93,1.32,3.83,4.12-.11,3.32,0,6.65-.05,10-.06,2.84-1.47,4.26-4.31,4.35-3,.09-6-.06-9,.14s-4.82,1.49-4.77,5c.15,10.14.09,20.29,0,30.43,0,3.44,1.3,5.16,4.95,5.34,10.44.51,12.69-.16,13.42-4.6a12.06,12.06,0,0,0,.09-2c0-2.5.14-5,0-7.48-.24-3.67,1.33-5,5-5,4.25,0,8.57.79,12.77-.57,1.81-1.28,2.32-3.07,2.26-5.2-.08-3.32,0-6.63,0-9.94.07-6,.84-6.79,7-6.8,4.31,0,8.62.1,12.92.15,5.2,3.87,5,3.78,7.33-2,3.15-7.67,4.76-16,9.84-22.86q2.45-4,4.9-8c1.43-3.73,0-5.2-3.82-5.13-4.28.08-8.57,0-12.85,0-1.82,0-3.69.15-4.8-1.77-1.38-1.42-1.59-3.18-1.59-5.07,0-17.78,0-35.57,0-53.35,0-3.81,1.52-5.32,5.39-5.27q17.94.23,35.9,0c3.85-.06,5.33,1.15,5.25,5.13-.21,10,0,20-.1,29.92,0,2.28.13,4.34,2.52,5.45,4,.95,6.74-1.86,9.95-3.29,4.83-1.16,3.91-5.06,4-8.45.16-5.59,1.24-6.71,6.77-6.73,10.14,0,20.29,0,30.44,0,5.67,0,5.64,0,5.73-5.89a102,102,0,0,1,.4-11.45c.37-3,1.82-4.07,4.55-4.09,3.82,0,7.65,0,11.47,0,3.53-.08,5.22,1.36,5.09,5.05-.15,4.14.28,8.28.38,12.41.08,3.38,1.67,4.75,4.8,5.09,3.3.35,6.49,1.28,9.77,1.76,4.67.68,5,.44,4.94-4.39-.2-12,0-23.95-.12-35.92,0-3.83,1.54-5.53,5.27-5.53,3.16,0,6.32,0,9.48,0,4.16-.06,6.09,2.17,6.32,6.06.21,3.48,0,7,.12,10.47.09,3.69,1.91,5.43,5.62,5.41,3.49,0,7,0,10.48,0,3.24,0,5,1.22,4.9,4.71-.09,4.32,0,8.65-.05,13-.07,3.63-1.82,5.47-5.59,5.42-4.82-.06-9.65,0-14.47,0-4.49,0-9-.25-13.46.2-1.31.13-2.85.39-3.17,1.93-.38,1.8,1.28,2.06,2.47,2.54,8.32,3.32,16.18,7.95,24.48,10.88,6,2.13,9.91,4.34,12.7,10.09,1.89,3.89,6.35,6.23,9.28,9.63,2.36,2.74,5.12,3.7,8.75,3.68q30.44-.19,60.88,0c2.24.73,2.94,2.37,2.95,4.61,0,10.94,0,21.89,0,32.83,0,1.79-.35,3.74-2.2,4-7.28,1.07-14.66,2.75-21.67-1.26-1.47-4.76.12-9.73-1-14.51a3.6,3.6,0,0,0-1.19-1.29,174.69,174.69,0,0,0-23.21-.75c-3,.07-4.4,2-3.13,5.22a138.13,138.13,0,0,1,4.53,13.12,122.54,122.54,0,0,1,4.93,27.77c.52,11.93.71,12.3,12.58,11.61,3.88-.22,5.76-2.18,6.13-5.82.27-2.65.12-5.32.15-8,0-3,1.36-4.71,4.49-4.75,5-.07,10-.12,15,0,3.24.09,4.84,1.74,4.71,5.07-.08,2.16,0,4.33,0,6.49.08,6.47.8,7.14,7.12,7.36,2.78.09,5.68-.66,8.32.85,2.93,3.67,1.29,8,1.44,11.95.31,8.22,1,9.1,9.19,9.14,8.6,0,17.21,0,25.81,0,3.64,0,6.14,1.06,6,5.35-.11,3.64,0,7.28,0,10.92,0,2.12-.49,3.93-2.44,5.08s-3.86.79-5.83.8c-6.81,0-13.61,0-20.42,0-10.18,0-10.72.58-10.21,10.7,0,.33,0,.66,0,1,.06,3.22,1.68,4.88,4.92,5,1.65.06,3.31.07,5,.07,14.61,0,29.21-.08,43.82.06,6,.05,8,2.19,8.11,8.11,0,2,0,4,0,6,.14,6.38,1.54,7.75,8.09,7.89,2.48.05,5-.07,7.46.05,3.71.18,6.15,2.8,5.73,6.43s-.25,7-.34,10.44c-.14,5.29-.85,5.91-6.07,6.2-4.26.22-8.63-.92-12.76,1-2.94,3-2,6.84-2.11,10.4-.42,9.09.76,18.21-.67,27.29a5.36,5.36,0,0,1-4.67,2.24c-4.76,0-9.53,0-14.29,0-1.52,0-3-.18-3.86-1.66-1.39-3.86-.45-7.86-.69-11.79-.16-2.65,0-5.35-2.08-7.43-3.2-1.81-6.71-.77-10.07-1.07-2.05-.18-4.31.55-6-1.41a30.6,30.6,0,0,1,.17-16.76c2.17-3,5.43-1.92,8.28-2,8.85-.2,9.62-.9,9.64-9.8,0-1.83,0-3.66-.08-5.48-.14-2.08-.69-3.93-2.73-5-9.4-1.28-18.85-.27-28.27-.55-1.81-.05-3.67-.13-5.29,1-1.73,1.95-1.31,4.35-1.33,6.62q-.1,14.11,0,28.23c0,3.58-1.47,5-5,5.12-4.09.1-8.26-.72-12.26.75a3.21,3.21,0,0,0-1.19,1.41c-1.15,9.95-.31,19.93-.5,29.89-.15,8,.08,16-.08,24-.1,5.14-1.64,6.66-6.47,6.82-3,.1-6,0-9,0-8,0-8.61-.59-8.63-8.43q-.06-33,0-65.89a14.26,14.26,0,0,1,.45-4.95c.25-.55.51-1.09.75-1.65,2.82-3.5,6.77-2,10.24-2.07,9.1-.25,10.49-1.45,10.51-10.36q0-20.4,0-40.81c0-8.45-1.07-9.46-9.4-9.61-9.94-.17-19.9.44-29.84-.34-3.09-.24-4.28-1.88-4.13-5,.18-3.65.08-7.31,0-11,0-1.29.22-2.93-1.46-3.32-1.44-.34-2.42.81-3.3,1.83a7.58,7.58,0,0,0-1.32,2.65,83.89,83.89,0,0,1-10.45,21.31,6.94,6.94,0,0,0-.51,1.6,26.16,26.16,0,0,0-.28,5.45c0,6.47,0,12.94,0,19.41,0,7.06-.27,7.62-6.46,7.67a47.46,47.46,0,0,1-9.46,0h0c-4.56.11-5.7,1.28-6,6-.68,10.82.23,13.41,5,14.18a26.4,26.4,0,0,0,4,.15c2.15,0,4.31,0,6.47,0,2.38,0,4.49,1,5.35,3,2,4.73,1.44,9.74.44,14.6-.33,1.63-2.2,2.39-4,2.45q-7.22.21-14.43,0c-2.55-.07-3.94-1.45-4-4.07-.12-3.15,0-6.31-.12-9.46-.11-2.43-.46-4.75-3.65-4.92-15.77-.11-31.54,0-47.31,0-9.78,0-9.86.07-9.67,10,.12,6.29,1,7.25,7.22,7.32,8.63.09,17.26-.05,25.89.06,5.34.07,6.67,1.48,6.79,6.9.08,3.82,0,7.64,0,11.46,0,3-1.36,4.69-4.49,4.71-10.79.07-21.58.14-32.37,0-3.4-.05-5.08-2.06-5.18-5.43-.05-1.49,0-3,0-4.48,0-12.37-1.06-13.28-13.51-11.74a5.8,5.8,0,0,0-1.41.45,3.15,3.15,0,0,0-1.28,1.35c-.75,1.92-.56,3.94-.57,5.92,0,8.15,0,16.3,0,24.45-.05,7.34-1.19,8.5-8.3,8.53-3.33,0-6.65,0-10,0s-4.88-1.57-4.85-4.88c0-2.16,0-4.32-.06-6.48-.26-5.82-1.81-7.39-7.51-7.56-3.16-.1-6.32,0-9.48-.09s-4.92-1.64-4.91-5c0-3.83-.09-7.66,0-11.48.12-4.41,1.92-6.28,6.36-6.57,3.31-.22,6.65,0,10-.15,2.8-.14,4.87-1.32,5.32-4.26a21.81,21.81,0,0,0-.25-8.92c-.71-2.73-2.33-4.23-5.37-4.12-3.65.13-7.34-.28-11,.14-3.79.44-5.11-1.39-5.49-4.7-.79-7-1.66-7.56-8.41-5.61a22.27,22.27,0,0,1-3.8,1.18c-3.71.38-5.07,2.69-5.13,6.13-.08,4.66,0,9.32-.05,14,0,7.2-.72,7.85-8.12,7.87-9.32,0-18.63,0-27.95,0-6.16,0-6.42.29-6.44,6.51,0,9.15.09,18.3,0,27.44-.09,5.85-1.77,7.4-7.48,7.48-2.83,0-5.66,0-8.49,0-2.21,0-3.43,1.12-3.42,3.36.06,10.64-.23,21.28.15,31.92.14,4.07,2.22,5.28,6.11,5.19,9-.22,18-.1,26.95-.06,6.31,0,7.67,1.4,7.69,7.53q0,3.26,0,6.49c0,6.76-1,7.83-7.69,7.91-9,.11-18,0-26.95,0-5.48,0-6.19.82-6.29,6.42-.06,3.64.63,7.25.05,10.92-.46,2.83-1.85,4.12-4.62,4.12-4.66,0-9.31,0-14,0-3.3,0-4.8-2-4.89-5.08-.12-4.49-.17-9,0-13.47.16-4.25,1.9-5.79,6.3-5.89,3.49-.09,7,.19,10.47-.09,6.84-.53,3.54-5.92,4-9.26.43-3,1-6.77-4.15-6.63-.83,0-1.66,0-2.49,0-3.16,0-6.33-.11-9.48,0-6.28.28-12.6-.79-18.83.65-1.56,1.85-1.22,4.08-1.24,6.21,0,8.65,0,17.3,0,26,0,12.32-.08,24.63,0,36.94,0,5.56,1.65,7.11,7.09,7.43,1.16.07,2.33,0,3.49.06,6.53.13,8.25,1.85,8.34,8.34,0,1.33,0,2.66,0,4,0,13.13,0,13.13-13.05,13.86-4.81.27-5.89,1.46-6,6.58-.08,5.4,1.1,7,5.92,7.16,7.65.21,15.31.19,23,0,5.23-.13,6.64-1.73,6.87-7.05.5-11.23.5-11.23,12-11.88.67,0-.16,0,.5,0,4.72-.37,6.32-1.79,6.42-6.47.33-14.62,0-29.23.62-43.85.45-10.93.9-12,11.88-11.64,7.49.23,15,.19,22.46.06,6.9-.12,8.91-2.24,9-9,0-2.16-.07-4.32.06-6.48.27-4.51,2.05-6.28,6.45-6.4,2.66-.07,5.33-.06,8,0,4.33.1,7.69,2.61,8.48,6.85a21.94,21.94,0,0,1,.59,7.36c-.68,4.74,1.53,7.14,6.34,7.63,2.49.25,5,.06,7.48.13,4.55.11,7.59,2.82,7.62,7.26.12,17.8.05,35.6.06,53.4,0,3-1.39,4.52-4.13,5.41-3.42,1.1-6.9.84-10.38,1-5.48.19-6.76,1.82-6.82,8.58,0,3.72,1.65,5,6.83,5.21,2,.07,4,0,6,0,12.14,0,24.29,0,36.43,0,2.45,0,5.1.18,6.39-2.75,2.71-6.15-.26-10.91-6.93-11.05a33.08,33.08,0,0,1-5-.17c-2.68-.46-4.06-1.76-4.78-4.77-1.09-4.61-.84-9.2-1.07-13.79-.24-4.89,3.54-7.9,8.49-7.63,7.81.43,15.63.2,23.45.14,5.75-.05,8.2-2.3,8.12-7.08-.1-5.64-2.06-7.56-8-7.62-8.48-.08-17-.11-25.45,0-3.36.05-5.77-1.39-6.53-4.27-1.52-5.81-.9-11.8.55-17.53.94-3.73,4.13-4.52,7.89-4.43,6.07.14,8.57-1.49,9.53-5.26,2.06-8.15-1.17-12.41-9.48-12.48a23,23,0,0,0-2.49,0c-4.39.44-5.7-2.59-6.58-5.95a12.61,12.61,0,0,1-.09-4c.76-12.14,2.95-13.53,12.79-13.36,7.2.12,12.77,3.47,12.32,11.82-.25,4.9,1.58,6.88,6.45,7.07,14.62.59,29.27.44,43.9.07,4.23-.11,6.14-2.7,6.19-6.94.06-5.38-2-7.58-7.43-7.65-9.15-.14-18.3,0-27.45-.07-3.14,0-5.76-.93-5.8-4.65-.13-11.65-.25-23.3.08-34.93.1-3.57,1.78-6.19,6.26-6.93,3.56-.58,6.9.5,10.37-.06,4.61-.73,6.75,1.45,6.55,6.25a68.4,68.4,0,0,0-.1,8c.24,3.2,1.89,5.59,5.08,5.9,3.6.34,6.94,2,10.77,1.46s5.71,1.61,5.94,5.6c.16,2.82-.1,5.66.15,8.48.39,4.4,3.05,6.6,7.75,6.59,6.2,0,8.73-1.87,8.92-6.86.34-8.46.12-16.93,0-25.4,0-2.77-.79-5.28-3.5-6.7a8.57,8.57,0,0,0-2.92-.57c-13.14-.87-13.14-.87-12.53-14,.22-4.88,1.41-6.15,6.34-6.21,9-.12,17.94-.07,26.91,0,7.1,0,8.82,1.74,8.84,8.86.05,15.28,0,30.56,0,45.84,0,6.33.86,7.12,7.28,7.17,9.3.07,18.6-.1,27.9.07,6.07.11,7.65,1.79,7.7,7.81.07,7.64-.06,15.28,0,22.92.17,13.2-.81,11.16-11.51,11.39-3,.06-6.42-1.07-8.78,2-1.25,3.73-.68,7.58-.59,11.36.1,4.69,1.61,6.13,6.48,6.24a78.19,78.19,0,0,1,10.36,1c3.35.53,5,2.28,5,5.66,0,3-.08,6,.13,9,.2,2.81,1.71,4,4.51,4.21,8.69.49,10-.46,11.64-8.93a15.21,15.21,0,0,0,.41-5.43c-.71-4.06,1.34-5.39,4.92-5.62a57.78,57.78,0,0,1,9.93.09c4,.43,5.55-1,5.76-4.9.16-3.14,0-6.3.05-9.46.09-5.75,1.68-7.36,7.47-7.39,10,0,19.92,0,29.88,0,1.85,0,3.68-.09,5.08,1.41,2.36,3.58,1.76,7.55,1.54,11.48-.38,6.68,1.58,8.84,8.13,9,1.5,0,3,0,4.49,0,3.62-.16,5.46-2.07,5.63-5.65.14-3,0-6,.1-9,.14-4.93,1.59-6.4,6.61-6.64,2.16-.11,4.33-.12,6.48,0,4.08.19,5.72-1.94,5.8-5.74.07-3,0-6,.06-9,.11-6.21.64-6.79,7-6.82,14.79-.07,29.59,0,44.39,0C692.19,583.85,692.76,583.16,692.41,572.27ZM560.11,357.91c-11.55-.1-10.51.87-10.5-10.4,0-9.52,0-9.52,9.46-9.55h.5c11.46,0,10-.66,10.15,10.2C569.7,358,569.7,358,560.11,357.91ZM323,560.86c.05,3.69-1.61,5.51-5.39,5.49-10-.06-19.93-.11-29.89,0-3.81,0-5.53-1.63-5.54-5.32,0-3.15,0-6.31,0-9.46,0-7,0-6.94-7.19-6.93-3.16,0-6.32-.14-9.47,0s-4.78-1.26-4.88-4.26c-.17-4.64-.17-9.29-.15-13.94,0-2.14,1.26-3.33,3.36-3.59a14.74,14.74,0,0,1,2-.1c19.83.13,16.42-2.13,16.4,15.59,0,5.25,1.68,6.65,6.56,6.23,4.45-.38,9-.08,13.45-.08v0c5.14,0,10.29,0,15.44,0,3.7,0,5.53,1.51,5.35,5.4C322.84,553.54,322.93,557.21,323,560.86Zm267.89-7.19c0,8.65-.09,17.29,0,25.93.06,4-1.6,5.7-5.64,5.68q-25.42-.15-50.86-.06c-4.1,0-6-1.57-6-5.94q.21-25.68,0-51.36c0-3.74,1.67-5.09,5.07-5.09,17.62,0,35.23,0,52.85,0,3.48,0,4.61,1.61,4.56,4.93C590.81,536.39,590.89,545,590.88,553.67Z"/><path class="cls-1" d="M584.46,630.45c-9.15.09-18.3.11-27.44,0-3,0-4.26,1.42-4.33,4.16-.08,3.16-.05,6.32-.05,9.48,0,3.42-1.55,5.32-5.09,5.34s-7.23,0-10.85.07c-3.41.12-5.6,1.35-5.17,5.46a89.57,89.57,0,0,1,.06,10c0,4.28-2.22,6.41-6.49,6.42H512.63c-3.27,0-4.91-1.65-5-4.89,0-1.66,0-3.33-.06-5-.63-12.27,0-11.61-11.92-11.93-11.75-.32-23.51-.12-35.26-.06-12.49.07-10.26-1.4-10.65,11.11-.13,4.24,1.11,6,5.62,5.81,11.44-.49,14.38-.43,13.41,13.05-.31,4.32,1.74,5.93,6,5.88,11.31-.14,22.62-.05,33.93-.05h25.94c12.21,0,12.21,0,13-12,.32-4.89,2.3-6.83,7.15-6.92,2.33,0,4.67-.15,7,0,3.54.26,4.79-1.57,4.82-4.75,0-1.33,0-2.66,0-4-.15-14,2.1-12.5,12-12.36,10.24.14,10.43-.25,10-10.55C588.43,631.79,587.5,630.42,584.46,630.45Z"/><path class="cls-1" d="M398.21,608.33c-13.63.08-11.2-.92-11.39,10.77a10.43,10.43,0,0,1,0,1.48c-.83,4.89,1.37,6.28,6.05,6,9.62-.51,9.84,1.83,9.79-9.54,0-1.33-.1-2.66,0-4C403,609.82,401.78,608.31,398.21,608.33Z"/><path class="cls-1" d="M454.76,626.54a91.35,91.35,0,0,1,9.94-.2c0-5.31.12-10.62.13-15.92,0-3.2,1.47-5,4.72-5.2,1.82-.13,3.62-.49,5.44-.55,11.64-.35,11.35-.34,11.73-11.87.17-5.28-1.73-6.43-6.55-6.32-13.12.27-26.25-.08-39.36.14-15.55.26-12.8-3.3-13.19,14-.08,3.4,1.41,4.22,4.49,4.15,4-.09,7.95-.32,11.93.39,3.34.61,4.91,2.4,4.87,5.76s0,6.64,0,10C448.91,624.74,450.15,627.12,454.76,626.54Z"/><path class="cls-1" d="M464.72,626.34h0v0Z"/><path class="cls-1" d="M435.57,670.41c-1.65,0-3.31,0-5,0a3.51,3.51,0,0,0-3.52,2.9c-2.59,9.33.18,13.07,9.71,13a25.24,25.24,0,0,1,3.48,0c4.22.58,5.93-.93,5.76-5.43C445.54,668.55,447.81,670.65,435.57,670.41Z"/><path class="cls-1" d="M446,636.75c0-.83-.09-1.67,0-2.49.43-3.58-1.5-4.73-4.68-4.69-1.33,0-2.66,0-4,0-11,0-11.11.19-10.49,11.1.21,3.8,1.56,6,5.74,5.54a37.74,37.74,0,0,1,4,0C448.31,646.28,445.74,645.5,446,636.75Z"/><path class="cls-1" d="M632.44,293c-.16,3.12,1.18,4.09,4.12,4,3.82-.16,7.66.21,11.47-.07,4.93-.37,6.59,1.85,6.25,6.49-.22,3,0,6,0,9-.07,2.43.71,3.69,3.4,3.6,4.16-.14,8.32-.08,12.48,0,3,.06,4.21-1.26,4.09-4.23-.14-3.15.08-6.32-.07-9.48-.18-3.76,1.23-5.6,5.21-5.36,3.15.19,6.32-.08,9.48,0s4.45-1.27,4.36-4.48c-.16-5.32,0-10.64,0-16,0-3,0-6,0-9-.06-13.78,1.26-12.15-12.86-12.32-2.89,0-4.34.8-4.31,3.88,0,4-.42,8-.18,12,.29,4.65-1.64,6.14-6.12,6.06-10.81-.21-21.62,0-32.44-.12-3.31,0-5,1-4.78,4.54C632.64,285.31,632.63,289.15,632.44,293Z"/><path class="cls-1" d="M652.25,637.73q0-11,0-21.91c0-7.48,0-7.48-7.27-7.49-12.41,0-12.41,0-12.43,12.51,0,8.77-.31,9.07-9.25,9.3-9.82.27-9.66.27-9.81,10.27,0,3.78.89,5.54,4.93,5.19,3-.25,6,0,9,0,3.43,0,5.2,1.72,5.17,5.24,0,3.82.19,7.65-.06,11.45-.26,4,1.46,5.36,5.26,5.12a94.35,94.35,0,0,1,10,0c3.48.15,4.66-1.4,4.6-4.78C652.15,654.33,652.25,646,652.25,637.73Z"/><path class="cls-1" d="M598.34,649.12c-.82,0-1.65.06-2.47,0-2.93-.14-4.18,1.17-4.09,4.15.12,4,0,7.93,0,11.89l0,0c.71.66,1.4,1.86,2.13,1.89,5.11.18,10.23.21,15.34.06,1.8,0,2.11-1.69,2.3-3.29C613.23,649.32,613,649,598.34,649.12Z"/><path class="cls-1" d="M580.37,671.37c-8.41.08-7.8-1-7.84,6.48,0,6.69,1,7.42,9.71,7.44,3.24,0,6.1-.33,6.24-4.46C588.79,671.61,588.58,671.38,580.37,671.37Z"/><path class="cls-1" d="M664.75,671.36c-3.47,0-7-.29-10.31,1l0,11c3.55,3.16,7.89,1.5,11.89,2,4.88.62,6.38-1.45,6.18-6.2C672.1,670.27,673.29,671.46,664.75,671.36Z"/><path class="cls-1" d="M693.09,617.57c.23-1.64-.06-3.33.08-5,.27-3.31-1.39-4.51-4.46-4.4-1.49.05-3,0-4.49,0-9.35.09-8.43-1-8.42,8.65,0,2.16-.11,4.33,0,6.48.08,1.27.11,2.85,1.82,3.17,4.59.87,9.44,1.8,13.7-.26C694.85,624.55,692.68,620.53,693.09,617.57Z"/><path class="cls-1" d="M503.06,358.47c-13.6.1-13.6-.08-13.46,13.63,0,.5,0,1,0,1.49-.15,3.16,1.33,4.59,4.51,4.37,1.48-.11,3,0,4.47,0,11.13,0,9.8,1.09,9.88-9.79a26.29,26.29,0,0,1,0-4C509.11,359.88,507.52,358.44,503.06,358.47Z"/><path class="cls-1" d="M622.09,671.3c-4.73-.24-7.07.82-6.71,6.23.44,6.77.1,6.79,7.1,6.78,6,0,6,0,6-6.43S628.47,671.61,622.09,671.3Z"/><path class="cls-1" d="M512.63,391.21c0,6.62,0,6.62,6.77,6.61,6,0,8-2.41,6.93-8.45a16,16,0,0,1-.61-3.88c.28-3.85-1.67-4.79-5.12-4.7-9.27.23-7.8-.82-8,7.94C512.62,389.55,512.63,390.38,512.63,391.21Z"/><path class="cls-1" d="M557.21,546.23c-4.32-.06-6.2,1.23-5.52,5.63a24.77,24.77,0,0,1,0,3.38c.62,2.53-1.58,6.56,1.8,8.28,3.7,1.88,8.2,1.45,12.08.21,3.61-1.14,1.93-4.84,2-7.39C567.68,546.18,567.57,546.38,557.21,546.23Z"/><path class="cls-1" d="M318.55,352c11,16.63,25.56,28.44,44.26,35.3a51.08,51.08,0,0,0,18.35,3.58c5.26.2,11.43-2.88,16.4-8.59,5.48-6.29,4.16-12.87-3.24-16.3-1.8-.83-3.57-1.74-5.35-2.63-10-5-10-4.95-17.64,3.41-.78.86-1.65,1.64-2.45,2.48a5.25,5.25,0,0,1-6.41,1.09,72.31,72.31,0,0,1-30.2-25.12c-1.88-2.67-2.73-6-.17-8.24,7.11-6.31,5.66-13,1.76-20.07a19.56,19.56,0,0,1-2.29-5c-2-9.5-13-8.27-17.54-2.54-6.24,7.79-7.77,16.28-4.79,25.71C311.22,341.4,315,346.61,318.55,352Z"/></svg>