<svg id="Layer_1" data-name="Layer 1" xmlns="http://www.w3.org/2000/svg" viewBox="0 0 32 30"><defs><style>.cls-1{fill:#fff;}</style></defs><path class="cls-1" d="M11.77,15.17A.77.77,0,0,1,10.6,16l-2-1.23L6.15,18.72a1.56,1.56,0,0,0,1.32,2.39H10a.58.58,0,0,1,.58.58v1.94a.58.58,0,0,1-.58.59H7.47a4.67,4.67,0,0,1-4-7.14l2.48-4L4,11.88a.78.78,0,0,1,.23-1.42L9.6,9.23a.78.78,0,0,1,.94.58l1.23,5.36Zm4.8-8.9,2,3.22-2,1.24a.78.78,0,0,0,.24,1.41l5.36,1.24a.77.77,0,0,0,.93-.58l1.24-5.36a.78.78,0,0,0-1.17-.84l-2,1.24-2-3.21a4.67,4.67,0,0,0-7.92,0L10.42,6a.58.58,0,0,0,.18.81l1.65,1a.58.58,0,0,0,.8-.19l.88-1.39a1.56,1.56,0,0,1,2.64,0ZM27,17.08l-1.34-2.15a.58.58,0,0,0-.8-.18l-1.65,1a.58.58,0,0,0-.18.8l1.34,2.15A1.56,1.56,0,0,1,23,21.11H18.36V18.77A.78.78,0,0,0,17,18.22l-3.89,3.89a.78.78,0,0,0,0,1.1L17,27.1a.78.78,0,0,0,1.33-.55V24.22H23A4.67,4.67,0,0,0,27,17.08Z"/></svg>