<svg id="Layer_1" data-name="Layer 1" xmlns="http://www.w3.org/2000/svg" viewBox="0 0 32 30"><defs><style>.cls-1{fill:#213f7c;fill-rule:evenodd;}</style></defs><path class="cls-1" d="M7.68,27.67a0,0,0,0,0,0,0,1.77,1.77,0,0,1-1.35-2.19c.16-1.54.28-3.07.42-4.61l.48-5.22a.49.49,0,0,1,0-.12,1.07,1.07,0,0,0-.49-1.29,1.07,1.07,0,0,1-.32-1.32Q7.83,9.62,9.26,6.35a.35.35,0,0,1,.51-.23c.21.09.26.29.14.57-.86,2-1.73,4-2.6,6l0,0c-.32.75-.31.79.38,1.29l.16-.14c.45-.42.9-.86,1.37-1.28a2.46,2.46,0,0,0,.61-.85Q11.42,8.09,13,4.41A2.35,2.35,0,0,0,13.15,4c-.67,0-1.29,0-1.9,0-.09,0-.2.13-.25.23-.15.28-.26.59-.39.88a.39.39,0,0,1-.52.24.38.38,0,0,1-.17-.52c.14-.33.28-.66.43-1a1,1,0,0,1,1-.61H13a.81.81,0,0,1,.85.59.26.26,0,0,0,.2.13,7.06,7.06,0,0,0,.92,0,.4.4,0,0,0,.26-.16q.22-.4.42-.84a1.06,1.06,0,0,1,.6-.61h6.63a1.24,1.24,0,0,1,.61.68,6.18,6.18,0,0,0,.39.77.36.36,0,0,0,.26.16c.19,0,.39,0,.58,0a1.23,1.23,0,0,1,1,1.18q0,3.15,0,6.31a1.22,1.22,0,0,1-1.08,1.19l-5.39.9-.92.16a.26.26,0,0,0-.16.19c0,.61,0,1.22,0,1.83a1.52,1.52,0,0,0,.16.45c.21.46.13.7-.32.92a3.9,3.9,0,0,1-1.74.41c-.15,0-.31,0-.49,0-.06.45-.11.89-.16,1.33q-.33,3.11-.68,6.21c0,.33-.07.66-.11,1a1.67,1.67,0,0,1-1.31,1.57l-.08.05Zm15.5-23h-.25c-3,0-6,0-9,0a.32.32,0,0,0-.34.24c-1.11,2.51-2.21,5-3.33,7.52a1.12,1.12,0,0,1-.28.4c-.6.58-1.22,1.15-1.83,1.73a.5.5,0,0,0-.15.26c-.1.93-.18,1.86-.26,2.79-.14,1.55-.28,3.1-.43,4.65-.06.77-.13,1.54-.2,2.35.32,0,.63,0,.94,0s.44.14.44.36-.14.37-.44.38h-1c0,.22,0,.43,0,.63a.92.92,0,0,0,.9.93h5.22a.89.89,0,0,0,.87-.66,7.48,7.48,0,0,0,.13-.9H9.71A.33.33,0,0,1,9.39,25a.34.34,0,0,1,.29-.38h.25c.61,0,1.22,0,1.83,0,.19,0,.27,0,.28-.25,0-.53.11-1.07.17-1.6.17-1.64.34-3.28.52-4.92.11-1,.21-2.08.34-3.12a1.24,1.24,0,0,1,1-1.07l.61-.1,8.19-1.36c.24,0,.27-.13.27-.33q0-3.45,0-6.88ZM16,14.11l-1.65.28a.56.56,0,0,0-.53.57c-.09.8-.17,1.59-.25,2.39q-.33,3-.64,6c0,.42-.08.85-.13,1.3H14.1a.2.2,0,0,0,.14-.13c0-.31.07-.63.1-.95-.57-.06-.73-.14-.71-.38.06-.51.48-.34.8-.4.06-.51.11-1,.17-1.57h-.3a.37.37,0,0,1-.38-.39c0-.21.15-.34.39-.35h.38c.06-.55.11-1.06.17-1.59l-.29,0a.37.37,0,1,1,0-.73l.36,0c.06-.54.12-1,.17-1.56-.5-.06-.66-.15-.64-.39,0-.47.43-.35.74-.4C15.16,15.07,15.66,14.66,16,14.11Zm8-2.09.38-.06c.54-.09.64-.22.64-.77V5.43a1.29,1.29,0,0,0,0-.28.45.45,0,0,0-.37-.43,3.39,3.39,0,0,0-.64,0ZM23.1,3.93c-.14-.28-.25-.53-.39-.78,0,0-.12-.07-.18-.07-2,0-4,0-6,0-.07,0-.17,0-.19.07-.14.24-.26.5-.4.78ZM15.83,16.77a3.39,3.39,0,0,0,1.77-.3c-.38-.85-.1-1.73-.23-2.58-.37,0-.37,0-.56.31s-.48.7-.71,1.06a.68.68,0,0,0-.12.24C15.92,15.91,15.88,16.33,15.83,16.77Z"/><path class="cls-1" d="M18,9.44H15.07c-.66,0-1-.31-1-1v-2a.84.84,0,0,1,.95-1h.69a.35.35,0,0,1,.37.35.36.36,0,0,1-.36.39,4.56,4.56,0,0,1-.64,0c-.23,0-.27.07-.27.28,0,.64,0,1.27,0,1.91,0,.22.06.28.28.28h5.81c.18,0,.25-.06.25-.24q0-1,0-2c0-.2-.07-.25-.26-.25H17.37A.39.39,0,0,1,17,5.84a.38.38,0,0,1,.43-.35H21a.81.81,0,0,1,.86.82q0,1.14,0,2.28a.82.82,0,0,1-.92.84Z"/><path class="cls-1" d="M16.84,11.24H14.56c-.3,0-.46-.13-.46-.36s.16-.38.47-.38h4.55c.29,0,.46.14.47.36s-.17.38-.48.38Z"/><path class="cls-1" d="M20.88,11.24h-.42a.35.35,0,0,1-.34-.36.33.33,0,0,1,.32-.37,6.17,6.17,0,0,1,.86,0,.34.34,0,0,1,.32.38.35.35,0,0,1-.35.35Z"/></svg>