<svg id="Layer_1" data-name="Layer 1" xmlns="http://www.w3.org/2000/svg" viewBox="0 0 640 480"><defs><style>.cls-1{fill:#1b3866;}</style></defs><path class="cls-1" d="M275.56,384.14c2.83-.06,5.65-.16,8.48-.19,3,0,4.24-1.25,4.24-4.32q0-10.25,0-20.5c0-.84.07-1.67.11-2.51l-.06,0c1.93-.05,3.86-.15,5.79-.15q16.54,0,33.08,0c2.56,0,2.81.28,2.81,2.74,0,6.65,0,13.29,0,19.93a4.45,4.45,0,0,1-4.76,4.75H317.7c-.62,0-1.24.09-2,.14,0,4.12,0,8,0,12,0,.34.2.94.4,1a39,39,0,0,0,5.35.89c1,.08,2.09-.47,3.14-.48,5-.06,10.06,0,15.09,0,3.74,0,3.75,0,3.75-3.69,0-7.15,0-14.31,0-21.47,0-2.24.55-2.83,2.83-2.89s4.77,0,7.15,0c3,0,3,0,3,3l0,34.63c0,2.63.51,3.16,3.18,3.19,3.16,0,6.32,0,9.48.05,1.38,0,1.82-.52,1.79-1.83-.07-2.26.1-4.52-.05-6.77-.13-1.88.5-2.65,2.3-3.46,2.25-1,4.41-.56,6.6-.7a6.88,6.88,0,0,1,3.56.36c1.62.91,1.77,0,2-1.1a8,8,0,0,0,.08-1.55q0-17.5,0-35c0-1.14-.11-2.27-.18-3.62h-9.83c-3.54,0-4.48-.92-4.48-4.4q0-3.68,0-7.35c0-2.5.24-2.77,2.73-2.82,2.77-.06,5.55,0,8.32,0,3.23,0,3.27,0,3.38-3.32.11-3.15.13-6.31.19-9.46l-.05.05,12.8,0c0,3.28,0,6.57,0,9.85a2.7,2.7,0,0,0,2.5,2.79c3.52.25,7.08.1,10.62,0,.39,0,1.08-.64,1.08-1,.08-3.83,0-7.66,0-11.6H398.24q0-7.19.07-14.38l-.05.05c4-.07,8.09-.17,12.13-.19,1.45,0,2.3-.42,2.28-2.05-.06-4.17-.07-8.35-.1-12.52h12.78V287.39H412.56q0-7.39.07-14.78l-.05.05,17.41.11c2.77,0,5.55.05,8.32-.07.57,0,1.58-.67,1.59-1.05.12-4.36.08-8.73.08-13.36h-27.4l.05.06V245.12l-.05.06c.51,0,1,.13,1.54.13q19,0,38.11,0a21.27,21.27,0,0,0,2.13-.21V230.78H440V218.21c-.54-.07-.79-.14-1-.14-2.84,0-5.68-.07-8.52,0-5.36.08-4.85-.67-4.89,4.84,0,2.61,0,5.22,0,7.94H412.57l.06.05V218h-12c-2.66-3.9-2.4-7.82-2.34-11.71,0-2.34.51-2.8,2.9-2.81,6.63,0,13.26,0,19.89,0h4.29c.06-1,.15-1.76.16-2.57,0-3.09,0-6.18,0-9.27,0-1.81.69-2.67,2.63-2.62,4,.11,8,.05,12,.07l-.06-.06v14.25h14.37V189l-.05.05c3.79,0,7.58-.07,11.36,0,1.32,0,1.8-.48,1.78-1.8,0-3.66.05-7.32.08-11l-.05.06c4.19,0,8.38-.1,12.56-.1q13.35,0,26.69,0c.89,0,1.79.12,2.68.19l-.05-.06V189H495v14.44H467.7v41.84h14.1v13H467.52v11.08c0,3.44,0,3.44-3.52,3.44h-9.52v27.32H440.19c0,4.63,0,8.91.05,13.2,0,.41.73,1,1.23,1.15a7.53,7.53,0,0,0,2.28.22H491c.45,0,.9,0,1.35,0,1.81-.15,2.67.43,2.55,2.48-.18,3-.07,6.06,0,9.09,0,2.73.17,2.83,2.84,2.86l11.78.15-.05-.06-.06,9.29c0,2.5-.94,3.43-3.41,3.43H485.42c-.52,0-1,0-1.55,0-1.47-.05-2,.58-1.95,2.09.07,7.29,0,14.58,0,21.87,0,2.41,1.07,3.43,3.51,3.45s4.77,0,7.16,0c1.53,0,2.33.49,2.24,2.27-.15,2.89-.06,5.8,0,8.71a3.4,3.4,0,0,0,3.73,3.65H521c2.78,0,2.78,0,2.79,2.75,0,2.9,0,5.8,0,8.71,0,.54.25,1.55.4,1.55,2.13.05,4.14,1.52,6.32.66,1.54-.62,4.84-.05,5.87,1.19a1.78,1.78,0,0,1,.27,1.08c0,2.78,0,5.55,0,8.32a1.57,1.57,0,0,1-1.67,1.86c-1,.07-2.06.1-3.09.1-6.84,0-13.68-.05-20.52,0-1.54,0-2.21-.42-2.12-2.07.11-2.38,0-4.77,0-7.16,0-2-1.19-3.49-3.18-3.51-6-.07-12-.09-18,0-1.22,0-2.29.71-3.71.12a2.3,2.3,0,0,0-2.49,2.2c0,2.9,0,5.8,0,8.7,0,1.2.55,1.62,1.62,1.63l7.54.06c2.54,0,3.69,1.17,3.7,3.68v10.66H485c-2.72,0-3,.36-3.07,3.17,0,3.15,0,6.29,0,9.66H467.52V429c0-3.7-.77-4.46-4.41-4.47h-8.59c0-4.29-.19-8.28.16-12.23.07-.79,2.14-1.84,3.39-2,2.54-.34,5.15-.07,7.72-.24.59,0,1.61-.83,1.62-1.29.09-8.11.07-16.23.07-24.58H440.07v6.34a37.65,37.65,0,0,0,0,4.25c.21,2-.69,2.57-2.51,2.66a41.21,41.21,0,0,0-4.65.73,2.69,2.69,0,0,1-.75,0,54.58,54.58,0,0,0-6.2-.74q-16.15-.12-32.32,0a35.35,35.35,0,0,0-7.13,1c-.5.11-1.06,1.2-1.09,1.86-.13,2.63-.11,5.28,0,7.93,0,1.41-.48,1.95-1.91,1.92-3-.07-6.06,0-9.09,0-2.57,0-3.5.93-3.51,3.41,0,2.84.09,5.68,0,8.52-.08,1.83.78,2.39,2.4,2.39,3.36,0,6.71.08,10.06,0,1.41,0,2.05.39,2,1.81,0,3.16-.08,6.32-.05,9.48,0,1.19-.4,1.76-1.67,1.75-8.26,0-16.51,0-24.77,0-1.66,0-2.42-.9-2.4-2.57,0-2.39,0-4.77,0-7.16,0-2.95-.31-3.25-3.13-3.26-7,0-14.06-.06-21.09,0-1.71,0-2.29-.59-2.26-2.22.06-2.84,0-5.68,0-8.51a3.45,3.45,0,0,0-3.64-3.64c-2.45,0-4.91,0-7.36,0-2.24,0-3.33,1.15-3.33,3.4v20.32c0,2.35-1.25,3.65-3.57,3.66-2.58,0-5.16,0-7.73,0-1,0-1.53-.41-1.53-1.49,0-2.64-.09-5.28-.14-7.92A3.54,3.54,0,0,0,299,424.5c-7,0-14.06.08-21.09,0-1.95,0-2.52.81-2.54,2.46,0,2.51,0,5,0,7.54s-.48,3.07-3,3.08c-7.81,0-15.61,0-23.42,0-1.84,0-2.67-.51-2.55-2.52.16-2.7,0-5.42.05-8.13,0-1.67.65-2.54,2.55-2.47,3.29.14,6.58,0,9.87,0,1.4,0,2.08-.51,2-2.05-.1-2.9,0-5.8,0-8.71,0-2.22-1.29-3.52-3.6-3.55-2.84,0-5.68-.06-8.52,0-1.7,0-2.43-.59-2.33-2.37.12-2.25,0-4.51,0-6.77,0-2.56,1-3.63,3.67-3.64,6.58,0,13.16,0,19.74,0,6.42,0,5.49.62,5.59-5.57,0-2.57.12-5.14.19-7.71Zm171.26-55h0c-6.19,0-12.38,0-18.57,0-2.69,0-2.74.09-2.74,2.7q0,16.74,0,33.48c0,2.76,1.22,4,4,4h34.64c2.34,0,3.38-1,3.38-3.36,0-11.54,0-23.09,0-34.63,0-1.69-.46-2.26-2.15-2.24C459.21,329.15,453,329.1,446.82,329.1Zm-158.1,81h0c3.54,0,7.08,0,10.62,0,3,0,3.38-.43,3.39-3.35,0-2.06.06-4.12,0-6.18a2.34,2.34,0,0,0-.78-1.73,8.49,8.49,0,0,0-3.9-1.39c-3.8.14-7.69-1-11.41.64-.3.13-.73-.1-1.11-.11-.67,0-1.34,0-2,0a19.92,19.92,0,0,1-4.65-.18c-1.57-.42-3.4.43-3.42,2.12,0,2.7.07,5.41,0,8.11-.06,1.62.59,2.16,2.12,2.14C281.25,410.11,285,410.14,288.72,410.14Zm27-33.8v-4.06c0-2.42-.42-2.89-2.88-2.95-2.7-.06-5.4,0-8.1,0-1.4,0-2,.5-2,1.9,0,2.76,0,5.53,0,8.29,0,3.44,1,4.46,4.55,4.45h5a3.11,3.11,0,0,0,3.41-3.36C315.7,379.17,315.69,377.75,315.69,376.34Z"/><path class="cls-1" d="M370.68,80.76c.08-1.16.21-2.31.21-3.47q0-17.51,0-35c0-3.2.23-3.48,3.35-3.48,12,0,24,0,36,0,2,0,2.57.6,2.47,2.52-.18,3.48-.14,7-.2,10.44l.06-.05c-3.87,0-7.73-.1-11.59,0-2.32,0-2.69.44-2.69,2.74,0,12,0,24-.06,35.94,0,1.74.86,2.11,2.21,2.12,2.77,0,5.54,0,8.31,0s3.93,1.06,3.92,3.77c0,3.6-.07,7.21-.11,10.81l.05-.05c-3.61,0-7.22,0-10.83.05a3.35,3.35,0,0,0-3.5,3.55c0,7.09-.07,14.18,0,21.27,0,1.89-.6,2.47-2.41,2.38-2.58-.12-5.16,0-7.74,0s-2.76-.17-2.77-2.91c0-2.9,0-5.8-.08-8.69-.08-2.62-.26-2.75-2.78-2.77h-7.16c-3.53,0-4.46.94-4.47,4.45,0,2.71,0,5.42,0,8.13,0,1.29-.36,1.84-1.75,1.81-3.41-.07-6.83-.06-10.25,0-1.83,0-2.48-.75-2.46-2.55.07-6.58,0-13.15.05-19.73,0-.39,0-.77,0-1.16-.08-3.37-.5-3.78-3.79-3.77-2,0-4,0-6,0-2.25.06-3.26,1.12-3.26,3.32,0,7.22,0,14.44,0,21.66,0,1.67-.44,2.28-2.17,2.21-3.73-.15-7.47-.12-11.2-.17l0,.06c-.06-3.35-.14-6.7-.18-10-.05-3.19-1.12-4.26-4.35-4.25-2.58,0-5.16.07-7.73,0-1.61-.06-2.23.68-2.22,2.15q0,6.09.1,12.17l.08-.07c-3.67.05-7.35,0-11,.19-1.8.08-2.18-.68-2.17-2.24.05-6.25,0-12.51,0-18.76,0-1,0-2.06,0-3.09,0-2.92.16-3.14,3-3.15q14.5,0,29,0c2.26,0,4.52-.06,6.77,0,1.48,0,2-.45,2-2-.06-6.76,0-13.53,0-20.3,0-2.29,1.37-3.49,3.4-4.3s3.67.3,5.53.17c3.65-.24,7.34,0,11-.1a15.46,15.46,0,0,0,2.55-.54,3.35,3.35,0,0,1,1.29-.11c1.17.25,2.32.59,3.47.88.06,3.08.21,6.17.12,9.25-.05,1.82.82,2.44,2.39,2.46,3.54,0,7.07,0,10.61,0,1.07,0,1.53-.43,1.51-1.48,0-3-.05-6-.1-9.06,0-.35-.19-1-.37-1a51.9,51.9,0,0,0-5.53-.81c-.91-.07-1.92.58-2.76.37C374.56,79.92,372.65,80.64,370.68,80.76Z"/><path class="cls-1" d="M136.94,437.13V433.4q0-44,0-88c0-3.46,0-3.45,3.57-3.45h88.43c4.57,0,4.57,0,4.58,4.56v87.85c0,3.05-.18,3.24-3.28,3.24q-45.19,0-90.37,0A22.48,22.48,0,0,1,136.94,437.13Zm81.95-12.8V356.71h-69v67.62Z"/><path class="cls-1" d="M536.59,134H440.23V39c1.12-.09,2.19-.25,3.26-.25h90.16c3,0,3.06.06,3.06,3q0,45,0,90C536.71,132.43,536.64,133.13,536.59,134Zm-47.51-14.19H520.8c2.86,0,3-.11,3-2.66q0-31.23,0-62.47c0-2.92-.17-3.11-3-3.11q-31.62,0-63.24,0c-2.95,0-3,.1-3,3,0,20.95,0,41.91,0,62.86,0,1.67.49,2.39,2.13,2.33.64,0,1.29,0,1.93,0Z"/><path class="cls-1" d="M136.93,134v-2.79q0-44.29,0-88.6v-.38c0-3.47,0-3.46,3.56-3.46q44.1,0,88.21,0c5.62,0,4.78-.33,4.78,4.74q.06,43.62,0,87.24c0,3.42,0,3.42-3.49,3.42H140.26C139.25,134.17,138.23,134.08,136.93,134Zm82-82.17c-1.32-.1-2.46-.27-3.6-.27q-31.24,0-62.48,0c-3.1,0-3.11,0-3.11,3.11q0,31.33,0,62.67c0,.68.07,1.36.11,2.18H219Z"/><path class="cls-1" d="M336.93,181c3.22,0,6.45,0,9.67,0,.6,0,1.16.58,1.78.74,1.22.3,2.46.51,3.69.73,1,.17,2.3-.43,2.66,1.17,0,.11.33.16.51.22a50,50,0,0,1,6.34,2.08,64.93,64.93,0,0,1,6.24,3.84,3.63,3.63,0,0,0,1.12.64c1.6.3,2.38,1.57,3.41,2.61,1.29,1.29,2.78,2.39,4.08,3.68s2.75,3,4.13,4.5,2.68,2.74,3.89,4.22a17,17,0,0,1,1.88,3.09c.73,1.4,1.34,2.86,2,4.27.92,1.85,1.87,3.69,2.8,5.53a1.2,1.2,0,0,1,.17.34c.65,2.76,1.46,5.5,1.89,8.3.31,2.08,0,4.25.19,6.37.08.93.68,1.82.85,2.76a7.05,7.05,0,0,1,0,2.55c-.16.88-.77,1.7-.84,2.57-.15,2.18-.07,4.38-.16,6.57-.05,1,.3,2.09-1,2.83-.48.27-.43,1.65-.49,2.53a13.42,13.42,0,0,1-2.81,7,3.86,3.86,0,0,0-.25.7A88.39,88.39,0,0,1,385,269.1c-.88,1.55-2.49,2.67-3.72,4a27.51,27.51,0,0,0-2.56,3.23,17.93,17.93,0,0,1-4.87,4.56c-1.57,1.13-3,2.42-4.58,3.59-1.28,1-2.57,2-3.93,2.8-1.56,1-3.2,1.83-4.81,2.74a1.54,1.54,0,0,1-.34.17,46.1,46.1,0,0,0-6.76,2c-3,1.36-6.39.73-9.17,1.92-4,1.71-7.94,1-11.88.85a54.74,54.74,0,0,1-9.17-1.55,25.46,25.46,0,0,1-5-1.49c-1.58-.68-3-1.76-4.51-2.6a3.74,3.74,0,0,0-1.64-.43c-1.93,0-3.87,0-5.8.1-.58,0-1.11.62-1.7.85a8.83,8.83,0,0,1-1.93.55c-1.76.28-3.79-.51-5.11,1.38-.06.08-.25.06-.37.08-3.09.63-6.18,1.22-9.26,1.92-.95.21-1.8.87-2.76,1.06a20.7,20.7,0,0,1-4.16.36c-.24,0-.7-.9-.67-1.37.14-2.36-.65-4.87,1.25-7,.42-.47.2-1.49.34-2.25.26-1.45-.12-3.08,1.32-4.24.39-.31.28-1.22.43-1.84.57-2.31.55-5.07,1.87-6.83,1.73-2.29,1.4-4.59,1.23-6.83-.14-1.75-1.37-3.41-2.15-5.09-.15-.33-.55-.55-.65-.88-.74-2.46-1.23-5-2.2-7.39-2.8-6.83-.92-13.93-1.4-20.89-.11-1.68-.21-3.46,1.24-4.88.4-.38.21-1.35.33-2,.26-1.51-.24-3.29,1.49-4.31.12-.07.11-.35.17-.54a45.12,45.12,0,0,1,1.93-6.37,41,41,0,0,1,3.62-5.68c.91-1.35,1.88-2.64,2.84-3.95a24.41,24.41,0,0,1,1.85-2.41c2-2.11,4-4.24,6.15-6.21a23.61,23.61,0,0,1,3.47-2.18c.74-.47,1.47-1,2.18-1.49,1.27-.92,2.48-1.93,3.8-2.77a24.82,24.82,0,0,1,3.46-1.73c1.72-.75,3.76-1,5.13-2.19,2-1.66,4.51-.67,6.3-1.67C328.39,179.87,332.75,181.55,336.93,181Zm.5,11.13v0c-2.84,0-5.67,0-8.51,0a5.33,5.33,0,0,0-1.68.28c-1.08.36-2.12.85-3.2,1.22-2.12.73-4.3,1.28-6.35,2.15a46.15,46.15,0,0,0-5.31,2.87,26,26,0,0,0-3,2.07c-1,.79-1.85,1.73-2.8,2.56a33.75,33.75,0,0,0-3.32,2.84c-1.43,1.63-2.49,3.6-4,5.14s-2.86,2.81-2.9,5a2.23,2.23,0,0,1-.3.9c-1.36,2.81-3.14,5.49-4,8.45a46.93,46.93,0,0,0-1.72,11.12,44.32,44.32,0,0,0,1.14,9.25c.58,3.2,1.41,6.36,2.14,9.54a2.43,2.43,0,0,0,.4.64c1.09,1.73,2.81,3.15,2.6,5.51a1.53,1.53,0,0,0,.43,1c1.09,1.17,1.64,5.44.48,6.3s-.92,1.84-1,2.85c-.16,1.27.17,3-.53,3.7-1.31,1.31-.81,2.74-1.08,4.1-.05.3.28,1,.41.95a29.8,29.8,0,0,0,4.11-.41c.78-.16,1.46-.82,2.24-.94,1.2-.2,2.46,0,3.66-.23.9-.15,1.74-.93,2.62-1a45.07,45.07,0,0,1,5.92.22c.6.06,1.13.6,1.73.82s1.36,0,1.46.3c.84,2.17,3.21,1.54,4.73,2.5a15.1,15.1,0,0,0,7.6,1.93c6.53.08,13.15,1.42,19.56-1.17,2.2-.89,4.76-1,6.82-2.12a14.36,14.36,0,0,1,3.45-1.56,10.29,10.29,0,0,0,3.33-1.8c1.29-.93,2.43-2,3.65-3.07,1.47-1.24,3.26-2.24,4.36-3.75,1.26-1.72,3.58-2.73,3.74-5.22,2.65-1.11,2.56-4.15,4.18-6a8.42,8.42,0,0,0,1.83-3.8c.56-3,2.41-5.65,2-8.83,0-.22.19-.46.28-.7.33-.91,1-1.84.92-2.72-.32-4.49.64-8.92-1-13.52-1.25-3.52-1.47-7.45-3.42-10.86-1.29-2.26-2-4.89-3.64-6.88-.85-1.05-1.16-2.28-1.92-3.19-1.2-1.45-3.15-2.32-4.18-3.85-1.84-2.72-4.7-4.09-7.13-6a25.61,25.61,0,0,0-6.37-3.28c-2.17-.85-4.49-1.32-6.74-2-.25-.07-.65,0-.73-.16-1-1.86-2.8-1.21-4.3-1.29C341.82,192.06,339.62,192.15,337.43,192.15Z"/><path class="cls-1" d="M246.58,203.37c-.05-2.83-.14-5.65-.16-8.48q0-7.92,0-15.83c0-2.83,0-2.86,2.93-2.87s5.54,0,8.31,0a30.39,30.39,0,0,0,3.11-.34V134l13.1.14c1.36,0,1.52-.89,1.52-1.94,0-3.48,0-6.95,0-10.43,0-1.41-.52-2-1.93-1.95-3.29,0-6.57,0-9.85,0-2.44,0-2.73.29-2.77,2.82-.05,3.8,0,7.59,0,11.39H246.55c0-.7-.12-1.38-.12-2.06q0-10.82,0-21.65c0-2.16,1.14-3.3,3.39-3.33s4.77,0,7.15,0c1.21,0,2.42-.21,3.59-.32a2.5,2.5,0,0,0,.24-.67c0-7.86,0-15.72.06-23.58,0-1.8-1.21-1.79-2.3-1.83-2.77-.09-5.54,0-8.31,0-3,0-3.83-.88-3.83-3.81V66.39c1-.08,1.66-.2,2.35-.2q12.27,0,24.55,0a18,18,0,0,1,1.91.21l-.05-.05c.07,1.35.21,2.7.21,4.05,0,15.65.05,31.31,0,47,0,2,.54,2.64,2.5,2.47s3.73,0,5.6,0c4,0,4.82.84,4.83,4.85q0,18.47,0,36.92l.06,0h-12.6a21.66,21.66,0,0,0-.37,2.57c0,7.72,0,15.45,0,23.17,0,1.34.47,1.79,1.79,1.77,3.74-.05,7.47,0,11.2,0l-.05-.05c0,.77-.09,1.55-.05,2.31.11,1.92-1.36,3-2.31,4.31-.76,1.08-1.62,2.1-2.4,3.18-.6.82-1.15,1.67-1.7,2.52-1.53,2.37-3.07,4.73-4.56,7.12-.18.3,0,.78-.19,1.12-.32.74-.75,1.43-1.09,2.16-.18.4-.24.84-.39,1.25a45.53,45.53,0,0,1-1.72,4.48c-.18.37-1.1.5-1.69.51-3.79.06-7.59.05-11.38.07l0,.05c0-3.93,0-7.86,0-11.79,0-2.62-.22-2.8-2.92-2.84l-11.4-.13Z"/><path class="cls-1" d="M260.85,287.38c3.67,0,7.36-.4,11.19.3-2,3.3-1.66,6.49-1.1,9.62.17,1,1.08,1.88,1.69,2.8a13.82,13.82,0,0,0,1.55,2.15c1.84,1.94,1.18,4.33,1.2,6.56.06,5.86,0,5.86,5.89,5.86h45.09a3.47,3.47,0,0,0,3.65-3.56q.08-3,.06-6c0-1.31.56-1.77,1.88-1.77,4.52,0,9,.12,13.54-.17a54.73,54.73,0,0,0,8.55-1.59,10.86,10.86,0,0,0,4.31-1.6c1.69-1.33,3.78-.88,5.36-1.66a52.78,52.78,0,0,0,6.5-3.3,47,47,0,0,0,7.6-5.73,8.11,8.11,0,0,1,7.74-1.91l-.06-.06c0,3.61-.13,7.22-.08,10.82,0,1.48-.41,2.05-2,2-3.41-.1-6.83,0-10.25,0-1.48,0-2.39.48-2.31,2.27.13,3,0,5.93,0,8.89a3.31,3.31,0,0,0,3.23,3.37c3.09,0,6.19-.08,9.28,0,1.59.06,2-.56,2-2-.06-3.35,0-6.7,0-10.05,0-2.52,0-2.52,2.64-2.52h10.25q0,7.38-.05,14.76l.05-.05c-3.6-.05-7.2-.06-10.8-.16-1.59,0-2.17.6-2.13,2.17.09,4.12.08,8.24.11,12.36l.05-.05-25.33,0c-2.63,0-3.7-1.08-3.72-3.79s0-5.54,0-8.31c0-1.66-.46-2.48-2.32-2.36-2.25.15-4.51,0-6.77,0-2.85,0-4,1.11-4,4,0,6.25,0,12.5,0,18.76,0,1.53-.17,3.07-.27,4.61l.06-.05q-12.48,0-24.94-.06c-2.47,0-2.59-.1-2.62-2.61s0-4.9,0-7.34-.41-2.78-2.81-2.83c-2.77-.05-5.54.05-8.31,0-1.34,0-1.85.49-1.83,1.78,0,2.58,0,5.15,0,7.73a3.33,3.33,0,0,1-3.36,3.29c-3.68,0-7.35,0-11,0l.06.05c0-3.47-.18-6.95-.06-10.42.07-2-1-2.42-2.57-2.42q-7,0-13.9,0l-11,0,0,.06V287.32Z"/><path class="cls-1" d="M164.1,287.35V272.77c-2.6,0-5.09.05-7.59,0-2.11-.05-5,.55-6.11-.56s-.58-4-.6-6.06c-.05-5.8,0-11.6,0-17.4V245.6h14.45v12.64h13v4c0,2.9.05,5.8,0,8.7,0,1.31.52,1.86,1.8,1.84,1.68,0,3.35,0,5,0h18.56c3.61,0,3.6,0,3.6,3.51q0,10.26,0,20.5c0,1,.12,2,.21,3.37H219.1l-.06-.06c0,4.12.05,8.24,0,12.35,0,1.53.54,2.24,2.11,2.22,3.28,0,6.56,0,9.84,0,1.75,0,2.54-.84,2.52-2.61-.07-4-.07-8-.1-12l0,.06c3.29,0,6.57,0,9.86,0s3.19,0,3.2,3.16q.06,12.95.11,25.9l.06-.05-37.12,0c-3.21,0-3.22,0-3.24-3.2,0-3.59,0-7.19,0-11-1.18-.09-2.18-.21-3.18-.22-2.58,0-5.16,0-7.73,0-3.47,0-3.64-.15-3.65-3.54V287.3H164Z"/><path class="cls-1" d="M206.27,189v14.26c.83.07,1.52.19,2.2.19h37.15c.32,0,.64,0,1-.08l-.05,0v14.76l.05-.05H206.39V230.9H233.5c0,4.28,0,8.32,0,12.36,0,1.52-.66,2.07-2.06,2.06s-2.71,0-4.06,0H219v13l.06-.06H191.76v-27.4H177.37V203.53h14.24V189l-.05.05h14.76Z"/><path class="cls-1" d="M233.41,287.38c0-4.11,0-8.23.13-12.33.06-1.74-.7-2.27-2.23-2.27-3,0-6,0-9.06,0-.95,0-1.91-.1-3.15-.18V258.29l-.06.06,24-.05c3.42,0,3.42,0,3.43-3.41,0-3.08,0-6.15,0-9.71H260.9l0-.07V258.2h12.61c2.56,2.77,1.92,6,1.91,9,0,6.45.34,5.44-5.47,5.52-2.94.05-5.89,0-9,0v14.61l0-.06H233.36Z"/><path class="cls-1" d="M149.75,176.25v12.66H164v14.55h-7.68c-1.16,0-2.32,0-3.48,0-2.93,0-3,.11-3.05,3,0,3.73,0,7.45,0,11.45H164v12.77H137.08c-.05-1.1-.13-2.05-.14-3V179.55c0-3.2.17-3.38,3.4-3.36s6.31.08,9.46.12Z"/><path class="cls-1" d="M494.61,287.32c.07-3.93.14-7.85.19-11.77,0-2.72,0-2.76,2.8-2.77,7.67,0,15.34,0,23,0,3,0,3.16-.11,3.18-3.09,0-3.72,0-7.45,0-11.27h12.73c.07.93.19,1.75.19,2.57q0,17.77,0,35.57c0,3.45-.12,3.55-3.62,3.55h-9.22V287.26H494.56Z"/><path class="cls-1" d="M164,300.23c3.93,0,7.86,0,11.79-.1,1.08,0,1.45.42,1.45,1.49,0,8.37,0,16.75,0,25.13,0,1.59-.58,2.38-2.41,2.37-11.59-.07-23.19,0-34.79,0A2.89,2.89,0,0,1,137,326c0-3,.1-6.06-.06-9.08-.1-1.9.77-2.3,2.36-2.29,5.22,0,10.44,0,15.66,0,2.45,0,4.9,0,7.34,0,1.27,0,1.93-.44,1.92-1.76,0-4.25-.08-8.49-.12-12.74Z"/><path class="cls-1" d="M440.12,189.07c0-8.32,0-16.63-.06-24.95,0-1.75.59-2.58,2.47-2.51,3,.09,6.06,0,9.09,0,.88,0,1.76-.07,2.88-.12,0-3.29,0-6.43,0-9.57,0-2.9.23-3.12,3.06-3.15,2.51,0,5,.08,7.54,0,2-.09,2.41,1,2.41,2.6q0,10.07,0,20.11c0,1.62,0,3.23,0,4.84l.05-.06c-3.47,0-7-.06-10.42,0-2.48,0-2.65.25-2.68,2.83l-.12,10,.05-.05H440.06Z"/><path class="cls-1" d="M219,161.46v14.73h6.86c1.87,0,3.74,0,5.61,0,1,0,2,.31,2,1.59,0,3.6,0,7.2,0,11.2H206.27l0,.05c0-3.28-.07-6.55-.1-9.83,0-2.81-.19-3-2.89-3-3.92,0-7.85,0-11.77,0l.05,0c0-3.92,0-7.85.06-11.77,0-2.71.21-2.88,2.84-2.89l24.52-.12Z"/><path class="cls-1" d="M509.48,176.39l.07-15-.05.05h14.3c0-1.9,0-3.8,0-5.7s0-3.61.11-5.41c0-1.06.54-1.57,1.72-1.55,2.77.06,5.54,0,8.32,0a2.87,2.87,0,0,1,2.74,2.8q0,17.79,0,35.6c0,.86,0,1.75-1.22,1.76H523.79v-8.21c0-.84,0-1.68,0-2.51a1.75,1.75,0,0,0-2-2l-12.36.13Z"/><path class="cls-1" d="M315.88,66.21c4.06,0,7.92-.09,11.78,0,1.7.06,2.22,1.64,2.3,3,.17,2.76.07,5.54,0,8.31a3.6,3.6,0,0,1-3.15,2.93c-3.1,0-6.19.06-9.28,0-1.42,0-1.94.5-1.88,1.93.09,2.38,0,4.77,0,7.15s-.47,2.79-2.81,2.86c-2.12,0-4.25,0-6.38,0-2.35,0-3.75,1.33-3.77,3.65,0,2.9-.06,5.81,0,8.7,0,1.55-.48,2.25-2.09,2.21-3.48-.06-7,0-10.44,0-1.22,0-2-.32-2-1.89.08-7.34,0-14.69,0-22,0-2.17,1-3.07,3.2-2.8,2.41.3,4.75.67,7.16-.36.73-.31,1.89.56,2.86.6,2.32.11,4.64,0,7,0,1.68,0,3.36-.09,5,0s2.2-.55,2.19-2.1c0-3.61,0-7.22,0-10.83C315.73,67.24,315.81,66.87,315.88,66.21Z"/><path class="cls-1" d="M523.83,245.34V230.91H509.46V218h9.26c5.07,0,5.07,0,5.07-5.12V203.5c4,0,7.6-.08,11.19.07.58,0,1.2,1,1.65,1.67.21.31.08.88.08,1.33q0,18,0,36c0,2.76,0,2.8-2.81,2.82Z"/><path class="cls-1" d="M398.33,424.3h14.24V412.13c3.1-3.08,6.77-1.74,10.14-1.92a2.91,2.91,0,0,1,2.8,3.11V424.5h10.68c3.86,0,3.88,0,3.87,3.89,0,2.45-.07,4.9,0,7.35,0,1.27-.51,1.75-1.68,1.77-1.8,0-3.6.05-5.41.05H402.42l-1.54,0c-1.73-.05-2.72-.69-2.64-2.67.14-3.53.11-7.08.15-10.62Z"/><path class="cls-1" d="M523.6,329.26l11.59-.1c1.14,0,1.53.58,1.53,1.7,0,11.87,0,23.73,0,35.6a3.19,3.19,0,0,1-2.91,2.85c-7.41,0-14.83,0-22.25,0-1.46,0-2.16-.57-2.16-2V356.51h7.55c1.36,0,2.83.33,4-.1s2.68-1.59,2.69-2.46c.18-8.25.06-16.5,0-24.75Z"/><path class="cls-1" d="M336,38.79c6.06,0,12.12,0,18.18,0,1.56,0,2.23.49,2.23,2.05,0,7.6,0,15.21,0,22.81,0,1.64-.7,2.77-2.73,2.6s-3.86,0-5.8,0c-3.4,0-4.42-1-4.43-4.48,0-2.64-.06-5.28,0-7.92.05-1.67-.58-2.25-2.26-2.23-7.35.07-14.7,0-22.05,0-3.31,0-3.48-.14-3.49-3.46,0-2.39.07-4.78,0-7.16-.06-1.63.45-2.24,2.19-2.21C323.92,38.85,330,38.79,336,38.79Z"/><path class="cls-1" d="M356,161.63h-9.25a3.21,3.21,0,0,1-3.27-3c-.07-2.19-.05-4.39,0-6.58a3.52,3.52,0,0,1,3.34-3.23q10.72,0,21.46,0c2.37,0,2.57.22,2.58,2.72,0,6.57,0,13.15,0,19.72,0,2.06.06,4.13,0,6.19,0,.67-.4,1.88-.69,1.9a8.46,8.46,0,0,1-2.9-.52c-.3-.09-.47-.66-.78-.76-2.21-.7-4.41-1.43-6.66-2a3.89,3.89,0,0,1-3.3-3.74c-.07-2.31,0-4.64-.05-7C356.45,164.19,356.2,163,356,161.63Z"/><path class="cls-1" d="M177.27,176.26H149.75l.05.06.09-14.86-.06.06h14.38v-3.84c0-2.19,0-4.38,0-6.56,0-1.54.7-2.37,2.34-2.35,2.77.05,5.54.1,8.31,0,1.86-.07,2.35.87,2.34,2.45,0,1.87,0,3.74,0,5.6q0,9.76,0,19.52Z"/><path class="cls-1" d="M330.15,134q-.07,11.81-.14,23.59c0,3.22-.74,4-3.86,4H316.07c-.18-.33-.29-.44-.29-.55q0-13.53.11-27.05l-.08.07h14.38Z"/><path class="cls-1" d="M260.85,329.12q0,12,0,23.94a3.18,3.18,0,0,1-3.44,3.44c-2.83,0-5.67-.1-8.49,0-1.95.09-2.49-.86-2.49-2.52,0-4.19,0-8.37,0-12.55s.1-8.23.16-12.34l-.06.05H260.9Z"/><path class="cls-1" d="M412.51,51.71c3.8,0,7.6-.05,11.4-.1,1.15,0,1.58.49,1.58,1.63,0,8.32,0,16.63,0,24.94,0,1.86-1.74,2.12-3,2.25a42.37,42.37,0,0,1-6.57,0A3.3,3.3,0,0,1,412.68,77q-.06-12.66-.11-25.32Z"/><path class="cls-1" d="M412.65,176.31q0-12.08,0-24.15a3.06,3.06,0,0,1,3.34-3.38c2.32,0,4.64.1,6.95-.05,2-.14,2.63.81,2.55,2.59,0,.58,0,1.16,0,1.74v23.2H412.6Z"/><path class="cls-1" d="M219,161.51c0-3.54.07-7.08,0-10.62,0-1.56.61-2.14,2.16-2.13,7.46,0,14.93-.06,22.39.11,1,0,2.6,1.28,2.67,2.08.3,3.43.13,6.9.13,10.46-1,.09-1.65.2-2.34.2q-12,0-23.94,0a7.47,7.47,0,0,1-1.14-.17Z"/><path class="cls-1" d="M398.29,176.25c-3.35,0-6.7,0-10.05-.08-2.49,0-2.84-.35-2.85-2.78q0-10.54,0-21.09c0-2.38,1.23-3.51,3.64-3.53s4.64.07,7,0c1.53-.07,2.06.72,2.19,2,0,.45.05.9.05,1.35q0,12.09,0,24.18Z"/><path class="cls-1" d="M288.33,161.57l11.22.07a3.11,3.11,0,0,1,3.16,3c0,4.9.07,9.81-.07,14.7a5,5,0,0,1-1.38,2.71,12.32,12.32,0,0,1-2.47,1.91c-1.2.83-2.83,1.34-3.59,2.45-1.77,2.6-4.17,2.84-6.87,2.63l.05.05q0-13.77,0-27.54Z"/><path class="cls-1" d="M494.56,287.26c0,3.85.07,7.7.1,11.55,0,1.36-1.05,1.27-1.92,1.28-3.36,0-6.71,0-10.06,0H467.76V287.32h26.85Z"/><path class="cls-1" d="M412.56,107c3.48,0,6.95,0,10.43-.05,1.54,0,2.5.53,2.5,2.2l-.06,24.35a1.85,1.85,0,0,1-.19.47H412.61V107Z"/><path class="cls-1" d="M164.05,300.17l-23.77-.06c-3.25,0-3.3,0-3.34-3.33,0-3,0-6,0-9.42H164.1l-.06-.05q0,6.46,0,12.93Z"/><path class="cls-1" d="M275.6,384.11l-11.21-.17a3.22,3.22,0,0,1-3.53-3.46c0-3.16,0-6.32,0-9.48,0-1.15.42-1.64,1.57-1.64,3.6,0,7.22-.05,10.82,0,1.47,0,2.25.67,2.21,2.4-.08,4.12.07,8.25.12,12.37Z"/><path class="cls-1" d="M523.66,329.2l-14.27,0,.06.06c0-4.74,0-9.49,0-14.44,4.49,0,8.9,0,13.31.06.34,0,1,.83,1,1.27,0,4.38-.06,8.75-.12,13.13Z"/><path class="cls-1" d="M398.32,272.65c0-1.67-.16-3.36,0-5,.27-3.05.71-6.08,1.1-9.29h13.23l-.05-.06v14.37l.05-.05H398.26Z"/><path class="cls-1" d="M288.39,356.62c-3.54,0-7.07-.16-10.6-.08-1.71,0-2.33-.71-2.34-2.23,0-3.67,0-7.33,0-11,0-1.35.87-1.39,1.79-1.39l11.19,0-.06-.05v14.76Z"/><path class="cls-1" d="M509.55,161.38H495c0-3.67,0-7.39,0-11.11,0-1,.55-1.47,1.6-1.47q5.42,0,10.83,0c1.57,0,1.93.88,1.94,2.23,0,3.47.1,6.94.15,10.41Z"/><path class="cls-1" d="M275.23,66.4c.06-4.18.18-8.36.15-12.54,0-1.62.44-2.36,2.16-2.3,2.64.09,5.28,0,7.91,0,2.4,0,2.82.52,2.84,2.84,0,2.83,0,5.66,0,8.49A3.47,3.47,0,0,1,285,66.17c-3.28.08-6.55.12-9.83.18Z"/><path class="cls-1" d="M177.21,176.32l14.4,0-.05,0v12.82l.05-.05H177.27V176.26Z"/><path class="cls-1" d="M219.1,300.15V287.38h14.31l0-.06v12.83l0-.06H219Z"/><path class="cls-1" d="M260.85,218q0,6.41,0,12.82l.06-.05H246.58V218l-.05.05H260.9Z"/><path class="cls-1" d="M398.24,176.3h14.41l0-.05V189c-4.35,0-8.51,0-12.68,0-1.31,0-1.68-.87-1.66-2.08,0-3.54,0-7.08,0-10.62Z"/><path class="cls-1" d="M260.84,38.89c0,3.71.07,7,0,10.27-.05,1.62-1.53,2.24-2.76,2.31a92.28,92.28,0,0,1-9.84,0,2.39,2.39,0,0,1-1.66-1.6c-.17-3.27-.11-6.56-.05-9.84,0-.38.48-1.08.75-1.08C251.72,38.87,256.19,38.89,260.84,38.89Z"/><path class="cls-1" d="M398.39,424.25c-3.91.07-7.82.18-11.72.14-.42,0-1.18-.85-1.19-1.32a96.08,96.08,0,0,1,0-10.6c.07-.83,1.58-2.06,2.56-2.2a40.94,40.94,0,0,1,6.92-.1,3.18,3.18,0,0,1,3.26,3.34c0,3.6,0,7.2.06,10.8Z"/><path class="cls-1" d="M529.9,437.51c-1.48,0-3,0-4.44,0-1.1,0-1.64-.4-1.63-1.58,0-3-.05-6,0-9.07,0-1.6.61-2.59,2.56-2.41s4.11.05,6.17.05c3.22,0,4.15.91,4.16,4.1,0,2.25-.09,4.51,0,6.75.08,1.55-.7,2.1-2,2.16-1.6.07-3.21,0-4.82,0Z"/><path class="cls-1" d="M149.89,161.45H137c0-3.79-.08-7.43.08-11.07,0-.55,1.11-1.47,1.74-1.5,3.08-.16,6.17-.07,9.26-.08,1.65,0,1.61,1.24,1.63,2.29.07,3.47.06,6.95.08,10.42Z"/><path class="cls-1" d="M385.55,287.38c-.67-4.12,1.16-7.12,4.16-9.72a17,17,0,0,0,2.84-3.56c1-1.57,2.57-1.28,4-1.34.57,0,1.15-.07,1.73-.11l-.06,0q0,7.38.05,14.77l-12.82-.06Z"/><path class="cls-1" d="M260.84,230.86h10c0,3.43-.08,6.68,0,9.93.14,4.53.2,4.55-4.27,4.53-1.92,0-3.84-.14-5.75-.21l0,.07V230.81Z"/><path class="cls-1" d="M412.63,245.12c-2.81,0-5.63.11-8.43,0a1.74,1.74,0,0,1-1.19-1.23c-.09-4.23-.05-8.45-.05-13.06h9.67l-.06-.05q0,7.19,0,14.37Z"/><path class="cls-1" d="M308.58,300c-1,0-1.94.05-2.9,0-.33,0-.63-.42-.95-.65.27-.21.54-.59.81-.6,2.06-.06,4.12-.06,6.18,0,.29,0,.57.37.85.57-.3.25-.58.68-.9.71C310.65,300.07,309.61,300,308.58,300Z"/><path class="cls-1" d="M343.2,342c3.8,0,7.59,0,11.39-.1,1.27,0,1.91.41,1.9,1.77,0,3.34.06,6.69,0,10-.09,2.56-.44,2.79-3,2.79h-5.6c-3.26,0-4.32-1.1-4.36-4.35s-.14-6.8-.22-10.19Z"/><path class="cls-1" d="M440.08,342.13H454.4c0,4.39,0,8.62,0,12.86,0,1.09-.67,1.53-1.78,1.52-3.22,0-6.44,0-9.66,0a3.44,3.44,0,0,1-2.87-3C440.07,349.8,440.08,346.08,440.08,342.13Z"/><path class="cls-1" d="M398.26,300.15V287.32h14.37v12.83Z"/><path class="cls-1" d="M185.39,369.32c5.93,0,11.86,0,17.79,0,3,0,3,0,3,2.95v34.81c0,3,0,3.06-3,3.07q-18.07,0-36.16,0c-2.7,0-2.85-.2-2.85-2.84q0-17.6,0-35.2c0-2.71.05-2.8,2.8-2.81,6.12,0,12.24,0,18.37,0Z"/><path class="cls-1" d="M467.63,66.32h41.55v40.39H467.63Z"/><path class="cls-1" d="M206.11,66.41c0,1,.1,1.72.11,2.49,0,11.86,0,23.73,0,35.6,0,1.78-.61,2.45-2.24,2.45l-8.9,0q-13.65,0-27.29,0a34.55,34.55,0,0,1-3.51-.36V66.41Z"/><path class="cls-1" d="M351.59,244l12.72,6.31c0,1.76-.13,3.44,0,5.09.22,2.23-1.18,3.37-2.68,4.5-1.28,1-2.54,2-3.88,2.85a6.92,6.92,0,0,1-1.81.53c-1.13.32-2.25.73-3.41,1a6,6,0,0,1-2.27,0c-1.35-.27-2.65-.73-4-1-1.19-.27-2.59.11-3.38-1.31-.15-.28-.82-.36-1.25-.37-2.21,0-3.7-1.34-5.23-2.68a1.85,1.85,0,0,0-1.21-.43c-2.33.12-3.73-1.27-5.19-2.8a23.49,23.49,0,0,0-3.38-2.33,23.25,23.25,0,0,1-2.56-2.08c-1.45-1.42-2.87-2.89-4.24-4.39a22.63,22.63,0,0,1-2.28-2.89,28.93,28.93,0,0,0-1.95-3.36C313.33,238,312,235,310.49,232c-1.77-3.54-1.28-7-1-10.39.14-1.81,1.63-3.55,2.62-5.26.41-.71,1.36-1.15,1.62-1.88.76-2.11,3.46-.95,4.4-2.76.12-.23,1.3-.28,1.63,0,1.66,1.41,4,2.3,4.25,5,.06.52.57,1,.89,1.47.06.09.3.14.3.21,0,3.42,3.38,6.26,1.82,9.91a6.92,6.92,0,0,1-2,2.56c-1.34,1.08-1.81,4.62-.63,6,1.48,1.7,2.86,3.48,4.44,5.06a52.36,52.36,0,0,0,4.26,3.58c1.86,1.5,3.72,3,5.62,4.45.32.24.89.1,1.29.27a16.39,16.39,0,0,0,1.94,1c.86.23,2,.61,2.64.23a17,17,0,0,0,3.23-3.06C349.09,246.94,350.35,245.43,351.59,244Z"/></svg>