<svg id="Layer_1" data-name="Layer 1" xmlns="http://www.w3.org/2000/svg" viewBox="0 0 640 480"><defs><style>.cls-1{fill:#213245;}</style></defs><path class="cls-1" d="M150.85,170.7c18.19,0,32.85-17.52,32.85-36.66H150.85Z"/><polygon class="cls-1" points="74.56 258.67 80.12 258.67 104.97 321.25 105.1 321.25 129.67 258.67 135.24 258.67 135.24 325.87 131.3 325.87 131.3 263.82 131.16 263.82 107 325.87 103.06 325.87 78.63 263.82 78.49 263.82 78.49 325.87 74.56 325.87 74.56 258.67"/><path class="cls-1" d="M180.72,299c-.14-10.19-6.25-19.55-16.7-19.55-10.18,0-16.16,9.91-16.84,19.55Zm-33.54,3.12c-.13,11.4,5.57,21.72,16.84,21.72,8.69,0,14.8-5.43,16.42-14.39h3.4c-1.77,11.27-9,17.51-19.69,17.51-13.3,0-20.36-11.13-20.22-24.43-.14-13.31,6.38-26.21,20.22-26.21,14.26,0,20.77,11.95,20.1,25.8Z"/><path class="cls-1" d="M211,322.34c11.95,0,16.15-10.59,16.15-20.64s-4.2-20.63-16.15-20.63c-10.72,0-15.07,10.59-15.07,20.63s4.35,20.64,15.07,20.64m21.72,3.53h-5.16v-9.24h-.13c-2.45,6.25-9.64,10.59-16.43,10.59-14,0-20.64-11.94-20.64-25.65S197,275.91,211,275.91c6.79,0,13.58,3.66,15.88,10.59H227V258.67h5.56v67.2Z"/><path class="cls-1" d="M243.44,277.26H249v48.61h-5.56Zm0-18.59H249v9.5h-5.56Z"/><path class="cls-1" d="M274.12,298h21.45L285,266.68h-.14Zm6.38-39.37h9.36l24.85,67.2h-9.37l-6.92-20.23H271.54l-7.06,20.23h-8.69Z"/><path class="cls-1" d="M348.92,292.88c-1.22-6.11-5.16-9.64-11.41-9.64-11,0-14.25,9.09-14.25,19,0,9,3.8,17.79,13.44,17.79,7.33,0,11.67-4.48,12.62-11.81h7.74c-1.63,11.81-8.69,18.87-20.22,18.87-14,0-21.45-10.32-21.45-24.85s7.06-26.06,21.72-26.06c10.45,0,18.73,5.16,19.82,16.7Z"/><path class="cls-1" d="M394.12,294.37c-.81-5.43-4.07-8.42-9.36-8.42-8.15,0-10.73,8.69-10.73,15.75S376.61,317,384.49,317c5.83,0,9.23-3.94,10-9.91h12.22c-1.63,12.9-10.05,20-22.13,20-13.85,0-23.21-10.32-23.21-25,0-15.21,8.55-26.34,23.48-26.34,10.86,0,20.77,6,21.59,18.46H394.12Z"/><path class="cls-1" d="M444,296.27C442.86,289.48,440,286,433.9,286c-8,0-10.32,6.66-10.45,10.32Zm-20.5,8.55c.4,8.42,4.21,12.36,11.26,12.36,5,0,9.1-3.26,9.92-6.25h11.13c-3.53,11.54-11.13,16.43-21.59,16.43-14.52,0-23.48-10.59-23.48-25.52,0-14.53,9.5-25.66,23.48-25.66,15.61,0,23.22,14,22.27,28.91h-33Z"/><path class="cls-1" d="M474.22,309.71a6.68,6.68,0,0,0,2.44,5.43,9.29,9.29,0,0,0,5.57,1.63c3,0,7.06-1.36,7.06-5.16s-4.75-4.48-7.33-5.16c-9.5-2.58-21.45-2.85-21.45-16,0-11.81,11.95-14.93,21-14.93,10.18,0,20.77,3.12,21.31,15.75H489a4.66,4.66,0,0,0-1.9-4.21,8.81,8.81,0,0,0-4.75-1.22c-2.45,0-6.52.27-6.52,3.66,0,4.62,10.18,5.43,17.1,7.06,9.37,2,11.68,9.1,11.68,13.17,0,13-11.68,17.38-22.13,17.38-11,0-22.13-3.8-22.53-17.52h14.25Z"/><path class="cls-1" d="M521.87,309.71a6.68,6.68,0,0,0,2.44,5.43,9.29,9.29,0,0,0,5.57,1.63c3,0,7.06-1.36,7.06-5.16s-4.75-4.48-7.33-5.16c-9.5-2.58-21.45-2.85-21.45-16,0-11.81,11.95-14.93,21-14.93,10.18,0,20.77,3.12,21.31,15.75h-14a4.66,4.66,0,0,0-1.9-4.21,8.79,8.79,0,0,0-4.75-1.22c-2.44,0-6.52.27-6.52,3.66,0,4.62,10.19,5.43,17.11,7.06,9.37,2,11.67,9.1,11.67,13.17,0,13-11.67,17.38-22.12,17.38-11,0-22.13-3.8-22.54-17.52h14.39Z"/><path class="cls-1" d="M183.3,199.07c-18.2,0-32.86,17.51-32.86,36.65H183.3Z"/><path class="cls-1" d="M154,202.19c0-19.14-16.56-34.75-34.62-34.75v34.75Z"/><path class="cls-1" d="M180.72,167.44c0,19.14,16.56,34.75,34.61,34.75V167.44Z"/><path class="cls-1" d="M338.87,347.31a4.42,4.42,0,0,0,.41,1.91,2.39,2.39,0,0,0,1.08,1.22,5.28,5.28,0,0,0,1.5.68,6.82,6.82,0,0,0,3.8,0,2.68,2.68,0,0,0,1.22-.68,2.54,2.54,0,0,0,.68-.95,3.12,3.12,0,0,0,.27-1.09,2.16,2.16,0,0,0-.54-1.63,1.87,1.87,0,0,0-1.09-.68,11.79,11.79,0,0,0-2.31-.68c-.95-.27-2-.54-3.25-.81a15.44,15.44,0,0,1-2-.81,5,5,0,0,1-1.22-1.09,4.45,4.45,0,0,1-.68-1.36,4.94,4.94,0,0,1-.14-1.49,4.65,4.65,0,0,1,.55-2.45,6.58,6.58,0,0,1,1.63-1.76,6.14,6.14,0,0,1,2.17-.95,14.46,14.46,0,0,1,2.44-.27,8.56,8.56,0,0,1,2.72.41,11.59,11.59,0,0,1,2.3,1.08,5.45,5.45,0,0,1,1.63,1.9,5.15,5.15,0,0,1,.55,2.58h-3.26a3.6,3.6,0,0,0-1.22-2.58,4.48,4.48,0,0,0-2.85-.81,4,4,0,0,0-1.23.13,9.59,9.59,0,0,0-1.08.41,2.4,2.4,0,0,0-.82.81c-.27.28-.27.68-.27,1.23a2.24,2.24,0,0,0,.68,1.63,3.19,3.19,0,0,0,1.63.81,5.54,5.54,0,0,1,.81.27l1.63.41c.55.13,1.23.27,1.77.41a7.37,7.37,0,0,0,1.22.27,3.69,3.69,0,0,1,1.63.81,4,4,0,0,1,1.08,1.09,5.76,5.76,0,0,1,.68,1.36,5.59,5.59,0,0,1,.28,1.49,5.78,5.78,0,0,1-.68,2.71,5.13,5.13,0,0,1-1.63,1.77,10.5,10.5,0,0,1-2.45,1.09,9.25,9.25,0,0,1-2.71.27,10.64,10.64,0,0,1-3-.41,6.91,6.91,0,0,1-2.44-1.22,6.06,6.06,0,0,1-1.63-2,6.86,6.86,0,0,1-.68-3Z"/><path class="cls-1" d="M355.57,347.59a5.07,5.07,0,0,0,.27,1.49,2.68,2.68,0,0,0,.68,1.22,3.33,3.33,0,0,0,1.09.82,2.92,2.92,0,0,0,1.62.27,3.21,3.21,0,0,0,3.4-2.17h2.85a6.73,6.73,0,0,1-.81,2,7.48,7.48,0,0,1-1.36,1.5,8.07,8.07,0,0,1-1.77.95,10.9,10.9,0,0,1-2.17.27,6.23,6.23,0,0,1-2.85-.55,5.68,5.68,0,0,1-2-1.49,6.3,6.3,0,0,1-1.22-2.31,9.67,9.67,0,0,1-.41-2.85,8.75,8.75,0,0,1,.41-2.71,5.72,5.72,0,0,1,1.36-2.31,5.68,5.68,0,0,1,4.75-2.17,6.24,6.24,0,0,1,2.85.68,8.57,8.57,0,0,1,2.17,1.76,7.63,7.63,0,0,1,1.23,2.58,7.25,7.25,0,0,1,.13,3Zm7.06-2a5,5,0,0,0-.27-1.36,3.06,3.06,0,0,0-.68-1.08,6.72,6.72,0,0,0-1.09-.82,2.23,2.23,0,0,0-1.36-.27,6,6,0,0,0-1.49.27,2.1,2.1,0,0,0-1.08.82,2.8,2.8,0,0,0-.68,1.08,4.69,4.69,0,0,0-.27,1.36Z"/><path class="cls-1" d="M380.41,352.88a5.76,5.76,0,0,1-1.76,4.62,7.51,7.51,0,0,1-4.89,1.49,11,11,0,0,1-2-.27,8.36,8.36,0,0,1-1.9-.68,4.77,4.77,0,0,1-1.49-1.36,3.3,3.3,0,0,1-.68-2h3a8,8,0,0,0,.41,1.08c.13.27.4.41.81.68a1.9,1.9,0,0,0,.95.27h1.09a3.49,3.49,0,0,0,2.71-.95,3.68,3.68,0,0,0,.82-2.58v-2h0a3.73,3.73,0,0,1-1.77,1.76,4.55,4.55,0,0,1-2.31.68,5.46,5.46,0,0,1-2.71-.54,6.93,6.93,0,0,1-1.9-1.5,5.09,5.09,0,0,1-1.09-2.3,8.86,8.86,0,0,1-.41-2.72,8,8,0,0,1,.41-2.58,7,7,0,0,1,1.22-2.17,6.65,6.65,0,0,1,1.9-1.49,5.5,5.5,0,0,1,2.58-.55,4.44,4.44,0,0,1,2.31.55,4.68,4.68,0,0,1,1.63,1.62h0V340h3v12.9Zm-6.65-1.63a2.83,2.83,0,0,0,1.63-.41,4.15,4.15,0,0,0,1.09-1.08,5,5,0,0,0,.67-1.49,7,7,0,0,0,.14-1.77,7.12,7.12,0,0,0-.27-1.63,5.22,5.22,0,0,0-.68-1.49,2.35,2.35,0,0,0-1.09-.95,5.48,5.48,0,0,0-1.63-.41,2.88,2.88,0,0,0-1.62.41,4.15,4.15,0,0,0-1.09,1.08,2.87,2.87,0,0,0-.54,1.5,6.38,6.38,0,0,0-.14,1.63,7.21,7.21,0,0,0,.27,1.63,7.58,7.58,0,0,0,.68,1.49,4,4,0,0,0,1.09,1.08A2.65,2.65,0,0,0,373.76,351.25Z"/><path class="cls-1" d="M395.35,353.56h-3v-1.9h0a4.71,4.71,0,0,1-1.63,1.63,4.47,4.47,0,0,1-2.17.68,5,5,0,0,1-3.94-1.36,5.86,5.86,0,0,1-1.22-4.07V340h3v8.29a4.21,4.21,0,0,0,.67,2.57,2.2,2.2,0,0,0,1.91.68,4.9,4.9,0,0,0,1.62-.27,2.1,2.1,0,0,0,1.09-.81,2.52,2.52,0,0,0,.54-1.22,5,5,0,0,0,.14-1.5v-7.87h3Z"/><path class="cls-1" d="M398.6,340h2.85v2.58h0a4.24,4.24,0,0,1,.55-1.08,3.08,3.08,0,0,1,.95-1,5.33,5.33,0,0,1,1.22-.68,4.69,4.69,0,0,1,1.36-.27h1.08v2.85a1.21,1.21,0,0,1-.68-.14h-.67a6.08,6.08,0,0,0-1.5.27,4,4,0,0,0-1.22.95,7.49,7.49,0,0,0-.81,1.5,7.94,7.94,0,0,0-.28,2v6.52h-3V340Z"/><path class="cls-1" d="M413.54,354a6.23,6.23,0,0,1-2.85-.55,6.13,6.13,0,0,1-2.18-1.49,6.53,6.53,0,0,1-1.35-2.31,9.67,9.67,0,0,1-.41-2.85,9.11,9.11,0,0,1,.41-2.85,8,8,0,0,1,1.35-2.31,7.08,7.08,0,0,1,10.05,0,6.54,6.54,0,0,1,1.36,2.31,10.35,10.35,0,0,1,0,5.7,7.94,7.94,0,0,1-1.36,2.31,6.09,6.09,0,0,1-2.17,1.49A8.7,8.7,0,0,1,413.54,354Zm0-2.45a3.74,3.74,0,0,0,1.76-.4,3.27,3.27,0,0,0,1.22-1.09,4.73,4.73,0,0,0,.68-1.49,6.78,6.78,0,0,0,.27-1.77,7.66,7.66,0,0,0-.27-1.76,4.68,4.68,0,0,0-.68-1.5,3.25,3.25,0,0,0-1.22-1.08,3.75,3.75,0,0,0-1.76-.41,3.82,3.82,0,0,0-1.77.41,3.25,3.25,0,0,0-1.22,1.08,5.16,5.16,0,0,0-.68,1.5,8.25,8.25,0,0,0-.27,1.76,8.44,8.44,0,0,0,.27,1.77,5.22,5.22,0,0,0,.68,1.49,3.27,3.27,0,0,0,1.22,1.09A3.81,3.81,0,0,0,413.54,351.52Z"/><path class="cls-1" d="M425.21,349.22a2.89,2.89,0,0,0,1,1.9,3.33,3.33,0,0,0,2,.54h.95a2,2,0,0,0,1-.27,2.77,2.77,0,0,0,.81-.55,1.9,1.9,0,0,0,.28-.95,1.26,1.26,0,0,0-.41-.95,2.22,2.22,0,0,0-.95-.54c-.41-.13-.82-.27-1.36-.41l-1.63-.4-1.63-.41a4.45,4.45,0,0,1-1.36-.68,3.85,3.85,0,0,1-1-1.09,3.37,3.37,0,0,1-.4-1.76,3.09,3.09,0,0,1,.54-1.9,3.83,3.83,0,0,1,1.36-1.22,7.61,7.61,0,0,1,1.9-.68,9.35,9.35,0,0,1,1.9-.14,11,11,0,0,1,2,.27,7.08,7.08,0,0,1,1.76.68,3,3,0,0,1,1.22,1.36,4.56,4.56,0,0,1,.68,1.9h-3.26a1.92,1.92,0,0,0-.95-1.49,3.75,3.75,0,0,0-1.76-.41h-.82c-.27,0-.54.14-.81.14s-.41.27-.68.4a1,1,0,0,0-.27.68,1.2,1.2,0,0,0,.41.95,2.23,2.23,0,0,0,.95.55c.4.13.81.27,1.35.4l1.63.41,1.63.41a4,4,0,0,1,1.36.68,3.53,3.53,0,0,1,.95,1.08,2.91,2.91,0,0,1,.41,1.63,3.27,3.27,0,0,1-.55,2,4.81,4.81,0,0,1-1.49,1.36,8.18,8.18,0,0,1-1.9.81,11.5,11.5,0,0,1-2.17.27,14.58,14.58,0,0,1-2.45-.27,8.36,8.36,0,0,1-1.9-.81,4.33,4.33,0,0,1-1.22-1.5,7.18,7.18,0,0,1-.54-2Z"/><path class="cls-1" d="M453.31,351.79a4,4,0,0,1-1.76,1.63,6.31,6.31,0,0,1-2.44.55,6,6,0,0,1-2.72-.55,5.45,5.45,0,0,1-1.9-1.63,7.16,7.16,0,0,1-1.09-2.3,8.86,8.86,0,0,1-.4-2.72,8,8,0,0,1,.4-2.58,12,12,0,0,1,1.09-2.31,5.53,5.53,0,0,1,1.9-1.62,5.47,5.47,0,0,1,2.58-.55,4.46,4.46,0,0,1,2.31.55,4.64,4.64,0,0,1,1.76,1.49h0V335h3.67V353.7h-3.53l.13-1.91Zm-.13-6.65a3.91,3.91,0,0,0-.55-1.35,3.22,3.22,0,0,0-.95-1,2.72,2.72,0,0,0-1.49-.4,2.44,2.44,0,0,0-1.49.4c-.41.28-.82.55-.95,1a4.11,4.11,0,0,0-.55,1.35,10.28,10.28,0,0,0,0,3.26,4.26,4.26,0,0,0,.55,1.36,3.65,3.65,0,0,0,1.08.95,2.76,2.76,0,0,0,1.5.41,2.44,2.44,0,0,0,1.49-.41,3.08,3.08,0,0,0,.95-.95,4,4,0,0,0,.54-1.36,6.42,6.42,0,0,0,.14-1.63C453.31,346.23,453.31,345.69,453.18,345.14Z"/><path class="cls-1" d="M463.77,350.3a3.31,3.31,0,0,0,2.44.82,2.86,2.86,0,0,0,1.9-.55,2.45,2.45,0,0,0,.95-1.22h3.26a6.38,6.38,0,0,1-2.44,3.53,7.44,7.44,0,0,1-3.94,1.09,6.23,6.23,0,0,1-2.85-.55,6,6,0,0,1-2.17-1.49,6.4,6.4,0,0,1-1.36-2.31,9.68,9.68,0,0,1-.54-2.85,7,7,0,0,1,.54-2.85,7.85,7.85,0,0,1,1.36-2.31,7.57,7.57,0,0,1,2.17-1.49,6.23,6.23,0,0,1,2.85-.54,6.47,6.47,0,0,1,3,.68A6.9,6.9,0,0,1,471.1,342a9,9,0,0,1,1.22,2.58,11.22,11.22,0,0,1,.27,3h-9.77A3.57,3.57,0,0,0,463.77,350.3Zm4.21-7.19a2.33,2.33,0,0,0-2-.68,4.71,4.71,0,0,0-1.49.27,1.81,1.81,0,0,0-.95.81,3.47,3.47,0,0,0-.55.95,2.43,2.43,0,0,0-.13,1h6.11A6.45,6.45,0,0,0,468,343.11Z"/><path class="cls-1" d="M485.62,348.94a3.7,3.7,0,0,0,.95,1.09,4,4,0,0,0,1.36.54,6.42,6.42,0,0,0,1.63.14,3.64,3.64,0,0,0,1.22-.14,2.16,2.16,0,0,0,1.22-.4,2.46,2.46,0,0,0,.95-.68,1.62,1.62,0,0,0,.41-1.22,1.32,1.32,0,0,0-.54-1.23,9.92,9.92,0,0,0-1.22-.81,5.37,5.37,0,0,0-1.77-.54,11.53,11.53,0,0,1-2-.55,10.86,10.86,0,0,1-2-.68,7.31,7.31,0,0,1-1.77-.95,4.21,4.21,0,0,1-1.22-1.49,5.13,5.13,0,0,1-.54-2.17,4.69,4.69,0,0,1,.68-2.45,5.19,5.19,0,0,1,1.63-1.76,9.19,9.19,0,0,1,2.31-1.09,7.87,7.87,0,0,1,2.57-.4,19.76,19.76,0,0,1,2.86.27,6.72,6.72,0,0,1,2.44,1.08,5.65,5.65,0,0,1,1.63,1.9,5.73,5.73,0,0,1,.68,2.72h-3.94a2,2,0,0,0-.41-1.36,1.18,1.18,0,0,0-.81-.81,1.55,1.55,0,0,0-1.09-.41,4.5,4.5,0,0,0-1.36-.14,2.27,2.27,0,0,0-.95.14c-.27.14-.67.14-1,.41a1.52,1.52,0,0,0-.67.68,1.9,1.9,0,0,0-.28.95,1.94,1.94,0,0,0,.28.95c.13.27.4.4.81.68a10.25,10.25,0,0,0,1.76.54c.68.13,1.63.41,2.86.68a12.4,12.4,0,0,1,1.49.4,12,12,0,0,1,1.9.82,6.16,6.16,0,0,1,1.63,1.63,4.8,4.8,0,0,1,.68,2.58,5.29,5.29,0,0,1-.55,2.44,4.82,4.82,0,0,1-1.49,1.9,6.91,6.91,0,0,1-2.44,1.22,11.93,11.93,0,0,1-3.4.41,10.27,10.27,0,0,1-3-.41,9,9,0,0,1-2.58-1.22,6.42,6.42,0,0,1-1.77-2,7,7,0,0,1-.68-3H486A1.62,1.62,0,0,0,485.62,348.94Z"/><path class="cls-1" d="M499.06,344.19a3.73,3.73,0,0,1,.68-2.17,3.65,3.65,0,0,1,1.5-1.36,7.22,7.22,0,0,1,2-.81,11.62,11.62,0,0,1,2.31-.27,10.76,10.76,0,0,1,2,.13,7.8,7.8,0,0,1,1.9.55,2.91,2.91,0,0,1,1.35,1.22,3.24,3.24,0,0,1,.55,2v7.06a7.55,7.55,0,0,0,.13,1.77c.14.54.14,1,.41,1.22H508a1.27,1.27,0,0,1-.13-.68c0-.27-.14-.41-.14-.68a3.56,3.56,0,0,1-2,1.22,7.5,7.5,0,0,1-2.45.41,6.64,6.64,0,0,1-1.76-.27,5.16,5.16,0,0,1-1.5-.68,2.79,2.79,0,0,1-.95-1.22,3.78,3.78,0,0,1-.4-1.77,4,4,0,0,1,.4-1.9,3.18,3.18,0,0,1,1.09-1.22,5.22,5.22,0,0,1,1.49-.68l1.63-.4c.54-.14,1.09-.14,1.63-.28a4.71,4.71,0,0,0,1.49-.27,3.17,3.17,0,0,0,.95-.4,1,1,0,0,0,.41-.82,2.08,2.08,0,0,0-.13-.95,1.07,1.07,0,0,0-.55-.54,1.4,1.4,0,0,0-.81-.27h-.95a3.44,3.44,0,0,0-1.77.4,1.88,1.88,0,0,0-.68,1.63Zm8.56,2.72a1.09,1.09,0,0,1-.55.27,1.77,1.77,0,0,1-.81.13c-.27,0-.54.14-.82.14s-.54.14-.95.14a1.85,1.85,0,0,0-.81.27,2.76,2.76,0,0,0-.68.41c-.14.13-.41.27-.54.54a1.66,1.66,0,0,0-.14.81c0,.27,0,.68.14.82a1.05,1.05,0,0,0,.54.54,1.39,1.39,0,0,0,.68.27c.27,0,.54.14.81.14a3.43,3.43,0,0,0,1.77-.41,5.71,5.71,0,0,0,.95-.81c.13-.41.27-.68.41-1.09v-2.17Z"/><path class="cls-1" d="M518.07,334.83v18.73H514.4V334.83Z"/><path class="cls-1" d="M530.15,353.56v-1.9H530a4,4,0,0,1-1.91,1.76,4.75,4.75,0,0,1-2.3.55,6.65,6.65,0,0,1-2.45-.41,4.21,4.21,0,0,1-1.49-1.09,4.06,4.06,0,0,1-.81-1.76,11.59,11.59,0,0,1-.28-2.31V340h3.67v7.61A4.13,4.13,0,0,0,525,350a2.12,2.12,0,0,0,1.9.81,2.39,2.39,0,0,0,2.18-.95,5.4,5.4,0,0,0,.67-3v-7.06h3.67v13.57h-3.26Z"/><path class="cls-1" d="M546.17,351.79a4.1,4.1,0,0,1-1.76,1.63A6.36,6.36,0,0,1,542,354a6,6,0,0,1-2.71-.55,5.36,5.36,0,0,1-1.9-1.63,7,7,0,0,1-1.09-2.3,8.86,8.86,0,0,1-.41-2.72,8,8,0,0,1,.41-2.58,12,12,0,0,1,1.09-2.31,5.23,5.23,0,0,1,4.48-2.17,4.4,4.4,0,0,1,2.3.55,4.67,4.67,0,0,1,1.77,1.49h0V335h3.66V353.7H546l.14-1.91Zm-.14-6.65a3.9,3.9,0,0,0-.54-1.35,3.22,3.22,0,0,0-1-1,2.75,2.75,0,0,0-1.49-.4,2.47,2.47,0,0,0-1.5.4,2.25,2.25,0,0,0-.95,1,4.11,4.11,0,0,0-.54,1.35,10.28,10.28,0,0,0,0,3.26,4.25,4.25,0,0,0,.54,1.36,3.69,3.69,0,0,0,1.09.95,2.75,2.75,0,0,0,1.49.41,2.47,2.47,0,0,0,1.5-.41,3.19,3.19,0,0,0,1-.95,4.25,4.25,0,0,0,.54-1.36,6.42,6.42,0,0,0,.14-1.63C546.17,346.23,546.17,345.69,546,345.14Z"/><polygon class="cls-1" points="558.52 263.55 560.29 263.55 560.29 269.53 559.2 269.53 559.2 264.77 557.98 269.53 556.89 269.53 555.67 264.77 555.67 269.53 554.59 269.53 554.59 263.55 556.35 263.55 557.44 267.63 558.52 263.55"/><path class="cls-1" d="M566.13,268.31c-.28-.41-.55-.82-.68-1a8.5,8.5,0,0,1-.68-.54,2.52,2.52,0,0,0,1.22-.54,1.55,1.55,0,0,0,.41-1.09,2,2,0,0,0-.27-.95,1.41,1.41,0,0,0-.68-.54,3.69,3.69,0,0,0-1.36-.14h-2.58v6h1.22v-2.45H563c.28,0,.41,0,.55.14s.27.13.4.27.28.41.68.82l.82,1.35h1.36Zm-2.58-2.18h-.95v-1.49h1.76c.27,0,.41.14.41.27s.13.27.13.54a.51.51,0,0,1-.13.41c-.14.14-.27.14-.27.27C564.5,266,564.09,266.13,563.55,266.13Z"/><path class="cls-1" d="M560.29,258.39a8.56,8.56,0,1,0,8.55,8.56A8.52,8.52,0,0,0,560.29,258.39Zm0,15.75a7.16,7.16,0,0,1-7.2-7.19,7.27,7.27,0,1,1,14.53,0A7.18,7.18,0,0,1,560.29,274.14Z"/><polygon class="cls-1" points="558.52 263.55 560.29 263.55 560.29 269.53 559.2 269.53 559.2 264.77 557.98 269.53 556.89 269.53 555.67 264.77 555.67 269.53 554.59 269.53 554.59 263.55 556.35 263.55 557.44 267.63 558.52 263.55"/><path class="cls-1" d="M566.13,268.31c-.28-.41-.55-.82-.68-1a8.5,8.5,0,0,1-.68-.54,2.52,2.52,0,0,0,1.22-.54,1.55,1.55,0,0,0,.41-1.09,2,2,0,0,0-.27-.95,1.41,1.41,0,0,0-.68-.54,3.69,3.69,0,0,0-1.36-.14h-2.58v6h1.22v-2.45H563c.28,0,.41,0,.55.14s.27.13.4.27.28.41.68.82l.82,1.35h1.36Zm-2.58-2.18h-.95v-1.49h1.76c.27,0,.41.14.41.27s.13.27.13.54a.51.51,0,0,1-.13.41c-.14.14-.27.14-.27.27C564.5,266,564.09,266.13,563.55,266.13Z"/><path class="cls-1" d="M558.52,263.55l-1.08,4.08-1.09-4.08h-1.76v6h1.08v-4.62l1.23,4.62h1.22l1.22-4.62v4.62h1.08v-6Z"/><path class="cls-1" d="M566.13,268.31c-.28-.41-.55-.82-.68-1a8.5,8.5,0,0,1-.68-.54,2.52,2.52,0,0,0,1.22-.54,1.55,1.55,0,0,0,.41-1.09,2,2,0,0,0-.27-.95,1.41,1.41,0,0,0-.68-.54,3.69,3.69,0,0,0-1.36-.14h-2.58v6h1.22v-2.45H563c.28,0,.41,0,.55.14s.27.13.4.27.28.41.68.82l.82,1.35h1.36Zm-2.58-2.18h-.95v-1.49h1.76c.27,0,.41.14.41.27s.13.27.13.54a.51.51,0,0,1-.13.41c-.14.14-.27.14-.27.27C564.5,266,564.09,266.13,563.55,266.13Z"/></svg>