<svg id="Layer_1" data-name="Layer 1" xmlns="http://www.w3.org/2000/svg" viewBox="0 0 640 480"><defs><style>.cls-1,.cls-2{fill:#213245;}.cls-2{fill-rule:evenodd;}</style></defs><path class="cls-1" d="M530.21,181.55c38.93,0,70.37,32,70.37,71.41s-31.44,71.4-70.37,71.4S459.77,292.3,459.77,253,491.18,181.55,530.21,181.55Zm0,11.49c-32.5,0-59,26.74-59,59.92s26.47,59.86,59,59.86S589.1,286.14,589.1,253,562.62,193,530.21,193Z"/><path class="cls-2" d="M491.38,230.36a6.87,6.87,0,0,1,6.86-6.9h13v69.59h-19.9Z"/><path class="cls-2" d="M569,230.36a6.9,6.9,0,0,0-6.91-6.9h-13v69.59H569Z"/><path class="cls-2" d="M514.18,215c4.57,0,6.13,1.59,6.13,5.69v72.36h19.8V213.23a6.88,6.88,0,0,0-6.9-6.9h-19Z"/><path class="cls-2" d="M124.78,210.91c4.57,0,6.09,1.56,6.09,5.68v78h21.56v-85a6.92,6.92,0,0,0-6.92-6.92H124.78Z"/><path class="cls-2" d="M161,210.91c4.56,0,6.08,1.56,6.08,5.68v78h21.49v-85a6.89,6.89,0,0,0-6.88-6.92H161Z"/><path class="cls-2" d="M197.36,234.25c4.57,0,6.07,1.57,6.07,5.69v54.68H225V232.94a6.91,6.91,0,0,0-6.88-6.91H197.36Z"/><path class="cls-2" d="M200.62,211.29c0-5.75,5.6-10.42,12.54-10.42s12.55,4.67,12.55,10.42-5.61,10.42-12.55,10.42S200.62,217.05,200.62,211.29Z"/><path class="cls-2" d="M328.46,233.55v-.61a6.89,6.89,0,0,0-6.85-6.91H300.87v8.22c4.6,0,6.07,1.57,6.07,5.69v54.68h21.52v-46c8.91-10.72,16.8-7.05,16.8,0v46h21.49V243.26c0-18.38-13.7-18.9-17.48-18.9C341.19,224.36,333.06,229.86,328.46,233.55Z"/><path class="cls-2" d="M404.77,239.61l-28.85,40.7v14.31h53.31V280.31H399.59L428,239.61V226H383.28a6.93,6.93,0,0,0-6.93,6.91v12.74h8.19c0-4.56,1.6-6.07,5.69-6.07Z"/><path class="cls-2" d="M83.43,223.46c2,8.19,5.26,21.44,8.59,34.44H73.91ZM95.88,273l5.52,21.65h23.54l-23-85a9.65,9.65,0,0,0-8.76-6.92H59.08v8.53s10.15-1.53,7.41,7C43.08,291.63,42,294.62,42,294.62H64L69.83,273Z"/><path class="cls-2" d="M254.69,274.35v-1.7c0-7.5,10.24-10.86,16.56-10.86v13.38s-5,5.94-10.86,5.94C256.36,281.11,254.69,278.7,254.69,274.35ZM242.86,245.6l-5-13.31A68.36,68.36,0,0,1,270,224.37c19,0,21.86,12.39,21.86,23.47v33.82c0,6.55,5.54,6,5.54,6v7h-19.8c-4,0-6.37-2.27-6.37-6.86,0,0-6.57,8-19.64,8s-17-8.13-17-19c0-14,6.24-18.27,12.06-21.2s24.58-5.83,24.58-5.83v-1.11c0-.61,0-9-7.65-9C253.37,239.61,242.86,245.6,242.86,245.6Z"/></svg>