<svg id="Layer_1" data-name="Layer 1" xmlns="http://www.w3.org/2000/svg" viewBox="0 0 640 480"><defs><style>.cls-1{fill:#213245;}</style></defs><path class="cls-1" d="M315,253.78q132.74,0,265.47.07c2.44,0,4.88,1.06,7.32,1.63-2.48.72-4.95,2.06-7.43,2.06q-266,.13-532,0c-2.44,0-4.88-1.07-7.32-1.64,2.48-.71,4.95-2,7.43-2Q181.7,253.71,315,253.78Z"/><path class="cls-1" d="M44.33,246.88l2.59-9.28c3,2.48,5.64,5.41,8.87,7,4.65,2.35,10.38.27,12.46-3.67,2.43-4.59,1-8.54-4.37-11.83-3.28-2-6.83-3.51-10.09-5.53-9.28-5.74-12-15.67-6.61-23.9s19-11.42,26.86-6.32c3.36,2.17,3.28,3.14-.76,9-1.87-1.62-3.55-3.58-5.66-4.79a9.13,9.13,0,0,0-12.14,2.78c-2.19,3.59-1,7.71,3.59,10.68,3.51,2.28,7.36,4,11,6.06,6.21,3.46,10.08,8.34,9.41,15.89-.71,7.94-4.8,13.08-12.41,15.69S52.09,250.8,44.33,246.88Z"/><path class="cls-1" d="M286.1,305.45V270.93c10,0,19.68-.43,29.3.14,7.19.43,10.81,7.26,8.64,14.12a10.34,10.34,0,0,0-.06,5.86c2.38,7.64-2.05,14.26-10.06,14.37C304.8,305.55,295.68,305.45,286.1,305.45Zm6.38-28.23v7.66c7.4,0,14.47.18,21.5-.18,1.17-.06,3.14-2.51,3.08-3.78s-2.14-3.47-3.42-3.54C306.78,277,299.89,277.22,292.48,277.22Zm-.07,21.9c7.61,0,14.52.19,21.4-.18,1.23-.06,3-2.29,3.28-3.74.18-1.08-1.67-3.57-2.7-3.62-7.23-.32-14.48-.17-22-.17Z"/><path class="cls-1" d="M440.68,306.09c-4.28-.74-8.82-.8-12.77-2.36-7-2.74-11-10.88-9.89-17.93A17.24,17.24,0,0,1,433.51,271a88.5,88.5,0,0,1,13.72-.1c9.87.63,16.73,8.14,16.53,17.71s-7.58,16.55-17.47,16.79c-1.83.05-3.66,0-5.5,0Zm.65-27.83v-.08c-1.83,0-3.66-.08-5.48,0-5.84.3-10.31,4.66-10.3,10s4.31,9.74,10.22,10c3.65.15,7.31.18,11,0a10.39,10.39,0,0,0,9.52-9.61c.23-4.83-3.78-9.53-8.9-10.19A48.17,48.17,0,0,0,441.33,278.26Z"/><path class="cls-1" d="M475,305.19h-6.22V271.11c10.36,0,20.55-.35,30.7.16,4.54.22,7.47,3.79,8.19,8.39A9.75,9.75,0,0,1,502.9,290c-1.2.77-2.56,1.29-4.26,2.14,2.79,4.25,5.46,8.31,8.19,12.48-7.4,1.67-8,2-11.4-4.71-3.61-7.09-8.6-9.47-16.2-8.53-3.24.41-4.6,1.21-4.33,4.55C475.13,298.79,475,301.72,475,305.19ZM475.5,285c7.06,0,13.81.21,20.52-.16,1.47-.08,3.62-2,4.07-3.48.94-3.12-1.34-4.05-4.14-4-4.93,0-9.86,0-14.79,0C474.57,277.34,474.55,277.39,475.5,285Z"/><path class="cls-1" d="M380.72,282.92V305h-6.39V271.43c3.89-1.38,6.89-.45,9.93,2.29,7.32,6.58,14.92,12.87,23.38,20.11V271.12l6.33-.29v35.83c-3.87-1.67-7.35-2.43-9.9-4.41-6.35-4.92-12.26-10.4-18.38-15.62C384.37,285.51,382.92,284.56,380.72,282.92Z"/><path class="cls-1" d="M553.4,271.07h34.13c.14,1.83.27,3.57.47,6.13H559.81v7.61h22.38c.13,2.3.22,4,.36,6.55H559.77v7.43h27.82v6.35H553.4Z"/><path class="cls-1" d="M250.17,286.23V272.7l-1.14-.21c-1.09,2.95-2.33,5.86-3.22,8.87-.81,2.74-2.31,4.09-5.14,3.27-3.83-1.11-7.85-1.94-11.35-3.75-5.26-2.73-5.2-7.54.56-9.52a76.43,76.43,0,0,1,22.34-4.48c7-.17,14.06,1.78,20.89,3.61,2.32.62,5.44,3.69,5.5,5.71s-3.17,5-5.48,5.63C266,283.73,258.64,284.69,250.17,286.23Z"/><path class="cls-1" d="M252.73,249.64c-13,0-20.52-6.92-20.59-18.9s8.58-20.13,21.17-20.16c13,0,21,7.43,20.9,19.39S265.79,249.66,252.73,249.64Zm13-19.27c-.75-3.63-1-6.19-1.84-8.55-1.71-4.9-5.29-8-10.51-8.22-4.9-.2-8.07,2.9-10,7.16-2.77,6-3.9,12.53-.67,18.43a16.56,16.56,0,0,0,8.73,7c4.21,1.38,8.44-.86,10.49-5C263.72,237.54,264.67,233.47,265.73,230.37Z"/><path class="cls-1" d="M218.69,231.41l10,16.5c-6.9,2-9.57.74-12.62-5.17a19.7,19.7,0,0,0-6-7.14v12.54h-8.35V211.42c5.39,0,10.64-.2,15.87.07,4,.2,7.55,1.84,8.61,6.27s.15,8.33-4,11C221,229.52,219.93,230.47,218.69,231.41Zm-8.47-16.57v13.78c6.18-.71,8.48-2.91,8-7.65C217.81,216.5,215.72,213.82,210.22,214.84Z"/><path class="cls-1" d="M369.5,304.93c-5,1.46-8.4.56-9.84-4.33-1.35-4.58-4.4-6.31-9.1-5.64a21.68,21.68,0,0,1-6,0c-4.54-.64-7.28,1.15-8.59,5.49-1.45,4.79-4.72,6.07-9.88,4.39,5.51-10.94,10.67-22,16.82-32.47.86-1.47,8.74-1.39,9.67.17C358.75,283,363.94,294,369.5,304.93Zm-21.84-27.81c-2.08,4.29-3.59,7.4-5.28,10.91h10.86C351.41,284.46,349.87,281.46,347.66,277.12Z"/><path class="cls-1" d="M148.66,233.49c.18.24.37.38.39.53,1.67,13.7,1.15,14.32-12.41,14.73-1.64.05-3.29.05-4.93,0-11-.27-17.26-5.07-18.37-14.1-1.45-11.73,3.31-20.31,14-22.62,5.65-1.23,11.88-.6,17.72.17,3.84.5,3.8,1.45,2.13,6.21l-3.68-2C137,213,132,213.2,127.75,217c-5.31,4.76-7.52,14.38-4.74,20.66a14.07,14.07,0,0,0,14.74,8.14c1.49-.22,3.31-2.6,3.78-4.31.65-2.37.16-5,.16-8Z"/><path class="cls-1" d="M186.28,212.34h6.19c-.73,9.21-1.33,18.14-2.18,27a10.16,10.16,0,0,1-9.15,9.6,47.89,47.89,0,0,1-15.13-.83c-4.29-.84-6.88-4.52-7-8.85-.32-8.92-.1-17.85-.1-27.2H167c0,8-.14,15.78,0,23.6.15,6.92,3.26,10.31,9.23,10.65s9.53-2.85,9.92-9.83C186.62,228.68,186.28,220.8,186.28,212.34Z"/><path class="cls-1" d="M95.78,232.16V244.7l11.34.62c-1.7,3.83-7.88,4.71-19.43,2.83V211.28c6.94,1.23,14.29-2.55,20,4.24H96v10.9l11.33,1.84,0,2.18Z"/><path class="cls-1" d="M280.14,242.42c1.31.81,2.53,1.53,3.7,2.32,3.66,2.47,7.86,2,9.46-1.42.9-2-1.8-5.91-3.44-8.61-.71-1.17-2.9-1.38-4.33-2.17-5.93-3.28-8.15-8.32-6.28-14.13,1.77-5.47,7-8.45,13.57-7.51a72.35,72.35,0,0,1,7.13,1.76c-.58,1.82-1.05,3.33-1.64,5.21a11.51,11.51,0,0,1-1.94-1.25c-3-3-6.5-4-9.5-.55-3.31,3.81,1,5.8,2.95,8,1.26,1.45,3.25,2.33,5,3.27,4.86,2.57,7.59,6.18,6.29,12a12.93,12.93,0,0,1-11.3,10.4,30.19,30.19,0,0,1-6-.22C279.44,249.06,277.57,247.1,280.14,242.42Z"/><path class="cls-1" d="M546.71,277.48H534.33v27.58H526.6c0-6.85-.31-13.92.1-20.94.31-5.18-1.21-7.5-6.62-6.75a54.1,54.1,0,0,1-7,.05c-.14-2.11-.25-3.82-.42-6.4,11.14,0,21.86-.14,32.56.22,1.08,0,2.06,3.11,3.09,4.77Z"/><path class="cls-1" d="M244.13,285.73,236.81,306c-4.76-1.45-9.37-2.49-13.62-4.34-1.87-.81-4.13-3.26-4.18-5s2.16-4.48,4-5.09C229.4,289.33,236.07,287.86,244.13,285.73Z"/><path class="cls-1" d="M250.65,306.45V287.32c6.86,0,13.49,1.24,19.18,5.46,3.52,2.62,3.17,6.13-1.23,8C263.18,303.15,257.3,304.43,250.65,306.45Z"/></svg>