<svg id="Layer_1" data-name="Layer 1" xmlns="http://www.w3.org/2000/svg" viewBox="0 0 640 480"><defs><style>.cls-1,.cls-2{fill:#213245;}.cls-1,.cls-3{fill-rule:evenodd;}.cls-3{fill:none;}</style></defs><path class="cls-1" d="M272.46,260.17l.43,0c.07.71.16,1.41.19,2.12.7,16,1.42,32,2.07,48,.06,1.65.32,2.37,2.24,2.31,4.81-.16,9.62-.14,14.43,0,1.92.05,2.19-.61,2.06-2.35-.37-4.8-.52-9.6-.74-14.4q-1.49-31.92-2.93-63.82c-.06-1.32-.46-1.58-1.65-1.57-4.81.07-9.62.1-14.43,0a2.66,2.66,0,0,0-2.75,1.71c-3.64,6.84-7.35,13.65-11.05,20.47-2.89,5.32-5.8,10.63-8.8,16.13-.65-1.12-1.18-2-1.68-2.9-6.22-11.18-12.46-22.35-18.61-33.57a3,3,0,0,0-3.15-1.84c-4.49.12-9,.11-13.47,0-1.62,0-2.16.36-2.23,2.09-.56,13.84-1.25,27.68-1.89,41.5-.56,12.17-1.08,24.33-1.69,36.48-.08,1.52.16,2.12,1.86,2.08,4.64-.11,9.3-.11,14,0,1.61,0,2-.55,2-2.05.35-10.57.78-21.12,1.19-31.68.24-6.2.5-12.38.77-19.24,4.91,8.64,9.84,16.51,13.91,24.8,2.53,5.13,5.61,7.55,11.37,6.56,1.58-.27,2.52-.57,3.29-2.05C262.23,279.32,267.36,269.76,272.46,260.17Z"/><path class="cls-1" d="M419.54,271.33q0,19.6,0,39.18c0,1.21-.09,2.1,1.67,2.1q25.35-.11,50.72,0c1.24,0,1.66-.34,1.64-1.62-.08-3.6-.18-7.22,0-10.81.13-2.24-.37-2.95-2.78-2.91-9.85.17-19.71.09-29.57.07-3.42,0-3.06.48-3.06-3.06q0-30.78,0-61.55c0-1.8-.43-2.3-2.25-2.24-4.72.14-9.45.16-14.18,0-2-.08-2.28.67-2.27,2.42C419.56,245.69,419.54,258.51,419.54,271.33Z"/><path class="cls-1" d="M534.71,290.92c0-6.42.09-12.83,0-19.24,0-2.1.36-3,2.68-2.81,3.11.23,6.25,0,9.38.09,1.26,0,1.67-.38,1.65-1.64-.07-3.6-.09-7.22,0-10.82,0-1.43-.5-1.77-1.82-1.73-2.8.09-5.61.08-8.41,0-3.82-.08-3.5.86-3.41-3.65.11-5.13,3.21-8.32,8-8.32a12.76,12.76,0,0,1,7.29,2c1.07.73,1.58.57,2.24-.47,1.81-2.84,3.63-5.68,5.63-8.37,1.09-1.45.64-2.09-.62-3a27.24,27.24,0,0,0-14.91-4.66c-8-.35-15.06,1.78-20.36,8.17-3.82,4.62-5.15,10.06-4.92,15.91.08,1.94-.54,2.52-2.41,2.37s-3.68,0-5.53-.07c-1.15,0-1.52.33-1.5,1.5.06,3.77,0,7.53,0,11.3,0,1.05.33,1.42,1.38,1.38,1.84-.07,3.7.11,5.53-.06s2.55.36,2.54,2.44c-.1,13,0,26-.09,39,0,1.71.31,2.39,2.22,2.32,4.4-.15,8.82-.12,13.22,0,1.73,0,2.34-.33,2.31-2.21C534.64,303.9,534.71,297.41,534.71,290.92Z"/><path class="cls-1" d="M372.86,283.47c.15,4.31-.32,9.37.54,14.39,1.07,6.22,3.74,11.34,9.61,14.35,8.43,4.32,21.83,2.7,29-3.47.83-.7.78-1.16.25-1.93-1.32-1.91-2.57-3.87-3.85-5.81-.79-1.19-1.36-2.87-2.48-3.44s-2.47,1-3.73,1.59c-6.56,3-11.45,0-11.55-7.21-.1-7.06,0-14.11-.05-21.16,0-1.43.3-1.93,1.84-1.89,3.76.12,7.53,0,11.29.06,1.27,0,1.89-.21,1.85-1.68q-.15-5.41,0-10.82c0-1.51-.64-1.69-1.87-1.67-3.52.06-7.05-.08-10.57.07-1.89.07-2.69-.28-2.57-2.43.2-3.67,0-7.37.1-11,.06-1.65-.51-2-2-2-4.64.08-9.29.09-13.94,0-1.46,0-2,.35-1.91,1.87.11,3.93,0,7.85.06,11.78,0,1.35-.35,1.87-1.74,1.8-1.84-.1-3.69.07-5.53,0-1.43-.08-2,.29-1.93,1.84.13,1.76,0,3.53.05,5.29.12,2.29-1,5.33.49,6.64,1.31,1.13,4.27.49,6.49.34,1.93-.14,2.24.62,2.19,2.33C372.77,275.05,372.86,278.9,372.86,283.47Z"/><path class="cls-1" d="M481.14,283.56c0,9,0,18-.05,26.93,0,1.72.5,2.15,2.15,2.12,4.65-.11,9.3-.08,13.95,0,1.32,0,1.79-.34,1.79-1.75q-.08-27.15,0-54.34c0-1.41-.49-1.75-1.8-1.73-4.65.07-9.3.1-13.94,0-1.67,0-2.16.42-2.15,2.13C481.18,265.77,481.14,274.67,481.14,283.56Z"/><path class="cls-1" d="M500,238.44a9.76,9.76,0,0,0-9.92-10.1,10,10,0,1,0,9.92,10.1Z"/><path class="cls-2" d="M320.91,288.93c6,.15,12,.05,18,.05,6.18,0,12.35-.06,18.52,0,1.73,0,2.16-.53,2.1-2.18a79.28,79.28,0,0,0-.59-9.1c-3.18-22.25-27.11-32.61-45.39-19.48-9.87,7.07-13,17.25-12.12,28.91.59,7.6,3.37,14.27,9.09,19.55,12.09,11.14,34.85,9.51,46.75.3,1-.75.86-1.25.27-2.12-1.87-2.8-3.73-5.6-5.46-8.48-.75-1.23-1.27-1.38-2.51-.55a27.76,27.76,0,0,1-19.23,4.41c-5.28-.61-10-4.21-11.37-8.73C318.44,289.68,318.59,288.87,320.91,288.93Zm-1.79-11.61c1.08-5.24,6-9.09,12-9.26a11.8,11.8,0,0,1,11.67,8.25c.5,1.75.55,2.85-1.91,2.71-3.35-.21-6.72,0-10.09,0s-6.89-.06-10.33,0C319,279,318.86,278.57,319.12,277.32Z"/><path class="cls-2" d="M571.05,288.94c6.09.12,12.19,0,18.28,0s12.36-.06,18.53,0c1.71,0,2.26-.48,2.12-2.16-.19-2.23-.06-4.49-.3-6.71-2.38-21.93-18.82-30.84-37.12-26-11.55,3-19.7,13.43-20.65,25.9-.93,12.1,2.1,22.61,12.9,29.59,11.68,7.56,32.08,6.21,43.1-2.66,1-.78.57-1.25.12-1.93-1.83-2.82-3.76-5.58-5.45-8.47-.84-1.43-1.49-1.37-2.71-.55a27.7,27.7,0,0,1-19,4.32c-5.55-.64-10.49-4.53-11.56-9.09C568.94,289.63,569.14,288.91,571.05,288.94ZM569,276.77c1.08-5.24,6-9.09,12-9.25a11.76,11.76,0,0,1,11.67,8.24c.51,1.74.55,2.85-1.9,2.71-3.35-.21-6.72-.06-10.09-.06s-6.89-.05-10.33,0C568.88,278.48,568.71,278,569,276.77Z"/><path class="cls-1" d="M100.76,232.32a107.83,107.83,0,0,1,59.33-39.81,6.15,6.15,0,0,1,7.79,5.15,16.89,16.89,0,0,1,.21,3.1c0,35.77,0,71.54.07,107.32,0,4.91-2.12,8.59-8.43,8.45-12.75-.29-25.5-.12-38.25-.14a124,124,0,0,0,1.17-23.9,110.84,110.84,0,0,0-10.25-40.62A137.14,137.14,0,0,0,100.76,232.32Z"/><path class="cls-1" d="M79.72,316.37c-13.47,0-26.93.08-40.4.06a6.07,6.07,0,0,1-5.93-5,12.11,12.11,0,0,1-.27-2.61q0-54.37,0-108.73a12.38,12.38,0,0,1,.31-2.85,6.19,6.19,0,0,1,7.69-4.73,108.62,108.62,0,0,1,59.19,39.59.9.9,0,0,1,.08.23,2.77,2.77,0,0,1-.3.88,107.32,107.32,0,0,0-11.2,18.63C82,266,78.91,281,78.33,296.61,78.09,303.22,78.92,309.81,79.72,316.37Z"/><path class="cls-3" d="M79.72,316.37c-.8-6.56-1.63-13.15-1.39-19.76C78.91,281,82,266,88.89,251.81a107.32,107.32,0,0,1,11.2-18.63,2.77,2.77,0,0,0,.3-.88l.37,0a137.14,137.14,0,0,1,11.64,19.55,110.84,110.84,0,0,1,10.25,40.62,124,124,0,0,1-1.17,23.9Z"/></svg>