<svg id="Layer_1" data-name="Layer 1" xmlns="http://www.w3.org/2000/svg" viewBox="0 0 640 480"><defs><style>.cls-1{fill:#213245;fill-rule:evenodd;}</style></defs><path class="cls-1" d="M333.18,78.93a79.82,79.82,0,0,0-63.41,128.16l66.32-87.17H321.86a108.8,108.8,0,0,0-19.78,1.54,20.79,20.79,0,0,0-8.1,3.32c-2.69,1.84-6,5.78-8.1,9.63-.3.48-.66,1.17-1.14,2.09l-3.87-.86,6.51-25h83.08l-66,88.24c4.26-.35,6-.49,9.52-.49,2.64,0,6.75.18,12.13.53l11.72.66c4.26.29,7.84.4,10.5.4,6.09,0,10-.46,13.93-1.64a31.84,31.84,0,0,0,8.52-4.13,39.39,39.39,0,0,0,11.82-13.52,22.54,22.54,0,0,0,1.19-2.36l3.57.93a54.69,54.69,0,0,1-3.53,9.93c-3.52,7.91-7.56,13.22-13.05,17.32a32.1,32.1,0,0,1-19.31,6.33h-1.11c-5.52,0-9.77-.44-22.85-2.43-13.4-2.08-20.17-2.75-26.92-2.75a78.2,78.2,0,0,0-13,1,40.66,40.66,0,0,0-13.14,4A79.77,79.77,0,1,0,333.18,78.93Z"/><path class="cls-1" d="M182.7,293.79h-61l-7.53,16.54a48.65,48.65,0,0,1,5.69-2.65,56.67,56.67,0,0,1,11-3.15,75.4,75.4,0,0,1,10.93-.92c2.17-.05,4.11-.09,6-.09h9l-47.5,67.88h67.15l7.73-17.7a48.27,48.27,0,0,1-5.72,3A50.3,50.3,0,0,1,166,360.5a76.27,76.27,0,0,1-12.21,1.09c-1.6,0-3.68.06-6.19.06H135.62l47.08-67.86Z"/><path class="cls-1" d="M384.6,371.4a9.9,9.9,0,0,1-2.46-2.72,12.67,12.67,0,0,1-1.16-2.37,20.23,20.23,0,0,1-1.09-6.84V308.16c.07-5.19.17-6.64.86-8.74a11.7,11.7,0,0,1,1.12-2.42,10.84,10.84,0,0,1,2.86-3.21H359.86a15.63,15.63,0,0,1,2.9,3,10.55,10.55,0,0,1,1.16,2.53c.63,1.89.78,3.73.78,8.34,0,2.38.05,3.94.05,4.7V358.9a23,23,0,0,1-1.19,7.48,12.45,12.45,0,0,1-1.3,2.3,19.41,19.41,0,0,1-2.35,2.72Z"/><path class="cls-1" d="M462.51,294.47a34.14,34.14,0,0,0-4.72-1.25,63,63,0,0,0-13.62-1.38A55.17,55.17,0,0,0,422,296a43.66,43.66,0,0,0-10.67,6.31c-9.55,7.69-14.75,18.87-14.75,31.72,0,12.49,5,23.28,14.19,30.49,7.53,6,17.3,9,29,9A70.71,70.71,0,0,0,461.56,370c.27-.07.68-.23,1.28-.42V355.5c-1.89,1.26-2.53,1.67-3.63,2.32a46.25,46.25,0,0,1-4.79,2.35,33.7,33.7,0,0,1-13.51,2.9c-8.06,0-15-2.87-20-8.39s-7.76-12.94-7.76-21.47c0-8.15,2.54-15.71,7-21a25.93,25.93,0,0,1,7-5.74,30.57,30.57,0,0,1,15.06-3.72,36.79,36.79,0,0,1,14,2.79,24.52,24.52,0,0,1,6.34,3.53V294.47Z"/><path class="cls-1" d="M530.63,336.18V355.1a58.5,58.5,0,0,1-.33,7.92,14.48,14.48,0,0,1-.87,3.34,12.51,12.51,0,0,1-2.74,4.06c-.29.23-.63.57-1.14,1h24.84a16.51,16.51,0,0,1-2.1-2.38,16.18,16.18,0,0,1-1.43-2.55c-.75-1.83-.92-3.2-1-7-.05-2.27-.05-3.61-.05-4l.05-42.72v-4.6a32.86,32.86,0,0,1,.87-8.23,11.48,11.48,0,0,1,1.23-2.85,9.24,9.24,0,0,1,3.07-3.24H525.65a11.07,11.07,0,0,1,2.88,3.13,17.4,17.4,0,0,1,1.28,2.71c.63,1.84.82,4.1.82,8.14v18.87H495.81V312.48c0-4.26,0-7.09.22-9.2a14.54,14.54,0,0,1,.63-3.37,16.26,16.26,0,0,1,3.19-5.32c.21-.17.51-.47.87-.8H475.85a21.28,21.28,0,0,1,2.57,3,10.68,10.68,0,0,1,1.3,2.62c.66,2,.82,3.09.87,8.24l.06,4.91V355a64.85,64.85,0,0,1-.3,8.17,10.36,10.36,0,0,1-.82,3.08,11.27,11.27,0,0,1-2.9,4.38l-.89.75h24.54a16.84,16.84,0,0,1-2.06-2.56,13.94,13.94,0,0,1-1.22-2.41,18.19,18.19,0,0,1-1.16-6.8c0-1.65,0-3.2,0-4.64V336.18Z"/><path class="cls-1" d="M193.29,293.79a9.92,9.92,0,0,1,2.86,3.12,12.82,12.82,0,0,1,1.11,2.72,18.06,18.06,0,0,1,.46,3.55c0,.84.07,2.45.07,4.83V334.7c0,7.85.12,10.52.36,13.69a25,25,0,0,0,5.4,14.25,29,29,0,0,0,13.13,9.13,42.83,42.83,0,0,0,14.13,2.16,47.51,47.51,0,0,0,15.72-2.42,29.61,29.61,0,0,0,11.59-7.77c3.62-4,5.56-8.86,6.26-15a116.37,116.37,0,0,0,.55-13.88V312.48l-.05-4.37v-.66a30.83,30.83,0,0,1,.71-7.67,9.83,9.83,0,0,1,3.46-5.33c.5-.37.67-.52.91-.66h-23a9.52,9.52,0,0,1,1.71,3.35,14.39,14.39,0,0,1,.66,2.93,111.37,111.37,0,0,1,.48,12.9v24.09a85.11,85.11,0,0,1-.63,13.15,14.43,14.43,0,0,1-11.58,12.33,22.49,22.49,0,0,1-5.45.65,21,21,0,0,1-10.56-2.55,13.47,13.47,0,0,1-4.67-4c-2.08-3.09-2.72-6.23-2.78-14.19l-.12-9.77V313a102.59,102.59,0,0,1,.5-12.9,15.51,15.51,0,0,1,1.91-5.6,2.57,2.57,0,0,1,.46-.68Z"/><path class="cls-1" d="M302.73,355.43v3.94c.06,3.58.32,5.43,1,7.15a10.31,10.31,0,0,0,1.35,2.34,16.85,16.85,0,0,0,2.09,2.54H282.56a19.47,19.47,0,0,0,2.59-2.71,12.29,12.29,0,0,0,1.33-2.45c.63-1.7.9-3.86.9-7.51v-51c0-4.13-.24-6.51-.82-8.25a8.5,8.5,0,0,0-1.31-2.84,12.88,12.88,0,0,0-2.59-2.89h20c2.49,0,4.95,0,7.21.07,6.21.16,9.84.52,13.3,1.34a25.56,25.56,0,0,1,12.58,7A17.89,17.89,0,0,1,341,314.93a17.14,17.14,0,0,1-1,6,18.25,18.25,0,0,1-6.09,8.87,33.3,33.3,0,0,1-9.58,5.52,30.1,30.1,0,0,1-3.41,1.21l12,14.15c1.52,1.73,3.36,3.84,5.73,6.36,3.58,3.94,6,6.43,8.76,9,1.16,1.12,2.29,2.13,3.35,3.06s1.48,1.28,2.84,2.32H343.9c-1.5,0-2.81,0-4-.06a15.57,15.57,0,0,1-7.71-1.84,32,32,0,0,1-8-6.31c-.83-.92-2.15-2.31-3.76-4.2q-2.26-2.52-3.28-3.76L302.73,338v17.45Zm1.24-24a30.83,30.83,0,0,0,4.08-.33A24.83,24.83,0,0,0,317.8,328a16.45,16.45,0,0,0,3.65-2.91,13,13,0,0,0,3-8.76c0-4.07-1.35-7.32-4-9.56a13.74,13.74,0,0,0-5.29-2.78,38.06,38.06,0,0,0-10.45-1.31c-.63,0-1,0-2,0v28.8Z"/></svg>