<svg id="Layer_1" data-name="Layer 1" xmlns="http://www.w3.org/2000/svg" viewBox="0 0 640 480"><defs><style>.cls-1{fill:#213245;}</style></defs><path class="cls-1" d="M398.22,256.46a.48.48,0,0,0-.46-.31H386.67a.47.47,0,0,0-.43.31L364,316.71a.52.52,0,0,0,.09.45.45.45,0,0,0,.38.21h10.09A.47.47,0,0,0,375,317l4.66-13h24.44l4.64,13a.48.48,0,0,0,.44.34h11.12a.59.59,0,0,0,.4-.21.54.54,0,0,0,0-.45Zm-6.39,12.87a62.36,62.36,0,0,0,2.38,7.72l6.83,18.3H382.58l6.76-18A78.59,78.59,0,0,0,391.83,269.33Zm2.82,7.56Z"/><path class="cls-1" d="M448.7,272H437.15V255.82a.56.56,0,0,0-.19-.38.54.54,0,0,0-.4-.09L426.8,258a.49.49,0,0,0-.34.45V272h-8.27a.48.48,0,0,0-.45.47v7.4a.37.37,0,0,0,.15.34.4.4,0,0,0,.3.15h8.27v23.73c0,5,.7,8.5,2.8,10.81s5.44,3.23,10.33,3.23a49,49,0,0,0,9.18-1,.51.51,0,0,0,.4-.47v-7.87a.42.42,0,0,0-.19-.36.44.44,0,0,0-.38-.09,25.38,25.38,0,0,1-5.87.7c-2.28,0-3.54-.43-4.33-1.54s-1.16-3.11-1.16-6.37V280.4H448.7a.46.46,0,0,0,.32-.15.42.42,0,0,0,.15-.34v-7.4a.48.48,0,0,0-.47-.47Z"/><path class="cls-1" d="M467.88,251.25h-9.83a.49.49,0,0,0-.35.13.52.52,0,0,0-.14.34v65.16a.52.52,0,0,0,.14.34.51.51,0,0,0,.35.15h9.83a.55.55,0,0,0,.34-.15.43.43,0,0,0,.13-.34V251.72a.43.43,0,0,0-.13-.34A.45.45,0,0,0,467.88,251.25Z"/><path class="cls-1" d="M513.76,286.61c0-4.6-1-8.5-3.84-11.26s-7.43-4.2-14.48-4.2a47,47,0,0,0-16.25,3,.45.45,0,0,0-.31.49l.93,8.12a.46.46,0,0,0,.27.37.41.41,0,0,0,.46,0,27.94,27.94,0,0,1,13.37-3.5c3.51,0,5.75.7,7.12,2s1.91,3.21,1.94,5.92v2.39c-8.06,0-14.72,1.51-19.4,4.27s-7.53,7-7.53,12.26a11.2,11.2,0,0,0,3.63,8.67c2.31,2.05,5.64,3.15,9.63,3.15h0c6.45,0,11.74-3.05,14.51-7.44-.17,1.93-.21,4-.21,6.06a.44.44,0,0,0,.14.34.45.45,0,0,0,.34.15h9.46a.41.41,0,0,0,.32-.17.38.38,0,0,0,.15-.34c-.17-3.72-.25-8.29-.25-12.12ZM503,297.28v.41a13.36,13.36,0,0,1-3,8.37,10,10,0,0,1-7.74,3.75,6.32,6.32,0,0,1-4.29-1.39,4.59,4.59,0,0,1-1.5-3.59,5.61,5.61,0,0,1,3.11-5.06C492,298.36,496.12,297.33,503,297.28Z"/><path class="cls-1" d="M550.47,295.1c-3-2.81-7.31-3.93-10.84-5.19a16.55,16.55,0,0,1-4.38-2.13,4,4,0,0,1-1.69-3.3,4.15,4.15,0,0,1,1.83-3.65,9.84,9.84,0,0,1,5.81-1.4,33,33,0,0,1,8.78,1.2.47.47,0,0,0,.4,0,.68.68,0,0,0,.18-.37l.26-7.77a.47.47,0,0,0-.37-.51,60.85,60.85,0,0,0-8.63-.79c-6.27,0-11.09,1.54-14.35,4.11a12.33,12.33,0,0,0-4.93,10.09,11,11,0,0,0,3.25,8.54c2.93,2.81,7.25,3.83,10.73,5a14,14,0,0,1,4.34,2,4,4,0,0,1,1.69,3.38,4.47,4.47,0,0,1-2.31,3.92,11.62,11.62,0,0,1-6.25,1.51,37.66,37.66,0,0,1-9.77-1.43.46.46,0,0,0-.41.08.6.6,0,0,0-.19.37l-.27,8.11a.45.45,0,0,0,.37.5,55.11,55.11,0,0,0,9.75.9c6.16,0,11.25-1.55,14.77-4.17a13.05,13.05,0,0,0,5.52-10.69A10.78,10.78,0,0,0,550.47,295.1Z"/><path class="cls-1" d="M91,289c-4.13-3.63-10.17-5.36-15.2-7.55s-8.86-4.78-8.86-10c0-6.41,4.76-10.62,13.89-10.65a37.27,37.27,0,0,1,10.79,1.67.27.27,0,0,0,.26,0,.29.29,0,0,0,.14-.23l.35-5.36a.3.3,0,0,0-.27-.33,59.77,59.77,0,0,0-10.87-1.08c-6.46,0-11.66,1.74-15.23,4.72A15.19,15.19,0,0,0,60.44,272,13.21,13.21,0,0,0,65,282.45c4.11,3.61,10.15,5.34,15.19,7.55s8.84,4.87,8.84,10.27c0,4.3-1.72,7.2-4.39,9.07S78.29,312,74.28,312a38.16,38.16,0,0,1-12.23-2.2.44.44,0,0,0-.28,0,.29.29,0,0,0-.13.25l-.38,5.72a.29.29,0,0,0,.22.32,44,44,0,0,0,12.25,1.53h0c6.71,0,12.16-1.85,16-5a16.76,16.76,0,0,0,5.9-13.13A13.27,13.27,0,0,0,91,289Z"/><path class="cls-1" d="M123.28,271.2a17.73,17.73,0,0,0-14.34,6.69c-3.41,4.19-5.18,10-5.18,16.67,0,7.87,1.75,13.64,5.26,17.47s8.66,5.62,15.3,5.62h0a39.11,39.11,0,0,0,14.49-2.6.39.39,0,0,0,.23-.34l-.55-5a.34.34,0,0,0-.15-.24c-.13-.05-.22-.07-.3,0a30.9,30.9,0,0,1-12.75,2.81c-4.87,0-8.57-1.31-11.11-4.2s-3.88-7.39-3.88-13.86c0-.52,0-1,0-1.56h29.78a.31.31,0,0,0,.3-.28,17.1,17.1,0,0,0,.22-3c0-4.82-1.27-9.34-4.09-12.7S129.35,271.2,123.28,271.2Zm-.37,4.95c6.93,0,11.08,4.61,11.08,11.39v.12H110.81C112.12,280.54,116.57,276.15,122.91,276.15Z"/><path class="cls-1" d="M189.54,271.94H174.48a31.45,31.45,0,0,0-6.46-.74c-6,0-10.86,2-14.21,5.14a16.67,16.67,0,0,0-5.19,12.25c0,5.66,2,10.22,6.25,13a7.81,7.81,0,0,0-4.48,7,7.22,7.22,0,0,0,4.08,6.44c-4.1,2.34-7.48,6.43-7.48,12.05a11.52,11.52,0,0,0,5.15,9.9c3.27,2.27,8,3.45,13.56,3.45,6.72,0,12.54-1.73,16.67-4.65S189,328.7,189,323.94a11.66,11.66,0,0,0-3.93-9.26c-2.62-2.19-6.42-3.38-11.31-3.38h-9.1a14.71,14.71,0,0,1-6-.93,2.85,2.85,0,0,1-1.85-2.78c0-1.5.92-3,3.17-3.93a30.46,30.46,0,0,0,6.51.76c6.48,0,11.39-1.84,14.69-4.94a16.4,16.4,0,0,0,4.92-12.16A13.87,13.87,0,0,0,182.05,277h7.49a.34.34,0,0,0,.22-.09.36.36,0,0,0,.07-.24v-4.46a.33.33,0,0,0-.07-.21A.26.26,0,0,0,189.54,271.94Zm-21.9,4.28c3.9,0,6.91,1.11,9,3.09s3.12,4.93,3.12,8.65-1.23,6.58-3.36,8.51-5.24,3-9.11,3-7-1-9.12-2.93S155,291.73,155,288C155,281.15,159.59,276.23,167.64,276.22Zm-14.37,49.86c0-3.74,2.62-7,6.63-9.14h12.41c3.54,0,6.12.73,7.83,2a6.7,6.7,0,0,1,2.56,5.67,8.72,8.72,0,0,1-4.19,7.47c-2.71,1.85-6.75,2.94-11.85,2.94a18.31,18.31,0,0,1-9.6-2.29A7.63,7.63,0,0,1,153.27,326.08Z"/><path class="cls-1" d="M234.46,271.94h-5.63a.32.32,0,0,0-.23.09.54.54,0,0,0-.08.21V293.5c0,5.53-1.44,10.3-3.93,13.68a12.34,12.34,0,0,1-10,5.39c-3.44,0-5.55-1.05-6.89-3s-1.83-4.83-1.83-8.51V272.24a.39.39,0,0,0-.06-.21.34.34,0,0,0-.24-.09h-5.62a.22.22,0,0,0-.21.09.22.22,0,0,0-.09.21v30.88c0,4,.78,7.69,2.88,10.33s5.63,4.29,10.83,4.29h0A16.64,16.64,0,0,0,229,308.05a68.79,68.79,0,0,0-.51,8.55.31.31,0,0,0,.08.25.49.49,0,0,0,.22.09h5.7a.57.57,0,0,0,.24-.09.46.46,0,0,0,.06-.25V272.24a.39.39,0,0,0-.06-.21A.3.3,0,0,0,234.46,271.94Z"/><path class="cls-1" d="M270.26,271.22a18,18,0,0,0-2.17-.13c-7.14,0-11.23,4.67-13.33,9.83a64.17,64.17,0,0,0,.67-8.68.3.3,0,0,0-.09-.21.34.34,0,0,0-.27-.09h-5.71a.29.29,0,0,0-.2.09.45.45,0,0,0-.1.21V316.6a.47.47,0,0,0,.1.25c.08,0,.14.09.2.09H255a2,2,0,0,0,.24-.09.57.57,0,0,0,.07-.25V298.94c0-7.05,1-12.54,3-16.24a9.86,9.86,0,0,1,9.14-5.61,13.62,13.62,0,0,1,2.35.22.58.58,0,0,0,.27-.09.31.31,0,0,0,.12-.23l.24-5.45A.27.27,0,0,0,270.26,271.22Z"/><path class="cls-1" d="M294,271.2a19.76,19.76,0,0,0-15.64,7,25.31,25.31,0,0,0-5.48,16.37c0,7.82,1.88,13.6,5.27,17.42s8.34,5.67,14.33,5.67h0a19.67,19.67,0,0,0,15.56-7,26,26,0,0,0,5.63-16.84c0-8.31-2.27-13.95-5.85-17.53S299.23,271.2,294,271.2ZM307.27,294c-.07,12.94-6.69,18.32-13.83,18.33-4.51,0-8-1.65-10.38-4.73s-3.67-7.66-3.66-13.51c0-12.28,6.82-17.7,14-17.72,4.6,0,8.06,1.66,10.34,4.66S307.27,288.51,307.27,294Z"/><path class="cls-1" d="M344.94,295.35c-3.29-2.62-8.05-3.49-12-4.77a13.54,13.54,0,0,1-4.94-2.47,5.56,5.56,0,0,1-2-4.52,6.26,6.26,0,0,1,2.49-5.29c1.68-1.26,4.23-2,7.62-2a32.84,32.84,0,0,1,9.31,1.51.33.33,0,0,0,.25,0,.29.29,0,0,0,.13-.26l.27-5a.32.32,0,0,0-.23-.32,43.49,43.49,0,0,0-8.92-1c-5.55,0-9.83,1.39-12.79,3.71a11.49,11.49,0,0,0-4.48,9.3c0,4.07,1.44,6.73,3.62,8.56,3.23,2.69,8,3.52,11.9,4.76a14,14,0,0,1,4.92,2.4,5.47,5.47,0,0,1,2,4.45A6.6,6.6,0,0,1,339,310.1a14.89,14.89,0,0,1-8.25,2.09,38.29,38.29,0,0,1-9.92-1.42c-.1,0-.15,0-.26.07a.26.26,0,0,0-.13.22l-.18,5.37a.31.31,0,0,0,.27.32,44.44,44.44,0,0,0,9.5.9c5.78,0,10.4-1.55,13.59-4.1a12.49,12.49,0,0,0,4.95-10A9.93,9.93,0,0,0,344.94,295.35Z"/><path class="cls-1" d="M580,219.89a79.22,79.22,0,0,1-11.57,6.94L568,227l-14.71-18.63-14.4,18.55-.33-.16s-7.37-3.37-11.63-7.29l-7,8.85c5.22,5.83,13,11.22,24.18,13.8l9.39-12,9.49,12a47.67,47.67,0,0,0,23.93-13.45Z"/><path class="cls-1" d="M553.47,182.05l27.17,33.68a32.28,32.28,0,1,0-54,.14Z"/><path class="cls-1" d="M586,311.92a6.28,6.28,0,0,1-6.37,6.3,6.28,6.28,0,1,1,0-12.56A6.24,6.24,0,0,1,586,311.92Zm-11.25,0a4.89,4.89,0,0,0,4.92,5,4.78,4.78,0,0,0,4.73-5,4.83,4.83,0,1,0-9.65,0Zm3.85,3.26h-1.45v-6.27a14.87,14.87,0,0,1,2.4-.21,3.35,3.35,0,0,1,2.16.51,1.51,1.51,0,0,1,.64,1.32A1.62,1.62,0,0,1,581,312v.08c.63.2.93.68,1.13,1.53a5.44,5.44,0,0,0,.46,1.54h-1.55a6.33,6.33,0,0,1-.51-1.54c-.1-.64-.5-1-1.28-1h-.7Zm.06-3.53h.68c.78,0,1.45-.27,1.45-.91s-.43-.95-1.35-.95a4,4,0,0,0-.78.07Z"/></svg>