<svg id="Layer_1" data-name="Layer 1" xmlns="http://www.w3.org/2000/svg" viewBox="0 0 640 480"><defs><style>.cls-1{fill:#213245;}</style></defs><path class="cls-1" d="M323.53,322.18c-.76-.8-5.14-14.21-5.14-14.21l-7.61,9.88L315.7,333Z"/><path class="cls-1" d="M372.83,236.22H356.42L465.58,95h-270V344.44l.52-.52c.39-.29,18.41-22.61,34.9-44.64,14.87-19.14,28.8-37.88,30-39.64,3-4.26,7.26-13.59,7.26-13.59h21.94s.74,8.59,1.36,10.61,13.95,45.79,14.25,46.26l7.36-9.52-12.6-38.92s-3-7.29-3.95-8.43h25.68a23.44,23.44,0,0,0,.81,7c1.06,3.2,6.58,23.08,6.58,23.08s17.48-21.93,18.56-23.52a14.48,14.48,0,0,0,2.13-6.52h21.39s-3.9,2.89-10.74,11.55c-2.31,2.91-24.88,31.63-24.88,31.63s1.9,6.69,2.87,10c.24,1,.44,1.62.44,1.69a12.76,12.76,0,0,0,1.35-1.69c5.79-7.35,32.38-42.11,34-45.12,1.3-2.41,3.21-5.18,4.31-8.11h20.83s.52,6.25,1.14,7.95l13.15,45.28c4.91,14,15.25,50.24,19.34,53.14h-27a42.29,42.29,0,0,0-1.28-9.54c-1.18-4.09-10.88-35.48-10.88-35.48h-42.9l-6.7,9.53s8.08,25.31,8.59,26.56c.86,2.23,4.79,8.93,4.79,8.93H332.32s-.73-3.84-.95-5.48c-.24-1.27-2.43-8.4-2.43-8.4s-5.93,6.41-7.46,9.39-2.33,4.49-2.33,4.49H298.93s-.67-3.84-1-5.48c-.18-1.27-2.65-9-2.65-9s-5.67,6.9-7.32,9.86-2.25,4.63-2.25,4.63h-20s5.66-5.38,7.54-7.71c3.37-3.85,15.81-20.09,15.81-20.09l-5-17.22H241.62s-24.25,31.83-25.17,32.82-8,11.12-8.22,12.2H195.6V381h286V95Z"/><path class="cls-1" d="M273.58,274.07a32.49,32.49,0,0,1-.56-7.54l-.34-.14C269.63,273,251.57,295,251.57,295H280.1S274.57,277.89,273.58,274.07Z"/><path class="cls-1" d="M383.39,274.07a30.33,30.33,0,0,1-.59-7.54l-.38-.14L361.31,295h28.56S384.27,277.89,383.39,274.07Z"/></svg>