<svg id="Layer_1" data-name="Layer 1" xmlns="http://www.w3.org/2000/svg" viewBox="0 0 640 480"><defs><style>.cls-1{fill:#213245;}</style></defs><path class="cls-1" d="M299.93,254.87c0-5.32.94-7.19-5-10.32h0l-4.09-2v-3.66h40.77v3.66l-4.16,1.64h0c-6.17,2.51-6.17,3.18-6,10.69h0l.07,30.1L320,286.43h0c-7.07,1.83-23.71,6.39-38.66,6.39C247,292.82,230,275,230,236.49c0-41.42,23.9-59.35,55.28-59.35,8.46,0,23.71,0,34.34,9a9.74,9.74,0,0,1,3.88,7.63,6.92,6.92,0,0,1-1,4h0l-7.64,14.77H312c0-7.31-8.5-26.76-30.56-26.76-25.59,0-26.85,17.89-26.85,48.08,0,26.44,2.77,50.22,33.33,50.22,9.85,0,11.68-5.22,12-11.09V254.87Z"/><path class="cls-1" d="M341.78,286.94l7.32-3h0c6-2.29,6-6.66,6-16.28h0v-69.4h0c0-5.33-1.5-8-5.65-10.81h0L342.77,183v-3.64H373l1.79,1.13h0c3.37,4.46,10.28,16.5,19.62,29.06h0l32.07,43.67h0c1.33,1.84,2,2.64,2.6,2.64,1.33,0,1.33-1.65,1.33-4.66h0V198.43h0c0-7.61-.1-9.14-6.59-11.76h0L414.38,183v-3.64h38V183l-4.83,1.83h0c-7.07,2.86-8.54,4.46-8.54,15.42h0v65.46h0c0,10,.24,20.09.24,23.56h0l-1.15,1.32h-9.26L427,289.27h0c-1.47-1.82-10.14-13.95-18.93-25.73h0l-38.87-52h0c-2.15-2.84-3.09-4.37-4-4.37-1.49,0-1.49,1.72-1.49,4h0v59.41h0c0,8,0,10.5,7,12.83h0l9.82,3.45v3.65h-38.7v-3.65Z"/><path class="cls-1" d="M462.19,286.94l7.28-2.44h0c5.44-1.83,5.63-4.86,5.63-15.29h0V197.42h0c0-7.91,0-9.94-5.63-11.79h0L462.19,183v-3.64h55c19.24,0,38.13,4.17,38.13,29.38,0,23.1-17.25,37.35-44.14,37.35-1.2,0-2.67-.18-3.68-.18h0l-2.48-6,1.36-1.34h0c12-.29,26.72-5.26,24.65-28.6-1.67-18.21-6.91-21.58-21.83-21.58-10.12,0-10.83,1.5-10.83,5.68h0v75.1h0c0,11.14-.17,13.46,6.51,15.29h0l8.59,2.44v3.65H462.19v-3.65Z"/><polygon class="cls-1" points="579.93 307.84 230.01 307.84 230.01 305.5 579.93 305.5 579.93 307.84 579.93 307.84"/><path class="cls-1" d="M161.68,234.4A18.6,18.6,0,1,1,143,215.85a18.54,18.54,0,0,1,18.64,18.55Z"/><path class="cls-1" d="M112.17,203.39H72l8.11,24.85h20v-.05h0a36.75,36.75,0,0,0,36.74-36.74h0v-20l-24.71-8.08v40Z"/><path class="cls-1" d="M112.05,265.33v40.11l24.83-8.06v-20h0a36.85,36.85,0,0,0-36.75-36.78h-20L72,265.33Z"/><path class="cls-1" d="M174.05,265.43h40.08L206,240.61H186a36.81,36.81,0,0,0-36.7,36.78h0v19.92l24.74,8.13v-40Z"/><path class="cls-1" d="M174.1,203.5V163.44l-24.79,8v20h0A36.8,36.8,0,0,0,186,228.24H206l8.15-24.74Z"/><path class="cls-1" d="M570.77,181.19c3.81,0,7,3.07,7,7.48a7.15,7.15,0,0,1-7,7.48v1.79a9.29,9.29,0,0,0,0-18.58v1.83Zm0,8.85v-2.2h0c1.19,0,2.15-.15,2.15-1.57,0-1.24-1.08-1.44-2.13-1.44h-.05v-1.52h.28c2.57,0,4,.92,4,3.1,0,1.83-1.09,2.68-2.81,2.83h0l2.89,4.65H573Zm0,6.11c-3.92,0-7-3.15-7-7.48s3.11-7.48,7-7.48h0v-1.83h0a9.29,9.29,0,1,0,0,18.58h0v-1.79Zm0-12.84v1.52H569.1v3h1.67V190l-.48-.67H569.1v4.52h-1.89V183.31Z"/><path class="cls-1" d="M238.41,354.78a14.74,14.74,0,0,1-7.23-1.61c-.82-1-1.38-4-1.38-6.94a1.06,1.06,0,0,1,1.61-.13c.94,2.81,3.77,6.75,7.39,6.75a4.23,4.23,0,0,0,4.57-4.33c0-3.46-3.24-5.55-5.74-6.83-3.12-1.56-6.47-4.09-6.47-8.3-.09-4.83,3.7-8.16,9.91-8.16a17.44,17.44,0,0,1,4.83.63,7.42,7.42,0,0,0,1.49.38,21,21,0,0,1,.76,6.09,1.12,1.12,0,0,1-1.66.14c-.75-2.18-2.55-5.27-5.64-5.27-2.85,0-4.41,1.81-4.41,4,0,2,1.77,3.76,3.9,4.88l2.82,1.47c2.67,1.41,6.07,3.9,6.07,8.59C249.23,351.38,244.87,354.78,238.41,354.78Z"/><path class="cls-1" d="M284.11,337c0,1.22,0,1.27,1.18,1.27h3c2.22,0,2.73-.29,3.17-2.33l.23-1.07a1.24,1.24,0,0,1,1.55.05c-.09,1.38-.15,2.91-.15,4.53s.06,3.18.15,4.52c-.23.4-1.32.45-1.55,0l-.23-1c-.44-2.06-.95-2.4-3.17-2.4h-3c-1.17,0-1.18,0-1.18,1.31V347a8.39,8.39,0,0,0,.65,4.06c.59.77,1.42,1.12,4.5,1.12,3.71,0,5.16-.18,7.55-5a1,1,0,0,1,1.56.23,25.51,25.51,0,0,1-1.77,6.82c-2.34-.08-6.35-.12-9.89-.12h-5.55c-2.09,0-4.16,0-7.35.12a1.17,1.17,0,0,1,0-1.48l2-.33c1.92-.27,2.2-.53,2.2-4.48V332c0-3.9-.28-4.19-2.2-4.55l-1-.22a1,1,0,0,1,.05-1.5c2,.05,4.11.09,6.15.09H290c2.71,0,5.19,0,5.71-.09,0,.68.37,3.75.56,6.62-.16.45-1.11.55-1.54.17a9.36,9.36,0,0,0-1.66-3.35c-.8-.85-2.08-1.36-4.18-1.36h-3.42c-1.4,0-1.4.09-1.4,1.67Z"/><path class="cls-1" d="M349.47,349.28c0,1.8.07,2.65.87,2.79.2.18.16.93-.12,1.06a16.3,16.3,0,0,0-3,.64,33.12,33.12,0,0,1-7.51,1,21.08,21.08,0,0,1-8.43-1.48,13.44,13.44,0,0,1-8.44-12.91,14.11,14.11,0,0,1,7.55-12.9,20.2,20.2,0,0,1,10-2.26c4.73,0,7.07,1,8.43,1,.14,1.27.21,4.27.62,6.9-.16.43-1.33.49-1.61.07q-2.06-6-8.05-6c-6.8,0-10,5.61-10,12.37,0,6.1,2.09,9.71,4.82,11.65a10.61,10.61,0,0,0,5.86,1.63c2.48,0,2.94-.49,2.94-3.29v-2.68c0-2.31-.24-2.58-2.3-2.88l-1.86-.25a.93.93,0,0,1,0-1.5c3,.11,5.12.15,7.19.15s4.19,0,5.6-.15a1.18,1.18,0,0,1,0,1.5l-.95.18c-1.31.21-1.53.64-1.53,2.95Z"/><path class="cls-1" d="M379.84,332c0-4-.28-4.2-2.23-4.59l-1.06-.22a1,1,0,0,1,.14-1.46c2,.05,4.15.09,6.2.09s4.2,0,6.24-.09a1.46,1.46,0,0,1,0,1.46l-1.05.16c-1.91.35-2.18.68-2.18,4.65v9.89c0,5,.54,10.49,7.06,10.49,5.49,0,7.12-4.77,7.12-10.62v-5.18c0-3.45-.16-6.71-.64-7.81-.39-.91-1.31-1.16-2.44-1.36l-1.17-.22a1.28,1.28,0,0,1,0-1.46c2.3.05,4,.09,5.7.09s3.19,0,4.82-.09a1.28,1.28,0,0,1,0,1.46l-.78.16c-1.1.26-1.89.51-2.28,1.42-.5,1.1-.66,4.36-.66,7.81v4.79c0,4-.41,7.73-2.75,10.31-1.86,2-5,3.06-8.48,3.06-3.19,0-6.12-.51-8.44-2.37s-3.12-5-3.12-9.68Z"/><path class="cls-1" d="M434.33,332.81c0-4.25-.09-4.74-1.9-5l-1.18-.19a1,1,0,0,1,.07-1.48c3.26-.21,6.57-.4,10.63-.4,3.63,0,6.79.55,8.36,1.52a7.06,7.06,0,0,1,3.8,6.34c0,3.78-2.59,5.44-4.52,6.39-.43.25-.43.5-.23,1,2.81,5.72,4.55,8.94,6.64,10.69a4.75,4.75,0,0,0,2.84,1.2A.84.84,0,0,1,459,354a11,11,0,0,1-3.42.38c-3.93,0-6.41-1.39-8.29-4.48a64.17,64.17,0,0,1-3.35-6.61,2.08,2.08,0,0,0-2.22-1.51c-1.48,0-1.61.07-1.61.95v5.23c0,3.95.27,4.26,2.16,4.58l1.21.23a1.33,1.33,0,0,1,0,1.48c-2.27-.08-4.24-.12-6.29-.12s-4.08,0-6.24.12a1.26,1.26,0,0,1,0-1.48l1.14-.23c1.91-.32,2.21-.63,2.21-4.58Zm5.81,5.44c0,1.48.18,1.63,2.66,1.63a4.17,4.17,0,0,0,3.26-1.19,6.55,6.55,0,0,0,1.56-4.64c0-3.84-2.27-6.31-5.64-6.31-1.71,0-1.84.11-1.84,2.17Z"/><path class="cls-1" d="M511.14,339.88c0,9.3-6.23,14.9-15.38,14.9-8.63,0-14.85-5.64-14.85-14.56,0-8.47,6.31-15,15.24-15S511.14,331.21,511.14,339.88ZM495.78,327.2c-5.23,0-8,4.9-8,12,0,5.24,1.8,13.63,8.79,13.63,5.63,0,7.77-5.5,7.77-12.43C504.3,333.14,501.11,327.2,495.78,327.2Z"/><path class="cls-1" d="M545.16,354.78a15,15,0,0,1-7.33-1.61c-.78-1-1.31-4-1.31-6.94a1,1,0,0,1,1.58-.13c.88,2.81,3.8,6.75,7.38,6.75a4.25,4.25,0,0,0,4.61-4.33c0-3.46-3.24-5.55-5.76-6.83-3.15-1.56-6.5-4.09-6.5-8.3-.07-4.83,3.7-8.16,9.89-8.16a18.29,18.29,0,0,1,4.92.63,6.53,6.53,0,0,0,1.44.38,22.76,22.76,0,0,1,.74,6.09,1.11,1.11,0,0,1-1.65.14c-.7-2.18-2.55-5.27-5.67-5.27-2.78,0-4.3,1.81-4.3,4,0,2,1.77,3.76,3.86,4.88l2.87,1.47c2.61,1.41,6,3.9,6,8.59C555.9,351.38,551.6,354.78,545.16,354.78Z"/></svg>