<svg id="Layer_1" data-name="Layer 1" xmlns="http://www.w3.org/2000/svg" viewBox="0 0 640 480"><defs><style>.cls-1{fill:#213245;fill-rule:evenodd;}</style></defs><path class="cls-1" d="M94,202.15a60.6,60.6,0,1,1-60.64,60.61A60.62,60.62,0,0,1,94,202.15Zm0,5.78a54.84,54.84,0,1,0,54.83,54.83A54.83,54.83,0,0,0,94,207.93Z"/><path class="cls-1" d="M97,274.49v18.6H91v-18.6c-2.83,0-6.53,0-8-.05l-19.69.05a9,9,0,0,1-9.41-9.32,6.91,6.91,0,0,1,.12-1.23,35.4,35.4,0,0,1,4.16-11.42,34.67,34.67,0,0,1,7.92-9.41,10.17,10.17,0,0,1,7.57-1.8,9.85,9.85,0,0,1,4.8-5.84,6.79,6.79,0,0,1,1.17-.54A41.71,41.71,0,0,1,94,232.42,42.17,42.17,0,0,1,108.35,235a10.93,10.93,0,0,1,5.83,6.29,8.68,8.68,0,0,1,7.24,1.53,38.33,38.33,0,0,1,8.31,9.74,34.56,34.56,0,0,1,4.19,11.42,8.12,8.12,0,0,1,.11,1.23,8.93,8.93,0,0,1-4.47,8.13,9.22,9.22,0,0,1-5,1.19l-19.73-.05c-1.38.05-5.1.05-7.9.05Zm21-26.91a3.1,3.1,0,0,0-3.32-.21,3.5,3.5,0,0,0-1.26,1.39l-10,17.39a1.47,1.47,0,0,0-.06,1.6,1.51,1.51,0,0,0,1.41.75l20.09,0a2.88,2.88,0,0,0,1.76-.37,3,3,0,0,0,1.48-2.9c.05,0,0-.18,0-.28a29.27,29.27,0,0,0-3.46-9.51,29.89,29.89,0,0,0-6.56-7.81s-.05,0-.12-.09Zm-47.88,0c0,.06-.08.06-.11.09A30.18,30.18,0,0,0,59.86,265v.28a3.19,3.19,0,0,0,1.53,2.9,2.91,2.91,0,0,0,1.76.37l20.08,0a1.51,1.51,0,0,0,1.42-.75,1.54,1.54,0,0,0-.08-1.6l-10-17.39a3,3,0,0,0-1.24-1.39,3.07,3.07,0,0,0-3.3.21Zm36.43-7a.56.56,0,0,1-.17-.07,36.23,36.23,0,0,0-24.59,0c-.14.06-.24.08-.3.16A3.7,3.7,0,0,0,79.28,244a3.4,3.4,0,0,0,.66,2.13L92.3,267.49A1.8,1.8,0,0,0,94,268.56a1.93,1.93,0,0,0,1.67-1L108,246.21a3.87,3.87,0,0,0,.69-2.18A3.79,3.79,0,0,0,106.47,240.6Z"/><polygon class="cls-1" points="207.26 231.05 222.09 261.33 236.86 231.05 259.23 231.05 259.23 291.63 236.86 291.63 236.86 261.33 222.09 291.63 207.26 261.33 207.26 291.63 184.89 291.63 184.89 231.05 207.26 231.05"/><path class="cls-1" d="M303.59,240.11l-9.09,31.62h18.21l-9.12-31.62Zm-37.2,51.52,17.45-60.58h39.52l17.46,60.58H318.4l-2.84-10H291.67l-2.89,10Z"/><path class="cls-1" d="M375.54,238c5,0,9.92,2.68,9.92,8.18a9.87,9.87,0,0,1-9.92,9.94h-4.88V238Zm14.23-7H347.88v60.58h22.4V266.37h19.49a17.66,17.66,0,1,0,0-35.32Z"/><polygon class="cls-1" points="415.24 231.05 474.71 231.05 474.71 240.95 437.64 240.95 437.64 256.39 474.71 256.39 474.71 266.31 437.64 266.31 437.64 291.63 415.24 291.63 415.24 231.05"/><polygon class="cls-1" points="572.85 281.67 610 281.67 610 291.63 550.47 291.63 550.47 231.05 610 231.05 610 240.95 572.85 240.95 572.85 256.38 610 256.38 610 266.31 572.85 266.31 572.85 281.67"/><path class="cls-1" d="M510.15,238c4.9,0,9.92,2.68,9.92,8.19a9.93,9.93,0,0,1-9.92,9.93h-4.88V238Zm31.94,38v.49a4,4,0,0,0,0-.49Zm0,.49a4,4,0,0,0,0-.49A15.14,15.14,0,0,0,527,261.35a15.15,15.15,0,0,0,0-30.3H482.55v60.58h22.72V266.52h4.88a9.94,9.94,0,0,1,9.92,10v15.16h22Z"/></svg>