<svg id="Layer_1" data-name="Layer 1" xmlns="http://www.w3.org/2000/svg" viewBox="0 0 640 480"><defs><style>.cls-1{fill:#213245;}</style></defs><path class="cls-1" d="M480,190.57h1.5c1.77,1.13,2.45,3.25,3.42,5q20.21,37.86,40.44,75.7c6.52,12.3,13.17,24.52,19.62,36.85v.24c-.38.7-.69,1.79-1.68,1.69-6.55,0-13.11,0-19.66,0-1.57.07-2-1.65-2.59-2.75-1.19-2.27-2.47-4.47-3.55-6.8-1.84-3.12-3.29-6.44-5.12-9.56-1.42-3.08-3.24-5.94-4.66-9-.88-1.86-2-3.58-2.91-5.45-1.29-2.77-3-5.33-4.21-8.12-1.9-3.28-3.46-6.73-5.35-10-1.33-2.94-3.1-5.64-4.44-8.57-.94-2-2.19-3.87-3.12-5.89-1.22-2.63-2.83-5-4-7.69-.58-1-1-2.45-2.19-2.86-.78-.07-1.88-.26-2.32.58-2,3.28-3.53,6.86-5.5,10.18-1.41,3.08-3.25,5.94-4.66,9-.84,1.79-1.95,3.44-2.8,5.22-.64,1.34-1.29,2.68-2.06,3.95-1.34,2.27-2.3,4.75-3.66,7-1.19,2-2,4.15-3.22,6.13s-2.11,4.29-3.34,6.34c-1.4,2.34-2.39,4.89-3.79,7.22-1.18,2-2,4.15-3.21,6.13s-2.12,4.29-3.34,6.35-2.29,4.58-3.53,6.81c-.42.67-.83,1.5-1.66,1.7a25.25,25.25,0,0,1-3.89.11c-5,0-10,0-15,0a3.18,3.18,0,0,1-2.61-.78,3.31,3.31,0,0,1,.34-2.52q30.64-57.46,61.35-114.88a4.09,4.09,0,0,1,1.43-1.34ZM89.5,209c1.4-1.48,3.53-1,5.34-1.05h54.72a41.49,41.49,0,0,1,15.84,2.51c8.47,3,15.77,9.87,18.51,18.55a36.8,36.8,0,0,1,1.72,10.31,34.52,34.52,0,0,1-2.08,11c-1.68,4.08-4.11,8-7.74,10.62-.87.85-2.23,1.2-2.87,2.27a27.29,27.29,0,0,1,12.11,9.07c5.14,6.73,6.58,15.63,5.7,23.89a35.76,35.76,0,0,1-4.87,15.55,28,28,0,0,1-7.08,7.62c-6.21,4.61-13.89,6.73-21.47,7.6a33.35,33.35,0,0,0-4.68.53H90.89A8.76,8.76,0,0,1,89.5,326V209M110,226.08a4,4,0,0,0-.46,2.54c0,8.87-.08,17.75.06,26.61a2.81,2.81,0,0,0,2.27,1.1c11.79,0,23.59,0,35.38,0a26.64,26.64,0,0,0,4.87-.5,16.56,16.56,0,0,0,9.9-4.76,13.56,13.56,0,0,0,3.14-6.49c.14-1.89.75-3.8.22-5.68a14.6,14.6,0,0,0-3.72-8.68,19.87,19.87,0,0,0-11.1-4.55c-1.28-.13-2.58.06-3.85-.19a24.06,24.06,0,0,0-4.8-.2c-9.68,0-19.36,0-29,0a5.54,5.54,0,0,0-2.88.8m.66,48a1.23,1.23,0,0,0-.89.78c-.71,1.37-.56,3-.56,4.45,0,9.13,0,18.25,0,27.38,0,1.3.75,3.15,2.32,3h37.38a17.3,17.3,0,0,0,3.74-.23c4.39-.37,8.93-1.25,12.62-3.78,3-2.1,4.6-5.58,5.24-9.08a25.19,25.19,0,0,0-.65-12.22,12.73,12.73,0,0,0-6-7.29c-3.84-2.12-8.25-2.75-12.56-3.12H111.85a5.54,5.54,0,0,0-1.22.11ZM211.09,208a28.16,28.16,0,0,1,4.21-.09q29,0,58.07,0c8.75.45,17.64,3.51,24,9.75a29.67,29.67,0,0,1,8.39,18c0,2.65.11,5.31-.07,7.95-.83,5.67-3.06,11.39-7.33,15.36a17.55,17.55,0,0,1-4.05,3.29c-.32.27-1,.4-.79.95a28.05,28.05,0,0,1,12.39,9.71,31.8,31.8,0,0,1,3.17,5.85c1.8,4.08,2.14,8.59,2.4,13a58.64,58.64,0,0,1-1.23,10.15,30,30,0,0,1-8.41,15.3,41,41,0,0,1-5.38,4c-5.44,3.33-11.77,4.87-18,5.7-1.75.29-3.55.13-5.28.6H211.39a2.94,2.94,0,0,1-1.77-2.67q0-57.08,0-114.17a3,3,0,0,1,1.47-2.57m20.68,17.38a2.42,2.42,0,0,0-1.68,1,4.94,4.94,0,0,0-.45,2.9c0,8.12,0,16.24,0,24.37a3.17,3.17,0,0,0,1.46,2.57c2.4.21,4.82,0,7.23.09,10.23,0,20.47,0,30.71,0,3.43-.39,7-.83,10-2.66,3.1-1.4,5.06-4.42,6.12-7.55.79-2.53.52-5.2.53-7.81A16.38,16.38,0,0,0,284,233c-2.4-4.13-7-6.4-11.64-7.08-1.8-.45-3.68-.08-5.5-.45a22.68,22.68,0,0,0-4.2-.15c-9.9,0-19.81,0-29.71,0a6.13,6.13,0,0,0-1.21.12m-.67,48.73a2.08,2.08,0,0,0-1.45,2.22q0,14.36,0,28.71a9.75,9.75,0,0,0,.35,3.65c.24.82,1.24,1,2,1,12.68,0,25.36,0,38,0,1.67.08,3.31-.35,5-.43,4.27-.53,8.66-1.76,12-4.67a15.7,15.7,0,0,0,4.15-9.91,14.17,14.17,0,0,0,0-5.43c-.32-4.07-1.74-8.41-5.12-10.95-4.07-3.14-9.36-3.87-14.34-4.34h-38a13.65,13.65,0,0,0-2.56.11Zm81.08-63.67a1.86,1.86,0,0,1,1.89-2.54c6.23,0,12.47,0,18.7,0a1.87,1.87,0,0,1,1.91.77,66.59,66.59,0,0,1,3.87,7.15c.75,1.56,1.71,3,2.46,4.55,1.38,3,3.17,5.79,4.55,8.8,1.83,3.12,3.28,6.44,5.12,9.56,1.57,3.37,3.55,6.53,5.11,9.91,1.35,2.37,2.58,4.79,3.8,7.23,1.56,2.52,2.64,5.28,4.18,7.81,1.07,1.87,1.86,3.87,3,5.71,1.41,2.34,2.39,4.89,3.8,7.22s2.33,4.92,3.83,7.19a2.13,2.13,0,0,0,3.54,0c1.49-2.28,2.44-4.85,3.83-7.19,1.24-2,2.12-4.28,3.34-6.33,1.4-2.34,2.39-4.89,3.79-7.23s2.47-5,3.94-7.41c1.7-3.58,3.77-7,5.45-10.57,1.38-2.34,2.55-4.8,3.81-7.21,1.47-2.38,2.5-5,3.94-7.4,1.25-2.14,2.16-4.45,3.43-6.59s2.17-4.43,3.46-6.55c1.71-2.89,2.82-6.14,4.85-8.84.46-.71,1.36-.55,2.09-.59,6.12.06,12.25,0,18.37,0a2,2,0,0,1,1.93,1.15c.39,1.15-.45,2.2-1,3.15Q410,266.81,380.82,321.42c-1.12,2.08-2.06,4.34-3.78,6h-1.47c-2.21-1.39-3-4.09-4.22-6.23q-29.6-55.36-59.17-110.74Z"/></svg>