<svg id="Layer_1" data-name="Layer 1" xmlns="http://www.w3.org/2000/svg" viewBox="0 0 640 480"><defs><style>.cls-1{fill:#213245;}</style></defs><path class="cls-1" d="M427.32,264.88a4.25,4.25,0,0,0,.2-2.31q0-22.93,0-45.86c0-.8,0-1.61-.06-2.41-.31-4.09-2-5.64-6.16-5.76-1.1,0-2.77.8-3-1.38-.1-1.22.12-2,1.63-2,7.16,0,14.32-.13,21.48-.23,1.41,0,2.31.33,2.32,2s-1.08,1.62-2.26,1.65c-4.76.1-6.36,1.74-6.37,6.43,0,18.18,0,36.36,0,54.55,0,3.63.57,6.85,3.68,9.2,1.39,1,0,1.45-.64,1.81A9.59,9.59,0,0,1,426,277.92c-2.33-3.07-4.49-6.28-6.7-9.45q-16.29-23.34-32.56-46.7c-.45-.64-.93-1.26-1.54-2.09a4.28,4.28,0,0,0-.44,2.73q0,23.29,0,46.58c0,6.31,1.86,8.27,8.17,8.22,1.94,0,2.18.88,2,2.35-.14,1.15-1,1.33-2,1.33H370c-1.24,0-1.95-.46-1.95-1.85s.7-1.76,1.95-1.86c5.55-.45,6.87-1.89,6.87-7.34V216c0-5.44-1.73-7.29-7.11-7.43-1.32,0-2.17-.19-2.09-1.8s.8-2,2.18-1.78a43.52,43.52,0,0,0,7.22,0c6.14-.26,10.8,2.4,14.22,7.49,7.45,11.08,15,22.1,22.49,33.14q6.16,9.08,12.37,18.13C426.45,264.19,426.58,264.83,427.32,264.88Z"/><path class="cls-1" d="M241.84,282.59a30.21,30.21,0,0,1-17.41-4.25c-3.89-2.42-6.9-5.63-7.41-10.43-.34-3.23.6-6.06,3.54-7.9,2-1.25,2.47-1.05,3,1.22,2.08,8.36,7.08,13.88,15.77,15.21,6.17.94,12.31.44,17.24-4.08,5.8-5.31,5.46-13.05-.64-18-4.11-3.3-8.85-5.51-13.65-7.59-5.32-2.31-10.55-4.77-15.09-8.47-11.25-9.17-9.82-25.2,3.17-31.7,9.76-4.88,19.82-4.41,29.41.8,5.64,3.07,8.11,9.67,6.18,15a6.81,6.81,0,0,1-4.34,4.52c-2.34.78-2.7.58-2.79-1.85a24.64,24.64,0,0,0-1.33-7.32,12.14,12.14,0,0,0-9.43-8.42c-6-1.21-11.55-.42-16.13,4a11.82,11.82,0,0,0-.43,17.07c3.07,3.32,7,5.31,11,7.21,5.3,2.52,10.77,4.68,15.77,7.8,5.52,3.44,9.83,7.82,10.63,14.67.94,8.08-3.11,15-11.1,19.06A32.46,32.46,0,0,1,241.84,282.59Z"/><path class="cls-1" d="M331.62,282.59c-7.37.22-13.86-1.57-19.42-6-3.9-3.15-5.88-7.18-4.64-12.33a5.89,5.89,0,0,1,1.64-2.9c1-1,2.19-2.28,3.68-1.92,1.15.28.9,1.88,1.2,2.91a20.65,20.65,0,0,0,31,11.49c7.32-4.79,7.85-13.74,1.18-19.31a49.71,49.71,0,0,0-12.51-7.17,79.51,79.51,0,0,1-14.69-7.73c-6.62-4.64-10.09-10.77-8.9-19s6.59-13.19,14.09-15.55c9-2.82,18-2.4,26.27,2.72,5.23,3.23,7.44,9,5.82,14.35a7,7,0,0,1-4.83,5c-1.59.49-2.42.39-2.39-1.6a23,23,0,0,0-1-6.42,13.74,13.74,0,0,0-3-5.74c-4.33-4.68-9.9-5.16-15.6-3.91s-9.77,4.59-11,10.53c-1,4.9,1,8.78,4.62,11.95s8.15,5.12,12.52,7.16c5.24,2.44,10.61,4.66,15.3,8.13,11.86,8.76,11,24.05-1.77,31.44a28.85,28.85,0,0,1-9.74,3.36A41,41,0,0,1,331.62,282.59Z"/><path class="cls-1" d="M503.32,254.11a34.61,34.61,0,0,1-4.17,16.64c-5,8.83-13.22,11.87-22.7,12-8.93.14-16.82-2.65-22.36-10.15-8.44-11.45-7.26-30.92,2.37-40.4a20.74,20.74,0,0,1,8.35-5.12,35.38,35.38,0,0,1,20.18-.7c10.12,2.67,15.18,9.89,17.35,19.6A34.57,34.57,0,0,1,503.32,254.11Zm-8,0a32.24,32.24,0,0,0-1.13-9.53c-1.84-6.66-5.59-11.68-12.65-13.15-7.46-1.55-14.52-.67-19.78,5.64-6.88,8.26-7.07,24.67-.73,33.34,6.89,9.42,25.09,9.72,31.18-2.11A29.15,29.15,0,0,0,495.3,254.07Z"/><path class="cls-1" d="M604.88,255.24c.31,6-.35,11.6.42,17.21.47,3.43,1.83,4.8,5.27,5.19,1.23.15,2,.31,1.77,1.84s-.93,1.39-2,1.32c-1.91-.13-3.82.11-5.76-.12-4.57-.54-7.15-3.14-7.23-7.75-.07-5.15-.09-10.3,0-15.44,0-2.12-.47-3-2.82-3-5.71.13-11.45-.05-17,1.47-6.14,1.67-9.47,6.1-8.8,11.51.95,7.65,9.15,11.65,16.3,7.95a13.6,13.6,0,0,0,3.87-2.86c.81-.89,1.44-.7,2.2.08a3.87,3.87,0,0,1-.08,5.62,9.61,9.61,0,0,1-6.2,2.91c-5.76.73-11.38.63-16.67-2.27s-7.53-7.37-7.43-13.09c.1-5.88,2.82-10.32,8.24-12.85,5.58-2.61,11.56-3.29,17.63-3.38,2.9,0,5.8,0,8.7,0,1.06,0,2.06-.15,2-1.47-.15-3.68.3-7.4-1-11a9,9,0,0,0-6.12-6,17,17,0,0,0-12.24.51,11.31,11.31,0,0,0-6.89,9.21c-.35,2.26-.94,2.56-3,1.56-2.64-1.29-3.64-4.47-2.55-8,1-3.26,3.46-5.18,6.37-6.53a30.61,30.61,0,0,1,22.83-1.23c6.88,2.19,9.68,7.68,10.12,14.42C605.14,245.91,604.88,250.76,604.88,255.24Z"/><path class="cls-1" d="M514.64,227.94c3.06,0,6.12,0,9.18,0,1.13,0,2.13,0,2.13,1.53,0,1.39-.64,1.7-2,1.75-3.45.13-4.83,1.73-3.83,5,1.69,5.52,3.73,10.93,5.7,16.36s4,10.7,6,16c.19.51.3,1.2.9,1.32s.75-.52.95-.93c5.09-10.38,10.42-20.69,12.9-32.11.65-3,.93-6.09-1.11-8.8-.66-.88-.19-1.29.54-1.66a6.71,6.71,0,0,1,6.27-.34c2,1,2.4,2.83,2.42,4.89.07,4.81-1.81,9.13-3.61,13.4-4.82,11.4-10.43,22.43-15.86,33.55-1.38,2.82-3.16,5.34-6.9,5.05-3.07-.24-3.78-1.49-2.2-4,1.14-1.84.89-3.65.21-5.54-3.83-10.66-7.72-21.29-12.22-31.69-1-2.21-1.9-4.43-3-6.58a6.36,6.36,0,0,0-5.88-3.95c-1.24,0-1.92-.33-1.92-1.78,0-1.71,1.1-1.45,2.13-1.46h9.18Z"/><path class="cls-1" d="M291.9,254c0,5.62,0,11.25,0,16.87,0,4.68,2,6.76,6.75,6.83,1.24,0,2,.16,2,1.63s-.88,1.64-2,1.64c-7.08,0-14.16,0-21.24.1-1.4,0-1.79-.53-1.85-1.81-.06-1.43.77-1.49,1.84-1.55,5.26-.25,6.94-2,6.94-7.31q0-16.28,0-32.55c0-4.93-1.45-6.45-6.4-6.6-1.2,0-2.1-.2-2.11-1.62s.93-1.67,2.11-1.64a55.59,55.59,0,0,1,7.95.32c3.8.65,5.52,2.41,5.88,6.17.07.72.18,1.44.19,2.16C291.91,242.45,291.9,248.24,291.9,254Z"/><path class="cls-1" d="M432.72,301.2a3.17,3.17,0,0,0,.19-.89c-.05-1.09.52-1.36,1.5-1.34s1.15.64,1.15,1.44c0,5.06.08,10.12-.05,15.18-.08,3-2.12,5.26-5.22,6.16-3.58,1.05-7.94.09-9.63-2.1-.51-.65-.72-1.21,0-1.89s1.26-.31,1.8.24a6.54,6.54,0,0,0,5.54,1.78c3.45-.29,5.07-2.65,4.26-6.17-5.29,2.66-8.52,2.33-11.08-1.12a9.22,9.22,0,0,1,.54-11.36C424.51,298.08,428,298.08,432.72,301.2Zm0,6.15c0-3.5-2.09-6-5.12-6-2.86,0-5.07,2.49-5.09,5.84s2.2,5.77,5.13,5.82S432.72,310.79,432.72,307.35Z"/><path class="cls-1" d="M546.25,315.41a13.32,13.32,0,0,1-7.39-2.06c-1-.59-1.31-1.14-.61-2.28s1.2-.72,2-.2c2.67,1.66,5.53,2.56,8.71,1.64,1.34-.39,2.31-1.07,2.39-2.63a2.8,2.8,0,0,0-1.95-3c-1.89-.67-3.83-1.19-5.75-1.74-3.83-1.11-5.53-3-5.32-5.83.26-3.36,2.64-5.67,6.38-6.11a11.55,11.55,0,0,1,7.65,1.57c.83.51,1.36,1,.67,2.08s-1.13,1-2,.31c-2-1.47-4.38-1.45-6.72-1.13a3,3,0,0,0-2.76,2.63,2.71,2.71,0,0,0,1.94,3.2,44.06,44.06,0,0,0,5.08,1.46c4.69,1.23,6.5,3.33,6,7-.43,3.12-3.19,5-7.42,5.08Z"/><path class="cls-1" d="M614.12,301.25c0-2.46,0-4.75,0-7,0-1.09.28-1.58,1.49-1.59s1.39.66,1.39,1.66q0,7.73,0,15.44c0,1-.28,2.06.45,3,.6.8.92,1.93-.11,2.47a1.8,1.8,0,0,1-2.57-1.08c-.13-.29-.23-.6-.4-1.06-2,1.59-4,2.92-6.65,2.46a7.78,7.78,0,0,1-4.77-2.59,9.54,9.54,0,0,1,.13-11.82C605.65,298.16,609.18,298.14,614.12,301.25Zm0,6.13c0-3.59-2-6-5-6-2.85,0-5.12,2.52-5.16,5.83a5.54,5.54,0,0,0,5.44,5.83C612.41,313,614.12,310.92,614.12,307.38Z"/><path class="cls-1" d="M391,315.4a13.09,13.09,0,0,1-7.36-1.95c-1.15-.65-1.4-1.34-.69-2.52.82-1.37,1.44-.31,2.09.06,2.67,1.54,5.44,2.35,8.54,1.53a2.88,2.88,0,0,0,2.49-2.57,2.77,2.77,0,0,0-1.9-3c-2.19-.79-4.45-1.35-6.66-2.09-4.52-1.5-5.91-5.45-3.21-9,2.47-3.26,10.47-3.64,13.28-.69.85.89.12,1.46-.21,2.12-.47.94-1,.35-1.53,0a9.13,9.13,0,0,0-6-1.34c-2,.11-3.48,1-3.72,3.06s1.28,2.8,2.89,3.29,3.28.8,4.9,1.27c3.88,1.13,5.7,3.32,5.36,6.37-.37,3.29-2.87,5.31-6.83,5.49C392,315.42,391.47,315.4,391,315.4Z"/><path class="cls-1" d="M503.26,308.11c-1.61,0-3.22.06-4.82,0s-1.59.66-1.21,1.79a5.25,5.25,0,0,0,7.94,2.5,8.12,8.12,0,0,0,1.05-1,1.55,1.55,0,0,1,2.35,0c.68.69-.13,1.31-.58,1.82-2.15,2.36-6.47,3-9.6,1.55a8.6,8.6,0,0,1-4.57-8.81,8.11,8.11,0,0,1,6.87-7.07c4.92-.6,9,2.46,9.46,7.06.15,1.43,0,2.31-1.83,2.16S505,308.11,503.26,308.11Zm-1.37-2c1.29,0,2.58,0,3.87,0,1.6.07,1.79-.64,1.19-1.92a5.24,5.24,0,0,0-9.35-.65c-.45.67-1,1.49-.6,2.22s1.31.28,2,.33C500,306.15,500.93,306.1,501.89,306.1Z"/><path class="cls-1" d="M410.87,308.11c-1.7,0-3.39.07-5.08,0-1.51-.08-1.54.52-1.11,1.7a5.19,5.19,0,0,0,8.27,2.38c.44-.34.77-.88,1.26-1.09a1.62,1.62,0,0,1,2,.4c.47.59-.17,1-.5,1.43-2.1,2.6-6.46,3.47-9.72,2s-5.14-5.13-4.59-9.25a8.06,8.06,0,0,1,6.68-6.7c4.95-.62,8.58,2,9.55,6.73.33,1.63.16,2.66-1.91,2.48C414.1,308,412.48,308.11,410.87,308.11Zm-1.27-2c1.36,0,2.73,0,4.09,0,1,0,1.29-.33,1-1.31a5.8,5.8,0,0,0-4.79-3.86,5.49,5.49,0,0,0-5.28,3.43c-.47,1.21-.36,1.82,1.12,1.74C407,306.05,408.31,306.1,409.6,306.1Z"/><path class="cls-1" d="M484,307.17a8.2,8.2,0,1,1-16.39.08,8.2,8.2,0,1,1,16.39-.08Zm-2.92.06c0-3.3-2.41-5.93-5.37-5.88-2.8,0-5.23,2.75-5.23,5.82a5.32,5.32,0,1,0,10.6.06Z"/><path class="cls-1" d="M567.8,313.22c-2.24,2-4.8,3-7.75,2.06a4.63,4.63,0,0,1-3.58-4.59c-.07-2.34,1.15-3.73,3.2-4.57a10.37,10.37,0,0,1,6.62-.31c1.44.37,1.43-.34,1.35-1.31a4,4,0,0,0-5-3.49,19.11,19.11,0,0,0-3.35,1.32c-.56.24-1,.46-1.37-.29s-.42-1.17.32-1.61a9.57,9.57,0,0,1,9-.93c2.75,1.14,3.32,3.62,3.41,6.36.09,2.59-.67,5.27.81,7.74a1.18,1.18,0,0,1-.26,1.54,2.52,2.52,0,0,1-2.31-.11C568.06,314.7,568.35,313.77,567.8,313.22Zm-3.87-6c-2.76,0-4.82,1.37-4.84,3.05s1.71,3.12,3.67,3.14c2.66,0,5-1.78,4.88-3.95C567.56,306.58,565,307.87,563.93,307.21Z"/><path class="cls-1" d="M368.43,312.87a10.68,10.68,0,0,1-5.14,2.65c-3.06.45-5.29-.77-6-3.77-.89-3.87-.26-7.83-.39-11.75,0-1.09.79-1,1.52-1,1.07-.08,1.4.42,1.38,1.43,0,2.57,0,5.14,0,7.71,0,3.29,1.11,4.83,3.36,4.88a5.2,5.2,0,0,0,5.23-4.93c.1-2.48.05-5,0-7.47,0-1,.2-1.65,1.44-1.64s1.51.51,1.5,1.6q-.06,4.69,0,9.39c0,.94-.23,1.91.42,2.8s.93,2-.15,2.45a1.81,1.81,0,0,1-2.75-1.39A5.47,5.47,0,0,0,368.43,312.87Z"/><path class="cls-1" d="M595,312.41c-2.29,2.39-4.62,3.54-7.46,3.11s-4.18-2.23-4.33-5.55c-.13-3.13,0-6.28-.05-9.41,0-1.1.31-1.6,1.5-1.6s1.38.72,1.38,1.7c0,2.65-.09,5.31.05,8,.15,3.08,1.24,4.36,3.38,4.39a5.25,5.25,0,0,0,5.22-4.71c.11-2.57.06-5.15,0-7.72,0-1.06.22-1.63,1.46-1.62s1.43.65,1.42,1.67c0,3.14,0,6.28,0,9.42a4.48,4.48,0,0,0,.48,2.78c.54.79.91,2-.29,2.41s-2.45.1-2.61-1.58C595.14,313.37,595.1,313.08,595,312.41Z"/><path class="cls-1" d="M451,312.6c-2,2.17-4.31,3.27-7,3a4.58,4.58,0,0,1-4.32-4.44c-.21-3.61-.1-7.23-.17-10.85,0-1.1.54-1.33,1.5-1.34s1.45.36,1.44,1.41q-.06,4.1,0,8.19c0,3.06,1,4.38,3.24,4.44a5.08,5.08,0,0,0,5.13-4.46c.11-2.57,0-5.15,0-7.72,0-1,0-1.89,1.47-1.88s1.37,1,1.37,2c0,3,0,5.95,0,8.92a4.89,4.89,0,0,0,.49,2.79c.54.85,1.05,2.12-.25,2.62s-2.35-.17-2.62-1.68C451.22,313.33,451.15,313.1,451,312.6Z"/><path class="cls-1" d="M515.81,301.66c1.75-1.46,3.44-2.77,5.78-2.81,3.31-.07,5.22,1.4,5.4,4.73s0,6.91.08,10.36c0,1.07-.45,1.37-1.45,1.37s-1.44-.38-1.42-1.42c0-2.57,0-5.14,0-7.71,0-3.12-1-4.68-2.88-4.81a5.67,5.67,0,0,0-5.4,4.89c-.12,2.24,0,4.49,0,6.74,0,1,.45,2.35-1.47,2.31s-1.33-1.46-1.34-2.41c-.07-3.77-.09-7.55,0-11.32,0-.91-.85-2.45,1.12-2.59S515.19,300.56,515.81,301.66Z"/><path class="cls-1" d="M349.65,305.45c0,2.57,0,5.14,0,7.71,0,1,.39,2.13-1.38,2.17s-1.51-1.22-1.52-2.27c0-5-.07-10,0-14.94,0-1.68-.42-2.34-2.14-2.16-1.28.13-2.58,0-3.86,0-1.06.05-1.67-.22-1.64-1.45,0-1.07.5-1.37,1.49-1.36q7.59,0,15.2,0c.93,0,1.5.19,1.53,1.31s-.5,1.6-1.6,1.49h-.24c-1.88.2-4.35-.88-5.52.48s-.25,3.7-.33,5.62C349.61,303.2,349.65,304.33,349.65,305.45Z"/><path class="cls-1" d="M574.84,303.19c0-2.73,0-5.46,0-8.19,0-1-.58-2.35,1.39-2.38s1.5,1.25,1.5,2.29c0,5.06,0,10.12,0,15.19,0,1.78.32,3.13,2.57,2.62,1-.24.94.61,1.15,1.13s-.09,1-.69,1.31c-3,1.44-5.88-.23-5.93-3.52C574.81,308.82,574.85,306,574.84,303.19Z"/><path class="cls-1" d="M461.05,301.82c1.41-1.32,2.44-2.64,4.17-2.84.68-.07,1.56-.31,1.61.83,0,.79.13,1.52-.92,1.95-4.75,1.91-4.73,1.95-4.73,6.92,0,1.53,0,3.05,0,4.58,0,1.05.16,2.05-1.51,2.08s-1.61-1.08-1.61-2.22c0-4,0-8,0-12,0-1-.31-2.14,1.42-2.14,1.58,0,1.32,1,1.36,1.94A4.89,4.89,0,0,0,461.05,301.82Z"/><path class="cls-1" d="M309.16,187.12c-8.69,4.85-15.72,11.63-22.1,19.16-1,1.13-1.49,1.39-2.75.25a24.32,24.32,0,0,0-12.54-6.26c-.27,0-.95-.73-.81.31,0,.14,2.13,1.55,2.12,1.56h0s10.42,12.33,13.16,19.61c.08.21-.12,1,.58.48a5.31,5.31,0,0,0,.51-.76c5.89-12.73,13.51-24.2,24.43-33.24.22-.18.66-.58.66-.58l1.24-1,.93-.68,2.57-1.62A18.61,18.61,0,0,0,309.16,187.12Zm3.78-.61h0Zm.25,0a1,1,0,0,1,.24,0h0A1,1,0,0,0,313.19,186.49Z"/><path class="cls-1" d="M195.29,226.37a7.51,7.51,0,0,0-7.87-7.41c-3.45.09-6.9.25-10.36.38a4.51,4.51,0,0,1-2.06.42A67.48,67.48,0,0,0,158.16,222c-4.28.77-12.51,3.46-12.51,3.46h0a35.16,35.16,0,0,0-7.74,3c-.75,0-1.25.55-1.84.89-.14-.79.37-1.36.66-2a105.15,105.15,0,0,0,9.23-46.7c0-1.12,0-2.24,0-3.35-.23-4.5-3.23-7.53-7.74-7.54q-20.64-.09-41.28,0c-4.46,0-7.36,3.1-7.4,7.5,0,1.28.06,2.57.09,3.85v12.55L89.5,205.9c0,3,.24,6.09-.81,9a11.94,11.94,0,0,1-4.14,3.76L67.83,219h-16c-1.36,0-2.72-.12-4.08-.08-4.53.12-7.84,3.17-7.87,7.71q-.15,20.58,0,41.17a7.65,7.65,0,0,0,8.1,7.74c1.28,0,2.56-.19,3.83-.29a88.31,88.31,0,0,0,16-1.14,86.71,86.71,0,0,0,19.94-4.53,9.16,9.16,0,0,0,1.4-.3c3.37-1.21,6.72-2.45,10.07-3.68-7.46,15.41-10.38,31.75-10,48.77.05.63.13,1.26.16,1.89.24,5.87,2.84,8.52,8.62,8.54,13,0,26,0,39,0a15.4,15.4,0,0,0,2.63-.24,7.06,7.06,0,0,0,6-6.1,16.58,16.58,0,0,0,0-5.49h0a50.18,50.18,0,0,0,0-9.66c.47-6.15.08-12.32.2-18.48a16.07,16.07,0,0,1,.6-5.21,11.52,11.52,0,0,1,4-3.77l.93-.18.49,0,6.28-.07h18.84c3.94.13,7.88.41,11.79-.2a7.22,7.22,0,0,0,6.46-7.25Q195.42,247.24,195.29,226.37Z"/></svg>