<svg id="Layer_1" data-name="Layer 1" xmlns="http://www.w3.org/2000/svg" viewBox="0 0 640 480"><defs><style>.cls-1,.cls-2{fill:#fff;}.cls-2{fill-rule:evenodd;}</style></defs><path class="cls-1" d="M555.3,159.58c43.84,0,79.26,36.1,79.26,80.42s-35.42,80.42-79.26,80.42S476,284.32,476,240,511.34,159.58,555.3,159.58Zm0,12.94c-36.61,0-66.42,30.12-66.42,67.48s29.81,67.42,66.42,67.42,66.33-30.05,66.33-67.42S591.8,172.52,555.3,172.52Z"/><path class="cls-2" d="M511.56,214.55a7.74,7.74,0,0,1,7.73-7.77H534v78.38H511.56Z"/><path class="cls-2" d="M599,214.55a7.75,7.75,0,0,0-7.78-7.77H576.6v78.38H599Z"/><path class="cls-2" d="M537.24,197.25c5.14,0,6.91,1.79,6.91,6.41v81.5h22.3v-89.9a7.75,7.75,0,0,0-7.77-7.78H537.24Z"/><path class="cls-2" d="M98.66,192.64c5.14,0,6.85,1.76,6.85,6.4v87.88H129.8V191.17a7.79,7.79,0,0,0-7.8-7.78H98.66Z"/><path class="cls-2" d="M139.41,192.64c5.14,0,6.86,1.76,6.86,6.4v87.88h24.2V191.17a7.75,7.75,0,0,0-7.75-7.78H139.41Z"/><path class="cls-2" d="M180.4,218.93c5.14,0,6.84,1.77,6.84,6.41v61.58h24.24V217.45a7.79,7.79,0,0,0-7.75-7.78H180.4Z"/><path class="cls-2" d="M184.07,193.06c0-6.47,6.31-11.73,14.13-11.73s14.13,5.26,14.13,11.73S206,204.81,198.2,204.81,184.07,199.55,184.07,193.06Z"/><path class="cls-2" d="M328.07,218.14v-.69a7.76,7.76,0,0,0-7.72-7.78H297v9.26c5.17,0,6.84,1.77,6.84,6.41v61.58h24.24V235.07c10-12.07,18.91-7.94,18.91,0v51.83h24.21V229.08c0-20.71-15.43-21.29-19.69-21.29C342.4,207.79,333.24,214,328.07,218.14Z"/><path class="cls-2" d="M414,225,381.52,270.8v16.12h60V270.8H408.18l32-45.83v-15.3H389.8a7.8,7.8,0,0,0-7.8,7.78v14.36h9.23c0-5.15,1.79-6.84,6.41-6.84Z"/><path class="cls-2" d="M52.07,206.78c2.26,9.22,5.93,24.15,9.68,38.79H41.36Zm14,55.76,6.21,24.38H98.83L73,191.17a10.85,10.85,0,0,0-9.87-7.78H24.65V193s11.44-1.73,8.35,7.92c-26.37,82.65-27.56,86-27.56,86H30.16l6.6-24.38Z"/><path class="cls-2" d="M245,264.1v-1.92c0-8.45,11.54-12.23,18.65-12.23V265s-5.67,6.69-12.22,6.69C246.85,271.71,245,269,245,264.1Zm-13.32-32.39-5.66-15a77,77,0,0,1,36.25-8.92c21.36,0,24.62,13.95,24.62,26.43v38.1c0,7.37,6.24,6.71,6.24,6.71v7.88H270.8c-4.52,0-7.18-2.55-7.18-7.72,0,0-7.4,9-22.12,9s-19.14-9.15-19.14-21.42c0-15.73,7-20.57,13.58-23.87s27.68-6.58,27.68-6.58v-1.24c0-.69,0-10.16-8.62-10.16C243.49,225,231.65,231.71,231.65,231.71Z"/></svg>