<svg id="Layer_1" data-name="Layer 1" xmlns="http://www.w3.org/2000/svg" viewBox="0 0 640 480"><defs><style>.cls-1,.cls-2{fill:#fff;}.cls-1{fill-rule:evenodd;}.cls-3{fill:#e6e6e6;}</style></defs><path class="cls-1" d="M267.63,246.17l.5,0c.05.77.14,1.52.16,2.27q1.18,25.56,2.22,51.13c.05,1.77.36,2.54,2.4,2.48,5.14-.17,10.26-.14,15.39,0,2,0,2.33-.65,2.19-2.53-.42-5.11-.56-10.21-.79-15.35q-1.63-34-3.14-68c-.07-1.4-.49-1.69-1.72-1.66-5.14,0-10.31.07-15.42,0a2.83,2.83,0,0,0-2.9,1.81c-3.9,7.31-7.86,14.55-11.79,21.85-3.11,5.65-6.2,11.32-9.41,17.17-.68-1.18-1.28-2.12-1.75-3.09-6.66-11.92-13.32-23.82-19.88-35.78a3.15,3.15,0,0,0-3.33-2c-4.79.12-9.59.1-14.36,0-1.73,0-2.31.39-2.38,2.22-.59,14.78-1.34,29.52-2,44.25-.64,13-1.17,25.94-1.84,38.91-.07,1.61.17,2.24,2,2.21,5-.13,10-.13,14.86,0,1.75,0,2.15-.6,2.22-2.2.38-11.25.82-22.51,1.23-33.77.29-6.6.57-13.19.85-20.52,5.2,9.23,10.51,17.6,14.83,26.45,2.71,5.48,6,8,12.13,7,1.66-.3,2.72-.63,3.5-2.21C256.75,266.59,262.21,256.39,267.63,246.17Z"/><path class="cls-1" d="M424.44,258.06c0,13.92,0,27.87,0,41.79,0,1.27-.1,2.23,1.79,2.23,18-.09,36-.07,54,0,1.33,0,1.78-.38,1.74-1.73,0-3.84-.17-7.67,0-11.52.14-2.39-.4-3.14-2.95-3.11-10.54.18-21,.09-31.54.09-3.68,0-3.28.52-3.31-3.26q0-32.83.08-65.64c0-1.91-.46-2.45-2.39-2.38-5,.16-10.09.17-15.12,0-2.16-.09-2.44.72-2.44,2.58C424.47,230.72,424.44,244.41,424.44,258.06Z"/><path class="cls-1" d="M547.2,279c0-6.83.11-13.66,0-20.52,0-2.23.4-3.17,2.87-3,3.32.25,6.66,0,10,.09,1.36,0,1.79-.4,1.77-1.74-.09-3.85-.09-7.71,0-11.56,0-1.51-.54-1.87-2-1.83-3,.09-6,.07-9,0-4.07-.08-3.71.92-3.62-3.9.13-5.48,3.39-8.88,8.5-8.88a13.49,13.49,0,0,1,7.8,2.2c1.12.77,1.7.58,2.42-.51,1.92-3,3.84-6.06,6-8.93,1.16-1.55.68-2.22-.68-3.15a28.77,28.77,0,0,0-15.84-5c-8.56-.37-16.1,1.91-21.74,8.72-4.08,4.91-5.5,10.71-5.24,17,.08,2.08-.58,2.68-2.59,2.52s-3.9,0-5.86-.07c-1.26,0-1.63.35-1.63,1.6.07,4,.06,8,0,12,0,1.11.35,1.52,1.46,1.49,2-.09,4,.1,5.89-.07,2.08-.19,2.79.39,2.71,2.59-.1,13.85,0,27.71-.09,41.53,0,1.84.32,2.55,2.36,2.49,4.7-.17,9.41-.14,14.13,0,1.79,0,2.47-.36,2.45-2.37C547.14,292.8,547.2,285.86,547.2,279Z"/><path class="cls-1" d="M374.69,271c.13,4.6-.36,10,.59,15.33,1.13,6.64,4,12.11,10.23,15.3,9,4.62,23.24,2.88,30.94-3.69.91-.76.82-1.24.28-2.06-1.43-2-2.72-4.12-4.09-6.19-.9-1.26-1.45-3.06-2.67-3.68s-2.65,1.09-4,1.7c-7,3.21-12.19,0-12.29-7.7-.13-7.51,0-15-.11-22.55,0-1.51.38-2,2-2,4,.11,8,0,12,.07,1.4,0,2-.24,2-1.81q-.14-5.78,0-11.53c0-1.61-.67-1.79-2-1.79-3.75.07-7.53-.09-11.29.07-2,.1-2.84-.28-2.74-2.58.23-3.91,0-7.86.14-11.77,0-1.79-.54-2.16-2.21-2.15-4.95.1-9.85.12-14.84,0-1.6,0-2.09.37-2,2,.11,4.17,0,8.37.05,12.55,0,1.44-.36,2-1.85,1.9-2-.09-3.93.1-5.87,0-1.52-.1-2.18.32-2.08,2,.15,1.87-.05,3.75.05,5.63.16,2.44-1.1,5.68.53,7.09,1.4,1.19,4.55.51,6.94.35,2-.15,2.38.66,2.32,2.5C374.59,262,374.69,266.13,374.69,271Z"/><path class="cls-1" d="M490.11,271.12c0,9.54.06,19.13,0,28.71,0,1.8.52,2.27,2.24,2.25,5-.13,9.94-.1,14.91,0,1.42,0,1.88-.35,1.88-1.84q0-29,0-58c0-1.48-.5-1.85-1.88-1.83-5,.07-9.93.11-14.91,0-1.73,0-2.28.44-2.24,2.26C490.17,252.13,490.11,261.6,490.11,271.12Z"/><path class="cls-1" d="M510.22,223a10.4,10.4,0,0,0-10.6-10.76A10.68,10.68,0,1,0,510.22,223Z"/><path class="cls-2" d="M319.3,276.84c6.42.16,12.85,0,19.25,0,6.58,0,13.15-.05,19.73.07,1.88,0,2.33-.59,2.25-2.32a92.91,92.91,0,0,0-.62-9.72c-3.39-23.71-28.91-34.79-48.42-20.77C301,251.68,297.63,262.53,298.58,275c.65,8.1,3.6,15.2,9.68,20.85,12.92,11.9,37.18,10.15,49.86.3,1-.79.91-1.33.32-2.26-2-3-4-6-5.84-9-.82-1.32-1.33-1.48-2.69-.6a29.47,29.47,0,0,1-20.51,4.72c-5.63-.66-10.62-4.51-12.13-9.32C316.67,277.65,316.82,276.76,319.3,276.84Zm10.82-22.27a12.56,12.56,0,0,1,12.45,8.79c.59,1.88.61,3-2,2.89-3.56-.21-7.16,0-10.75,0s-7.35-.08-11,0c-1.51,0-1.67-.45-1.38-1.8C318.58,258.86,323.77,254.77,330.12,254.57Z"/><path class="cls-2" d="M586,276.84c6.51.13,13,0,19.49,0s13.18-.05,19.75,0c1.84.05,2.38-.5,2.28-2.29-.21-2.38-.08-4.8-.35-7.16-2.51-23.39-20-32.88-39.55-27.78-12.32,3.23-21,14.33-22,27.61-1,12.89,2.25,24.11,13.78,31.56,12.43,8,34.18,6.63,45.92-2.84,1-.82.61-1.33.14-2-2-3-4-6-5.83-9.06-.87-1.52-1.57-1.45-2.87-.57A29.32,29.32,0,0,1,596.44,289c-5.92-.67-11.2-4.83-12.33-9.71C583.73,277.56,584,276.81,586,276.84Zm-2.24-13c1.18-5.59,6.41-9.69,12.78-9.86A12.56,12.56,0,0,1,609,262.79c.58,1.86.58,3-2,2.87-3.58-.22-7.2,0-10.77,0s-7.35-.07-11,0C583.68,265.69,583.46,265.18,583.73,263.86Z"/><path class="cls-2" d="M156.39,182.83a16.51,16.51,0,0,0-.23-3.29c-.72-4.08-4.32-6.59-8.29-5.5Q109,184.5,84.63,216.49c4.55,6.68,9,13.43,12.36,20.83a117.93,117.93,0,0,1,11,43.29,132.45,132.45,0,0,1-1.24,25.49c13.57,0,27.19-.16,40.78.14,6.71.16,9-3.76,9-9C156.34,259.09,156.4,221,156.39,182.83Z"/><path class="cls-2" d="M71.91,237.24a118.23,118.23,0,0,1,12-19.84c.21-.25.21-.65.35-1a.91.91,0,0,1-.07-.25A116.13,116.13,0,0,0,21,174a6.6,6.6,0,0,0-8.22,5,13,13,0,0,0-.32,3.06V298a12.89,12.89,0,0,0,.28,2.79,6.47,6.47,0,0,0,6.33,5.38q21.53,0,43-.08c-.82-7-1.73-14-1.48-21.07C61.33,268.38,64.65,252.37,71.91,237.24Z"/><path class="cls-3" d="M97,237.32c-3.37-7.4-7.81-14.15-12.36-20.83-.16,0-.29,0-.42,0-.14.3-.14.7-.35,1a118.23,118.23,0,0,0-12,19.84C64.65,252.37,61.33,268.38,60.67,285c-.25,7.05.66,14.09,1.48,21.07l44.55,0a132.45,132.45,0,0,0,1.24-25.49A117.93,117.93,0,0,0,97,237.32Z"/></svg>