<svg id="Layer_1" data-name="Layer 1" xmlns="http://www.w3.org/2000/svg" viewBox="0 0 640 480"><defs><style>.cls-1{fill:none;}.cls-2{fill:#fff;}</style></defs><path class="cls-1" d="M603.72,164.72l13-13.69,5.48-4.79h-7.53l-3.42,2-15.74,17.8,15.74,24.64c1.37.68,2.74,2.05,3.42,1.36h9.58l-4.1-4.1Z"/><path class="cls-1" d="M597.56,232.47h-8.89c-2.06,0-3.43-.68-3.43-2.05V216.73H600.3l.68-5.47H585.24v-13l1.37-1.37.68-.69,11.64.69,3.42.68,1.37-4.79-1.37-.69h-4.79c-2,.69-3.42-.68-2.74-2.74V149.67c0-2,.69-3.43,2.06-3.43h-4.11q14.37-44.13,16.42-45.16H598.93l2.05,3.43-9.58,28-7.53-17.78c-3.42-8.21-4.78-13-4.1-13.69h-9.58l.68,2.73-.68,1.37-7.53,25.32c-6.16-11.63-10.26-19.84-11.63-26l-3.42-3.43H515.44l2,4.1.69,3.43v30.11l-17.79-28.06c-2.74-4.79-4.11-7.53-4.11-9.58H482.59l2.06,4.1.68,2.74-.68,34.9-2.06,3.42-1.37.69h10.27c2.05,0,3.42,1.36,2.74,3.42l-1.37,2.73-8.21,14.38L477.8,157.2c-4.1-7.53-8.21-11-10.26-11h-11c2.05.69,5.47,2.74,8.9,7.53l12.31,15.06v.68l2.74,5.48V187.3a9.18,9.18,0,0,1-4.79,5.48l6.84-.69c1.37,0,2.74.69,3.42,3.43l1.37,3.42v31.48c0,4.11-1.37,6.84-3.42,6.84l24.64.69,1.37-.69.68-1.36,1.37-5.48-4.79,3.42h-9.58c-2.74,0-3.42-1.37-3.42-2.73V194.84c0-2.06,1.37-3.43,4.11-3.43h-7.53c-2.74-.68-3.43-2.06-3.43-3.42V177c-.68-1.37.69-4.1,2.06-7.53l1.37-2L501.76,149l2.74-2.74h-9.59c-2.05,0-3.42-.68-3.42-3.42V111.35l23.27,36.27c-6.16,1.36-9.58,4.1-11.64,8.2a41.44,41.44,0,0,0-2.05,13.69v2.06c0,8.21,1.37,13.68,4.11,15.73l6.16,3.43,3.42.68a10.53,10.53,0,0,1,2.73,4.11l.69,2.74v16.42c0,10.95-.69,17.79-1.37,19.85l-2.74,2.73h10.27l4.11.69a3.49,3.49,0,0,1-2.74-3.42V198.26c0-3.42.68-5.48,2.74-6.85l7.53-2.06,1.36-2c3.42-3.42,4.79-9.57,4.79-17.79v-1.36c0-6.17-1.37-11.64-4.79-15.07l-10.26-6.15h17.1c2.06.69,3.43,2,4.11,4.79l.68,3.42v29.43c0,4.78-1.36,6.84-4.1,6.84h-4.11q2.06,0,2.06,4.11v37.64c-.69,2.05-2.06,4.1-3.42,4.79h13.68c-2.05-.69-3.42-2.74-2.74-6.16l-.68-14.37h13.69l2.73.68,1.37-6.84-17.79.68V198.26l1.37-1.37h13.68l2.74.68.69-4.1v-1.38h-7.53c-2.74.69-4.11-1.36-4.11-3.42V153.08c0-1.36,1.37-2.05,2.74-2.73h8.21l3.42,3.42.69,2-.69,5.48-1.36,2a8.82,8.82,0,0,1-6.85,2.74c-1.37-.69-1.37,0-1.37,0l11.64,24.64c.68.68,1.36,2.05,2.73,1.36l1.37,2.06v37c0,4.1-.68,6.15-2.74,6.84h27.38l1.37-1.37,1.36-7.53C603.72,231.79,601,233.16,597.56,232.47ZM530.5,155.14c2,2.74,3.42,6.84,3.42,12.32v6.16l-2,10.26-2.74,3.42a10.12,10.12,0,0,1-8.9,2.74c-3.42,0-6.84-2-8.89-6.16-2.06-3.42-2.74-8.21-2.74-16.42,0-5.48,1.37-10.26,2.74-12.32,2.05-3.42,5.47-5.47,10.95-5.47A8.89,8.89,0,0,1,530.5,155.14Zm27.37-8.9H547.61l.68-8.89-2.74,3.42-15.74,1.37c-2.73,0-4.1-1.37-4.1-3.42v-13l.68-.68h12.32l2,.68.69-6.84-2.74.69h-13V110c0-2.74,1.37-4.11,2.74-4.11H539.4a3.79,3.79,0,0,1,3.42,2l1.36,1.38,9.58,20.53,5.48,15.73Zm22.58,41.06c-3.42-4.79-6.84-11.63-10.94-20.53,2.73-.68,5.47-.68,6.84-2.73l2-2.06,1.37-6.16-1.37-3.41-4.11-4.79-1.36-.69-8.22-.69v-3.42C567.45,133.93,570.87,123,575,112l12.31,30.79v3.42h-3.42c1.37,0,2.74,2.74,3.42,6.84v37.65l-1.36,1.36-1.37-.68Z"/><path class="cls-2" d="M632.46,87.39c0-2.74-.68-5.47-2.74-6.84-1.36-2-3.42-2.74-6.15-2.74h-167c-2.74,0-4.79.69-6.16,2.74A8.42,8.42,0,0,0,447,87.39v167a8.17,8.17,0,0,0,3.42,6.16c1.37,2.05,3.42,2.74,6.16,2.74h167c2.73,0,4.79-.69,6.15-2.74a8.15,8.15,0,0,0,3.43-6.16ZM603,236.58,601.67,238H574.29c2.06-.69,2.74-2.74,2.74-6.84v-37l-1.37-2.06c-1.37.69-2-.68-2.73-1.36l-11.64-24.64s0-.69,1.37,0a8.82,8.82,0,0,0,6.85-2.74l1.36-2,.69-5.48-.69-2-3.42-3.42h-8.21c-1.37.68-2.74,1.37-2.74,2.73v35.59c0,2.06,1.37,4.11,4.11,3.42h7.53v1.38l-.69,4.1-2.74-.68H551l-1.37,1.37v13.68l17.79-.68-1.37,6.84-2.73-.68H549.66l.68,14.37c-.68,3.42.69,5.47,2.74,6.16H539.4c1.36-.69,2.73-2.74,3.42-4.79V195.52q0-4.11-2.06-4.11h4.11c2.74,0,4.1-2.06,4.1-6.84V155.14l-.68-3.42c-.68-2.74-2-4.1-4.11-4.79h-17.1l10.26,6.15c3.42,3.43,4.79,8.9,4.79,15.07v1.36c0,8.22-1.37,14.37-4.79,17.79l-1.36,2-7.53,2.06c-2.06,1.37-2.74,3.43-2.74,6.85v36.27a3.49,3.49,0,0,0,2.74,3.42l-4.11-.69H514.07l2.74-2.73c.68-2.06,1.37-8.9,1.37-19.85V198.26l-.69-2.74a10.53,10.53,0,0,0-2.73-4.11l-3.42-.68-6.16-3.43c-2.74-2.05-4.11-7.52-4.11-15.73v-2.06a41.44,41.44,0,0,1,2.05-13.69c2.06-4.1,5.48-6.84,11.64-8.2l-23.27-36.27v31.47c0,2.74,1.37,3.42,3.42,3.42h9.59L501.76,149l-10.95,18.48-1.37,2c-1.37,3.43-2.74,6.16-2.06,7.53v11c0,1.36.69,2.74,3.43,3.42h7.53c-2.74,0-4.11,1.37-4.11,3.43v36.27c0,1.36.68,2.73,3.42,2.73h9.58l4.79-3.42-1.37,5.48-.68,1.36-1.37.69L484,237.26c2.05,0,3.42-2.73,3.42-6.84V198.94L486,195.52c-.68-2.74-2.05-3.43-3.42-3.43l-6.84.69a9.18,9.18,0,0,0,4.79-5.48V175l-2.74-5.48v-.68l-12.31-15.06c-3.43-4.79-6.85-6.84-8.9-7.53h11c2,0,6.16,3.43,10.26,11l6.85,10.26,8.21-14.38,1.37-2.73c.68-2.06-.69-3.42-2.74-3.42H481.22l1.37-.69,2.06-3.42.68-34.9-.68-2.74-2.06-4.1h13.69c0,2,1.37,4.79,4.11,9.58l17.79,28.06V108.61l-.69-3.43-2-4.1h32.17l3.42,3.43c1.37,6.15,5.47,14.36,11.63,26l7.53-25.32.68-1.37-.68-2.73h9.58c-.68.68.68,5.48,4.1,13.69l7.53,17.78,9.58-28-2.05-3.43h10.26q-2,1-16.42,45.16h4.11c-1.37,0-2.06,1.38-2.06,3.43v39.68c-.68,2.06.69,3.43,2.74,2.74h4.79l1.37.69-1.37,4.79-3.42-.68-11.64-.69-.68.69-1.37,1.37v13H601l-.68,5.47H585.24v13.69c0,1.37,1.37,2.05,3.43,2.05h8.89c3.42.69,6.16-.68,6.84-3.42Zm11.63-44.49c-.68.69-2-.68-3.42-1.36l-15.74-24.64,15.74-17.8,3.42-2h7.53L616.72,151l-13,13.69L620.15,188l4.1,4.1Z"/><path class="cls-2" d="M544.18,109.3l-1.36-1.38a3.79,3.79,0,0,0-3.42-2H528.45c-1.37,0-2.74,1.37-2.74,4.11v9.58h13l2.74-.69-.69,6.84-2-.68H526.39l-.68.68v13c0,2.05,1.37,3.42,4.1,3.42l15.74-1.37,2.74-3.42-.68,8.89h10.26l1.37-.68-5.48-15.73Z"/><path class="cls-2" d="M511.34,155.14c-1.37,2.06-2.74,6.84-2.74,12.32,0,8.21.68,13,2.74,16.42,2.05,4.11,5.47,6.16,8.89,6.16a10.12,10.12,0,0,0,8.9-2.74l2.74-3.42,2-10.26v-6.16c0-5.48-1.37-9.58-3.42-12.32a8.89,8.89,0,0,0-8.21-5.47C516.81,149.67,513.39,151.72,511.34,155.14Z"/><path class="cls-2" d="M587.29,190.73V153.08c-.68-4.1-2-6.84-3.42-6.84h3.42v-3.42L575,112c-4.11,11-7.53,21.9-10.27,30.79v3.42l8.22.69,1.36.69,4.11,4.79,1.37,3.41L578.4,162l-2,2.06c-1.37,2.05-4.11,2.05-6.84,2.73,4.1,8.9,7.52,15.74,10.94,20.53l4.11,4.11,1.37.68Z"/><path class="cls-2" d="M48,197.57H67.21c2.05-17.79-7.53-27.37-27.38-27.37-21.22,0-32.16,8.89-32.16,26,0,9.58,6.84,18.48,20.53,25.32,13,7.53,19.84,13.69,19.84,17.8,0,6.84-3.42,10.26-9.58,10.26-4.79,0-8.21-1.37-9.58-4.11-1.37-2.05-1.37-6.15-1.37-11.63H7c-1.36,19.85,8.21,29.43,28.75,29.43q14.35,0,22.57-4.11c6.85-4.1,11-11.64,11-21.9s-6.85-19.16-20.53-26c-13-6.85-20.53-13-20.53-17.79,0-6.17,3.42-9.59,11-9.59,5.47,0,8.89,4.11,8.89,13.69"/><path class="cls-2" d="M101.42,194.15c-11.63,0-19.16,3.42-23.27,9.58-2.73,4.79-4.1,13-4.1,24,0,11.64,1.37,20.53,4.1,25.32,4.79,6.85,12.32,10.27,23.27,10.27,8.21,0,14.37-2.06,19.16-6.84,4.79-4.11,6.85-9.59,7.53-17.11H109c0,8.2-2,11.62-7.53,11.62-4.1,0-6.16-2.05-7.53-6.84-.68-2-.68-6.84-.68-12.31V221.52c0-4.79,0-8.21.68-10.26,1.37-4.11,3.43-6.16,7.53-6.16,3.42,0,6.16,1.37,7.53,5.48l.68,10.94H93.21v10.27H128.8c0-13-1.37-21.9-4.11-27.38-4.11-6.84-12.32-10.26-23.27-10.26"/><path class="cls-2" d="M168.48,194.15V203h0c-2.73-6.15-7.52-8.89-15-8.89-8.21,0-13.69,3.42-17.11,10.26q-2.06,7.18-2,22.58c0,11,.68,18.48,2,21.9,2.74,7.54,8.21,11,17.11,11,6.84,0,11.63-2.06,13.69-7.53l-6.85-3.43a8,8,0,0,1-7.52-6.84l-.69-11.63c0-10.27.69-17.11,1.37-20.53,1.37-3.42,3.42-4.79,6.84-4.79s5.48,2.05,6.85,6.16l.68,17.1-1.37,15.74c-1.37,3.42-2.74,4.79-6.16,4.79l6.85,3.43h.68v13c0,7.53-2.74,10.95-6.84,10.95-2.74,0-4.79-.69-6.16-2.74l-1.37-6.84H135.64c0,13,8.89,19.84,26,19.84q24.65,0,24.64-22.58v-69.8h-17.8"/><path class="cls-2" d="M246.5,194.15H228v47.22c0,6.84-2.74,10.27-7.52,10.27-4.11,0-6.85-3.43-6.85-10.27V194.15H194.49v54.74c0,4.11,2,7.54,5.47,10.27,2.74,2.74,6.85,4.11,11.64,4.11,6.84,0,12.32-2.74,15.74-8.21H228v8.21h19.16l-.68-69.12"/><path class="cls-2" d="M290.3,209.89V193.47c-8.9,0-14.37,3.42-17.8,9.57h0v-8.89H254v69.12h19.16V224.94c0-4.79.68-8.21,2.74-10.26,2.05-3.42,6.84-4.79,14.37-4.79"/><path class="cls-2" d="M342.31,203.73c-4.11-6.84-11.64-10.26-23.27-10.26V205.1c4.1,0,6.16,2.05,7.53,6.16,1.36,2.05,1.36,7.53,1.36,15.73l-2.05,19.17c-.68,3.42-3.42,4.78-6.84,4.78s-5.47-1.36-6.84-4.78c-.69-2.74-1.37-9.58-1.37-19.17l.68-15.73c1.37-4.11,4.11-6.16,7.53-6.16V193.47q-16.43,0-22.58,10.26c-2.74,4.79-4.79,13-4.79,24,0,11.64,2.05,20.53,4.79,25.32q6.15,10.28,22.58,10.27c11.63,0,19.16-3.42,23.27-10.27,2.73-4.79,4.1-13.68,4.1-25.32,0-11-.68-19.16-4.1-24"/><path class="cls-2" d="M375.84,193.47c-6.85,0-13,1.37-17.79,4.1-5.48,3.42-8.9,8.21-8.9,14.37,0,8.21,6.16,14.37,17.11,19.85,10.95,4.11,16.42,8.89,16.42,13a6.47,6.47,0,0,1-6.84,6.85c-3.42,0-6.16-.7-6.85-2.75-.68-2.73-1.36-4.79-.68-8.21H349.15c0,8.21,2.05,15.06,6.84,18.48,4.11,2.74,10.27,4.11,19.85,4.11,7.52,0,13.68-2.06,17.79-5.48a18.46,18.46,0,0,0,6.84-15.05c0-7.53-4.79-14.38-16.42-19.85-10.95-4.79-15.74-8.9-15.74-11.63,0-4.79,1.37-6.85,5.48-6.85l5.47.69c.68,1.37,1.37,4.79,1.37,8.89h18.48c.68-6.84-1.37-12.31-6.16-15.73-4.11-3.42-9.59-4.79-17.11-4.79"/><polyline class="cls-2" points="81.58 305.01 82.26 305.01 82.26 378.92 102.11 378.92 102.11 286.53 70.63 286.53 54.88 348.81 54.2 348.81 39.15 286.53 6.98 286.53 6.98 378.92 26.82 378.92 26.82 305.01 26.82 305.01 44.62 378.92 63.78 378.92 81.58 305.01"/><path class="cls-2" d="M136.32,309.11q-16.42,0-22.58,10.27c-2.74,4.79-4.79,13-4.79,23.95,0,12.32,2,21.22,4.79,26,4.1,6.15,11.63,9.58,22.58,9.58,11.63,0,19.16-3.43,23.27-9.58,3.42-4.79,4.1-13.69,4.1-26,0-10.95-.68-19.16-4.1-23.95-4.11-6.84-11.64-10.27-23.27-10.27v12.33c4.11,0,6.84,1.36,7.53,5.47a72.49,72.49,0,0,1,1.37,15.74l-2.06,19.85c-.68,3.42-3.42,4.78-6.84,4.78s-5.47-1.36-6.84-4.78c-.68-2.74-1.37-9.58-1.37-19.85a72.49,72.49,0,0,1,1.37-15.74c1.37-4.11,3.42-5.47,6.84-5.47"/><path class="cls-2" d="M221.86,324.17c0-4.79-1.36-8.21-4.79-10.94-2.73-2.75-7.53-4.12-11.63-4.12l-9.58,2.07c-2.05,1.36-4.79,3.42-6.16,6.15H189V309.8H170.54v69.12H189V331.7c0-7.53,2.73-10.95,6.84-10.95,5.47,0,7.53,3.42,7.53,10.95v47.22h18.47V324.17"/><path class="cls-2" d="M232.81,298.85V309.8h-7.53v10.95h7.53v43.8a13.76,13.76,0,0,0,2.74,8.89c3.42,4.1,8.21,5.48,15,5.48l9.58-.68V366.6l-2.73.68c-2.74,0-4.11-.68-5.47-2.73l-.69-5.47V320.75h9.58V309.8h-9.58V290.64l-18.48,8.21"/><path class="cls-2" d="M314.93,320.75c-4.1-7.52-12.32-11.64-23.95-11.64-11,0-18.48,3.43-23.27,10.27-2.74,4.79-4.1,13-4.1,23.95,0,12.32,1.36,21.22,4.1,26,4.79,6.15,12.32,9.58,23.27,9.58,8.9,0,15.06-1.38,19.85-6.15,4.1-4.12,6.84-10.27,7.52-17.12H298.51c0,7.53-2.05,11.63-7.53,11.63-6.16,0-8.21-6.15-8.21-19.84V336.49c0-10.26,2.05-15.74,8.21-15.74,3.42,0,6.84,2.05,7.53,5.48l1.37,10.26H282.77v10.95h35.58c0-12.32-.68-21.9-3.42-26.69"/><path class="cls-2" d="M361.47,326.23V309.11c-8.9,0-15.06,3.43-17.79,10.27H343V309.11H325.2v69.81h19.16V342c0-5.48.68-8.9,2.05-11,2.74-3.43,7.53-5.48,15.06-4.79"/><path class="cls-2" d="M400.47,326.23V309.11c-8.21,0-13.68,3.43-17.11,10.27V309.11H365.57v69.81h18.48V342c0-5.48.69-8.9,2.74-11,2-3.43,6.84-5.48,13.68-4.79"/><path class="cls-2" d="M407.32,319.38c-3.42,4.79-4.11,13-4.11,23.95,0,12.32.69,21.22,4.11,26,4.1,6.15,11.63,9.58,23.26,9.58,8.22,0,14.38-1.38,19.85-6.15a24.37,24.37,0,0,0,6.84-17.12H438.11c0,7.53-2.73,11.63-7.53,11.63-6.15,0-8.89-6.15-8.89-19.84V336.49c0-10.26,2.74-15.74,8.89-15.74,3.43,0,6.16,2.05,7.53,5.48l.69,10.26H421.69v10.95h35.58c.69-12.32,0-21.9-3.42-26.69-4.1-7.52-12.32-11.64-23.27-11.64-11.63,0-19.16,3.43-23.26,10.27"/><polyline class="cls-2" points="516.81 309.8 498.34 309.8 488.75 357.02 488.07 357.02 479.17 309.8 460.7 309.8 478.49 377.54 470.96 402.19 490.81 402.19 516.81 309.8"/><path class="cls-2" d="M568.82,309.8a17.1,17.1,0,0,0-5.47-12.31C559.93,294.06,556.5,292,551,292c-4.79,0-8.21,2.05-11.63,5.48l1.36,1.36c2.74-2.05,6.16-4.1,10.27-4.1,4.79,0,8.21,2.05,11,4.1,2.73,2.74,4.1,6.16,4.1,10.95a14,14,0,0,1-4.1,10.27c-2.74,2.73-6.16,4.1-11,4.1a14,14,0,0,1-14.37-14.37c0-4.79,1.37-8.21,4.1-10.95l-1.36-1.36a16.58,16.58,0,0,0,0,24.63c3.42,2.74,6.84,4.79,11.63,4.79,5.47,0,8.9-2.05,12.32-4.79a17.12,17.12,0,0,0,5.47-12.32"/><path class="cls-2" d="M553.08,299.54h-8.21v19.84h2.74V301.59h5.47c2.74,0,4.79,1.37,4.79,3.42s-2,3.42-6.84,3.42h-3.42v2.05h4.1l5.48,8.9h2.74l-5.48-8.9c3.42,0,5.48-2.05,5.48-5.47,0-4.11-2.06-5.47-6.85-5.47"/></svg>