<svg id="Layer_1" data-name="Layer 1" xmlns="http://www.w3.org/2000/svg" viewBox="0 0 640 480"><defs><style>.cls-1{fill:#fff;}</style></defs><path class="cls-1" d="M104.81,144.5c22.91,0,41.38-22.06,41.38-46.16H104.81Z"/><polygon class="cls-1" points="8.71 255.3 15.72 255.3 47.02 334.13 47.19 334.13 78.14 255.3 85.15 255.3 85.15 339.94 80.19 339.94 80.19 261.8 80.02 261.8 49.58 339.94 44.62 339.94 13.84 261.8 13.67 261.8 13.67 339.94 8.71 339.94 8.71 255.3"/><path class="cls-1" d="M142.43,306.09c-.17-12.83-7.87-24.63-21-24.63-12.83,0-20.35,12.49-21.21,24.63ZM100.19,310c-.17,14.36,7,27.36,21.21,27.36,10.94,0,18.63-6.84,20.69-18.13h4.27c-2.22,14.2-11.28,22.06-24.79,22.06-16.76,0-25.65-14-25.48-30.78-.17-16.75,8-33,25.48-33,18,0,26.16,15.05,25.3,32.49Z"/><path class="cls-1" d="M180.56,335.5c15.05,0,20.35-13.34,20.35-26s-5.3-26-20.35-26c-13.51,0-19,13.33-19,26,0,12.48,5.47,26,19,26m27.36,4.44h-6.5V328.32h-.17c-3.08,7.86-12.14,13.33-20.69,13.33-17.61,0-26-15-26-32.31S163,277,180.56,277c8.55,0,17.1,4.62,20,13.34h.17V255.3h7v84.64Z"/><path class="cls-1" d="M221.42,278.73h7v61.21h-7Zm0-23.43h7v12h-7Z"/><path class="cls-1" d="M260.07,304.89h27l-13.33-39.5h-.17Zm8-49.59h11.8l31.29,84.64H299.4l-8.72-25.47H256.82l-8.89,25.47H237Z"/><path class="cls-1" d="M354.28,298.39c-1.54-7.69-6.49-12.14-14.36-12.14-13.85,0-17.95,11.46-17.95,23.94,0,11.29,4.78,22.4,16.92,22.4,9.24,0,14.71-5.64,15.91-14.88h9.74c-2.05,14.88-10.94,23.77-25.47,23.77-17.62,0-27-13-27-31.29s8.89-32.83,27.36-32.83c13.16,0,23.59,6.5,25,21Z"/><path class="cls-1" d="M411.22,300.27c-1-6.84-5.13-10.6-11.8-10.6-10.25,0-13.5,10.95-13.5,19.84,0,8.72,3.25,19.32,13.16,19.32,7.36,0,11.63-5,12.66-12.48h15.38c-2.05,16.24-12.65,25.13-27.87,25.13-17.44,0-29.24-13-29.24-31.46,0-19.15,10.78-33.17,29.59-33.17,13.67,0,26.16,7.52,27.18,23.25H411.22Z"/><path class="cls-1" d="M474,302.67c-1.37-8.55-5-13-12.66-13-10.09,0-13,8.38-13.16,13Zm-25.82,10.77c.51,10.6,5.3,15.56,14.19,15.56,6.33,0,11.45-4.1,12.48-7.87h14c-4.44,14.54-14,20.69-27.19,20.69-18.29,0-29.58-13.33-29.58-32.14,0-18.3,12-32.32,29.58-32.32,19.67,0,29.24,17.61,28,36.42H448.16Z"/><path class="cls-1" d="M512.11,319.6a8.41,8.41,0,0,0,3.07,6.84,11.78,11.78,0,0,0,7,2.05c3.77,0,8.9-1.71,8.9-6.5s-6-5.64-9.24-6.5c-12-3.25-27-3.59-27-20.17,0-14.88,15-18.81,26.5-18.81,12.82,0,26.16,3.93,26.85,19.83H530.74c0-2.56-.85-4.27-2.39-5.3a11.09,11.09,0,0,0-6-1.54c-3.08,0-8.21.34-8.21,4.62,0,5.81,12.82,6.84,21.54,8.89,11.8,2.56,14.71,11.46,14.71,16.59,0,16.41-14.71,21.88-27.87,21.88-13.85,0-27.87-4.79-28.39-22.06h18Z"/><path class="cls-1" d="M572.12,319.6a8.42,8.42,0,0,0,3.08,6.84,11.78,11.78,0,0,0,7,2.05c3.76,0,8.89-1.71,8.89-6.5s-6-5.64-9.23-6.5c-12-3.25-27-3.59-27-20.17,0-14.88,15-18.81,26.51-18.81,12.82,0,26.16,3.93,26.84,19.83H590.59c0-2.56-.85-4.27-2.39-5.3a11.1,11.1,0,0,0-6-1.54c-3.08,0-8.21.34-8.21,4.62,0,5.81,12.83,6.84,21.55,8.89,11.8,2.56,14.7,11.46,14.7,16.59,0,16.41-14.7,21.88-27.87,21.88-13.85,0-27.87-4.79-28.38-22.06h18.12Z"/><path class="cls-1" d="M145.68,180.24c-22.92,0-41.38,22.06-41.38,46.17h41.38Z"/><path class="cls-1" d="M108.74,184.17c0-24.11-20.86-43.77-43.6-43.77v43.77Z"/><path class="cls-1" d="M142.43,140.4c0,24.11,20.86,43.77,43.6,43.77V140.4Z"/><path class="cls-1" d="M341.63,367a5.47,5.47,0,0,0,.51,2.39,3,3,0,0,0,1.37,1.54,6.36,6.36,0,0,0,1.88.86,8.61,8.61,0,0,0,4.79,0,3.33,3.33,0,0,0,1.54-.86,3,3,0,0,0,.85-1.19,4.14,4.14,0,0,0,.35-1.37,2.72,2.72,0,0,0-.69-2.05,2.3,2.3,0,0,0-1.37-.86,14.46,14.46,0,0,0-2.9-.85c-1.2-.35-2.57-.69-4.11-1a18.53,18.53,0,0,1-2.56-1,6.06,6.06,0,0,1-1.54-1.36,5.72,5.72,0,0,1-.86-1.71,6.48,6.48,0,0,1-.17-1.88,5.78,5.78,0,0,1,.69-3.08,8.27,8.27,0,0,1,2-2.23,7.86,7.86,0,0,1,2.73-1.19,19.1,19.1,0,0,1,3.08-.34,11,11,0,0,1,3.42.51,14.7,14.7,0,0,1,2.91,1.37,6.89,6.89,0,0,1,2,2.39,6.55,6.55,0,0,1,.69,3.25h-4.11a4.49,4.49,0,0,0-1.54-3.25,5.62,5.62,0,0,0-3.59-1,4.54,4.54,0,0,0-1.54.18,12.7,12.7,0,0,0-1.37.51,2.89,2.89,0,0,0-1,1c-.34.35-.34.86-.34,1.54a2.86,2.86,0,0,0,.85,2.06,3.91,3.91,0,0,0,2.05,1,6.68,6.68,0,0,1,1,.34l2.05.52c.69.17,1.54.34,2.22.51a8.88,8.88,0,0,0,1.54.34,4.62,4.62,0,0,1,2.06,1,5.17,5.17,0,0,1,1.36,1.36,7.83,7.83,0,0,1,.86,1.71,7.38,7.38,0,0,1,.34,1.89,7.3,7.3,0,0,1-.85,3.42,6.45,6.45,0,0,1-2.06,2.22,13.25,13.25,0,0,1-3.07,1.37,11.73,11.73,0,0,1-3.42.34,13.47,13.47,0,0,1-3.77-.51,8.86,8.86,0,0,1-3.07-1.54,7.65,7.65,0,0,1-2.06-2.57A8.71,8.71,0,0,1,338,367Z"/><path class="cls-1" d="M362.66,367.3a6.12,6.12,0,0,0,.34,1.88,3.28,3.28,0,0,0,.86,1.54,4.06,4.06,0,0,0,1.37,1,3.7,3.7,0,0,0,2,.34,4,4,0,0,0,4.27-2.74h3.59a8.11,8.11,0,0,1-1,2.57,9,9,0,0,1-1.71,1.88,9.83,9.83,0,0,1-2.22,1.2,13.41,13.41,0,0,1-2.74.34,7.81,7.81,0,0,1-3.59-.69,7.08,7.08,0,0,1-2.57-1.88,7.88,7.88,0,0,1-1.53-2.9,11.94,11.94,0,0,1-.52-3.59,10.75,10.75,0,0,1,.52-3.42,7.22,7.22,0,0,1,1.7-2.91,7.21,7.21,0,0,1,6-2.74,8,8,0,0,1,3.59.86,11.23,11.23,0,0,1,2.74,2.22,9.79,9.79,0,0,1,1.54,3.25,9.22,9.22,0,0,1,.17,3.76Zm8.89-2.56a6,6,0,0,0-.34-1.71,3.66,3.66,0,0,0-.85-1.37,10.17,10.17,0,0,0-1.37-1,2.83,2.83,0,0,0-1.71-.34,7.23,7.23,0,0,0-1.88.34,2.65,2.65,0,0,0-1.37,1,3.81,3.81,0,0,0-.86,1.37,6,6,0,0,0-.34,1.71Z"/><path class="cls-1" d="M394,374c0,2.57-.68,4.45-2.22,5.81a9.44,9.44,0,0,1-6.16,1.88,13.22,13.22,0,0,1-2.56-.34,9.76,9.76,0,0,1-2.39-.85,6,6,0,0,1-1.89-1.71,4.24,4.24,0,0,1-.85-2.57h3.76a11.27,11.27,0,0,0,.51,1.37c.18.34.52.51,1,.86a2.46,2.46,0,0,0,1.2.34h1.37a4.41,4.41,0,0,0,3.42-1.2,4.64,4.64,0,0,0,1-3.25v-2.56h0A4.69,4.69,0,0,1,388,374a5.81,5.81,0,0,1-2.91.86,6.82,6.82,0,0,1-3.42-.69,9,9,0,0,1-2.39-1.88,6.47,6.47,0,0,1-1.37-2.91,11,11,0,0,1-.51-3.42,10.06,10.06,0,0,1,.51-3.25,8.5,8.5,0,0,1,1.54-2.73,8.17,8.17,0,0,1,2.39-1.88,7,7,0,0,1,3.25-.69,5.67,5.67,0,0,1,2.91.69,5.92,5.92,0,0,1,2,2.05h0v-2.39h3.76V374Zm-8.38-2.05a3.7,3.7,0,0,0,2.06-.51A5.37,5.37,0,0,0,389,370a6.23,6.23,0,0,0,.86-1.88,9.15,9.15,0,0,0,.17-2.23,8.7,8.7,0,0,0-.34-2.05,6.12,6.12,0,0,0-.86-1.88,3,3,0,0,0-1.36-1.2,7.32,7.32,0,0,0-2.06-.51,3.66,3.66,0,0,0-2,.51,5.57,5.57,0,0,0-1.37,1.37,3.6,3.6,0,0,0-.68,1.88,8.4,8.4,0,0,0-.17,2.05,8.69,8.69,0,0,0,.34,2.06,9,9,0,0,0,.86,1.88,5.37,5.37,0,0,0,1.36,1.37A3.49,3.49,0,0,0,385.57,371.92Z"/><path class="cls-1" d="M412.76,374.83H409v-2.4h0a5.83,5.83,0,0,1-2.05,2.05,5.63,5.63,0,0,1-2.74.86c-2.22,0-3.93-.51-5-1.71a7.4,7.4,0,0,1-1.54-5.13V357.73h3.77v10.43a5.32,5.32,0,0,0,.85,3.25,2.79,2.79,0,0,0,2.4.85,6.46,6.46,0,0,0,2-.34,2.67,2.67,0,0,0,1.37-1,3.2,3.2,0,0,0,.68-1.54,6.41,6.41,0,0,0,.17-1.88v-9.91h3.76Z"/><path class="cls-1" d="M416.87,357.73h3.59V361h0a5.09,5.09,0,0,1,.68-1.36,3.82,3.82,0,0,1,1.2-1.2,6.73,6.73,0,0,1,1.54-.85,5.73,5.73,0,0,1,1.71-.35H427v3.59a1.53,1.53,0,0,1-.85-.17h-.86a7.38,7.38,0,0,0-1.88.34,5,5,0,0,0-1.54,1.2,9.33,9.33,0,0,0-1,1.88,10.46,10.46,0,0,0-.34,2.57v8.21h-3.77v-17.1Z"/><path class="cls-1" d="M435.67,375.34a7.87,7.87,0,0,1-3.59-.69,7.7,7.7,0,0,1-2.73-1.88,8.05,8.05,0,0,1-1.71-2.9,12.26,12.26,0,0,1-.52-3.59,11.48,11.48,0,0,1,.52-3.6,9.81,9.81,0,0,1,1.71-2.9,7.7,7.7,0,0,1,2.73-1.88,9.71,9.71,0,0,1,7.19,0,7.7,7.7,0,0,1,2.73,1.88,8.2,8.2,0,0,1,1.71,2.9,12.93,12.93,0,0,1,0,7.19,10,10,0,0,1-1.71,2.9,7.7,7.7,0,0,1-2.73,1.88A11,11,0,0,1,435.67,375.34Zm0-3.08a4.79,4.79,0,0,0,2.23-.51,4.14,4.14,0,0,0,1.54-1.37,6.34,6.34,0,0,0,.85-1.88,8.76,8.76,0,0,0,.34-2.22,10.12,10.12,0,0,0-.34-2.23,6.34,6.34,0,0,0-.85-1.88,4.23,4.23,0,0,0-1.54-1.37,5.11,5.11,0,0,0-4.45,0,4.15,4.15,0,0,0-1.54,1.37,6.34,6.34,0,0,0-.85,1.88,7.45,7.45,0,0,0,0,4.45,6.34,6.34,0,0,0,.85,1.88,4.07,4.07,0,0,0,1.54,1.37A4.78,4.78,0,0,0,435.67,372.26Z"/><path class="cls-1" d="M450.38,369.35a3.58,3.58,0,0,0,1.2,2.4,4.13,4.13,0,0,0,2.56.68h1.2a2.53,2.53,0,0,0,1.2-.34,3.56,3.56,0,0,0,1-.68,2.53,2.53,0,0,0,.34-1.2,1.56,1.56,0,0,0-.51-1.2,2.72,2.72,0,0,0-1.2-.68c-.51-.17-1-.34-1.71-.52l-2.05-.51-2.05-.51a5.19,5.19,0,0,1-1.71-.86,4.61,4.61,0,0,1-1.2-1.36,4.33,4.33,0,0,1-.51-2.23,3.93,3.93,0,0,1,.68-2.39,5,5,0,0,1,1.71-1.54,10,10,0,0,1,2.4-.85,11.48,11.48,0,0,1,2.39-.18,13.34,13.34,0,0,1,2.57.35,8.76,8.76,0,0,1,2.22.85,3.77,3.77,0,0,1,1.54,1.71,5.75,5.75,0,0,1,.85,2.39h-4.1a2.47,2.47,0,0,0-1.2-1.88,4.75,4.75,0,0,0-2.22-.51h-1c-.34,0-.68.17-1,.17-.34.17-.52.34-.86.51a1.35,1.35,0,0,0-.34.86,1.58,1.58,0,0,0,.51,1.2,2.84,2.84,0,0,0,1.2.68c.51.17,1,.34,1.71.51l2,.52,2.05.51a5.27,5.27,0,0,1,1.71.85,4.64,4.64,0,0,1,1.2,1.37,3.68,3.68,0,0,1,.51,2,4.14,4.14,0,0,1-.68,2.57,6.13,6.13,0,0,1-1.88,1.71,10.77,10.77,0,0,1-2.39,1,15.2,15.2,0,0,1-2.74.34,19,19,0,0,1-3.08-.34,10.57,10.57,0,0,1-2.39-1,5.27,5.27,0,0,1-1.54-1.88,9.71,9.71,0,0,1-.69-2.57Z"/><path class="cls-1" d="M485.77,372.6a5.1,5.1,0,0,1-2.22,2,8,8,0,0,1-3.08.69,7.6,7.6,0,0,1-3.42-.69,6.88,6.88,0,0,1-2.39-2,9.09,9.09,0,0,1-1.37-2.9,11.14,11.14,0,0,1-.51-3.42,10,10,0,0,1,.51-3.25,15,15,0,0,1,1.37-2.91,6.54,6.54,0,0,1,5.64-2.74,5.67,5.67,0,0,1,2.91.69,5.89,5.89,0,0,1,2.22,1.88h0V351.4h4.62V375H485.6l.17-2.4Zm-.17-8.38a5.23,5.23,0,0,0-.68-1.71,3.89,3.89,0,0,0-1.2-1.19,3.36,3.36,0,0,0-1.88-.52,3,3,0,0,0-1.88.52,2.7,2.7,0,0,0-1.2,1.19,5.23,5.23,0,0,0-.68,1.71,12.51,12.51,0,0,0,0,4.11,5.23,5.23,0,0,0,.68,1.71,4.75,4.75,0,0,0,1.37,1.19,3.38,3.38,0,0,0,1.88.52,3,3,0,0,0,1.88-.52,3.89,3.89,0,0,0,1.2-1.19,5.23,5.23,0,0,0,.68-1.71,7.94,7.94,0,0,0,.18-2.05C485.77,365.59,485.77,364.91,485.6,364.22Z"/><path class="cls-1" d="M498.94,370.72a4.15,4.15,0,0,0,3.08,1,3.57,3.57,0,0,0,2.39-.69,3.09,3.09,0,0,0,1.2-1.54h4.1a8,8,0,0,1-3.08,4.45,9.26,9.26,0,0,1-4.95,1.37,7.81,7.81,0,0,1-3.59-.69,7.65,7.65,0,0,1-2.74-1.88,8.2,8.2,0,0,1-1.71-2.9,12.29,12.29,0,0,1-.68-3.59,9,9,0,0,1,.68-3.6,10,10,0,0,1,1.71-2.9,9.5,9.5,0,0,1,2.74-1.88,7.81,7.81,0,0,1,3.59-.69,8.19,8.19,0,0,1,3.76.86,8.72,8.72,0,0,1,2.73,2.22,11.15,11.15,0,0,1,1.54,3.25,14.09,14.09,0,0,1,.34,3.76H497.74A4.54,4.54,0,0,0,498.94,370.72Zm5.3-9.06c-.51-.69-1.37-.86-2.56-.86a5.83,5.83,0,0,0-1.88.35,2.27,2.27,0,0,0-1.2,1,4.62,4.62,0,0,0-.69,1.2,2.92,2.92,0,0,0-.17,1.2h7.7A7.79,7.79,0,0,0,504.24,361.66Z"/><path class="cls-1" d="M526.47,369a4.52,4.52,0,0,0,1.2,1.37,5.06,5.06,0,0,0,1.71.68,8.32,8.32,0,0,0,2,.17,4.8,4.8,0,0,0,1.54-.17,2.8,2.8,0,0,0,1.54-.51,3,3,0,0,0,1.19-.85,2.08,2.08,0,0,0,.52-1.54,1.65,1.65,0,0,0-.69-1.54,11.41,11.41,0,0,0-1.54-1,6.77,6.77,0,0,0-2.22-.68,13.51,13.51,0,0,1-2.56-.69,15.16,15.16,0,0,1-2.57-.85,9.25,9.25,0,0,1-2.22-1.2,5.27,5.27,0,0,1-1.54-1.88,6.45,6.45,0,0,1-.68-2.73,5.92,5.92,0,0,1,.85-3.08,6.46,6.46,0,0,1,2.05-2.23,11.56,11.56,0,0,1,2.91-1.36,9.72,9.72,0,0,1,3.25-.52,24.37,24.37,0,0,1,3.59.35,8.5,8.5,0,0,1,3.08,1.36,7.13,7.13,0,0,1,2.05,2.4,7.24,7.24,0,0,1,.85,3.42h-5a2.55,2.55,0,0,0-.51-1.71,1.53,1.53,0,0,0-1-1,2,2,0,0,0-1.37-.51,5.88,5.88,0,0,0-1.71-.17,2.94,2.94,0,0,0-1.2.17c-.34.17-.85.17-1.2.51a2,2,0,0,0-.85.86,2.27,2.27,0,0,0,0,2.39c.17.34.51.51,1,.86a11.91,11.91,0,0,0,2.23.68c.85.17,2,.51,3.59.85a15.49,15.49,0,0,1,1.88.52,14.42,14.42,0,0,1,2.39,1,7.83,7.83,0,0,1,2,2.05,6.06,6.06,0,0,1,.86,3.25,6.72,6.72,0,0,1-.68,3.08,6.3,6.3,0,0,1-1.88,2.4,8.81,8.81,0,0,1-3.08,1.53,15.13,15.13,0,0,1-4.28.52,13,13,0,0,1-3.76-.52,11.39,11.39,0,0,1-3.25-1.53,8.11,8.11,0,0,1-2.22-2.57,8.75,8.75,0,0,1-.86-3.76h5A2,2,0,0,0,526.47,369Z"/><path class="cls-1" d="M543.4,363a4.74,4.74,0,0,1,.85-2.74,4.63,4.63,0,0,1,1.88-1.71,9,9,0,0,1,2.57-1,14.32,14.32,0,0,1,2.91-.35,13,13,0,0,1,2.56.17,10.29,10.29,0,0,1,2.39.69,3.66,3.66,0,0,1,1.71,1.54,4.07,4.07,0,0,1,.69,2.56v8.89a9.15,9.15,0,0,0,.17,2.23c.17.68.17,1.19.51,1.54h-5a1.58,1.58,0,0,1-.17-.86c0-.34-.17-.51-.17-.85a4.53,4.53,0,0,1-2.56,1.53,9.53,9.53,0,0,1-3.08.52,8.62,8.62,0,0,1-2.22-.34,6.69,6.69,0,0,1-1.89-.86,3.45,3.45,0,0,1-1.19-1.54,4.75,4.75,0,0,1-.52-2.22,5,5,0,0,1,.52-2.4,4,4,0,0,1,1.37-1.53,6,6,0,0,1,1.88-.86l2.05-.51c.68-.17,1.37-.17,2-.34a6.17,6.17,0,0,0,1.88-.35,4.15,4.15,0,0,0,1.2-.51,1.22,1.22,0,0,0,.51-1,2.52,2.52,0,0,0-.17-1.19,1.35,1.35,0,0,0-.68-.69,1.88,1.88,0,0,0-1-.34h-1.2A4.29,4.29,0,0,0,549,361a2.36,2.36,0,0,0-.85,2.06Zm10.77,3.42a1.29,1.29,0,0,1-.68.34,2.22,2.22,0,0,1-1,.17c-.34,0-.68.17-1,.17s-.68.17-1.19.17a2.46,2.46,0,0,0-1,.34,3.7,3.7,0,0,0-.85.52c-.17.17-.52.34-.69.68a2.18,2.18,0,0,0-.17,1c0,.34,0,.85.17,1a1.33,1.33,0,0,0,.69.69c.34.17.51.34.85.34s.69.17,1,.17a4.29,4.29,0,0,0,2.22-.51,8.61,8.61,0,0,0,1.2-1c.17-.51.34-.85.51-1.37v-2.73Z"/><path class="cls-1" d="M567.34,351.23v23.6h-4.62v-23.6Z"/><path class="cls-1" d="M582.55,374.83v-2.4h-.17a5,5,0,0,1-2.39,2.22,6,6,0,0,1-2.91.69,8.38,8.38,0,0,1-3.08-.51,5.62,5.62,0,0,1-1.88-1.37,5.35,5.35,0,0,1-1-2.23,15.08,15.08,0,0,1-.34-2.9v-10.6h4.61v9.57a5.08,5.08,0,0,0,.69,3.08,2.66,2.66,0,0,0,2.39,1,3,3,0,0,0,2.74-1.2,6.8,6.8,0,0,0,.85-3.76v-8.89h4.62v17.09h-4.11Z"/><path class="cls-1" d="M602.73,372.6a5.15,5.15,0,0,1-2.22,2,8,8,0,0,1-3.08.69,7.57,7.57,0,0,1-3.42-.69,6.79,6.79,0,0,1-2.39-2,8.89,8.89,0,0,1-1.37-2.9,11.14,11.14,0,0,1-.51-3.42,10,10,0,0,1,.51-3.25,14.44,14.44,0,0,1,1.37-2.91,6.89,6.89,0,0,1,2.39-2.05,7,7,0,0,1,3.25-.69,5.67,5.67,0,0,1,2.91.69,5.89,5.89,0,0,1,2.22,1.88h0V351.4H607V375h-4.45l.17-2.4Zm-.17-8.38a5.23,5.23,0,0,0-.68-1.71,4.12,4.12,0,0,0-1.2-1.19,3.38,3.38,0,0,0-1.88-.52,3,3,0,0,0-1.88.52,2.65,2.65,0,0,0-1.2,1.19,5.23,5.23,0,0,0-.68,1.71,12.51,12.51,0,0,0,0,4.11,5.23,5.23,0,0,0,.68,1.71,4.62,4.62,0,0,0,1.37,1.19,3.38,3.38,0,0,0,1.88.52,3,3,0,0,0,1.88-.52,4.12,4.12,0,0,0,1.2-1.19,5.23,5.23,0,0,0,.68-1.71,8.4,8.4,0,0,0,.17-2.05C602.73,365.59,602.73,364.91,602.56,364.22Z"/><polygon class="cls-1" points="618.29 261.46 620.51 261.46 620.51 268.98 619.15 268.98 619.15 263 617.61 268.98 616.24 268.98 614.7 263 614.7 268.98 613.33 268.98 613.33 261.46 615.55 261.46 616.92 266.59 618.29 261.46"/><path class="cls-1" d="M627.87,267.44a13,13,0,0,0-.86-1.19c-.17-.17-.51-.35-.85-.69a3.29,3.29,0,0,0,1.54-.68,2,2,0,0,0,.51-1.37,2.53,2.53,0,0,0-.34-1.2,1.72,1.72,0,0,0-.86-.68,4.77,4.77,0,0,0-1.71-.17h-3.25V269h1.54V265.9h.34c.35,0,.52,0,.69.18.17,0,.34.17.51.34a11.35,11.35,0,0,0,.86,1l1,1.71h1.71Zm-3.25-2.73h-1.2v-1.88h2.22c.35,0,.52.17.52.34s.17.34.17.68a.66.66,0,0,1-.17.52c-.17.17-.35.17-.35.34C625.81,264.54,625.3,264.71,624.62,264.71Z"/><path class="cls-1" d="M620.51,255a10.78,10.78,0,1,0,10.78,10.77A10.73,10.73,0,0,0,620.51,255Zm0,19.84a9,9,0,0,1-9.06-9.07,9.15,9.15,0,1,1,18.3,0A9.06,9.06,0,0,1,620.51,274.8Z"/><polygon class="cls-1" points="618.29 261.46 620.51 261.46 620.51 268.98 619.15 268.98 619.15 263 617.61 268.98 616.24 268.98 614.7 263 614.7 268.98 613.33 268.98 613.33 261.46 615.55 261.46 616.92 266.59 618.29 261.46"/><path class="cls-1" d="M627.87,267.44a13,13,0,0,0-.86-1.19c-.17-.17-.51-.35-.85-.69a3.29,3.29,0,0,0,1.54-.68,2,2,0,0,0,.51-1.37,2.53,2.53,0,0,0-.34-1.2,1.72,1.72,0,0,0-.86-.68,4.77,4.77,0,0,0-1.71-.17h-3.25V269h1.54V265.9h.34c.35,0,.52,0,.69.18.17,0,.34.17.51.34a11.35,11.35,0,0,0,.86,1l1,1.71h1.71Zm-3.25-2.73h-1.2v-1.88h2.22c.35,0,.52.17.52.34s.17.34.17.68a.66.66,0,0,1-.17.52c-.17.17-.35.17-.35.34C625.81,264.54,625.3,264.71,624.62,264.71Z"/><path class="cls-1" d="M618.29,261.46l-1.37,5.13-1.36-5.13h-2.23V269h1.37v-5.81l1.54,5.81h1.54l1.54-5.81V269h1.36v-7.52Z"/><path class="cls-1" d="M627.87,267.44a13,13,0,0,0-.86-1.19c-.17-.17-.51-.35-.85-.69a3.29,3.29,0,0,0,1.54-.68,2,2,0,0,0,.51-1.37,2.53,2.53,0,0,0-.34-1.2,1.72,1.72,0,0,0-.86-.68,4.77,4.77,0,0,0-1.71-.17h-3.25V269h1.54V265.9h.34c.35,0,.52,0,.69.18.17,0,.34.17.51.34a11.35,11.35,0,0,0,.86,1l1,1.71h1.71Zm-3.25-2.73h-1.2v-1.88h2.22c.35,0,.52.17.52.34s.17.34.17.68a.66.66,0,0,1-.17.52c-.17.17-.35.17-.35.34C625.81,264.54,625.3,264.71,624.62,264.71Z"/></svg>