<svg id="Layer_1" data-name="Layer 1" xmlns="http://www.w3.org/2000/svg" viewBox="0 0 640 480"><defs><style>.cls-1{fill:#fff;}</style></defs><path class="cls-1" d="M541.2,147h2c2.41,1.53,3.33,4.41,4.66,6.8q27.45,51.45,55,102.88c8.86,16.71,17.9,33.32,26.66,50.08v.32c-.52,1-.94,2.43-2.28,2.3q-13.37,0-26.72,0c-2.13.09-2.71-2.25-3.52-3.75-1.62-3.07-3.36-6.07-4.82-9.23-2.5-4.24-4.47-8.76-7-13-1.92-4.19-4.4-8.08-6.33-12.27-1.19-2.53-2.76-4.86-3.94-7.39-1.76-3.77-4-7.26-5.73-11.05-2.58-4.45-4.7-9.14-7.27-13.59-1.81-4-4.21-7.67-6-11.66-1.28-2.74-3-5.26-4.25-8-1.65-3.57-3.84-6.85-5.42-10.45-.78-1.39-1.32-3.33-3-3.89-1.06-.08-2.55-.35-3.15.79-2.77,4.46-4.81,9.32-7.48,13.84-1.92,4.19-4.41,8.07-6.34,12.26-1.14,2.43-2.64,4.67-3.79,7.09-.88,1.82-1.77,3.63-2.8,5.37-1.83,3.09-3.13,6.45-5,9.52-1.62,2.69-2.76,5.64-4.38,8.33s-2.87,5.83-4.53,8.62c-1.9,3.18-3.25,6.65-5.16,9.82-1.6,2.69-2.75,5.63-4.36,8.33s-2.87,5.82-4.54,8.61c-1.79,3-3.1,6.23-4.79,9.27-.58.9-1.13,2-2.26,2.3a32.2,32.2,0,0,1-5.29.15c-6.8,0-13.61,0-20.42,0-1.23,0-2.71,0-3.55-1.06a4.6,4.6,0,0,1,.46-3.43q41.66-78.08,83.38-156.11A5.44,5.44,0,0,1,541.2,147ZM10.5,172c1.91-2,4.79-1.35,7.26-1.42H92.12A56.49,56.49,0,0,1,113.64,174c11.52,4.14,21.43,13.42,25.16,25.22,1.65,4.48,2,9.3,2.34,14-.3,5.06-.92,10.19-2.83,14.92-2.29,5.54-5.59,10.87-10.52,14.44-1.19,1.14-3,1.63-3.9,3.07A37.17,37.17,0,0,1,140.35,258c7,9.14,8.93,21.25,7.75,32.47a48.8,48.8,0,0,1-6.62,21.13,38,38,0,0,1-9.63,10.35c-8.43,6.26-18.87,9.15-29.18,10.34-2.11.28-4.28.13-6.35.71H12.39a10.68,10.68,0,0,1-1.89-1.91V172m27.82,23.25c-.79,1-.57,2.3-.62,3.46.08,12.05-.1,24.11.09,36.16a3.81,3.81,0,0,0,3.08,1.49c16,0,32.05,0,48.08,0a37.83,37.83,0,0,0,6.62-.68c5-.73,10-2.7,13.45-6.47,2.38-2.37,3.47-5.65,4.27-8.83.19-2.57,1-5.15.3-7.72a19.9,19.9,0,0,0-5-11.79c-4.12-3.74-9.64-5.53-15.08-6.18-1.74-.18-3.51.08-5.24-.26a33.13,33.13,0,0,0-6.53-.27c-13.15,0-26.31,0-39.46,0a7.5,7.5,0,0,0-3.91,1.1m.9,65.29A1.65,1.65,0,0,0,38,261.62c-1,1.87-.77,4-.76,6.05,0,12.4,0,24.81,0,37.21,0,1.77,1,4.28,3.16,4.06q25.39,0,50.79,0a23.3,23.3,0,0,0,5.08-.31c6-.51,12.13-1.7,17.15-5.13,4-2.86,6.25-7.59,7.11-12.35a34,34,0,0,0-.88-16.6,17.27,17.27,0,0,0-8.2-9.91c-5.22-2.88-11.22-3.74-17.07-4.24H40.87a7.56,7.56,0,0,0-1.65.15Zm136.52-89.84a40.41,40.41,0,0,1,5.72-.13q39.45,0,78.91,0c11.89.61,24,4.77,32.56,13.25a40.39,40.39,0,0,1,11.41,24.4c0,3.6.15,7.21-.1,10.8-1.13,7.71-4.16,15.48-10,20.87a24,24,0,0,1-5.51,4.48c-.43.36-1.35.55-1.08,1.28a38.13,38.13,0,0,1,16.85,13.2,43.34,43.34,0,0,1,4.3,8c2.45,5.54,2.91,11.66,3.27,17.63a80.06,80.06,0,0,1-1.68,13.8A40.91,40.91,0,0,1,299,319a56.42,56.42,0,0,1-7.31,5.39c-7.4,4.53-16,6.62-24.51,7.74-2.38.41-4.83.19-7.17.82H176.14c-1.3-.76-2.57-2-2.4-3.62q0-77.58,0-155.15a4,4,0,0,1,2-3.5m28.1,23.62a3.35,3.35,0,0,0-2.29,1.36c-.81,1.14-.58,2.61-.61,3.93,0,11,0,22.09,0,33.12a4.3,4.3,0,0,0,2,3.5c3.26.29,6.54,0,9.82.12,13.91,0,27.82,0,41.73,0,4.67-.53,9.5-1.14,13.59-3.62,4.22-1.9,6.89-6,8.32-10.25,1.08-3.44.71-7.07.72-10.62a22,22,0,0,0-2.25-7.24c-3.27-5.61-9.57-8.71-15.82-9.62-2.45-.62-5-.11-7.47-.62a32.05,32.05,0,0,0-5.71-.2c-13.46,0-26.92,0-40.38,0a9,9,0,0,0-1.64.17m-.91,66.23a2.81,2.81,0,0,0-2,3c0,13,0,26,0,39,0,1.66-.16,3.39.48,5,.33,1.11,1.69,1.37,2.69,1.39,17.23,0,34.47,0,51.71,0,2.27.12,4.5-.47,6.77-.57,5.81-.73,11.77-2.4,16.25-6.35,3.53-3.56,5.26-8.55,5.64-13.47a19.29,19.29,0,0,0,.06-7.38c-.44-5.53-2.38-11.42-7-14.88-5.54-4.27-12.72-5.26-19.49-5.9H206.4a18.23,18.23,0,0,0-3.47.16ZM313.11,174a2.54,2.54,0,0,1,2.56-3.46c8.47,0,16.95,0,25.42,0a2.56,2.56,0,0,1,2.6,1.05,90.8,90.8,0,0,1,5.25,9.71c1,2.12,2.32,4.08,3.35,6.19,1.88,4.08,4.31,7.87,6.18,11.95,2.49,4.24,4.46,8.76,7,13,2.14,4.58,4.83,8.87,6.94,13.47,1.84,3.21,3.5,6.51,5.17,9.81,2.11,3.43,3.59,7.19,5.68,10.63,1.45,2.53,2.53,5.26,4,7.76,1.91,3.17,3.24,6.65,5.15,9.81s3.18,6.68,5.21,9.77a2.89,2.89,0,0,0,4.81,0c2-3.1,3.32-6.59,5.21-9.77,1.69-2.78,2.87-5.82,4.53-8.61,1.91-3.18,3.25-6.65,5.16-9.82s3.36-6.83,5.35-10.07c2.32-4.87,5.12-9.48,7.41-14.36,1.88-3.19,3.46-6.53,5.18-9.81,2-3.23,3.39-6.79,5.35-10.05,1.7-2.91,2.94-6,4.66-8.95s3-6,4.7-8.9c2.33-3.93,3.84-8.35,6.59-12,.63-1,1.86-.74,2.85-.8,8.32.08,16.64,0,25,0a2.78,2.78,0,0,1,2.62,1.57c.53,1.56-.61,3-1.32,4.28Q446,250.61,406.39,324.83c-1.52,2.83-2.8,5.9-5.14,8.16h-2c-3-1.88-4-5.55-5.73-8.46Q353.29,249.29,313.11,174Z"/></svg>