<svg id="Layer_1" data-name="Layer 1" xmlns="http://www.w3.org/2000/svg" viewBox="0 0 640 480"><defs><style>.cls-1{fill:#fff;fill-rule:evenodd;}</style></defs><path class="cls-1" d="M71.25,173.8A66.2,66.2,0,1,1,5,240,66.22,66.22,0,0,1,71.25,173.8Zm0,6.31a59.91,59.91,0,1,0,59.9,59.9A59.9,59.9,0,0,0,71.25,180.11Z"/><path class="cls-1" d="M74.51,252.83v20.32H68V252.83c-3.09,0-7.14,0-8.69-.05l-21.52.05A9.83,9.83,0,0,1,27.5,242.65a7.19,7.19,0,0,1,.14-1.35,38.55,38.55,0,0,1,4.54-12.48,37.85,37.85,0,0,1,8.65-10.27,11.12,11.12,0,0,1,8.27-2,10.75,10.75,0,0,1,5.25-6.38,7.6,7.6,0,0,1,1.27-.59,45.39,45.39,0,0,1,15.63-2.74A46.13,46.13,0,0,1,87,209.64a12,12,0,0,1,6.37,6.87,9.52,9.52,0,0,1,7.91,1.67,42.19,42.19,0,0,1,9.07,10.64,38.21,38.21,0,0,1,4.59,12.48,11.68,11.68,0,0,1,.11,1.35,9.77,9.77,0,0,1-4.88,8.88,10.16,10.16,0,0,1-5.42,1.3l-21.56-.05c-1.51.05-5.57.05-8.63.05Zm22.89-29.4a3.37,3.37,0,0,0-3.63-.23,3.91,3.91,0,0,0-1.37,1.52l-10.88,19a1.57,1.57,0,0,0-.07,1.74,1.63,1.63,0,0,0,1.54.82l22,.05a3,3,0,0,0,1.92-.41,3.33,3.33,0,0,0,1.62-3.17c0-.05,0-.19,0-.3a32.18,32.18,0,0,0-3.78-10.39,32.75,32.75,0,0,0-7.17-8.54s0,0-.13-.09Zm-52.31,0c0,.07-.09.07-.12.09a33.05,33.05,0,0,0-11,18.93v.3a3.44,3.44,0,0,0,1.67,3.17,3.09,3.09,0,0,0,1.93.41l21.93-.05a1.61,1.61,0,0,0,1.55-.82,1.65,1.65,0,0,0-.08-1.74l-10.92-19a3.27,3.27,0,0,0-1.35-1.52,3.34,3.34,0,0,0-3.61.23Zm39.8-7.62a.75.75,0,0,1-.18-.09,39.74,39.74,0,0,0-26.87,0c-.15.07-.26.09-.33.18a4,4,0,0,0-2.32,3.65,3.68,3.68,0,0,0,.71,2.32l13.51,23.31a2,2,0,0,0,1.84,1.17,2.11,2.11,0,0,0,1.82-1.1L86.6,221.93a4.28,4.28,0,0,0,.75-2.38A4.12,4.12,0,0,0,84.89,215.81Z"/><polygon class="cls-1" points="195.01 205.37 211.21 238.45 227.34 205.37 251.78 205.37 251.78 271.56 227.34 271.56 227.34 238.45 211.21 271.56 195.01 238.45 195.01 271.56 170.57 271.56 170.57 205.37 195.01 205.37"/><path class="cls-1" d="M300.25,215.26l-9.93,34.55h19.89l-10-34.55Zm-40.64,56.3,19.06-66.19h43.18l19.07,66.19H316.43l-3.11-10.89h-26.1l-3.15,10.89Z"/><path class="cls-1" d="M378.85,213c5.47,0,10.84,2.93,10.84,8.94a10.78,10.78,0,0,1-10.84,10.86h-5.33V213Zm15.55-7.6H348.63v66.19H373.1V244h21.3a19.3,19.3,0,1,0,0-38.59Z"/><polygon class="cls-1" points="422.22 205.37 487.2 205.37 487.2 216.19 446.69 216.19 446.69 233.06 487.2 233.06 487.2 243.89 446.69 243.89 446.69 271.56 422.22 271.56 422.22 205.37"/><polygon class="cls-1" points="594.41 260.67 635 260.67 635 271.56 569.97 271.56 569.97 205.37 635 205.37 635 216.19 594.41 216.19 594.41 233.04 635 233.04 635 243.89 594.41 243.89 594.41 260.67"/><path class="cls-1" d="M525.92,213c5.35,0,10.83,2.93,10.83,8.95a10.86,10.86,0,0,1-10.83,10.85h-5.33V213Zm34.89,41.49V255c0-.17,0-.37,0-.53Zm0,.53c0-.17,0-.37,0-.53a16.55,16.55,0,0,0-16.54-16,16.55,16.55,0,0,0,0-33.1H495.76v66.19h24.83V244.13h5.33A10.85,10.85,0,0,1,536.75,255v16.57h24.06Z"/></svg>