<svg id="Layer_1" data-name="Layer 1" xmlns="http://www.w3.org/2000/svg" viewBox="0 0 640 480"><defs><style>.cls-1{fill:#fff;}</style></defs><path class="cls-1" d="M299.42,355c-1-1.09-7-19.41-7-19.41L282,349.11l6.73,20.66Z"/><path class="cls-1" d="M366.78,237.56H344.37l149.16-193H124.6V385.45l.71-.72c.54-.4,25.16-30.9,47.69-61,20.32-26.15,39.36-51.76,41-54.17,4.06-5.82,9.91-18.57,9.91-18.57h30s1,11.74,1.85,14.5c.77,2.57,19.07,62.58,19.48,63.22l10-13-17.21-53.19s-4.09-10-5.39-11.52h35.08a31.89,31.89,0,0,0,1.11,9.52c1.45,4.36,9,31.53,9,31.53s23.88-30,25.36-32.14c2.58-3.62,2.91-8.91,2.91-8.91h29.23s-5.34,3.95-14.69,15.79c-3.15,4-34,43.21-34,43.21s2.59,9.16,3.92,13.74c.33,1.3.6,2.21.6,2.31a18.07,18.07,0,0,0,1.85-2.31c7.9-10.05,44.24-57.54,46.42-61.65,1.77-3.3,4.39-7.08,5.88-11.09h28.47s.71,8.54,1.55,10.87l18,61.87c6.7,19.07,20.84,68.65,26.42,72.61H412.85a58.28,58.28,0,0,0-1.75-13c-1.61-5.59-14.87-48.49-14.87-48.49H337.61l-9.15,13s11,34.58,11.74,36.28c1.17,3.05,6.53,12.2,6.53,12.2h-35.3s-1-5.24-1.31-7.47c-.32-1.75-3.32-11.49-3.32-11.49s-8.09,8.76-10.18,12.83c-2.24,4-3.19,6.13-3.19,6.13H265.81s-.93-5.24-1.37-7.47c-.24-1.75-3.62-12.32-3.62-12.32s-7.73,9.43-10,13.47-3.08,6.32-3.08,6.32H220.48s7.74-7.34,10.3-10.53c4.6-5.26,21.6-27.45,21.6-27.45l-6.78-23.54H187.49s-33.15,43.5-34.4,44.85c-1.42,1.32-11,15.2-11.22,16.67H124.6v39.08H515.4V44.58Z"/><path class="cls-1" d="M231.16,289.28a44.56,44.56,0,0,1-.77-10.3l-.46-.19c-4.17,9-28.84,39-28.84,39h39S232.52,294.51,231.16,289.28Z"/><path class="cls-1" d="M381.22,289.28a41.16,41.16,0,0,1-.82-10.3l-.51-.19-28.85,39h39S382.42,294.51,381.22,289.28Z"/></svg>