<svg id="Layer_1" data-name="Layer 1" xmlns="http://www.w3.org/2000/svg" viewBox="0 0 640 480"><defs><style>.cls-1{fill:#fff;}</style></defs><path class="cls-1" d="M407.06,243.89a.57.57,0,0,0-.54-.36H393.57a.55.55,0,0,0-.51.36l-26,70.38a.62.62,0,0,0,.11.52.5.5,0,0,0,.44.25h11.79a.55.55,0,0,0,.51-.4l5.45-15.16h28.54l5.42,15.16a.58.58,0,0,0,.52.4h13a.56.56,0,0,0,.52-.77Zm-7.47,15a74.33,74.33,0,0,0,2.78,9l8,21.37H388.79l7.89-21A90.79,90.79,0,0,0,399.59,258.92Zm3.3,8.83Z"/><path class="cls-1" d="M466,262.08H452.53V243.14a.65.65,0,0,0-.22-.45.66.66,0,0,0-.47-.09l-11.39,3a.58.58,0,0,0-.41.53v15.92h-9.65a.5.5,0,0,0-.36.16.52.52,0,0,0-.18.4v8.64a.46.46,0,0,0,.18.4.48.48,0,0,0,.36.17H440v27.72c0,5.82.82,9.92,3.28,12.63s6.35,3.77,12.06,3.77a57.15,57.15,0,0,0,10.72-1.16.58.58,0,0,0,.47-.54v-9.2a.5.5,0,0,0-.22-.42.52.52,0,0,0-.45-.1,29.69,29.69,0,0,1-6.85.82c-2.66,0-4.14-.5-5.06-1.8s-1.35-3.64-1.35-7.44V271.85H466a.53.53,0,0,0,.38-.17.52.52,0,0,0,.17-.4v-8.64a.59.59,0,0,0-.17-.4A.57.57,0,0,0,466,262.08Z"/><path class="cls-1" d="M488.43,237.8H477a.56.56,0,0,0-.42.16.6.6,0,0,0-.16.39v76.12a.6.6,0,0,0,.16.39.67.67,0,0,0,.42.18h11.48a.64.64,0,0,0,.39-.18.48.48,0,0,0,.16-.39V238.35a.48.48,0,0,0-.16-.39A.47.47,0,0,0,488.43,237.8Z"/><path class="cls-1" d="M542,279.11c0-5.38-1.16-9.94-4.47-13.15s-8.68-4.91-16.92-4.91a55,55,0,0,0-19,3.48.51.51,0,0,0-.36.57l1.08,9.48a.55.55,0,0,0,.32.44.49.49,0,0,0,.54,0,32.53,32.53,0,0,1,15.61-4.08c4.1,0,6.72.82,8.32,2.33s2.23,3.75,2.27,6.92V283c-9.42.06-17.2,1.77-22.67,5s-8.8,8.18-8.8,14.32a13.06,13.06,0,0,0,4.25,10.12c2.7,2.4,6.59,3.69,11.25,3.69h0c7.53,0,13.71-3.57,16.94-8.7-.2,2.25-.24,4.69-.24,7.09a.48.48,0,0,0,.16.39.54.54,0,0,0,.4.18h11a.5.5,0,0,0,.37-.2.43.43,0,0,0,.18-.4c-.2-4.34-.3-9.69-.3-14.16Zm-12.59,12.46v.48a15.59,15.59,0,0,1-3.49,9.78,11.66,11.66,0,0,1-9,4.37,7.43,7.43,0,0,1-5-1.62,5.35,5.35,0,0,1-1.75-4.19c0-2.09.79-4.18,3.64-5.91S521.42,291.63,529.42,291.57Z"/><path class="cls-1" d="M584.9,289c-3.46-3.28-8.54-4.59-12.66-6.06a19.39,19.39,0,0,1-5.12-2.49,4.72,4.72,0,0,1-2-3.86,4.88,4.88,0,0,1,2.14-4.26c1.43-1,3.69-1.65,6.79-1.63a38.19,38.19,0,0,1,10.25,1.41.63.63,0,0,0,.47-.05.82.82,0,0,0,.21-.44l.31-9.07a.54.54,0,0,0-.44-.59,69.45,69.45,0,0,0-10.07-.93c-7.33,0-12.95,1.79-16.76,4.8a14.42,14.42,0,0,0-5.77,11.78c0,4.63,1.51,7.78,3.81,10,3.42,3.29,8.46,4.47,12.52,5.83a16.71,16.71,0,0,1,5.08,2.38,4.62,4.62,0,0,1,2,3.94,5.22,5.22,0,0,1-2.7,4.59,13.5,13.5,0,0,1-7.29,1.76,44.16,44.16,0,0,1-11.42-1.66.51.51,0,0,0-.48.09.7.7,0,0,0-.21.43l-.32,9.47a.53.53,0,0,0,.44.58A64.11,64.11,0,0,0,565,316.08c7.2,0,13.14-1.81,17.25-4.88a15.19,15.19,0,0,0,6.45-12.48C588.74,294.28,587.21,291.18,584.9,289Z"/><path class="cls-1" d="M48.16,281.84c-4.82-4.24-11.87-6.26-17.75-8.83s-10.35-5.58-10.35-11.73c0-7.48,5.56-12.41,16.23-12.44a43.43,43.43,0,0,1,12.59,2,.34.34,0,0,0,.31-.06.33.33,0,0,0,.16-.27l.41-6.26a.36.36,0,0,0-.32-.38,69.36,69.36,0,0,0-12.69-1.26c-7.54,0-13.62,2-17.79,5.52A17.72,17.72,0,0,0,12.5,262a15.44,15.44,0,0,0,5.36,12.25c4.8,4.21,11.86,6.24,17.75,8.81s10.32,5.7,10.32,12c0,5-2,8.41-5.13,10.6s-7.45,3.13-12.14,3.12a45,45,0,0,1-14.28-2.58.52.52,0,0,0-.33,0,.32.32,0,0,0-.15.29l-.44,6.69a.34.34,0,0,0,.26.37A51.39,51.39,0,0,0,28,315.36h0c7.84,0,14.21-2.15,18.64-5.89a19.5,19.5,0,0,0,6.89-15.33A15.47,15.47,0,0,0,48.16,281.84Z"/><path class="cls-1" d="M85.9,261.11a20.72,20.72,0,0,0-16.75,7.81c-4,4.89-6.05,11.68-6.05,19.47,0,9.2,2.05,15.94,6.15,20.4s10.11,6.57,17.87,6.57h0a45.66,45.66,0,0,0,16.92-3,.45.45,0,0,0,.27-.4l-.64-5.84a.41.41,0,0,0-.18-.28c-.14-.06-.25-.08-.34,0a36.21,36.21,0,0,1-14.89,3.28c-5.69,0-10-1.53-13-4.9s-4.52-8.64-4.52-16.2c0-.6,0-1.19,0-1.82h34.79a.36.36,0,0,0,.34-.32,19.81,19.81,0,0,0,.26-3.51c0-5.63-1.48-10.91-4.77-14.83S93,261.11,85.9,261.11Zm-.43,5.77c8.1,0,12.94,5.39,12.94,13.31v.14H71.33C72.87,272,78.06,266.88,85.47,266.88Z"/><path class="cls-1" d="M163.3,262H145.71a36.42,36.42,0,0,0-7.55-.86c-7,0-12.69,2.32-16.6,6a19.5,19.5,0,0,0-6.06,14.31c0,6.62,2.35,11.95,7.3,15.18a9.09,9.09,0,0,0-5.23,8.18,8.4,8.4,0,0,0,4.77,7.52c-4.8,2.73-8.74,7.51-8.74,14.07a13.45,13.45,0,0,0,6,11.57c3.82,2.65,9.29,4,15.84,4,7.85,0,14.65-2,19.47-5.43s7.8-8.26,7.8-13.81c0-4.53-1.57-8.25-4.59-10.83S150.62,308,144.92,308H134.29a17.25,17.25,0,0,1-7-1.09,3.33,3.33,0,0,1-2.15-3.25c0-1.76,1.06-3.48,3.69-4.59a35.7,35.7,0,0,0,7.6.89c7.58,0,13.31-2.16,17.17-5.77a19.18,19.18,0,0,0,5.74-14.21,16.19,16.19,0,0,0-4.74-12h8.75a.42.42,0,0,0,.26-.1.41.41,0,0,0,.08-.28v-5.21a.39.39,0,0,0-.08-.25A.37.37,0,0,0,163.3,262Zm-25.58,5c4.55,0,8.07,1.31,10.48,3.62s3.65,5.75,3.65,10.11-1.43,7.68-3.93,9.93-6.11,3.46-10.63,3.46-8.16-1.18-10.66-3.42-3.72-5.57-3.72-10C122.91,272.73,128.32,267,137.72,267Zm-16.79,58.25c0-4.37,3.06-8.2,7.75-10.68h14.49c4.14,0,7.16.85,9.15,2.39a7.82,7.82,0,0,1,3,6.62,10.21,10.21,0,0,1-4.89,8.73c-3.16,2.16-7.89,3.43-13.85,3.43-4.46,0-8.4-.92-11.2-2.67A8.91,8.91,0,0,1,120.93,325.21Z"/><path class="cls-1" d="M215.77,262H209.2a.43.43,0,0,0-.27.1.58.58,0,0,0-.09.25v24.84c0,6.45-1.69,12-4.6,16a14.45,14.45,0,0,1-11.72,6.29c-4,0-6.49-1.23-8.06-3.48s-2.13-5.64-2.13-9.94V262.32a.55.55,0,0,0-.07-.25.46.46,0,0,0-.28-.1h-6.57a.27.27,0,0,0-.24.1.26.26,0,0,0-.11.25V298.4c0,4.71.91,9,3.37,12.06s6.57,5,12.64,5h0c8.54,0,15-4.38,18.29-11.31a80.87,80.87,0,0,0-.6,10,.35.35,0,0,0,.09.29.58.58,0,0,0,.27.1h6.65a.58.58,0,0,0,.28-.1.5.5,0,0,0,.07-.29V262.32a.45.45,0,0,0-.07-.25A.39.39,0,0,0,215.77,262Z"/><path class="cls-1" d="M257.58,261.13a21.68,21.68,0,0,0-2.52-.15c-8.35,0-13.13,5.45-15.57,11.48a75.66,75.66,0,0,0,.77-10.14.32.32,0,0,0-.1-.25.45.45,0,0,0-.31-.1h-6.68a.4.4,0,0,0-.23.1.53.53,0,0,0-.12.25v51.82a.51.51,0,0,0,.12.29c.1,0,.16.1.23.1h6.62a1.2,1.2,0,0,0,.28-.1.5.5,0,0,0,.09-.29V293.51c0-8.24,1.18-14.65,3.55-19s5.87-6.54,10.68-6.55a16.23,16.23,0,0,1,2.74.25.66.66,0,0,0,.32-.1.35.35,0,0,0,.13-.27l.28-6.36A.31.31,0,0,0,257.58,261.13Z"/><path class="cls-1" d="M285.34,261.11c-7.9,0-14.08,3.16-18.27,8.16s-6.41,11.82-6.41,19.12c0,9.14,2.2,15.89,6.15,20.36s9.75,6.61,16.75,6.61h0a23,23,0,0,0,18.18-8.23c4.26-5.05,6.57-12,6.57-19.67,0-9.71-2.66-16.3-6.84-20.48S291.43,261.11,285.34,261.11Zm15.47,26.67c-.07,15.1-7.81,21.39-16.14,21.41-5.28,0-9.32-1.94-12.13-5.53s-4.28-9-4.27-15.79c0-14.34,8-20.67,16.33-20.69,5.38,0,9.42,1.94,12.09,5.45S300.81,281.33,300.81,287.78Z"/><path class="cls-1" d="M344.82,289.31c-3.84-3.06-9.4-4.07-14-5.56a16.18,16.18,0,0,1-5.77-2.89,6.53,6.53,0,0,1-2.28-5.28,7.32,7.32,0,0,1,2.89-6.19c2-1.46,4.94-2.31,8.91-2.31a38.43,38.43,0,0,1,10.87,1.76.38.38,0,0,0,.3,0,.34.34,0,0,0,.14-.3l.32-5.83a.37.37,0,0,0-.26-.37,50.68,50.68,0,0,0-10.42-1.18c-6.49,0-11.49,1.61-15,4.33a13.44,13.44,0,0,0-5.23,10.87c0,4.75,1.68,7.85,4.23,10,3.77,3.14,9.35,4.12,13.91,5.56a16.36,16.36,0,0,1,5.74,2.8,6.38,6.38,0,0,1,2.28,5.2,7.74,7.74,0,0,1-3.64,6.69,17.5,17.5,0,0,1-9.65,2.44,44.57,44.57,0,0,1-11.59-1.66c-.1,0-.17,0-.29.08a.3.3,0,0,0-.16.26l-.2,6.26a.34.34,0,0,0,.3.38,51.63,51.63,0,0,0,11.1,1.05c6.76,0,12.16-1.81,15.88-4.79a14.59,14.59,0,0,0,5.79-11.64C349.06,294.37,347.35,291.34,344.82,289.31Z"/><path class="cls-1" d="M619.35,201.17a91.16,91.16,0,0,1-13.51,8.11l-.42.2-17.18-21.77-16.82,21.67-.39-.18s-8.61-3.94-13.58-8.52L549.25,211c6.09,6.82,15.15,13.11,28.25,16.12l11-14,11.09,14.05a55.73,55.73,0,0,0,28-15.7Z"/><path class="cls-1" d="M588.41,157l31.73,39.35a37.71,37.71,0,1,0-63.06.16Z"/><path class="cls-1" d="M626.39,308.67A7.33,7.33,0,0,1,619,316a7.34,7.34,0,1,1,0-14.68A7.3,7.3,0,0,1,626.39,308.67Zm-13.14,0a5.71,5.71,0,0,0,5.74,5.85,5.59,5.59,0,0,0,5.53-5.81,5.64,5.64,0,1,0-11.27,0Zm4.5,3.8h-1.7v-7.32a18.12,18.12,0,0,1,2.81-.24,3.9,3.9,0,0,1,2.52.59,1.78,1.78,0,0,1,.75,1.55,1.87,1.87,0,0,1-1.52,1.74v.1c.73.24,1.08.8,1.32,1.79a5.76,5.76,0,0,0,.54,1.79h-1.82a7.34,7.34,0,0,1-.59-1.79c-.12-.74-.59-1.13-1.49-1.13h-.82Zm.07-4.12h.79c.92,0,1.69-.31,1.69-1.06s-.49-1.11-1.57-1.11a5.16,5.16,0,0,0-.91.08Z"/></svg>