<svg id="Layer_1" data-name="Layer 1" xmlns="http://www.w3.org/2000/svg" viewBox="0 0 640 480"><defs><style>.cls-1{fill:#fff;fill-rule:evenodd;}</style></defs><path class="cls-1" d="M324.25,31.61a112.78,112.78,0,0,0-89.58,181.07l93.7-123.16H308.26c-10.7,0-20.74.76-27.95,2.18a29.25,29.25,0,0,0-11.44,4.7c-3.8,2.6-8.48,8.16-11.44,13.59-.43.69-.94,1.66-1.61,3l-5.47-1.21,9.2-35.39H376.93L283.64,201c6-.49,8.48-.69,13.44-.69,3.73,0,9.54.26,17.15.75l16.55.94c6,.41,11.08.57,14.84.57,8.6,0,14.16-.66,19.68-2.33a44.88,44.88,0,0,0,12-5.84A55.56,55.56,0,0,0,394,175.34a34.73,34.73,0,0,0,1.69-3.33l5,1.31a77,77,0,0,1-5,14c-5,11.16-10.67,18.68-18.43,24.46a45.33,45.33,0,0,1-27.29,8.95h-1.57c-7.8,0-13.8-.63-32.27-3.43-18.94-2.94-28.5-3.89-38-3.89a111.25,111.25,0,0,0-18.38,1.45,57.66,57.66,0,0,0-18.57,5.59,112.7,112.7,0,1,0,83-188.87Z"/><path class="cls-1" d="M111.65,335.16H25.41L14.77,358.54a69.83,69.83,0,0,1,8-3.74,80.28,80.28,0,0,1,15.56-4.46,105.26,105.26,0,0,1,15.44-1.29c3.06-.07,5.81-.13,8.53-.13H75.11L8,444.82h94.88l10.91-25a66.32,66.32,0,0,1-8.07,4.19A71.15,71.15,0,0,1,88,429.42,106.25,106.25,0,0,1,70.75,431c-2.27.05-5.2.09-8.75.09H45.14l66.51-95.89Z"/><path class="cls-1" d="M396.9,444.82a13.7,13.7,0,0,1-3.47-3.85,17.51,17.51,0,0,1-1.64-3.34,28.78,28.78,0,0,1-1.54-9.66v-72.5c.1-7.33.24-9.38,1.21-12.34a16.46,16.46,0,0,1,1.59-3.42,15.31,15.31,0,0,1,4-4.55H362a21.31,21.31,0,0,1,4.09,4.32,14.9,14.9,0,0,1,1.64,3.58c.89,2.67,1.11,5.26,1.11,11.77q.07,5,.07,6.65v65.68a32.39,32.39,0,0,1-1.68,10.57,17.52,17.52,0,0,1-1.83,3.24,26.65,26.65,0,0,1-3.33,3.85Z"/><path class="cls-1" d="M507,336.13a46.67,46.67,0,0,0-6.67-1.76,88.6,88.6,0,0,0-19.24-1.95c-11.79,0-22.07,1.87-31.32,5.84a62,62,0,0,0-15.08,8.91C421.18,358,413.84,373.84,413.84,392c0,17.65,7.05,32.88,20,43.07,10.64,8.49,24.45,12.72,41,12.72a100,100,0,0,0,30.77-4.92c.38-.1,1-.32,1.8-.59V422.35c-2.67,1.79-3.56,2.36-5.13,3.28a59,59,0,0,1-6.77,3.32,47.45,47.45,0,0,1-19.08,4.1c-11.39,0-21.12-4.05-28.3-11.85s-11-18.29-11-30.34c0-11.52,3.59-22.19,9.9-29.63a36.39,36.39,0,0,1,9.93-8.12,43.1,43.1,0,0,1,21.27-5.25A51.89,51.89,0,0,1,498,351.8a34.8,34.8,0,0,1,9,5V336.13Z"/><path class="cls-1" d="M603.21,395.06v26.73a84.88,84.88,0,0,1-.45,11.2,21,21,0,0,1-1.23,4.71,18,18,0,0,1-3.88,5.74c-.41.31-.89.8-1.61,1.38h35.09a20.61,20.61,0,0,1-5-7c-1.06-2.58-1.3-4.51-1.45-9.92-.07-3.22-.07-5.11-.07-5.67l.07-60.36v-6.5a46.41,46.41,0,0,1,1.23-11.62,15.88,15.88,0,0,1,1.73-4,13.11,13.11,0,0,1,4.34-4.59H596.18a15.75,15.75,0,0,1,4.07,4.44,23.23,23.23,0,0,1,1.81,3.83c.89,2.59,1.15,5.78,1.15,11.49v26.66H554v-20c0-6,0-10,.31-13a20.77,20.77,0,0,1,.89-4.77,22.88,22.88,0,0,1,4.51-7.51c.28-.24.72-.66,1.22-1.14H525.82a30.11,30.11,0,0,1,3.64,4.2,14.51,14.51,0,0,1,1.83,3.7c.94,2.8,1.15,4.37,1.23,11.64l.09,6.94v60a91,91,0,0,1-.43,11.54,14.79,14.79,0,0,1-1.16,4.36,15.77,15.77,0,0,1-4.09,6.17c-.27.23-.73.61-1.25,1.07h34.66a24.77,24.77,0,0,1-2.92-3.62,20.11,20.11,0,0,1-1.71-3.41c-1.11-2.89-1.49-5-1.64-9.6,0-2.33,0-4.53,0-6.55V395.06Z"/><path class="cls-1" d="M126.61,335.16a14.22,14.22,0,0,1,4,4.42,18.07,18.07,0,0,1,1.56,3.84,24.56,24.56,0,0,1,.65,5c0,1.18.1,3.46.1,6.83V393c0,11.1.17,14.88.5,19.35a35.47,35.47,0,0,0,7.64,20.14,40.92,40.92,0,0,0,18.55,12.89,60.48,60.48,0,0,0,20,3.05c8.28,0,16.3-1.24,22.21-3.42a42,42,0,0,0,16.38-11c5.1-5.62,7.85-12.53,8.84-21.25a164.63,164.63,0,0,0,.77-19.62V361.58l-.08-6.18v-.93a43,43,0,0,1,1-10.84,13.72,13.72,0,0,1,4.89-7.53c.69-.51.94-.73,1.27-.94H202.39a13.52,13.52,0,0,1,2.41,4.75,20.58,20.58,0,0,1,.94,4.13,159.51,159.51,0,0,1,.67,18.23v34c0,9.44-.21,14.22-.89,18.59a20.43,20.43,0,0,1-16.35,17.41,31.83,31.83,0,0,1-7.71.92,29.69,29.69,0,0,1-14.91-3.6,18.94,18.94,0,0,1-6.6-5.71c-2.94-4.36-3.86-8.79-3.93-20.05l-.17-13.8V362.27c0-9.38.19-14.46.7-18.23a21.91,21.91,0,0,1,2.7-7.91,4.07,4.07,0,0,1,.65-1Z"/><path class="cls-1" d="M281.23,422.26v5.56c.1,5.06.46,7.67,1.45,10.11a15.41,15.41,0,0,0,1.9,3.31,23.64,23.64,0,0,0,3,3.58H252.73A28.2,28.2,0,0,0,256.4,441a17.51,17.51,0,0,0,1.87-3.47c.9-2.4,1.28-5.45,1.28-10.61v-72c0-5.83-.34-9.19-1.16-11.65a12.1,12.1,0,0,0-1.85-4,18.73,18.73,0,0,0-3.66-4.09h28.23c3.52,0,7,0,10.19.1,8.77.24,13.9.75,18.79,1.91A36.06,36.06,0,0,1,327.86,347a25.26,25.26,0,0,1,7.42,18,24.2,24.2,0,0,1-1.35,8.45A25.92,25.92,0,0,1,325.34,386a47.4,47.4,0,0,1-13.54,7.8,43.73,43.73,0,0,1-4.82,1.71l17,20c2.14,2.45,4.75,5.42,8.1,9,5.05,5.56,8.45,9.08,12.38,12.72,1.63,1.57,3.23,3,4.72,4.31s2.09,1.82,4,3.28H339.4c-2.12,0-4,0-5.71-.08-4.74-.14-7.73-.86-10.88-2.6a44.9,44.9,0,0,1-11.35-8.92c-1.18-1.29-3-3.27-5.32-5.93-2.12-2.37-3.67-4.14-4.63-5.31L281.23,397.6v24.66ZM283,388.4a42,42,0,0,0,5.76-.46c5.9-.85,9.85-2.17,13.77-4.48a23.08,23.08,0,0,0,5.16-4.12A18.36,18.36,0,0,0,311.89,367c0-5.74-1.9-10.34-5.61-13.5a19.32,19.32,0,0,0-7.47-3.93,53.58,53.58,0,0,0-14.76-1.85c-.89,0-1.45,0-2.82,0V388.4Z"/></svg>