<svg id="Layer_1" data-name="Layer 1" xmlns="http://www.w3.org/2000/svg" viewBox="0 0 640 480"><defs><style>.cls-1{fill:#fff;}</style></defs><path class="cls-1" d="M287.56,234.76c0-6.62,1.17-8.95-6.22-12.84h0l-5.09-2.5v-4.55H327v4.55l-5.18,2h0c-7.67,3.13-7.67,4-7.48,13.3h0l.09,37.45L312.47,274h0c-8.79,2.28-29.49,7.94-48.1,7.94-42.72,0-63.8-22.19-63.8-70.08,0-51.53,29.74-73.84,68.78-73.84,10.52,0,29.5,0,42.72,11.21a12.11,12.11,0,0,1,4.83,9.5,8.62,8.62,0,0,1-1.23,5h0l-9.5,18.38h-3.55c0-9.09-10.58-33.29-38-33.29-31.83,0-33.4,22.25-33.4,59.81,0,32.9,3.44,62.48,41.47,62.48,12.26,0,14.53-6.49,14.9-13.79V234.76Z"/><path class="cls-1" d="M339.63,274.67l9.11-3.71h0c7.43-2.84,7.43-8.28,7.43-20.25h0V164.37h0c0-6.63-1.88-9.93-7-13.44h0l-8.26-5.58v-4.53H378.5l2.22,1.4h0c4.19,5.56,12.79,20.54,24.41,36.15h0L445,232.71h0c1.65,2.29,2.51,3.29,3.24,3.29,1.65,0,1.65-2.06,1.65-5.8h0V164.54h0c0-9.47-.13-11.36-8.2-14.63h0L430,145.35v-4.53h47.31v4.53l-6,2.27h0c-8.8,3.56-10.63,5.56-10.63,19.19h0v81.44h0c0,12.42.31,25,.31,29.31h0l-1.43,1.65H448l-2.34-1.65h0c-1.83-2.27-12.61-17.36-23.54-32h0l-48.37-64.64h0c-2.67-3.54-3.83-5.45-5-5.45-1.85,0-1.85,2.14-1.85,5h0v73.92h0c0,9.91,0,13.06,8.68,16h0l12.22,4.3v4.54H339.63v-4.54Z"/><path class="cls-1" d="M489.43,274.67l9.06-3.05h0c6.76-2.27,7-6,7-19h0V163.28h0c0-9.84,0-12.35-7-14.66h0l-9.06-3.27v-4.53H557.9c23.94,0,47.44,5.18,47.44,36.55,0,28.74-21.47,46.47-54.92,46.47-1.5,0-3.32-.23-4.58-.23h0l-3.09-7.41,1.7-1.67h0c15-.36,33.24-6.54,30.66-35.58C573,156.3,566.52,152.11,548,152.11c-12.59,0-13.47,1.86-13.47,7.06h0V252.6h0c0,13.86-.23,16.75,8.09,19h0l10.69,3.05v4.54H489.43v-4.54Z"/><polygon class="cls-1" points="635.91 300.66 200.57 300.66 200.57 297.75 635.91 297.75 635.91 300.66 635.91 300.66"/><path class="cls-1" d="M115.57,209.29a23.14,23.14,0,1,1-23.19-23.07,23.07,23.07,0,0,1,23.19,23.07Z"/><path class="cls-1" d="M54,170.71H4l10.1,30.92H39v-.07h0a45.72,45.72,0,0,0,45.7-45.71h0V131L54,120.94v49.77Z"/><path class="cls-1" d="M53.82,247.77v49.91l30.89-10V262.78h0A45.85,45.85,0,0,0,38.94,217H14.1L4,247.77Z"/><path class="cls-1" d="M131,247.9h49.86L170.68,217H145.84a45.79,45.79,0,0,0-45.66,45.76h0v24.78L131,297.68V247.9Z"/><path class="cls-1" d="M131,170.86V121l-30.84,10v24.93h0a45.79,45.79,0,0,0,45.68,45.71h24.82l10.14-30.77Z"/><path class="cls-1" d="M624.52,143.09c4.73,0,8.68,3.83,8.68,9.32s-4,9.3-8.68,9.3v2.22a11.56,11.56,0,0,0,0-23.11v2.27Zm0,11v-2.73h0c1.48,0,2.67-.19,2.67-2,0-1.54-1.35-1.8-2.65-1.8h-.06v-1.88h.35c3.2,0,4.92,1.13,4.92,3.86,0,2.26-1.37,3.32-3.51,3.51h0l3.59,5.79h-2.58Zm0,7.61c-4.88,0-8.76-3.93-8.76-9.3s3.88-9.32,8.76-9.32h0v-2.27h0a11.56,11.56,0,1,0,0,23.11h0v-2.22Zm0-16v1.88h-2.08v3.75h2.08v2.73l-.6-.83h-1.48v5.63h-2.35V145.74Z"/><path class="cls-1" d="M211,359.06a18.3,18.3,0,0,1-9-2c-1-1.2-1.72-5-1.72-8.63a1.31,1.31,0,0,1,2-.17c1.17,3.5,4.7,8.4,9.2,8.4,3.9,0,5.68-2.71,5.68-5.39,0-4.3-4-6.9-7.14-8.5-3.88-1.94-8-5.08-8-10.32-.11-6,4.6-10.15,12.32-10.15a21.7,21.7,0,0,1,6,.78,8.82,8.82,0,0,0,1.85.47,26.21,26.21,0,0,1,1,7.58,1.43,1.43,0,0,1-2.08.18c-.92-2.71-3.17-6.56-7-6.56-3.55,0-5.48,2.25-5.48,4.93,0,2.46,2.2,4.67,4.84,6.06l3.51,1.84c3.33,1.75,7.56,4.84,7.56,10.68C224.49,354.83,219.07,359.06,211,359.06Z"/><path class="cls-1" d="M267.87,336.94c0,1.51,0,1.58,1.48,1.58H273c2.76,0,3.4-.37,4-2.9l.29-1.32a1.51,1.51,0,0,1,1.91.05c-.11,1.72-.17,3.63-.17,5.64s.06,3.95.17,5.62c-.28.5-1.63.56-1.91,0l-.29-1.29c-.55-2.57-1.19-3-4-3h-3.68c-1.45,0-1.48,0-1.48,1.63v6.34c0,2.46.25,4.16.82,5.05.73,1,1.76,1.4,5.6,1.4,4.61,0,6.42-.22,9.39-6.18a1.24,1.24,0,0,1,1.94.28,31.71,31.71,0,0,1-2.2,8.49c-2.91-.1-7.89-.16-12.3-.16h-6.9c-2.6,0-5.19.06-9.15.16a1.45,1.45,0,0,1,0-1.84l2.47-.42c2.38-.33,2.73-.66,2.73-5.57V330.77c0-4.85-.35-5.21-2.73-5.67l-1.28-.26a1.31,1.31,0,0,1,.06-1.88c2.47.07,5.12.12,7.65.12h11.29c3.37,0,6.46-.05,7.1-.12,0,.85.46,4.68.7,8.24-.19.56-1.38.69-1.91.22a11.72,11.72,0,0,0-2.08-4.17c-1-1.06-2.57-1.69-5.2-1.69h-4.25c-1.75,0-1.75.11-1.75,2.08Z"/><path class="cls-1" d="M349.2,352.22c0,2.24.09,3.29,1.08,3.47.24.22.2,1.16-.16,1.32a20.14,20.14,0,0,0-3.74.8,41.68,41.68,0,0,1-9.35,1.25,26.27,26.27,0,0,1-10.49-1.84c-6.26-2.5-10.5-8.42-10.5-16.07a17.57,17.57,0,0,1,9.39-16,25.22,25.22,0,0,1,12.41-2.8c5.89,0,8.8,1.25,10.5,1.25.18,1.59.26,5.31.77,8.59-.2.54-1.65.61-2,.08-1.69-5-5-7.47-10-7.47-8.47,0-12.5,7-12.5,15.39,0,7.59,2.6,12.08,6,14.49a13.27,13.27,0,0,0,7.3,2c3.09,0,3.66-.62,3.66-4.1v-3.33c0-2.87-.31-3.21-2.87-3.58l-2.31-.31a1.14,1.14,0,0,1,0-1.86c3.77.13,6.37.18,8.95.18s5.2-.05,7-.18a1.47,1.47,0,0,1,0,1.86l-1.19.22c-1.64.27-1.9.8-1.9,3.67Z"/><path class="cls-1" d="M387,330.77c0-4.94-.35-5.23-2.77-5.71l-1.33-.28a1.22,1.22,0,0,1,.18-1.82c2.51.07,5.16.12,7.72.12s5.22-.05,7.75-.12a1.75,1.75,0,0,1,0,1.82l-1.3.2c-2.38.44-2.71.85-2.71,5.79v12.3c0,6.21.66,13.05,8.78,13.05,6.83,0,8.86-5.93,8.86-13.2v-6.45c0-4.29-.2-8.36-.79-9.72-.49-1.13-1.64-1.44-3.05-1.69l-1.45-.28a1.61,1.61,0,0,1,0-1.82c2.86.07,5,.12,7.1.12,2,0,4-.05,6-.12a1.61,1.61,0,0,1,0,1.82l-1,.2c-1.36.33-2.36.64-2.84,1.77-.62,1.36-.82,5.43-.82,9.72v5.95c0,5-.5,9.62-3.41,12.83-2.32,2.51-6.24,3.81-10.56,3.81-4,0-7.61-.64-10.5-2.95-2.73-2.31-3.88-6.22-3.88-12Z"/><path class="cls-1" d="M454.77,331.73c0-5.29-.11-5.9-2.36-6.19l-1.47-.23a1.25,1.25,0,0,1,.08-1.85c4.06-.25,8.18-.5,13.23-.5,4.52,0,8.44.69,10.41,1.9a8.79,8.79,0,0,1,4.71,7.89c0,4.7-3.22,6.77-5.62,7.95-.53.31-.53.62-.28,1.18,3.5,7.12,5.66,11.12,8.26,13.3a5.93,5.93,0,0,0,3.53,1.49,1.07,1.07,0,0,1,.24,1.4,14,14,0,0,1-4.25.46c-4.9,0-8-1.73-10.32-5.56a79.44,79.44,0,0,1-4.17-8.22,2.57,2.57,0,0,0-2.75-1.89c-1.85,0-2,.09-2,1.18v6.51c0,4.91.33,5.3,2.69,5.7l1.5.29a1.63,1.63,0,0,1,0,1.84c-2.82-.1-5.27-.16-7.83-.16s-5.07.06-7.75.16a1.56,1.56,0,0,1,0-1.84l1.41-.29c2.38-.4,2.75-.79,2.75-5.7ZM462,338.5c0,1.84.22,2,3.31,2a5.16,5.16,0,0,0,4.05-1.48,8.13,8.13,0,0,0,1.94-5.77c0-4.78-2.82-7.85-7-7.85-2.13,0-2.29.14-2.29,2.69Z"/><path class="cls-1" d="M550.33,340.52c0,11.58-7.75,18.54-19.13,18.54-10.74,0-18.47-7-18.47-18.12,0-10.54,7.85-18.64,19-18.64S550.33,329.73,550.33,340.52Zm-19.11-15.77c-6.5,0-10,6.1-10,15,0,6.51,2.25,17,10.94,17,7,0,9.68-6.84,9.68-15.46C541.83,332.14,537.86,324.75,531.22,324.75Z"/><path class="cls-1" d="M592.66,359.06a18.74,18.74,0,0,1-9.13-2c-1-1.2-1.63-5-1.63-8.63a1.28,1.28,0,0,1,2-.17c1.1,3.5,4.73,8.4,9.19,8.4,3.92,0,5.73-2.71,5.73-5.39,0-4.3-4-6.9-7.17-8.5-3.92-1.94-8.09-5.08-8.09-10.32-.08-6,4.61-10.15,12.31-10.15a22.67,22.67,0,0,1,6.12.78,8.18,8.18,0,0,0,1.79.47,28.39,28.39,0,0,1,.93,7.58,1.4,1.4,0,0,1-2.06.18c-.88-2.71-3.17-6.56-7-6.56-3.46,0-5.36,2.25-5.36,4.93,0,2.46,2.21,4.67,4.81,6.06l3.57,1.84c3.24,1.75,7.43,4.84,7.43,10.68C606,354.83,600.66,359.06,592.66,359.06Z"/></svg>