<svg id="Layer_1" data-name="Layer 1" xmlns="http://www.w3.org/2000/svg" viewBox="0 0 384 288"><defs><style>.cls-1{fill:#fefefe;}.cls-2{fill:#e5f6fe;}.cls-3{fill:#55bbe6;}.cls-4{fill:#03d3c8;}.cls-5{fill:#224781;}.cls-6{fill:#f8b03d;}.cls-7{fill:#86daed;}.cls-8{fill:#febeaa;}.cls-9{fill:#febda9;}.cls-10{fill:#fcfcfc;}.cls-11{fill:#0c208e;}.cls-12{fill:#02d3c8;}.cls-13{fill:#e6f6fe;}.cls-14{fill:#80a6d5;}.cls-15{fill:#fefdfd;}.cls-16{fill:#e4f5fe;}.cls-17{fill:#e5f5fe;}.cls-18{fill:#213245;}.cls-19{fill:#d9edf2;}.cls-20{fill:#91cfdd;}.cls-21{fill:#8cb9d5;}.cls-22{fill:#43d6d3;}.cls-23{fill:#f9f9fb;}.cls-24{fill:#6073b8;}.cls-25{fill:#58bae5;}.cls-26{fill:#5cbee7;}</style></defs><path class="cls-1" d="M192.2,291.35q-95.17,0-190.33,0c-.92,0-1.13-.21-1.13-1.13Q.77,144,.74-2.24c0-.92.21-1.13,1.13-1.13q190.44,0,380.9,0c.92,0,1.13.21,1.13,1.13q0,146.23,0,292.48c0,.92-.21,1.13-1.13,1.13Q287.49,291.32,192.2,291.35Z"/><path class="cls-2" d="M86.47,262.37c.35-2.41.69-4.82,1.06-7.23q.81-5.41,1.65-10.82c.52-3.33,1.08-6.65,1.6-10,.54-3.52,1-7.06,1.59-10.58.6-3.89,1.15-7.79,1.85-11.66a4.14,4.14,0,0,0-.44-2.58c-2.25-5.16-4.55-10.3-6.83-15.45-2.64-6-5.26-12-7.91-18-2.29-5.19-4.61-10.36-6.9-15.55S67.59,150.14,65.31,145c-1-2.39-2.12-4.77-3.18-7.15-.6-1.35-.56-1.41.89-1.41h49c.51,0,1.08.21,1.51-.26.62.16.46.58.34,1a2.41,2.41,0,0,1-1.57.59c-2.38.37-4.77.73-7.14,1.17a11.82,11.82,0,0,0-9.83,8.68C92.77,156,90.48,164.53,88,173a11.08,11.08,0,0,0,.56,7.89,2.71,2.71,0,0,1,.33,1.17,2.16,2.16,0,0,0,.59,1.68,11.09,11.09,0,0,0,6.91,3.88l.24,0c2.41.4,2.41.42,2.44,2.89a63.16,63.16,0,0,0,.09,6.74c.73,6.35,4.52,10.49,9.87,13.49a26.67,26.67,0,0,0,12.86,3.1c3.4.06,6.78.15,10,1.34a45.09,45.09,0,0,1,5.24,2.4,2.14,2.14,0,0,1,1.28,2.47c-.74,5.43-1.44,10.87-2.18,16.29l-.12,1c-.09.69.11,1.1.9,1.1a1.18,1.18,0,0,1,1.18.49,9.2,9.2,0,0,1,.17,3,53.28,53.28,0,0,1-.2,7.58,2.92,2.92,0,0,1-.34,1.29c-1.83.53-2,1.87-1.92,3.52s0,3.35,0,5c0,2.44-.15,2.59-2.55,2.59H94.78a7.61,7.61,0,0,0-2.88.43A39.37,39.37,0,0,1,86.47,262.37Z"/><path class="cls-3" d="M322.5,157c-1,3.67-2,7.34-3,11q-4.51,17-9,33.94c-1,3.76-2.1,7.49-2.85,11.3a2.12,2.12,0,0,1-1.63.39H268.82a4,4,0,0,1-1.33-.15c-.71-.37-.47-1-.33-1.5q2.85-10.94,5.75-21.85,2.79-10.56,5.56-21.13c1-3.68,2-7.35,2.9-11,.14-.54.18-1.17.84-1.4.61,0,1.22.07,1.84.07q18.6,0,37.2,0C321.66,156.67,322.25,156.3,322.5,157Z"/><path class="cls-2" d="M201.89,39.38c2.29.82,4.65,1.43,6.89,2.42a67.5,67.5,0,0,1,13.54,8A89.37,89.37,0,0,1,232.46,59c.68.7,1.3,1.46,2,2.18.21.24.34.43.07.73s-.53.73-.83,1.05A81.52,81.52,0,0,1,215,78.34a46.91,46.91,0,0,1-12.47,5.25,1,1,0,0,0-.17.1l.28.17c-.32.79-1,.54-1.57.51a42.65,42.65,0,0,1-13.4-2.63,63.38,63.38,0,0,1-15.11-8.52c-.17-.12-.31-.26-.49-.37s-.62-.26-.85.08,0,.55.21.74c.77.61,1.55,1.21,2.35,1.77A56.56,56.56,0,0,0,191.2,84c.51.14,1.18.09,1.42.77l-2.26,0c-.37-.3-.86,0-1.23-.25A34.08,34.08,0,0,1,178,81.66a62.48,62.48,0,0,1-15.89-9.76,84.87,84.87,0,0,1-6.7-6c-1.17-1.18-2.18-2.53-3.32-3.75-.42-.45-.3-.68.05-1.08a84.21,84.21,0,0,1,9.6-9.38,65.68,65.68,0,0,1,13.57-8.88,40.87,40.87,0,0,1,14.36-4.15c.37-.28.86.06,1.23-.24l2,0c-.2.65-.82.61-1.3.74a52.22,52.22,0,0,0-9.5,3.62,5.51,5.51,0,0,0-.76.4c-.21.14-.4.32-.28.6a.56.56,0,0,0,.71.33,3.25,3.25,0,0,0,.9-.38,43,43,0,0,1,14.57-4.55A9.33,9.33,0,0,1,201.89,39.38Z"/><path class="cls-4" d="M88.78,182a12.21,12.21,0,0,1-.87-9.93c2.38-8,4.62-16,6.87-24,1.6-5.64,5.31-8.82,11.06-9.72,2.62-.4,5.24-.83,7.86-1.24,1.55.73,2.32,2.24,3.4,3.44,2.93,3.23,5.75,6.57,8.77,10-.62-3.78-1.24-7.39-1.8-11-.08-.52-.66-1.24.22-1.68l.69,0c.4.24.87,0,1.27.19l.69.05c.56.28,1.2-.05,1.77.21l.68,0c.73.28,1.52-.06,2.26.2,2.19.39,4.41.59,6.44,1.65a11,11,0,0,1,5.88,8.45c.19,3,0,6,.09,8.93-.43.69-1.15.5-1.77.5-4.57,0-9.14,0-13.71,0-1.68,0-1.71,0-2.24,1.64-1.48,4.45-3,8.9-4.39,13.38a4.17,4.17,0,0,1-.69,1.55,1.38,1.38,0,0,1-1.29.14c-4.15-.9-8.31-1.76-12.46-2.69-2-.45-2.11-.62-1.47-2.55.45-1.35.87-2.72,1.41-4.05a5.53,5.53,0,0,0,.28-.81c.08-.38.35-.88-.16-1.08s-.66.35-.79.72c-.32.92-.7,1.83-1,2.76-.41,1.2-.8,2.4-1.27,3.58-.6,1.49-.47,1.77,1.09,2.09,3.52.72,7,1.54,10.55,2.26,1.08.23,2.15.5,3.23.71.43.09.91.12,1.16.59a1.74,1.74,0,0,1-.08,1.19c-1.12,3.47-2.38,6.9-3.4,10.4a1.17,1.17,0,0,1-.37.62,1.92,1.92,0,0,1-1.31.18c-5.3-.66-10.63-1-15.93-1.68A16,16,0,0,1,93,185.34a9.38,9.38,0,0,1-2.4-1.88A6.32,6.32,0,0,0,88.78,182Z"/><path class="cls-5" d="M267.21,213.25c4.37,0,8.75,0,13.13,0q13.68,0,27.36,0a9.88,9.88,0,0,0,1.22,0c2-.16,3.49.46,4.27,2.41a3.53,3.53,0,0,1,0,1.71,4.21,4.21,0,0,1-2.48,2.24,56.7,56.7,0,0,1-5.83.08c-.72,0-1.13.15-.83,1,.29,2.82,1.07,5.54,1.62,8.3,1.14,5.73,2.37,11.44,3.57,17.16q1.51,7.26,3,14.53c0,.07.1.13.14.2.14.75.74.61,1.25.61H327.8c.43,0,.9-.17,1.29.16.68.67.55,1.22-.23,1.69a3.15,3.15,0,0,1-1.33.09q-116.79,0-233.58,0a3.2,3.2,0,0,1-1.34-.09c-.49,0-.7-.31-.77-.76-.07-.05-.09-.1-.07-.16s0-.08.07-.08c.27-.82,1-.75,1.62-.75H120.1c4.7,0,9.41-.05,14.12,0,1.24,0,1.47-.36,1.43-1.49-.09-2.45,0-4.91-.06-7.37-.05-1.15.26-1.76,1.43-1.86a3.47,3.47,0,0,0,.81-.26,2.51,2.51,0,0,1,1.52-.71,1.71,1.71,0,0,0,1.43-1.46c.14-.67.35-1.34.5-2a1.66,1.66,0,0,1,1.83-1.42c1.59,0,3.17,0,4.76,0a1.72,1.72,0,0,1,1.89,1.36,16.11,16.11,0,0,0,.6,1.73,3.85,3.85,0,0,0,1.44,2.33,2.82,2.82,0,0,1,1.11,2.46q0,3.42,0,6.84c0,1.35.12,1.47,1.47,1.47,3.26,0,6.52,0,9.78,0,1.17,0,1.3-.19,1.12-1.39-.31-3.64-.86-7.25-1.06-10.91,0-.94.62-1.09,1.42-1,2,.24,4,.56,6,.84a1.72,1.72,0,0,0,2.06-1.06,3.3,3.3,0,0,0,.18-.32,3.42,3.42,0,0,1,4.2-2.37c3.31-.05,3.28-.05,3.27,3.27,0,1-.55,2.13.35,3.05,1.58,1.35,3.25,2.6,4.95,3.8a9.28,9.28,0,0,1,3.34,4.1c.31.72.52,1.58,1.39,1.93,2,.14,3.92,0,5.88,0,6,0,11.92,0,17.87,0s11.64,0,17.46,0a12.06,12.06,0,0,1,1.59,0c6.69,0,13.38,0,20.08,0,1.94,0,2-.1,2.22-2.05.37-3.65.81-7.3,1.26-10.94.14-1.57.37-3.13.59-4.69a4,4,0,0,0,.16-1.46c.35-4,.87-7.92,1.32-11.88.08-.64.11-1.3.24-1.93.28-2.44.53-4.88.83-7.31.08-.68-.24-1-.91-1s-1.15,0-1.72,0c-1.58,0-3.17.09-4.75-.08-2-.68-3-2.12-2.81-3.88a3.85,3.85,0,0,1,3.86-3.13c3.63-.09,7.26,0,10.9,0A2.38,2.38,0,0,1,267.21,213.25Z"/><path class="cls-6" d="M121,174.72c1.75-5.31,3.53-10.61,5.25-15.93a1.32,1.32,0,0,1,1.53-1.09c5.39,0,10.79,0,16.19,0,7.95-.08,15.89,0,23.84,0,.39,0,.91-.11.73.59-1.41,3.5-2.38,7.15-3.58,10.72-2.17,6.5-4.3,13-6.44,19.52a2.52,2.52,0,0,0-.06.48.31.31,0,0,1-.17.4,3.82,3.82,0,0,1-1.8.23q-16.14,0-32.27,0c-2.17,0-4.32-.38-6.47-.57a1.51,1.51,0,0,1-1.18-.58c1.2-3.7,2.41-7.41,3.6-11.11.1-.31.17-.63.25-.94A2,2,0,0,1,121,174.72Z"/><path class="cls-7" d="M249.54,167.08c-.53-.46-1.24-.35-1.84-.45-.86-.15-.92-.6-.74-1.18.86-2.66,1.73-5.3,2.65-7.94.67-1.91.94-3.94,1.88-5.79a10.17,10.17,0,0,1,4.3-4.29c3-1.72,6.4-2.52,9.64-3.67.68-.25,1-.15.7.57s.05.72.55.72q8,0,16.07,0c.62,0,.76-.29.75-.82s0-.86.66-.59c3.27,1.29,6.78,1.9,9.89,3.68a20.64,20.64,0,0,1,7.35,7.5c-.22.65-.77.33-1.14.33-5.93,0-11.85,0-17.78,0a8.29,8.29,0,0,0-1.22,0,11.12,11.12,0,0,0-1.15,3.58c-3.09,11.87-6.29,23.7-9.36,35.57a3.59,3.59,0,0,1-.9,2.1,22,22,0,0,1-4.86-.34c-2.1-.2-4.21-.46-6.31-.68a2.15,2.15,0,0,1-1.35-.51,2.94,2.94,0,0,1-.29-1.68,3.87,3.87,0,0,1,1.65-3.8,5.75,5.75,0,0,0,2-3.72c.82-4.62,1.68-9.24,2.48-13.87.25-1.42.18-1.5-1.21-1.82-3.7-.86-7.41-1.67-11.11-2.51A3.56,3.56,0,0,1,249.54,167.08Z"/><path class="cls-3" d="M162.82,142.29c1.36-4.17,2.71-8.35,4.09-12.52,1-3,2.05-6.05,3.07-9.07a4,4,0,0,1,.45-1.25c.67-2.1,1.37-4.19,2-6.3.21-.69.75-.51,1.2-.52H186c8.13,0,16.27,0,24.4,0,1.12,0,1.24.23.88,1.27-1.21,3.44-2.31,6.91-3.51,10.54H224c-.07.61-.59.45-.94.49a9.45,9.45,0,0,0-8.31,9.23,9.64,9.64,0,0,0,7.71,9.79c.33.06.78,0,.84.52-2.24.13-2.24.13-2.24,2.41q0,14.25,0,28.51a.22.22,0,0,1-.37-.07,4.45,4.45,0,0,1-.22-2q0-12.88,0-25.77c0-.37,0-.74,0-1.1,0-1.36-.14-1.49-1.48-1.49-2.78,0-5.56,0-8.34,0a27,27,0,0,1-5.75-.29,10.38,10.38,0,0,1-7.07-14.78,4.5,4.5,0,0,1,.23-.43c.39-.64.3-1-.53-1-.45,0-.9,0-1.35,0H175.27c-1.64,0-1.72.08-1.72,1.74,0,7,0,14.07,0,21.11a4.1,4.1,0,0,1-.22,1.93.24.24,0,0,1-.38.09c0-3.43.13-6.85-.05-10.27a34.62,34.62,0,0,0-5.09-.12c-1.42,0-2.85,0-4.27,0C163.15,142.88,162.63,143,162.82,142.29Z"/><path class="cls-8" d="M220.82,175.34a.46.46,0,0,0,.2,0,1.53,1.53,0,0,0,1.25.32.81.81,0,0,0,.85,0c.1,0-.07-.17-.11-.27a14.41,14.41,0,0,1-1.07-1,1.35,1.35,0,0,1,0-2,1.32,1.32,0,0,1,1.95-.21c.86.61,1.65,1.31,2.48,2a2.91,2.91,0,0,1,1.08,2.22c.12,1.71.13,1.71,1.85,1.68l1.35,0c1.22-.3,2.48.11,3.7-.22l2.19,0c1.3-.3,2.64.11,3.94-.22l2.45,0c1.14-.29,2.32.11,3.45-.21.73-.07,1.51.23,2.2-.23.28-.47,0-1,.21-1.49l0-1.22c.29-.46,0-1,.21-1.48l0-1.22c.3-.55-.05-1.18.21-1.73l0-1.21c.28-.47,0-1,.21-1.49l0-.26c2,0,3.87.74,5.8,1.1,2.47.48,4.92,1.09,7.38,1.64.69.15,1.09.29.9,1.27-.94,4.86-1.71,9.76-2.6,14.64a6.69,6.69,0,0,1-3,4.72c-1.12.71-.41,1.8-.68,2.68-.08,0-.21,0-.22-.06-.24-1.53-1.29-1.2-2.34-1.12-2.18.19-4.24-.65-6.38-.84-3.24-.66-6.44-1.56-9.78-1.55h-10.8a3.25,3.25,0,0,1-1.79-.26.31.31,0,0,1-.11-.39,1.54,1.54,0,0,1,1.15-.32c3.26,0,6.52-.15,9.78.11a2.82,2.82,0,0,1,.75.08c-3.83-.26-7.7-1.75-11.81-1.45a103,103,0,0,1-11.09-1.19,4.21,4.21,0,0,1-3.25-2.72,12.45,12.45,0,0,1-.24-8.3,1.91,1.91,0,0,1,2-1.65A26.42,26.42,0,0,1,220.82,175.34Z"/><path class="cls-6" d="M206.75,105.92a42.77,42.77,0,0,0-1.66,4.94,3,3,0,0,1-1.33.1H173a3,3,0,0,0-1.33.1,40.89,40.89,0,0,0-2.23,6.26c-2.13,6.33-4.22,12.67-6.32,19a30.14,30.14,0,0,1-6.37.08,34.42,34.42,0,0,1,1.53-5.07q2.31-7,4.66-14.06c1.29-3.85,2.6-7.69,3.9-11.53.18-.53.63-.42,1-.42q19.1,0,38.2,0C206.39,105.33,207,105.11,206.75,105.92Z"/><path class="cls-5" d="M223.25,144.44A10.17,10.17,0,0,1,216,140c-4.28-6.57.17-15,7.39-15.44a2.89,2.89,0,0,0,.58-.14c3.6,0,7.2.11,10.79,0,6.58-.25,11.42,4.13,11.34,10.94-.24.41,0,.9-.21,1.3a11.29,11.29,0,0,1-4.29,6.12,9.59,9.59,0,0,1-5.37,1.69C231.89,144.5,227.57,144.45,223.25,144.44Z"/><path class="cls-5" d="M261.55,119.94c.68-2.63,2.68-3.83,5-4.62.69-.23,1.4-.37,2.11-.56.49-.25,1.06,0,1.56-.2l1.14,0a2.38,2.38,0,0,1,1.47,0l1.61,0c.67.25,1.39,0,2.07.19,1.47.39,3.05.38,4.3,1.48,1.7,1.49,2.14,3.47,2.3,5.57.07.81,0,1.63,0,2.44-.21.43,0,.91-.19,1.34a28,28,0,0,0-.68,2.77,9.26,9.26,0,0,1-1.85,3.15,2.16,2.16,0,0,1-1.87,1.18,7.16,7.16,0,0,1-4.63-.71,1.88,1.88,0,0,1-1.14-1.85,4.66,4.66,0,0,0-.37-2.15,2,2,0,0,0-3.29-.66c-.57.53-1.07.72-1.71.25a31.67,31.67,0,0,1-3.89-2.93,2.37,2.37,0,0,0-.25-.29c-.68-.83-1.64-1.49-1.74-2.69A3.42,3.42,0,0,1,261.55,119.94Z"/><path class="cls-9" d="M124.29,137.84c-.16,1.68.4,3.27.64,4.9.41,2.82.91,5.63,1.17,8.57l-12.4-14.18c0-.35.1-.72-.2-1l0-1c-.28-.55.08-1.18-.22-1.73a1.14,1.14,0,0,0-.44-1,2.61,2.61,0,0,1-.58-1.89,3.34,3.34,0,0,1,0-1.69l0-.26a2.54,2.54,0,0,1,3-2c.8.11,1.25,0,1.34-.87s.6-1.1,1.39-1a32.74,32.74,0,0,0,9.62-.61,1.09,1.09,0,0,1,1,.09c.38,2.24.72,4.48,1.15,6.71a4.78,4.78,0,0,1-4,5.56,10.28,10.28,0,0,0-1.07.24c-.39.22-.68.5-.5,1A1.48,1.48,0,0,1,124.29,137.84Z"/><path class="cls-5" d="M128.69,124.12A30.31,30.31,0,0,1,118,125c-.9-.08-1.06.19-1.08.92a2.41,2.41,0,0,1-.32,1.41c-2.2-.89-3-.65-4.35,1.23a17.38,17.38,0,0,1-3.21-7.86,5,5,0,0,1,0-2.21c.19-2.44,1.87-3.39,4-3.94.39-.26.88,0,1.28-.22h3.29a2.15,2.15,0,0,0,1.5,0,10.14,10.14,0,0,1,4-3.86c2.56-1.16,4.55-.26,5.44,2.4.24.81-.09,1.67.2,2.48,1.34,1.54,1.35,1.55.14,3.34-.39.59.13.66.42.88,1.17.91,1.62,2.09,1.11,3.13A3.36,3.36,0,0,1,128.69,124.12Z"/><path class="cls-8" d="M263.51,124.57c1.36.28,3,2,4.21,2.82.41.3.62.39,1-.13a2.28,2.28,0,0,1,4.07.67,3.84,3.84,0,0,1,.29,2c-.18,1,.37,1.44,1.18,1.8,2.11.94,4.16,1.12,6.15-.28,0,1.29.64,8.65-.62,8.67l-9.8.09a.93.93,0,0,1-.87-.3c-.28-.46.3-1.23-.15-1.54a.77.77,0,0,0-.5-.07c-1,.1-2.33.33-3.18-.3-1.07-.78-.87-2.63-1-3.81C264,131.17,263.2,127.63,263.51,124.57Z"/><path class="cls-3" d="M201.89,39.38c-6.15-.3-11.88,1.35-17.42,3.82a20.8,20.8,0,0,0-2.41,1.2c-.69.43-1,.26-1.42-.4s.13-.9.58-1.13a49.85,49.85,0,0,1,11.08-4.22,4.33,4.33,0,0,0,.56-.22l3.15-.55c.4-.22.88,0,1.27-.2l.94,0a35.28,35.28,0,0,1,5.63,0l1,0c.47.28,1,0,1.5.21a50.64,50.64,0,0,1,8.31,2.21c1.32.52,2.64,1,4,1.5.33.19.74.2,1,.52a77.05,77.05,0,0,1,22.11,17.09c2.27,2.45,2.25,2.49,0,4.86-2.53,2.62-5.08,5.21-7.85,7.58-.64.55-1.25,1.28-2.06.14-.3-.44-.34-.6.12-1a65.89,65.89,0,0,0,8.93-8.34c.54-.57.71-1,.11-1.6-8-8.63-17-15.84-28.3-19.68A30.88,30.88,0,0,0,201.89,39.38Z"/><path class="cls-1" d="M269.84,196.31q4.34-16.38,8.66-32.76l1.95-7.33c.09-.36.1-.74.48-.94a.19.19,0,0,1,.29,0v1.35c.45-.28.9-1.14,1.47-.13-.18.24-.58,0-.72.32-1.43,5.53-2.85,11.07-4.3,16.6l-10.41,39.44a2.2,2.2,0,0,0-.05.37h-1.75a1.45,1.45,0,0,1,0-1.3q1.88-7.3,3.83-14.6A1.82,1.82,0,0,1,269.84,196.31Z"/><path class="cls-3" d="M192.62,84.78a59.92,59.92,0,0,1-11.27-4.34A70.56,70.56,0,0,1,171.27,74c-.41-.32-1-.53-.37-1.3s.94-.45,1.49,0A55.17,55.17,0,0,0,192.77,83,42.86,42.86,0,0,0,201.36,84a2,2,0,0,0,1.31-.17l1.2-.06c.48-.23,1,.07,1.51-.2a34.94,34.94,0,0,0,10.44-2.79,47,47,0,0,0,7-3.56c.62-.38.87-.25,1.25.32s.42.8-.24,1.2a51.48,51.48,0,0,1-12.55,5.52,42,42,0,0,1-4.73,1c-.39.23-.87,0-1.27.21l-.94,0c-.82.24-1.68-.09-2.5.19h-1.36c-.9-.29-1.85.06-2.75-.2l-.71,0c-.39-.26-.86,0-1.25-.2A12.94,12.94,0,0,1,192.62,84.78Z"/><path class="cls-2" d="M262.56,14.09a5.14,5.14,0,0,1-7.4,3.55,5.24,5.24,0,0,1-2.59-5.6,5,5,0,0,1,4.65-4,5.23,5.23,0,0,1,5.34,4.12A3.44,3.44,0,0,1,262.56,14.09Z"/><path class="cls-2" d="M302.83,116.74c-3.68-.33-5.22-4.48-3.58-7.52a4.92,4.92,0,0,1,4.92-2.47c2.58.55,4.26,2.15,4.55,4.32a4.94,4.94,0,0,1-2.91,5.28c-.32.16-.67.26-1,.39A3.48,3.48,0,0,1,302.83,116.74Z"/><path class="cls-2" d="M82.05,107.66a4.5,4.5,0,0,1,4.18-4.18,2,2,0,0,1,1.47,0c2.12,0,4.31,2.42,4.38,4.68a4.9,4.9,0,0,1-3.24,5,5,5,0,0,1-6.15-1.79,3.71,3.71,0,0,1-.64-1.95A2.78,2.78,0,0,1,82.05,107.66Z"/><path class="cls-2" d="M143.45,41.84a4.66,4.66,0,0,1-4.18-4.42,1.47,1.47,0,0,1,0-1.23,4.77,4.77,0,0,1,3.72-4.3,5.17,5.17,0,0,1,5.29,2,5,5,0,0,1-3.36,8A2,2,0,0,1,143.45,41.84Z"/><path class="cls-10" d="M92.61,263.37l1.35,0H233.14l45.9,0,48.84,0c.33,0,.65,0,1,0-.37.39-.85.22-1.28.22q-116.83,0-233.69,0C93.46,263.59,93,263.76,92.61,263.37Z"/><path class="cls-11" d="M65.6,263.37c-.46-.05-.76-.3-.73-.75s0-1,.73-1c3.93-.13,7.85-.14,11.78,0,.79.58.76,1.17,0,1.76a34.72,34.72,0,0,1-5.1.1C70.06,263.45,67.82,263.6,65.6,263.37Z"/><path class="cls-12" d="M144.18,133.68c-1.69-.35-3.39-.68-5.07-1.07-.76-.17-1.53-.34-2.31-.46-.62-.1-1.39-.38-1.18-1.33s1-.61,1.49-.52c2,.38,4,.87,6,1.32.43.1.86.21,1.3.29.6.1,1.24.28,1.16,1S144.87,133.77,144.18,133.68Z"/><path class="cls-12" d="M277.53,100.48c-.27,1.88-.54,3.69-.81,5.5-.13.88-.28,1.75-.42,2.63-.12.72-.51,1.18-1.25,1s-.7-.58-.54-1.31c.41-1.81.55-3.68.87-5.51a16.18,16.18,0,0,1,.46-2.56.78.78,0,0,1,1-.61A.77.77,0,0,1,277.53,100.48Z"/><path class="cls-13" d="M86.23,86c1.71,0,1.71,0,1.71,1.69,0,2.11,0,4.22,0,6.33,0,1.56-.19,1.7-1.71,1.32A72.77,72.77,0,0,1,86.23,86Z"/><path class="cls-13" d="M112.26,37.67c-2.77,0-5.54,0-8.31,0-.68,0-1.06-.13-1-.93s.47-.81,1-.81h8.31A2.73,2.73,0,0,1,112.26,37.67Z"/><path class="cls-13" d="M126.32,36c1.22,0,2.45,0,3.67,0,.67,0,1,.19.95.9s-.28.84-.89.83q-3.8,0-7.59,0c-.61,0-.87-.18-.89-.83s.29-.92,1-.9C123.79,36,125.05,36,126.32,36Z"/><path class="cls-2" d="M304.55,54.12c0,2.68,0,5.37,0,8.06,0,.68-.12,1.06-.93,1s-.8-.47-.8-1c0-2.77,0-5.54,0-8.31C303.43,53.79,304.07,53.44,304.55,54.12Z"/><path class="cls-2" d="M304.55,21.21c0,1.27,0,2.53,0,3.8,0,.61-.19.89-.84.88s-.9-.16-.9-.83q0-3.86,0-7.71c0-.67.32-.81.91-.82s.84.28.83.89C304.53,18.69,304.55,20,304.55,21.21Z"/><path class="cls-13" d="M86.23,67.38c1.71,0,1.71,0,1.71,1.68v7.65a2.64,2.64,0,0,1-1.71,0h0A74.47,74.47,0,0,1,86.23,67.38Z"/><path class="cls-2" d="M304.55,35.21c0,2.77,0,5.54,0,8.31,0,.68-.12,1-.93,1s-.8-.47-.8-1c0-2.77,0-5.54,0-8.31A2.67,2.67,0,0,1,304.55,35.21Z"/><path class="cls-13" d="M86.23,48.72c1.71,0,1.71,0,1.71,1.77v7.56a2.7,2.7,0,0,1-1.71,0h0A72.62,72.62,0,0,1,86.23,48.72Z"/><path class="cls-13" d="M86.23,36h7.36a2.67,2.67,0,0,1,0,1.72c-1.31,0-2.62,0-3.92,0-1.73,0-1.73.08-1.73,1.7-.29.2-.63.08-1,.13-.7.09-1-.21-.89-.9A13.92,13.92,0,0,1,86.23,36Z"/><path class="cls-2" d="M302.83,100.29V91.2a2.67,2.67,0,0,1,1.72,0v9.09A2.81,2.81,0,0,1,302.83,100.29Z"/><path class="cls-2" d="M304.55,72.54v9.08a2.67,2.67,0,0,1-1.72,0V72.54A2.67,2.67,0,0,1,304.55,72.54Z"/><path class="cls-2" d="M279.26,12.37v1.47a78.08,78.08,0,0,1-8.92.07c-1,0-.44-1-.42-1.54h0A74.63,74.63,0,0,1,279.26,12.37Z"/><path class="cls-4" d="M282.69,110.85c1.29-1,2.59-2,3.87-3,.6-.48,1.22-.76,1.78-.07s-.2,1.2-.64,1.56c-1.18,1-2.5,1.78-3.65,2.78-.58.51-.93.42-1.38,0A1.57,1.57,0,0,1,282.69,110.85Z"/><path class="cls-14" d="M158.37,189.14a.41.41,0,0,1,.08-.19c5.48,0,11,.14,16.43-.07a1.78,1.78,0,0,1,.43-.23,6.48,6.48,0,0,1,1.7-.1q15.3,0,30.6,0a5.87,5.87,0,0,1,1.82.14.8.8,0,0,1,.38.3.45.45,0,0,1-.25.39,4.27,4.27,0,0,1-1.81.2h-47.3C159.74,189.58,159,189.76,158.37,189.14Z"/><path class="cls-4" d="M141.91,123.35c-1.66.83-3.33,1.61-4.95,2.51-.6.33-.94.19-1.18-.3s-.31-1,.32-1.34c1.06-.53,2.12-1.08,3.18-1.62a4.62,4.62,0,0,1,1-.44,1.37,1.37,0,0,1,1.62,0A1,1,0,0,1,141.91,123.35Z"/><path class="cls-10" d="M206.75,105.92c0-.26,0-.5-.32-.52s-.57,0-.86,0h-37.3c-.52,0-1.08-.14-1.47.37.11-.87.8-.54,1.25-.54,7.23,0,14.47,0,21.71,0,5.4,0,10.79,0,16.19,0C206.3,105.22,207.29,104.79,206.75,105.92Z"/><path class="cls-10" d="M282,156.84c.13-.37.44-.3.72-.32q19.38,0,38.74,0c.31,0,1.1-.57,1.07.45-.31-.41-.75-.24-1.14-.24H283.07C282.7,156.76,282.34,156.81,282,156.84Z"/><path class="cls-10" d="M172.94,153.29a.29.29,0,0,0,.16,0,79.73,79.73,0,0,1,10.93.12c.58.36.57,1,.57,1.53q0,11.9,0,23.78a1.69,1.69,0,0,1-.41,1.37H184c0-8.38,0-16.75,0-25.12,0-1-.33-1.17-1.21-1.15-2.9,0-5.8,0-8.7,0C173.66,153.81,173,154.09,172.94,153.29Z"/><path class="cls-10" d="M168.53,158.23c-.13-.88-.83-.49-1.26-.49-7.28,0-14.57,0-21.85,0-.49,0-1,0-1.46-.05,0-3,0-6,0-9,.34.34.21.77.21,1.17,0,2.08.06,4.16,0,6.24,0,1.09.24,1.46,1.41,1.45,7.34-.05,14.68,0,22,0C168,157.53,169,157,168.53,158.23Z"/><path class="cls-10" d="M171.63,111.07a2.73,2.73,0,0,1,1.44-.15h30.55c.49,0,1,0,1.47-.06-.25.3-.59.23-.91.23Z"/><path class="cls-10" d="M293.24,12.13c1.26,0,2.53,0,3.79,0,.71,0,.9.29.91,1s-.13,1.06-.94,1q-3.86,0-7.71,0c-.77,0-1-.29-1-1s.27-1,1-1C290.63,12.16,291.93,12.13,293.24,12.13Z"/><path class="cls-10" d="M281.22,155.3l-.29,0c.41-.41.93-.23,1.4-.23,5.93,0,11.86,0,17.8,0,.42,0,.9.19,1.27-.21.28.47-.08.46-.37.47-.73,0-1.46,0-2.2,0Z"/><path class="cls-10" d="M175.06,188.92l-.18,0c0-2.49.06-5,0-7.46,0-1.12.35-1.37,1.4-1.34,2.56.06,5.13,0,7.7,0l0,0c-.23.77-.91.59-1.43.6-1.8,0-3.6,0-5.4,0-1.57,0-1.62.06-1.63,1.68s0,3.27,0,4.91C175.5,187.89,175.57,188.49,175.06,188.92Z"/><path class="cls-10" d="M329.09,261.68l-15.66-.06c-.49,0-1.15.19-1-.72.38.57,1,.49,1.54.49h13.91C328.28,261.4,328.77,261.2,329.09,261.68Z"/><path class="cls-5" d="M65.6,263.37H77.38c-.2.26-.49.24-.78.24H66.38A.9.9,0,0,1,65.6,263.37Z"/><path class="cls-10" d="M77.38,261.6H65.6c.07,0,.13-.13.2-.13,3.79-.12,7.59-.12,11.38,0C77.25,261.46,77.31,261.55,77.38,261.6Z"/><path class="cls-10" d="M269.92,12.37c-.19,1.14.23,1.55,1.44,1.5,2.63-.09,5.26,0,7.9,0-.32.38-.76.24-1.15.24-2.39,0-4.79,0-7.19,0C269.55,14.09,269.4,13.82,269.92,12.37Z"/><path class="cls-10" d="M162.82,142.29c.05.73.61.51,1,.51,2.64,0,5.28,0,7.92,0,.38,0,.81-.18,1.14.2-3.09,0-6.18,0-9.27,0C163.21,143,162.39,143.3,162.82,142.29Z"/><path class="cls-10" d="M270.64,140.31c.38-.34.85-.2,1.29-.21l8.55-.06c-.3.42-.74.27-1.13.27Z"/><path class="cls-10" d="M86.23,67.38q0,4.66,0,9.33a.74.74,0,0,1-.24-.65V68A.73.73,0,0,1,86.23,67.38Z"/><path class="cls-10" d="M86.23,48.72q0,4.66,0,9.33a.77.77,0,0,1-.24-.66v-8A.72.72,0,0,1,86.23,48.72Z"/><path class="cls-10" d="M86.23,86v9.34a.75.75,0,0,1-.25-.66v-8A.75.75,0,0,1,86.23,86Z"/><path class="cls-10" d="M279.26,12.37h-9.34a.75.75,0,0,1,.66-.24h8A.75.75,0,0,1,279.26,12.37Z"/><path class="cls-10" d="M304,220.71c-.5-.85-.19-1.09.73-1.07,2,.05,3.95,0,5.93,0-1.83.51-3.69.11-5.53.21C304.55,219.91,304,219.86,304,220.71Z"/><path class="cls-10" d="M156.71,136.41l6.37-.08c-.16.31-.45.32-.73.3C160.47,136.51,158.58,136.9,156.71,136.41Z"/><path class="cls-10" d="M203.85,37.63h-5.63A15,15,0,0,1,203.85,37.63Z"/><path class="cls-10" d="M86.23,36c0,.56,0,1.12,0,1.68,0,1.76,0,1.76,1.72,1.75-1.62.61-2,.4-2-1.21C86,37.43,85.73,36.64,86.23,36Z"/><path class="cls-10" d="M91.84,262.37v.24H87.6c-.38,0-.81.13-1.13-.24Z"/><path class="cls-10" d="M240.47,177.65c-1.29.44-2.62.16-3.94.22C237.82,177.39,239.16,177.76,240.47,177.65Z"/><path class="cls-10" d="M234.34,177.9c-1.21.46-2.47.14-3.7.22C231.85,177.62,233.11,178,234.34,177.9Z"/><path class="cls-10" d="M246.37,177.41c-1.13.43-2.3.15-3.45.21C244.05,177.16,245.22,177.5,246.37,177.41Z"/><path class="cls-10" d="M197.73,85.58a8.4,8.4,0,0,1,2.74.2C199.56,85.7,198.62,86,197.73,85.58Z"/><path class="cls-10" d="M201.84,85.78a7,7,0,0,1,2.5-.19C203.53,86,202.67,85.72,201.84,85.78Z"/><path class="cls-10" d="M128.7,115.3a8,8,0,0,1-.2-2.48C128.93,113.62,128.63,114.47,128.7,115.3Z"/><path class="cls-10" d="M131.65,138.57a5.75,5.75,0,0,1-2.26-.2C130.14,138.43,130.93,138.13,131.65,138.57Z"/><path class="cls-10" d="M109.05,118.46v2.21A2.34,2.34,0,0,1,109.05,118.46Z"/><path class="cls-10" d="M304.55,54.12c-.51-.47-1.15-.15-1.72-.25.52-.44,1.12-.24,1.68-.18C304.78,53.72,304.72,54,304.55,54.12Z"/><path class="cls-10" d="M302.83,116.74h2A1.84,1.84,0,0,1,302.83,116.74Z"/><path class="cls-10" d="M276.55,114.75a5.35,5.35,0,0,1-2.07-.19C275.17,114.61,275.89,114.31,276.55,114.75Z"/><path class="cls-10" d="M262.56,14.09v-2A1.87,1.87,0,0,1,262.56,14.09Z"/><path class="cls-15" d="M124.28,137.63c-.47-.65-.35-1,.5-1Z"/><path class="cls-10" d="M223,175.45a.94.94,0,0,1,.69.58c-.53-.12-1,0-1.43-.35C222.54,175.67,222.83,175.73,223,175.45Z"/><path class="cls-10" d="M113.25,133.42c.4.54.17,1.15.22,1.73C113,134.62,113.32,134,113.25,133.42Z"/><path class="cls-10" d="M128.71,138.33a3.56,3.56,0,0,1-1.77-.21C127.53,138.18,128.16,137.9,128.71,138.33Z"/><path class="cls-10" d="M304.55,35.21h-1.72A1.41,1.41,0,0,1,304.55,35.21Z"/><path class="cls-10" d="M93.59,37.67V36A1.41,1.41,0,0,1,93.59,37.67Z"/><path class="cls-10" d="M112.26,37.67V36A1.43,1.43,0,0,1,112.26,37.67Z"/><path class="cls-10" d="M86.23,58.05h1.71A1.41,1.41,0,0,1,86.23,58.05Z"/><path class="cls-10" d="M304.55,72.54h-1.72A1.41,1.41,0,0,1,304.55,72.54Z"/><path class="cls-10" d="M86.23,76.71h1.71A1.4,1.4,0,0,1,86.23,76.71Z"/><path class="cls-10" d="M313.17,217.42c0-.57,0-1.14,0-1.71A1.62,1.62,0,0,1,313.17,217.42Z"/><path class="cls-10" d="M304.55,91.2h-1.72A1.41,1.41,0,0,1,304.55,91.2Z"/><path class="cls-10" d="M249.27,170c0,.58.18,1.19-.21,1.73C249.13,171.19,248.84,170.57,249.27,170Z"/><path class="cls-10" d="M302.83,100.29h1.72A1.44,1.44,0,0,1,302.83,100.29Z"/><path class="cls-10" d="M82.05,107.66v1.71A1.43,1.43,0,0,1,82.05,107.66Z"/><path class="cls-10" d="M261.55,119.94v1.71A1.52,1.52,0,0,1,261.55,119.94Z"/><path class="cls-10" d="M302.83,81.62h1.72A1.41,1.41,0,0,1,302.83,81.62Z"/><path class="cls-10" d="M112.23,128.79v1.69A1.55,1.55,0,0,1,112.23,128.79Z"/><path class="cls-10" d="M206.31,37.89a2.67,2.67,0,0,1-1.5-.21C205.31,37.73,205.86,37.48,206.31,37.89Z"/><path class="cls-10" d="M143.45,41.84h1.47A1.11,1.11,0,0,1,143.45,41.84Z"/><path class="cls-10" d="M205.38,83.6a2.38,2.38,0,0,1-1.51.2C204.33,83.41,204.88,83.65,205.38,83.6Z"/><path class="cls-15" d="M170.43,119.45a2.66,2.66,0,0,1-.45,1.25C170,120.23,169.88,119.72,170.43,119.45Z"/><path class="cls-10" d="M270.26,114.56a3.32,3.32,0,0,1-1.56.2C269.17,114.34,269.73,114.59,270.26,114.56Z"/><path class="cls-10" d="M249.52,167.34c0,.5.15,1-.21,1.49C249.36,168.33,249.11,167.79,249.52,167.34Z"/><path class="cls-10" d="M249,173c0,.5.16,1-.21,1.48C248.87,174,248.62,173.44,249,173Z"/><path class="cls-10" d="M248.78,175.69c0,.5.16,1-.21,1.49C248.63,176.68,248.37,176.14,248.78,175.69Z"/><path class="cls-10" d="M272.87,114.51H271.4A1.19,1.19,0,0,1,272.87,114.51Z"/><path class="cls-10" d="M119.07,114.28c-.49.51-1,.15-1.5,0Z"/><path class="cls-10" d="M87.7,103.48H86.23A1.11,1.11,0,0,1,87.7,103.48Z"/><path class="cls-10" d="M141.91,123.35a1.53,1.53,0,0,0,0-1.19A.69.69,0,0,1,141.91,123.35Z"/><path class="cls-10" d="M140.3,122.16a1.37,1.37,0,0,1-1,.44A.87.87,0,0,1,140.3,122.16Z"/><path class="cls-10" d="M205.28,85.54a1.94,1.94,0,0,1,1.27-.21C206.18,85.71,205.71,85.5,205.28,85.54Z"/><path class="cls-10" d="M266.7,138.59c.37-.34.82-.2,1.25-.21C267.58,138.75,267.12,138.55,266.7,138.59Z"/><path class="cls-10" d="M283,125.58a2.38,2.38,0,0,1,.19-1.34C283.14,124.69,283.34,125.18,283,125.58Z"/><path class="cls-10" d="M195.77,85.34a1.88,1.88,0,0,1,1.25.2C196.6,85.5,196.14,85.71,195.77,85.34Z"/><path class="cls-10" d="M189.13,84.57c.41.06.88-.16,1.23.25C189.94,84.76,189.47,85,189.13,84.57Z"/><path class="cls-10" d="M197.28,37.68a1.87,1.87,0,0,1-1.27.2C196.39,37.51,196.85,37.71,197.28,37.68Z"/><path class="cls-10" d="M245.87,136.63a2.52,2.52,0,0,1,.21-1.3C246.05,135.77,246.27,136.25,245.87,136.63Z"/><path class="cls-10" d="M219.57,42.12l-1-.52C219,41.57,219.41,41.63,219.57,42.12Z"/><path class="cls-10" d="M190.85,38.4c-.35.41-.82.19-1.23.24C190,38.24,190.43,38.46,190.85,38.4Z"/><path class="cls-10" d="M139.27,36.19v1.23A.84.84,0,0,1,139.27,36.19Z"/><path class="cls-10" d="M114.28,114.3a2.36,2.36,0,0,1-1.28.22C113.37,114.12,113.85,114.33,114.28,114.3Z"/><path class="cls-10" d="M282.69,110.85c0,.4,0,.81,0,1.22A.85.85,0,0,1,282.69,110.85Z"/><path class="cls-10" d="M126.25,138.07a2,2,0,0,1-1.27-.19C125.41,137.91,125.87,137.71,126.25,138.07Z"/><path class="cls-10" d="M263.53,124.41c0,.39,0,.78,0,1.16-.39-.35-.17-.82-.23-1.23Z"/><path class="cls-5" d="M158.37,189.14c5.15,0,10.29.06,15.44.06q17.35,0,34.71,0l1.22,0a2.22,2.22,0,0,1,1.53-.31H224.5a2.35,2.35,0,0,1,1.53.32c4.64,0,9.3-.16,13.93,0a36.42,36.42,0,0,1,8.6,1.65c-.54.61-1.28.45-2,.45-4.78,0-9.57,0-14.36,0h-62c-1.06,0-2.13,0-3.19-.05-14.44,0-28.89.06-43.33,0-3.63,0-7.25-.64-10.86-1s-7.08-.68-10.62-1.09c-.67-.08-1.42-.1-1.4.87,0,2.7-.26,5.4.21,8.09a14.17,14.17,0,0,0,5.22,8.77A22.38,22.38,0,0,0,118.8,212c2.85.25,5.72.13,8.56.48a25.7,25.7,0,0,1,12.21,4.78,3.77,3.77,0,0,0,2.59.85c5-.35,10.06-.13,15.09-.3,2.12-.07,4.24-.18,6.37-.2,1.28,0,1.31-.07.75-1.23-2.89-5.87-5.71-11.78-8.69-17.61a7.61,7.61,0,0,1-.64-1.46,1.35,1.35,0,0,1,.58-1.71c.73-.36,1.18.19,1.5.71a50.49,50.49,0,0,1,2.5,4.92c2.43,5.24,5.14,10.33,7.67,15.52a1.42,1.42,0,0,0,1.47.87,24.42,24.42,0,0,0,3.31-.11,1.3,1.3,0,0,1,1.49.56c1.14,2.67,2,5.45,3,8.17,1.3,3.53,2.48,7.1,3.79,10.63a5.93,5.93,0,0,1,.3.93c.21,1,0,1.3-1,1.35-1.34.08-2.69,0-4,0q-8,.12-15.9,0c-2.8-.06-5.59.11-8.38,0-3.91.05-7.81,0-11.72,0a2.5,2.5,0,0,1-1.53-.31l-.12,0c-2.34-.12-2.29-.11-2-2.54.78-5.62,1.49-11.26,2.27-16.88.1-.72-.32-.95-.76-1.22a25.6,25.6,0,0,0-13.34-3.95A35.35,35.35,0,0,1,113.46,213a24.35,24.35,0,0,1-9.82-5.81,15.81,15.81,0,0,1-4.87-11.42c0-2.08,0-4.17,0-6.25,0-.9-.17-1.29-1.16-1.38A12.13,12.13,0,0,1,89,183.77c-.44-.54-.79-1.06-.23-1.73.44-.14.89-.23,1.22.22,2.2,3,5.4,4,8.92,4.4l17.27,1.78a2.3,2.3,0,0,0,.37,0,71.84,71.84,0,0,0,8.91.73C136.44,189.12,147.4,189.14,158.37,189.14Z"/><path class="cls-9" d="M138.05,238.88h13.18c.42.89,0,1.75,0,2.63-.08,1.82-.4,3.62-.56,5.43a1.6,1.6,0,0,1-.58,1.28s-.07-.05-.08-.09c-.32-.87-.4-2.12-1-2.52s-1.89-.16-2.87-.16c-1.34,0-3-.41-4,.19s-.79,2.37-1.15,3.62a1,1,0,0,1-.87.88c-.76.13-1.5.36-2.25.54C138.13,246.75,138,242.81,138.05,238.88Z"/><path class="cls-16" d="M300.55,167.06h8.35c.58,0,1.26-.05,1.27.77s-.62.95-1.29.95H292.19c-.66,0-1.34-.08-1.34-.89s.72-.83,1.36-.83Z"/><path class="cls-17" d="M297.9,179.38h-8.22c-.61,0-1.35.09-1.32-.83s.68-.89,1.34-.88h16.68c.62,0,1.25.1,1.28.82s-.63.91-1.3.91Z"/><path class="cls-1" d="M201.09,76.71A14.93,14.93,0,0,1,186,61.91a15.08,15.08,0,1,1,30.15.15C216.05,70,209.23,77,201.09,76.71Z"/><path class="cls-5" d="M121,174.72l-.58,1.65q-7.53-1.65-15-3.3c-1.89-.41-1.89-.45-1.25-2.23.8-2.23,1.57-4.47,2.36-6.7.22-.62.43-1.38,1.31-1s.54,1,.32,1.57c-.67,1.88-1.27,3.79-2,5.65-.37.93-.07,1.17.79,1.35C111.59,172.66,116.29,173.7,121,174.72Z"/><path class="cls-18" d="M242.67,248.39c-1.36.23-1.9-.45-2.23-1.7-1.75-6.58-3.61-13.14-5.37-19.73-1.46-5.49-3.51-10.79-5-16.26a18,18,0,0,1-.4-8.72,5.2,5.2,0,0,1,3.75-4.23,53.6,53.6,0,0,1,9.1-1.93,112.58,112.58,0,0,1,14.91-1l10.38,1.22,2,.26q-2.1,8-4.21,16.1c-.07.28-.11.56-.17.84-3.62,0-7.24,0-10.86.05-2.82,0-4.42,2.57-3.09,4.84a4,4,0,0,0,2,1.51,2.15,2.15,0,0,1,.64,1.29c1.41,6.66,2.86,13.3,4.29,19.95a6.88,6.88,0,0,1,.19,1.57c-.05.32.22.64,0,1-.18,1.56-.37,3.13-.55,4.7a1.55,1.55,0,0,1-1.25.37c-4.19-.11-8.37.23-12.56.26A2.12,2.12,0,0,1,242.67,248.39Z"/><path class="cls-1" d="M280.55,219.65h5.76c4.87,0,9.74,0,14.61,0,.77,0,1.1.15,1.28,1q4.19,20.27,8.45,40.52a3.45,3.45,0,0,1,0,.46h-5c-5.11,0-10.22,0-15.34,0-.77,0-1.1-.16-1.28-1q-4.19-20.28-8.45-40.53A3.29,3.29,0,0,1,280.55,219.65Z"/><path class="cls-18" d="M261.62,233.15c.48-4.26,1-8.5,1.42-12.76.07-.58.3-.75.85-.75,4.7,0,9.39,0,14.09,0,.45,0,.76.07.86.61.7,3.55,1.43,7.1,2.14,10.65.28.38-.07.88.25,1.25v0c.21.5,0,1.07.33,1.55a5,5,0,0,0,.27,1.62c.55,3.59,1.24,7.15,1.68,10.76.31,2.58.28,2.66-2.27,2.67h-1.35c-4.29.07-8.59,0-12.88,0a1.71,1.71,0,0,1-1.7-.74C264,243.08,262.71,238.14,261.62,233.15Z"/><path class="cls-6" d="M242.67,248.39l15.43-.26q-.72,6.45-1.42,12.91c-.09.82-.67.57-1.1.57q-6.08,0-12.15,0l-9.08-.05c-.61-3.13.62-5.46,3-7.52C239.25,252.33,240.89,250.29,242.67,248.39Z"/><path class="cls-6" d="M265.45,247.61c.11.8.69.75,1.28.75q6.66,0,13.32,0a2.37,2.37,0,0,1,.33,1.64c0,3.27,0,6.54,0,9.8a2.19,2.19,0,0,1-.41,1.74H260.14a6,6,0,0,1,0-4.73c1.3-2.95,3-5.72,4.54-8.53C264.84,248,265,247.64,265.45,247.61Z"/><path class="cls-2" d="M150,248.21c.34-2.84.67-5.68,1-8.51a8.15,8.15,0,0,1,.17-.83h8.44a.28.28,0,0,1-.15.33,6.66,6.66,0,0,1-2.31.17c-1.27,0-1.35.1-1,1.37.67,2.53,1.43,5,2.13,7.55,1,3.66,2,7.33,3.08,11,.22.73.19,1.72,1.35,1.76s2.32.28,2.82-1.17c.43,1.77.43,1.77-1.29,1.77-3.56,0-7.12,0-10.67,0-.89,0-1.2-.18-1.17-1.13.07-2.66,0-5.31,0-8a1.78,1.78,0,0,0-.85-1.75A3.07,3.07,0,0,1,150,248.21Z"/><path class="cls-9" d="M159.66,239.05a.55.55,0,0,1,0-.18h16.11c-.6.19-.49.52-.27,1,.89,1.83,1.73,3.68,2.59,5.52-2-.37-3.26.55-4,2.4a2,2,0,0,1-2.69,1.41c-2-.48-4.1-.59-6.15-.9-.46-.07-.81-.14-.81.48-.77-.32-.57-1.15-.89-1.72-1.15-2.07-2.07-4.26-3.28-6.3A3.15,3.15,0,0,1,159.66,239.05Z"/><path class="cls-1" d="M159.66,239.05a54.2,54.2,0,0,1,4.82,9.71q.56,5.55,1.1,11.1c.22,1.37-.49,1.6-1.68,1.55-2.2-.09-2.24,0-2.84-2.13q-2.69-9.4-5.3-18.81c-.39-1.41-.35-1.42,1.07-1.42C157.77,239,158.71,239.05,159.66,239.05Z"/><path class="cls-1" d="M280,261.58q0-6.6.08-13.18c.78,0,1.55-.08,2.32,0s1.1-.12.95-1.07c-.59-3.69-1.06-7.39-1.57-11.09-.05-.36,0-.73-.06-1.1a.14.14,0,0,1,.22,0q2.7,12.81,5.4,25.6c.14.67,0,1-.73.93C284.38,261.58,282.18,261.59,280,261.58Z"/><path class="cls-1" d="M258.45,242.69q-2.46-11.52-4.94-23l4.93,0a1.07,1.07,0,0,1,.54.78c.59,2.47,1.46,4.89,1.52,7.47q-.83,7.14-1.66,14.29C258.67,242.35,258.87,242.77,258.45,242.69Z"/><path class="cls-1" d="M265.45,247.61c-1.69,3.08-3.39,6.15-5.07,9.23-.51.92-.18,1.93-.24,2.9,0,.61,0,1.22,0,1.83-.29,0-.58,0-.86.05-.79.13-1-.2-.87-.95.69-5.81,1.34-11.61,2-17.42q.58-5.06,1.19-10.1c.62.57.56,1.4.75,2.13Q263.93,241.45,265.45,247.61Z"/><path class="cls-18" d="M260.5,227.94c-.69-2.75-1.37-5.5-2.06-8.25.45,0,.89,0,1.34,0,1.72,0,1.7,0,1.49,1.66C261,223.52,260.75,225.73,260.5,227.94Z"/><path class="cls-19" d="M281.91,235.11h-.22a2.24,2.24,0,0,1-.22-1.46l.08-.09.1.07Z"/><path class="cls-20" d="M281.65,233.63l-.09,0h-.09c-.42-.45-.21-1-.24-1.51C281.61,232.57,281.52,233.13,281.65,233.63Z"/><path class="cls-21" d="M258.45,242.69l.39-.46a1.5,1.5,0,0,1-.19,1.2Z"/><path class="cls-22" d="M281.23,232.16c-.43-.35-.2-.83-.25-1.25A1.67,1.67,0,0,1,281.23,232.16Z"/><path class="cls-1" d="M146.49,168.56a5,5,0,0,1,.75.08c1.53.32,1.63.54,1.14,2-.62,1.84-1.08,3.67.92,5,.29.19.22.38.09.62-1.22,2.14-4.21,4.37-7.1,3.89a4,4,0,0,1-3.48-4.07C138.74,172.39,142.56,168.54,146.49,168.56Z"/><path class="cls-5" d="M184,153.57c-3.23,0-6.45,0-9.68,0-.4,0-.9.27-1.21-.27,0-3.31.07-6.62.07-9.93,0-4.74,0-9.48-.06-14.22,0-.61,0-1.1.86-1.09,8,0,16,0,24,0h1c.16.44-.16.65-.32.91a10,10,0,0,0,8.54,15.5q6.13.07,12.27,0c1.05,0,1.37.22,1.36,1.33,0,9.85,0,19.71,0,29.56-2.22-.48-4.44-1-6.67-1.44-1.58-.34-2.32.07-2.69,1.65a13.54,13.54,0,0,0,0,6.78,4.35,4.35,0,0,0,4.19,3.64c3.36.44,6.73.79,10.11,1a1.57,1.57,0,0,1,0,2c-5.18.11-10.37,0-15.55,0a.62.62,0,0,1-.33-.14l0,0a2,2,0,0,1-.37-1.51c0-1.63,0-3.26,0-4.9,0-1.8,0-1.81-1.87-1.81-.9,0-1.79,0-2.69,0-2.39,0-2.42,0-3-2.29q-2.9-11.53-5.77-23.07-1.11-4.47-2.23-8.92c-.38-1.49-.48-1.57-2-1.58h-5.63c-1.56,0-1.63.09-1.63,1.7,0,1.83,0,3.67,0,5.51C184.55,152.62,184.63,153.24,184,153.57Z"/><path class="cls-23" d="M225.71,188.94c0-.65,0-1.3,0-2,4.38-.32,8.49,1.13,12.72,2H226A.22.22,0,0,1,225.71,188.94Z"/><path class="cls-24" d="M225.71,188.94l.28.08a.23.23,0,0,0,0,.14H209.74l.06-.24Z"/><path class="cls-1" d="M231.84,139.78h-2.19c-2.5-.33-4.08-1.95-4.59-4.67a5.7,5.7,0,0,1,2.73-5.61,13.56,13.56,0,0,1,1.62-.47h2.68a4.78,4.78,0,0,1,2,.76.63.63,0,0,0,.89,0,5.46,5.46,0,0,1,2-.74,8.32,8.32,0,0,1,2.68.09,5.44,5.44,0,0,1-1.34,10.7c-.37,0-.73,0-1.1,0a4.38,4.38,0,0,1-2.27-.72.73.73,0,0,0-1,0A4.86,4.86,0,0,1,231.84,139.78Z"/><path class="cls-3" d="M229.41,129c-2,.8-3.51,2-4,4.27a5.47,5.47,0,0,0,3.54,6.24l.67.24c-1.71,0-3.42.08-5.13,0a5.38,5.38,0,0,1-5.2-5.42,5.32,5.32,0,0,1,5.2-5.4C226.15,129,227.78,129,229.41,129Z"/><path class="cls-25" d="M231.84,139.78c.07,0,.13-.12.2-.13,1-.1,1.8-1.32,2.66-1.09s1.66.9,2.57,1.23Z"/><path class="cls-26" d="M237,129a10,10,0,0,0-2.11,1.14.49.49,0,0,1-.74,0,8.42,8.42,0,0,0-2.09-1.17Z"/><path class="cls-3" d="M184,153.57a45.68,45.68,0,0,0,.16-6.72c0-2.38,0-2.38,2.37-2.38,2,0,4,.05,6,0a1.24,1.24,0,0,1,1.49,1.12c2.76,11.17,5.58,22.32,8.34,33.49.23.94.55,1.36,1.61,1.28,1.58-.11,3.18,0,4.78,0,.79,0,1.06.21,1,1,0,2.53,0,5.06,0,7.6H175.06c0-2.53,0-5.06,0-7.58,0-.81.26-1.05,1-1,2.24,0,4.48,0,6.73,0,.38,0,.82.16,1.15-.2s.18-.7.18-1.05q0-12.23,0-24.43C184.16,154.27,184.25,153.89,184,153.57Z"/><path class="cls-2" d="M293.07,13.85c-1.18,0-2.37,0-3.55,0-.55,0-.95-.06-.94-.77s.38-.72.88-.71h7.34c.51,0,.87.07.88.71s-.39.78-.94.77Z"/><path class="cls-12" d="M166.79,190.91c2.81,1.82,4,4.66,4.62,7.75,1.27,6,2.4,12,3.21,18,.18,1.42-.93.84-1.38,1.25a17.11,17.11,0,0,0-4.35,0,1.9,1.9,0,0,1-2.09-1.3c-3.16-6.55-6.4-13.07-9.64-19.58-.3-.61-.5-1.67-1.47-1.23s-.37,1.33-.05,2q4.59,9.36,9.22,18.71l.58,1.22c-.31.3-.65.18-.95.19l-17.3.3c-.7,0-1.39.06-2.08.1-2.48.15-4.69.06-7-1.58-4.46-3.21-9.74-4.26-15.22-4.22a26,26,0,0,1-11.82-2.25c-5-2.42-9-5.75-10.25-11.45-.72-3.15-.24-6.36-.37-9.54,0-.72.47-.64.92-.6,2.11.2,4.23.43,6.34.61,6.79.58,13.54,1.65,20.39,1.6,12.44-.1,24.88,0,37.32,0C165.89,190.86,166.34,190.89,166.79,190.91Z"/><path class="cls-3" d="M205.71,67.68a5.95,5.95,0,1,1,6-6A5.91,5.91,0,0,1,205.71,67.68Z"/></svg>