<svg id="Layer_1" data-name="Layer 1" xmlns="http://www.w3.org/2000/svg" viewBox="0 0 374.4 288"><defs><style>.cls-1{fill:#fff;}.cls-2{fill:#f8b03d;}.cls-3{fill:#eaf0fc;}.cls-4{fill:#feb8a0;}.cls-5{fill:#f99403;}.cls-6{fill:#b7d2fd;}.cls-7{fill:#fe9a8c;}.cls-8{fill:#51cfbb;}.cls-9{fill:#fdfdfd;}.cls-10{fill:#51d0bb;}.cls-11{fill:#0d1b38;}.cls-12{fill:#6faff8;}.cls-13{fill:#71b1f8;}.cls-14{fill:#64abf7;}.cls-15{fill:#6baef7;}.cls-16{fill:#6aadf9;}.cls-17{fill:#7ab6fd;}.cls-18{fill:#f9fbf9;}.cls-19{fill:#f1f4fb;}.cls-20{fill:#fdfdfc;}.cls-21{fill:#b7d2fc;}.cls-22{fill:#fdfefc;}.cls-23{fill:#fcfdfb;}.cls-24{fill:#fbfdfc;}.cls-25{fill:#fd9a8c;}.cls-26{fill:#0a243f;}.cls-27{fill:#011534;}.cls-28{fill:#f8fbfb;}.cls-29{fill:#f9fbfc;}.cls-30{fill:#b0cffc;}.cls-31{fill:#b1cdfd;}.cls-32{fill:#aecefd;}.cls-33{fill:#adccfc;}.cls-34{fill:#b2cff7;}.cls-35{fill:#40ccb2;}.cls-36{fill:#50d1bb;}.cls-37{fill:#3fcbb3;}.cls-38{fill:#aeccfe;}.cls-39{fill:#4dcfb8;}.cls-40{fill:#6cadf9;}.cls-41{fill:#66abf7;}.cls-42{fill:#71b0f8;}.cls-43{fill:#6daff8;}.cls-44{fill:#eaf1fc;}</style></defs><rect class="cls-1" width="374" height="288"/><path class="cls-2" d="M114.43,250.61l-.07-.05-.07.05a24.46,24.46,0,0,1-5.79-.56c-3.15-.87-6.44-1.26-9.44-2.71-.91-.44-2-.47-2.8-1.23l-.53-.25c-1.41-.46-3-.7-3.81-2.14-.51-4.67-.88-9.35-1.32-14-.43-4.52-.73-9-1.2-13.55-.53-5-.93-10-1.37-15-.52-5.87-1.08-11.73-1.59-17.6-.36-4.27-.82-8.55-1.08-12.84-.14-2.28-.41-4.57-.64-6.78-1.61,5.33-2.94,10.78-4.12,16.27a228.78,228.78,0,0,0-3.84,23,121.78,121.78,0,0,0-1,14.41,127.74,127.74,0,0,0,.37,13.12,3.34,3.34,0,0,1,0,1.18c-.41.79-.81.21-1.11-.06-1-1-2.07-2-3-3a95.89,95.89,0,0,1-16-24.37,65.68,65.68,0,0,1-2.55-6.29,9.29,9.29,0,0,1,.47-4.11c4.83-14.36,9.47-28.79,14.32-43.15.81-2.5,1.78-4.95,2.4-7.51a2.19,2.19,0,0,1,.1-.34,21.91,21.91,0,0,1,2.91-4.85l.24-.25c2.08-2.29,4.82-3.45,7.61-4.55,2.63-1,5.22-2.16,7.83-3.24,3.35-1.29,6.62-2.76,10-4.07.66-.25,1.33-.5,2-.79,6.27-2.65,12.6-5.16,18.88-7.8a1.63,1.63,0,0,1,1.26-.12,1.31,1.31,0,0,1,.28.76c1,6.11,4.72,9.94,10.43,12a17.93,17.93,0,0,1,2.14.72,34.47,34.47,0,0,0,9.41,2,63.45,63.45,0,0,0,7,.26,34,34,0,0,0,20.61-7.07,16.6,16.6,0,0,0,3.83-4c-.55-.33-1.11-.09-1.58-.28-.26-.1-.87-.1-.35-.66,2-.51,4,0,6,.16,3.85.25,7.69.55,11.53.86,3.52.27,7,.5,10.58.8,1.74.15,3.48.26,5.23.38a3.93,3.93,0,0,1,1.4.2c0,.58.43.56.81.68A41.37,41.37,0,0,1,214,126.5c3.55,1.75,7,3.66,10.11,5.42a108.56,108.56,0,0,1-8.17-7.6c-3.31-2.93-6.61-5.88-9.72-9a2.9,2.9,0,0,1-.79-1,10.69,10.69,0,0,0-3.08-3.06,6.88,6.88,0,0,1-1.51-1.29c-1.87-1.73-3.44-3.74-5.27-5.51-2.25-2.67-4.59-5.27-6.73-8a2.62,2.62,0,0,1,.52-3.23c.4-.43.72-.92,1.11-1.36,3.47-4.12,6.77-8.38,10.28-12.47a.9.9,0,0,1,.73-.36,5.5,5.5,0,0,1,1.81,0,3,3,0,0,1,1.75,1.43h0a9.75,9.75,0,0,1,2.87,2.1c5.13,4.2,10.41,8.21,15.74,12.16,4,2.95,8.05,5.8,12.16,8.59a1.81,1.81,0,0,1,.8.86l.27.18a12.25,12.25,0,0,1,4.29,2.88c0,.26.26.24.45.25,1.63.45,2.84,1.63,4.24,2.49a14,14,0,0,1,3.67,2.54h0a13.72,13.72,0,0,1,4.57,2.8l.48.28a15.44,15.44,0,0,1,3.57,1.83,36.69,36.69,0,0,1,6.83,4.34,19.16,19.16,0,0,1,4.71,6,7.08,7.08,0,0,1,.4,1.36c0,.23,0,.5.2.66,1,1,1,2.31,1.08,3.53a22.5,22.5,0,0,1-.22,6,2.28,2.28,0,0,1-.8,1.66h0c-.56,2.14-2.08,3.63-3.61,5.06a31.25,31.25,0,0,1-7.65,5.4,62.87,62.87,0,0,1-10.91,3,90.53,90.53,0,0,1-11.73,1.43c-3.37.19-6.75.55-10.13.44a167,167,0,0,1-17-1.29c-3.23-.44-6.37-.26-9.16,1.71a11,11,0,0,0-4.72,7.09c-1.85,9.63-5.52,18.6-9.85,27.34a134.23,134.23,0,0,1-13.18,21.31,124.26,124.26,0,0,1-15.22,17,106.63,106.63,0,0,1-17.45,13.12,83.23,83.23,0,0,1-15.52,7.37c-.82.29-1.61.69-2.46.91h-6.17C115.2,250.74,114.79,250.86,114.43,250.61Z"/><path class="cls-3" d="M262.71,160.24l1.19-.48a6.41,6.41,0,0,1,2.63-1.19l1-.49a2.49,2.49,0,0,1,1.67-1l1-.48a16,16,0,0,1,4.06-2.39c.31-.58,1-.64,1.44-1,.21-.38.63-.49,1-.71l1.67-1c.32-.73,1-.94,1.67-1.2h.24a3.07,3.07,0,0,1,1.68-1.43,7.69,7.69,0,0,1,2.39-1.67l.71-.48c.44-.81,1.3-1.12,2-1.64a24.88,24.88,0,0,1,4-2.67h.24a11.3,11.3,0,0,1,4.54-3.11l.24-.24a4.74,4.74,0,0,1,2.4-1.43l.71-.48a18.63,18.63,0,0,1,4.79-2.63h.23a5.46,5.46,0,0,1,3.12-1.43l1.43-.48a4.88,4.88,0,0,1,3.11-1.2l.95-.24a12.22,12.22,0,0,1,6.46-1.19h2.15a2,2,0,0,1,1.44,0H323c.61.23,1.18-.22,1.8-.12a2.26,2.26,0,0,1,1.31.36h0c.84.37,1.88,0,2.62.72a1.4,1.4,0,0,0,1.2.47,5.25,5.25,0,0,1,2.63,1.2l.72.48a4.11,4.11,0,0,1,1.85,1,16.57,16.57,0,0,1,3.17,3.31l.48.72a3.28,3.28,0,0,1,1.43,2.15l.25.72c.53.22.54.76.71,1.2,0,.26,0,.54.24.71a8.07,8.07,0,0,1,.72,1.92c0,.26,0,.54.23.71.77,1,.58,2.27.77,3.42.3,1.71-.11,3.46.28,5.17a1,1,0,0,1-.32,1,1.93,1.93,0,0,0,0,.24c-.2.39.28.79,0,1.19h0a10.69,10.69,0,0,1-.95,5h0c-.3.36,0,.84-.24,1.2a1.91,1.91,0,0,0-.24,1.19c-.17.21,0,.55-.24.72v.48a7.58,7.58,0,0,1-1,3.35,1.67,1.67,0,0,0-.24.95,13.48,13.48,0,0,1-1,3.84c-.14.37-.24.75-.64.95v.24c-.29,1-.3,2.11-1.19,2.87a2.72,2.72,0,0,0-.48,1.43,38.75,38.75,0,0,1-3.55,7.61,20.6,20.6,0,0,1-2.19,3.63.72.72,0,0,0-.48.72,18,18,0,0,1-2.87,4.3h0a21.5,21.5,0,0,1-3.35,4.31.82.82,0,0,0-.48.47,21.15,21.15,0,0,1-5.73,5.74h0c-1.14,1.72-2.95,2.64-4.54,3.83a.47.47,0,0,0-.48.24,15.94,15.94,0,0,1-4.78,2.87h0a10,10,0,0,1-3.83,1.67l-.95.24a4,4,0,0,1-2.87,1,1.55,1.55,0,0,0-1,.24A21.45,21.45,0,0,1,293.9,217l-.35,0a99.78,99.78,0,0,1-15-.52,8.61,8.61,0,0,1-2.48-.77h-.48c-.44-.31-1,.06-1.44-.24h0c-1.12-.2-2.27-.16-3.4-.42a5.1,5.1,0,0,1-2.1-.78,4.38,4.38,0,0,1-1.43-.24,15.69,15.69,0,0,0-1.91-.48h0c-1.77,0-3.36-.75-5-1.19h0c-.34-.33-.85.14-1.19-.24h0c-1.29-.27-2.67-.17-3.83-1-.33,0-.71.11-1-.24-1.07-.43-2.34,0-3.34-.71h0c-1.15-.08-2.37.14-3.35-.72a4.51,4.51,0,0,1-1.67-.24c-2.41-.21-4.8-.61-7.21-.85a3.08,3.08,0,0,1-1.88-.58h-1.67c-2.49-.28-5-.07-7.46-.12a5.77,5.77,0,0,0-2.11.12h-1a3.52,3.52,0,0,1-1.9.59c-2,.12-4,.82-6,.84l-.72.24c-1.24.73-2.7.71-4,1.17a2.28,2.28,0,0,0-.76.26h0a10,10,0,0,1-2.39.72l-.72.24c-.35.55-1,.19-1.43.48l-.48.24a5.09,5.09,0,0,1-2.39.95c-.28.48-.83.24-1.2.48a1.34,1.34,0,0,0-1,.48c-.13.09.05,0-.08.07-1.76,1.2-2,1.11-2.36-.85-.09-3.53-.39-7.05-.6-10.57-.28-4.83-.44-9.67-.86-14.49a9.8,9.8,0,0,1,.07-3c.68-.92.2-2,.35-2.67,0,.44.08,1.23,0,2-.7.09-.61-.5-.62-.85-.05-3.54-.49-7.06-.51-10.6,0-3.19,1-4.47,4.19-5.09,5.35-1,10.71-2.1,16-3.3,5.86-1.33,11.7-2.78,17.46-4.52a3.3,3.3,0,0,1,1.16-.21,5.88,5.88,0,0,1,2.63,1.42h0a19.25,19.25,0,0,1,4.54,1.2h0c.45.31,1-.06,1.44.24h6.22c.44-.3,1,.07,1.43-.24h.24a2,2,0,0,1,1.68-.4.73.73,0,0,0,.58,0c1.19-.86,2.68-.54,4-1.05l1-.24c.71-.76,1.73-.68,2.63-1C262.33,160.28,262.57,160.38,262.71,160.24Z"/><path class="cls-4" d="M123.77,83.73l-.26-.48a2.42,2.42,0,0,1-1.13-2,23.77,23.77,0,0,1,0-5.9h0a8.63,8.63,0,0,1,1.41-5,.33.33,0,0,0,0-.19c.2-.93,1-1.54,1.3-2.4a.39.39,0,0,1,.27-.13,1.07,1.07,0,0,0,1-.1c3.2-.91,5.33-.06,6.62,2.6a4.24,4.24,0,0,1,.32,2.67c-.38,2.08-.68,4.17-1,6.26a1.81,1.81,0,0,0,1.57,2.36c.31.08.63.14.94.19,2,.34,2.65-.22,2.69-2.21s.24-4.21.29-6.32A4.66,4.66,0,0,1,141,68.63a5.32,5.32,0,0,0,3.56-5.13c.13-2.18.39-4.36.66-6.54.17-1.4.6-2.05,1.45-2.18s1.58.44,2.14,1.73A12.46,12.46,0,0,0,150.47,61a30.18,30.18,0,0,0,12,12,32.75,32.75,0,0,0,7.67,2.9,3.2,3.2,0,0,1,1.92.86c.38,1.26-.16,2.46-.27,3.69-.05.54-.27,1.06-.33,1.6a108.55,108.55,0,0,1-4.82,18.53,38.38,38.38,0,0,1-5.17,9.44,9.73,9.73,0,0,1-5.15,3.4c-1.45-.45-3-.48-4.45-.87-7.34-2-12.85-6.47-17.27-12.48a21.69,21.69,0,0,1-2.76-4.45,39.08,39.08,0,0,0,4.49,11.06c4.05,6.51,9.68,10.79,17.34,12.17a4.84,4.84,0,0,1,1.48.43.75.75,0,0,1,.15.53,2,2,0,0,1-.29.7,14.57,14.57,0,0,1-7.11,5.94c-5.89,2.62-11.46,2.12-16.47-2A16.13,16.13,0,0,1,125.29,109c.93-6.49,2.29-12.93,3.51-19.38.15-.8.67-1.72.14-2.42s-1.53-.26-2.23-.66a3.88,3.88,0,0,1-1.51-1.36l-.29-.26A2.46,2.46,0,0,1,123.77,83.73Z"/><path class="cls-5" d="M198.14,185.59l.69,13.45q.38,7.5.76,15c-.26,2.16-2.08,2.55-3.66,3.2-.13.06-.31,0-.44.13h0a8.25,8.25,0,0,1-3.19,1.65h-.09l-.06.07c-.49.81-1.41,1-2.16,1.41-1.83.95-3.47,2.26-5.48,2.88h0a9,9,0,0,1-3.58,2.13h0c-1.08,1.21-2.59,1.79-3.93,2.62-5,3.12-10.05,6.23-15.21,9.11a20.92,20.92,0,0,1-4.75,2.38h0a4.26,4.26,0,0,1-2.66,1.39h0a6.61,6.61,0,0,1-3.38,1.65c-1.31,1.12-3,1.53-4.51,2.24a8,8,0,0,1-2.88.92l-.69.26c-1.12,1-2.6,1.12-3.93,1.59a69.46,69.46,0,0,1-10.38,2.61c-1.53.29-3.08.12-4.61.29h0a2.46,2.46,0,0,1-1.9,0c.44-.79,1.34-.79,2-1A78,78,0,0,0,134.59,245,99,99,0,0,0,149,235.79a116.05,116.05,0,0,0,14.8-13.58,136.6,136.6,0,0,0,13.42-17.28,133.54,133.54,0,0,0,14-27.69,93.55,93.55,0,0,0,3.87-13.58,11.32,11.32,0,0,1,10.49-9.19c2.52-.15,5,.41,7.43.55,2.25.13,4.49.6,6.74.63,3.1,0,6.19.49,9.29.27,5.33-.37,10.68-.44,16-1.36,4.7-.82,9.38-1.63,13.77-3.58.08,0,.22.05.33.08-.11.7-.73.64-1.21.81l-.47.26a4.41,4.41,0,0,1-2.68,1.39.16.16,0,0,0-.19.07.87.87,0,0,1-.38.44c-2.13.9-4.11,2.17-6.43,2.59l-.08,0-.05.06a9.5,9.5,0,0,1-4.31,1.66h0a2.29,2.29,0,0,1-1.22.68c-2,.53-3.83,1.63-6,1.71-4.75,1.3-9.48,2.68-14.27,3.81q-10.27,2.43-20.65,4.34c-2.87.53-4,1.95-3.84,4.9.22,3.8.47,7.61.7,11.41C198.29,185.3,198.26,185.44,198.14,185.59Z"/><path class="cls-6" d="M220.85,37.56l1.44-.25a2.07,2.07,0,0,1,1.58-.37h48a2.21,2.21,0,0,1,1.59.38l.45,0a10.19,10.19,0,0,1,4.95,2.11,2,2,0,0,1,.81,1h0a7.36,7.36,0,0,1,2.89,4.75,15,15,0,0,1-.06,6.18,2.54,2.54,0,0,1-.94,1.72.51.51,0,0,0-.22.48,7.57,7.57,0,0,1-3.59,4,12.54,12.54,0,0,1-6.93,1.71c-11.1-.07-22.2,0-33.3,0a31.58,31.58,0,0,0-5,.37h0a10.89,10.89,0,0,0-4,3.77c-1.27,2.06-2.7,4-4.06,6-.2.29-.43.66-.84.57s-.48-.59-.49-1c0-2.35,0-4.69,0-7s-.15-2.45-2.31-3c-.52-.14-1.14-.13-1.43-.72-.26,0-.55,0-.73-.26A9.14,9.14,0,0,1,213,50.71a.86.86,0,0,0,0-.23,3.3,3.3,0,0,1-.55-2c.08-2.3.43-4.51,2-6.32h0a6.13,6.13,0,0,1,3.1-3.12h0A4.5,4.5,0,0,1,220.85,37.56Z"/><path class="cls-5" d="M75.93,232.22A107.61,107.61,0,0,1,75.38,219a79.07,79.07,0,0,1,.47-10c.24-1.92.35-3.87.54-5.8.41-4.13,1-8.24,1.79-12.32.58-3.23,1.15-6.47,1.83-9.68a170.47,170.47,0,0,1,4.44-17.5c.13-.38-.09-.9.49-1.24.19,2,.36,3.87.57,5.76.36,3.23.52,6.47.86,9.69s.51,6.23.81,9.34.7,6.38.89,9.57c.13,2.22.33,4.43.55,6.63.31,3.11.51,6.23.86,9.34.24,2.08.33,4.18.57,6.27.37,3.26.41,6.55.88,9.81.29,2,.29,4.1.5,6.15.3,2.95.51,5.92.76,8.88-.32.23-.62.08-.9-.07a75.65,75.65,0,0,1-8.64-5.51c-.23-.18-.32-.46-.5-.67h0a1.86,1.86,0,0,1-1.2-.9l-.37-.33A20.86,20.86,0,0,1,76,232.76.47.47,0,0,1,75.93,232.22Z"/><path class="cls-3" d="M121.38,117.36l-1.18.34a16.19,16.19,0,0,1-4.86.35c-1.71,0-3.42,0-5.13,0-.85-.12-1.7.06-2.55,0Q88,118,68.33,118c-4.1,0-8.2,0-12.31,0a2.79,2.79,0,0,1-1.17-.18c-.36-.24-.25-.46.07-.59A2.75,2.75,0,0,1,56,117.2c3.73,0,7.46,0,11.19-.1a3.17,3.17,0,0,0,2.25-.86,36.94,36.94,0,0,1,4.67-3.69,2.92,2.92,0,0,1,1.27-.22c2.8-.08,3.3-.47,4-3.17a2.68,2.68,0,0,1,1.6-.81h0a4.37,4.37,0,0,1,1.67-1h0A4.32,4.32,0,0,1,85,106.2l.47-.25a12.91,12.91,0,0,1,3.59-1.67l.72-.24a4.37,4.37,0,0,1,2.39-1c.59,0,1-.58,1.67-.48a6.25,6.25,0,0,1,3.35-1.2,18.26,18.26,0,0,0,2.63-.72c.43-.15.61-.64,1.05-.77.39.11.46.5.66.78a2.52,2.52,0,0,0,2.92.94A2.42,2.42,0,0,0,106,99.08a11.93,11.93,0,0,1,0-1.89c0-.33-.06-.86.58-.79a1.71,1.71,0,0,1,.27,1.12c.06,1.36,0,1.35,1.44,1.12a12.33,12.33,0,0,1,3.26-.33,3.08,3.08,0,0,0,1.67-.24c.53-.32,1.16.08,1.68-.24h1.43c2.13-.89,4.4-.76,6.62-.82.75,0,1.58-.4,2.28.22a1.67,1.67,0,0,1,.12,1.38c-1.14,5.89-2.23,11.79-3.39,17.67C121.9,116.7,121.9,117.18,121.38,117.36Z"/><path class="cls-3" d="M73.82,138.25A49.35,49.35,0,0,0,71,143.06a2.58,2.58,0,0,1-1.61.29c-4.21,0-8.42,0-12.63,0a6,6,0,0,0-1.89.19,2.58,2.58,0,0,0-2,2.51c-.2,3.6.62,4.46,4.24,4.46,2.55,0,5.09,0,7.63,0,1.26.1,2.57-.35,3.76.36q-4.22,12.81-8.43,25.6-3,9.1-6.06,18.21a8,8,0,0,0-.31,3.53c-1.14-.62-.26-1.46-.34-2-.26.47-.38.51-.65,0a4.21,4.21,0,0,1-.45-1.81c-.35-.26-.2-.63-.24-1-.93-.85-.73-2-1-3.11h0c-.59-.43-.17-1.16-.48-1.67-.4-.34-.18-.8-.24-1.2-1.05-1.52-1-3.31-1.19-5h0c-.29-.36.05-.84-.24-1.2h0c-.24-2.12-.45-4.24-.74-6.36a73.05,73.05,0,0,1-.46-10.46,68.62,68.62,0,0,1,2-15,66.3,66.3,0,0,1,3.6-10.67,1.42,1.42,0,0,0,.16-1.25c.87-.26,1.7.16,2.58.14,2.7-.06,5.4,0,8.1,0,2.91-.08,5.79.43,8.69.31A1.1,1.1,0,0,1,73.82,138.25Z"/><path class="cls-4" d="M200.9,79.47l-10.19,12.4c-.62.08-.89-.43-1.27-.75-1.5-1.3-2.87-2.75-4.45-4a17.19,17.19,0,0,0-8-3.39,39.65,39.65,0,0,1-4.55-1c-.43-.12-1-.12-1.1-.73a1.89,1.89,0,0,1,1.22-.67,26,26,0,0,0,14.55-10.61,23.34,23.34,0,0,0,3.36-9.49c.08-.56,0-1.23.68-1.53a3.63,3.63,0,0,1,.8,2.53c.07.93.14,1.87.24,2.8l0,.46c.75,1.53,1,3.21,1.64,4.79h0A72,72,0,0,0,198.62,77h0a2.49,2.49,0,0,1,1.44,1.67l.23.24A.87.87,0,0,1,200.9,79.47Z"/><path class="cls-7" d="M121.38,117.36c.79-4,1.59-8,2.36-12,.51-2.65,1-5.31,1.44-8a1.6,1.6,0,0,1,.27-1.43.31.31,0,0,0,0-.19,40.93,40.93,0,0,1,1-6.61,1.66,1.66,0,0,1,.39-.85v-1a1.71,1.71,0,0,1-.24-.94c.81,0,1.58.25,2.4.28s.5.81.43,1.24c-.28,1.76-.65,3.5-1,5.25-1,5.43-2.22,10.84-3,16.31a16.62,16.62,0,0,0,13.3,18.15,15.24,15.24,0,0,0,8.92-1.39,14.7,14.7,0,0,0,7.09-5.89c.49.64.06,1.22-.18,1.77a14.47,14.47,0,0,1-7.7,7.59,22.48,22.48,0,0,1-8.73,2.14,13.32,13.32,0,0,1-4.18-.73,33.16,33.16,0,0,1-3.59-1.27C125.23,127.27,121.8,123.4,121.38,117.36Z"/><path class="cls-8" d="M106.53,96.35a9.92,9.92,0,0,0-.2,3.07,2.77,2.77,0,0,1-2,2.68,2.67,2.67,0,0,1-3.1-1.39c-.51-1.45-.14-3-.41-4.46a8,8,0,0,1,2.6-5.92,12.63,12.63,0,0,0,3.89-7.45,6.1,6.1,0,0,0-.16-2.48c-.53-1.76-1.44-2.38-3.26-2.12a1.68,1.68,0,0,0-1.28.94,19,19,0,0,0-1,2.91,3,3,0,0,1-3,2.22,3,3,0,0,1-2.8-2.79A8.76,8.76,0,0,1,97.59,76c.14-.19.4-.25.58-.4h0c.32-.46.51-1.07,1.22-1.11l.45-.36a5.2,5.2,0,0,1,3.24-1.35,12,12,0,0,1,4.59.2,2.79,2.79,0,0,1,1.72,1h0a2.48,2.48,0,0,1,1.42.8,9.76,9.76,0,0,1,2.8,8.28c-.16,1.33-.12,2.72-1.15,3.79-.19.11-.19.3-.19.48a3.82,3.82,0,0,1-1.39,2.42.12.12,0,0,0-.07.13,2.25,2.25,0,0,1-1.22,1.5l-.43.49a3.41,3.41,0,0,1-1,1.32A13.4,13.4,0,0,0,106.53,96.35Z"/><path class="cls-7" d="M191,59.77a30.25,30.25,0,0,1-2.56,9.2A24.46,24.46,0,0,1,178,79.41a29.78,29.78,0,0,1-6.72,2.66c0,.09-.12.1-.19,0,.25-1.78.84-3.5.7-5.32a.17.17,0,0,1,0-.29c1-.06,2,0,3,0,1.58,0,1.91-.45,1.28-1.93-.35-.83-2.84-1.7-3.11-2.57-.08-.26,1.8-.43,1.95-.7a18.44,18.44,0,0,0,10.39-10.41c1.34-3.27-4-6.4-4.34-9.89.74-.09-1.23-2.4-1-2l6,2c1.45,1.68,3.95,4.32,4.45,6.47,0,.24,0,.5.21.68A1.15,1.15,0,0,1,191,59.77Z"/><path class="cls-9" d="M52.26,194.44c.4.41.37,1,.63,1.48.08.14,0,.44.25.39s0-.39.27-.42c.19.79-.24,1.64.29,2.37a97.5,97.5,0,0,0,12.73,23.27,74.73,74.73,0,0,0,9.5,10.69c1.38,1.6,3.15,2.79,4.65,4.27-.68,0-1.35,0-2,0a1.34,1.34,0,0,1-1.23-.86,13,13,0,0,0-1.82-2.09A10.34,10.34,0,0,1,74.05,232c-.38-.6-1.43-.86-1.86-1.86-.12-.29-1-.54-1-1.31,0-.51-.4-.24-.63-.22-.69.05-1-.21-1-.95,0-1,.15-2.17-1.35-2.4-.32,0-.31-.42-.31-.7s-.17-.71-.47-.77c-.71-.14-1.2-.37-1.06-1.22,0-.08-.12-.27-.2-.27-1,0-1.5-.49-1.49-1.57,0-.34-.46,0-.71,0-.56,0-.86-.13-.76-.85a9.05,9.05,0,0,0-.14-2.13c0-.09-.14-.27-.2-.26-1.29.13-1.15-.81-1.18-1.6,0-.64-.38-.73-.88-.55-.72.25-.76,0-.69-.67.1-.93.45-2.18-1.31-2.09-.56,0-.5-.68-.43-1,.2-1,.42-1.91-1.13-2.14-.69-.1-.41-1.07-.31-1.57.19-1,0-1.47-1.07-1.44-.51,0-.57-.23-.55-.66s-.11-1-.09-1.54c0-.75-.07-1.29-1-1.15-.44.07-.51-.14-.52-.54,0-.9-.13-1.79-.13-2.69s.12-1.61-1.1-1.6c-.52,0-.49-.66-.42-.83C52.33,196.41,51.81,195.37,52.26,194.44Z"/><path class="cls-9" d="M247.41,79c0,.6,0,.6.47.89a.36.36,0,0,1,.16.41,31.48,31.48,0,0,0-.13,7.06c0,1.67-.54,3.39.06,5.06.2.54,0,.72-.72.73a38.18,38.18,0,0,0-4.78.16c-.75.11-.94-.17-.88-1a57.4,57.4,0,0,0-.08-6.15c-.06-1.73.1-3.47.09-5.21,0-2.55,0-5.09,0-7.64a44.47,44.47,0,0,0,0-5.29c0-.33.23-.29.46-.38.46-.18.85.08,1.27.11l.09.15c-.2.6-.77,1.06-.67,1.78,0,2,0,4,0,6,0,1.58,0,3.16,0,4.74,0,2,.06,4.06,0,6.09a17,17,0,0,0,.23,4.38c.25,1.08.74,1.57,1.76,1.6A1.82,1.82,0,0,0,246.66,91a5.74,5.74,0,0,0,.15-1.65c0-2.91,0-5.81,0-8.71,0-.58-.13-1.21.38-1.68Z"/><path class="cls-9" d="M157,239.64c6.42-3.58,12.73-7.34,19-11.2,1.62-1,3.27-1.94,4.91-2.91.38.8.38,1.41-.74,1.43-.28,0-.69,0-.64.36.23,1.68-1.12,1.08-1.83,1.21s-1.35,0-1.43,1c0,.21-.17.54-.43.51-1-.08-1.29.82-1.81,1.35a1.08,1.08,0,0,1-.91.38c-.87,0-1.7-.11-1.6,1.19,0,.37-.34.42-.71.39a10.17,10.17,0,0,0-1.65.11c-.16,0-.32.05-.47.07.28,1.62-2.06,1.21-2,2.65,0,.28-.25.37-.53.29a7.18,7.18,0,0,0-1.85.08c-.68,0-1.13.11-.81,1,.25.66-.16.74-.68.71s-1-.06-1.51-.07-1,.18-.94.9-.22.94-1,.76A12.75,12.75,0,0,0,157,239.64Z"/><path class="cls-9" d="M53.44,112c-1.39.49-1.41.49-1.41-.93,0-2,.16-3.89,0-5.84-.05-.65.19-.92.88-.92,8.21,0,16.41.12,24.62,0,1.47,0,1.7.47,1.53,1.65l-.17.06c-.7-.14-1.23-.79-2-.68-6.14,0-12.27,0-18.4,0-1.15,0-2.28-.49-3.42,0-1.66.41-2.12,1.07-2.24,2.73a9.57,9.57,0,0,0,.66,3.9Z"/><path class="cls-10" d="M246.45,100.94l-.28.17a1.82,1.82,0,0,1-2.61.12l-.51-.28a2.53,2.53,0,0,1-.59-3.64c.13,0,.21,0,.22.19.69-1.33,1.86-1.26,3.07-1.06.28,0,.56,0,.83.08A2.62,2.62,0,0,1,246.45,100.94Z"/><path class="cls-9" d="M82.15,237.72a85.86,85.86,0,0,0,8.76,5.64c.42.22.85.4,1.28.61l3.54,1.89c-1.23.48-2.5.1-3.75.16,0,0-.1,0-.1-.05,0-2.64-2-1.16-3.19-1.59.21-1-.1-1.64-1.28-1.48-.43,0-.37-.23-.36-.42.06-1.06-.6-1.17-1.42-1.19s-2,.41-1.87-1.15c0-.09-.3-.3-.45-.29-1.47.1-1.13-.95-1.15-1.77C82.15,238,82.15,237.84,82.15,237.72Z"/><path class="cls-9" d="M124,250.59a73.92,73.92,0,0,0,12.24-2.37c2.23-.67,4.45-1.41,6.68-2.12,0,1.73,0,1.78-2.45,1.63a4.48,4.48,0,0,0-1.9.42c-.17.07-.47.21-.47.32,0,1.63-1.28.86-1.9.85s-1.38.09-2.07.11c-.29,0-.66.08-.67.38,0,1.11-.74.94-1.5,1a29.69,29.69,0,0,1-6.25-.16C125.11,250.53,124.54,251.05,124,250.59Z"/><path class="cls-9" d="M275.14,90.39c.3,1.3-.75,1.14-1.54,1.21s-1.83-.3-1.81,1.13c0,.27-.35.41-.64.42s-.39-.09-.59-.1c-1.89,0-1.84,0-1.9-1.88,0-.91.21-1.3,1.15-1.19.35,0,.71-.06,1.07,0,.64,0,1-.17.92-.87s.13-.94.82-.66a1.31,1.31,0,0,0,.59,0C275.05,88.24,275.14,88.32,275.14,90.39Z"/><path class="cls-9" d="M276.1,215.72c2.3.33,4.6.71,6.93.83a63.35,63.35,0,0,0,8.16.23c2.89-.21,5.73-.68,8.58-1.06-.14.29-.67.19-.68.59,0,1.47-1,1.12-1.88,1a7.48,7.48,0,0,0-2.83,0,2.92,2.92,0,0,1-2.21-.14c-.74-.46-1.23.3-1.9.27-1.87-.09-3.73-.13-5.59-.25a19.85,19.85,0,0,0-5.33.18C277.86,217.66,276.89,216.84,276.1,215.72Z"/><path class="cls-9" d="M96.26,246.11c1.68.59,3.35,1.19,5,1.75a54.38,54.38,0,0,0,12.31,2.58,4.34,4.34,0,0,1,.69.17c-2.52.39-5.05.09-7.57.22-1.09.06-.44-.84-.61-1.26a37.88,37.88,0,0,0-5.82-.41c-.45.05-.37-.4-.48-.68-.29-.71-.7-1.17-1.58-.79a1.71,1.71,0,0,1-1.57-.15C96.35,247.31,96.38,246.61,96.26,246.11Z"/><path class="cls-9" d="M278.08,91.34c-1.36.49-1.82.24-1.33-.85.4-.92,1.62-.47,2.48-.55.63-.06.74.33.67.84,0,.16-.11.3-.12.46-.1,1.49.24,1.82,1.72,1.82.49,0,1.31-.28,1.39.24.15.94.58,2.17-.06,2.86s-1.79.17-2.69,0c-.6-.09-.33-.74-.37-1.2-.06-.81.43-1.89-1.2-1.93-.65,0-.28-.93-.08-1.46.1-.13.41-.09.36-.35s-.19-.23-.33-.29C278.16,90.84,278.17,91.16,278.08,91.34Z"/><path class="cls-9" d="M112.47,86.81a14,14,0,0,0,.86-6.08,9.33,9.33,0,0,0-3.93-6.79c.92-.39,1.82.41,2.78,0,.31-.11.41.37.3.62a3.5,3.5,0,0,0,0,1.51c0,.29.07.78.4.79,1.93.07,1.25,1.59,1.29,2.5.08,1.9-.1,3.8,0,5.71C114.3,86.77,114.23,86.78,112.47,86.81Z"/><path class="cls-9" d="M242.61,97.34c-.76,1.31-.33,2.48.44,3.61-1.29.41-1.36.35-1.4-.94a10.82,10.82,0,0,0-.14-2.6.81.81,0,0,1,.87-1.1c.4,0,.68-.12.68-.47,0-1.07.77-1.15,1.46-1.09s2.07-.44,2,1.22c0,.37.41.37.76.26s.9.13.76.45c-.5,1.14.31,2.2,0,3.33s-.36,1.35-1.65.93q2-2.39,0-4.27C245,96.24,243.72,96.17,242.61,97.34Z"/><path class="cls-9" d="M331.1,190.13c.93-2.31,2.33-4.38,3.46-6.59.79-1.54,1.22-3.25,2.28-4.65.41.37.69.77.24,1.31a.41.41,0,0,0,0,.62c.48.48.05.72-.32.85a2,2,0,0,0-1.21,2.39,1.21,1.21,0,0,1-.86,1.46c-.73.27-.8.75-.79,1.37s-.37,1.07-1,1.34a1.33,1.33,0,0,0-.65,1.12C332.68,190.91,331.81,190.37,331.1,190.13Z"/><path class="cls-9" d="M272.27,102.84c1.12-.42,2.28,0,3.43-.15.5-.07.93-.1.85-.66-.12-.88.61-.82,1-1,.67-.22.57.42.7.81a1,1,0,0,0,1,.72c.54,0,.72.28.65.75s-.16.91-.74.91c-2,0-4,0-6-.06-.06,0-.11-.1-.17-.15C273.42,103.25,272.31,103.36,272.27,102.84Z"/><path class="cls-9" d="M184.52,223.38a80.64,80.64,0,0,1,7.64-4.29c.43,1.29.34,1.44-.93,1.45-.47,0-.67.13-.56.63.15.66.07,1-.82.93-.63-.07-1.28.32-2,.1a.35.35,0,0,0-.46.39c.07.41,0,1.1-.18,1.06-.68-.12-1.31.37-2,.09C185,223.63,184.78,223.5,184.52,223.38Z"/><path class="cls-9" d="M214.41,42.12a12.65,12.65,0,0,0-1.68,6.35c0,.67.15,1.34.22,2-.47-.22-1.59-1.53-1.54-2,.06-.65-.17-1.24-.12-1.87s-.29-1.54,1-1.32c.28,0,.41-.3.52-.58a3.29,3.29,0,0,0,.19-1.28C213,42.44,213.3,41.86,214.41,42.12Z"/><path class="cls-9" d="M125.45,95.91a2.7,2.7,0,0,1-.27,1.43c-1.53,0-3.06,0-4.59.08s-2.82.27-4.24.41c.85-1.46,1.33-1.47,3-1.52s3.51.46,5.27,0C124.93,96.21,125.16,96,125.45,95.91Z"/><path class="cls-9" d="M268.39,100.94c-.3.26-.79.16-1,.58-.1-.11-.19-.18-.19-.23.07-.56-.51-1.34,0-1.63.83-.47,1.85-.19,2.79-.12.25,0,.29.23.21.44a2.35,2.35,0,0,0,0,.7c0,1.28.38,2.15,1.83,2.17.07.51.67.67.76,1.17a3.79,3.79,0,0,1-2.16.14c-.89-.07.06-1.56-1.15-1.44s-.67-.78-.75-1.33c.42-.21.45-.55.13-.81S268.63,100.92,268.39,100.94Z"/><path class="cls-9" d="M198.62,77a18.36,18.36,0,0,1-4.81-6.68c.89.26,2,.28,1.7,1.73.89.29,1.67.66,1.54,1.81C199.26,74.09,198.38,75.83,198.62,77Z"/><path class="cls-9" d="M109.4,73.94a10.89,10.89,0,0,0-9.55.17c0-1.84,0-1.79,1.88-1.76,2.12,0,4.25,0,6.37,0C109.17,72.33,109.59,72.9,109.4,73.94Z"/><path class="cls-9" d="M143.59,245.84l7.4-3.16v.12c0,1.4-.52,2.14-2.09,1.66a1.32,1.32,0,0,0-1.09.35c-1.39,1.43-2,1.62-4.11,1Z"/><path class="cls-9" d="M236.88,207.83a66.61,66.61,0,0,1,9.09,1.43,10.53,10.53,0,0,1-4.67-.21,1.44,1.44,0,0,0-1.14.24c-.42.2-.84.48-1.1-.27-.13-.36-.54-.2-.84-.08C237.15,209.33,236.68,209,236.88,207.83Z"/><path class="cls-9" d="M246.45,67.69c1.31-.24,1.71,0,1.64,1.44-.14,3-.26,6-.21,9a5.63,5.63,0,0,1,0,.71c0,.32-.28.17-.46.16l0,0a2,2,0,0,1-.32-1.47c0-1.91,0-3.82,0-5.72a7.48,7.48,0,0,0-.65-3.82A1.6,1.6,0,0,0,246.45,67.69Z"/><path class="cls-9" d="M281.32,99.9c.45.83.27,1.28-.74,1.28-.39,0-.78.07-1.31.12a3.24,3.24,0,0,0,.41-2.48c-.05-.69.14-1.08.92-1,.39,0,.88-.13,1.17,0s1.09-.16,1.12.41-.06,1.4-1.08,1.28c-.14,0-.29.12-.43.19s-.33-.4-.58-.1c-.07.09-.14.24-.08.31C280.92,100.18,281.11,99.83,281.32,99.9Z"/><path class="cls-9" d="M343.06,155.22c.23-3.23-.37-6.39-.73-9.57.29,0,.44-.54.82-.24s.22.5.26.82a34.1,34.1,0,0,1-.1,6.31c-.05.73.67,1.32.47,2.13C343.68,155.11,343.64,155.48,343.06,155.22Z"/><path class="cls-9" d="M216.79,209.26a31.74,31.74,0,0,1,5.69-1.16c.74-.07,1.46-.21,2.2-.27a3.09,3.09,0,0,1-2.5,1.38A35.93,35.93,0,0,1,216.79,209.26Z"/><path class="cls-9" d="M195.49,217.38c.59-.32,1.16-.68,1.77-.94a3.94,3.94,0,0,0,2.33-2.39c.48.3-.09.73.15,1.09.72,0,1.23-.72,2-.62.48,1.73-1,1.26-1.68,1.3-.91.05-1.46.19-1.51,1.17,0,.25-.11.41-.34.38C197.29,217.27,196.39,217.7,195.49,217.38Z"/><path class="cls-9" d="M254.1,115.24a43.67,43.67,0,0,1-4.57-2.8c.65-.09,1.3-.2,1.95-.26.89-.09,1.64,0,1.37,1.24-.12.58.36.45.59.46C254.57,113.91,254.48,114.5,254.1,115.24Z"/><path class="cls-9" d="M324.4,199.46a24.54,24.54,0,0,1,3.35-4.31,3.85,3.85,0,0,0,0,1.62c.05.82,0,1.52-1.08,1.49-.15,0-.42.06-.43.12C326.11,199.57,325.1,199.25,324.4,199.46Z"/><path class="cls-9" d="M319.14,130.11c-1.69.29-3.4.49-5.06.94a13.23,13.23,0,0,1-1.4.25,2.12,2.12,0,0,1,2.87-1.46c.79.18,1.61-.29,2.46-.23A1.51,1.51,0,0,1,319.14,130.11Z"/><path class="cls-9" d="M338.27,137.52c-1.67-1.44-3.1-3.16-5-4.3,1-.33,2-.73,2.4.82a.46.46,0,0,0,.42.36c.19,0,.51.06.55.17C337,135.67,338.41,136.16,338.27,137.52Z"/><path class="cls-9" d="M313.64,209.5c1.28-1.56,3.14-2.42,4.54-3.83,0,1-.07,2.08-1.46,2.24-.05,0-.13.11-.14.17C316.37,210.16,314.62,209,313.64,209.5Z"/><path class="cls-9" d="M191,59.77l-.33-1.62c1.47,0,1.83.13,1.67,1.53-.22,1.81,0,3.62-.18,5.41-.31-1.59-.62-3.19-.94-4.79A2.47,2.47,0,0,0,191,59.77Z"/><path class="cls-9" d="M279.68,40.44a15.5,15.5,0,0,0-5.76-3.1c1.16,0,2.33.13,3.49.07.64,0,.88.07.84.71s.17.85.73.87C280.11,39,280.05,39.66,279.68,40.44Z"/><path class="cls-9" d="M295.7,139.43l-4.54,3.11c-.08-.72-.82-1.78.85-1.59a.55.55,0,0,0,.43-.35c.29-1.64,1.46-1.3,2.55-1.17A5.61,5.61,0,0,0,295.7,139.43Z"/><path class="cls-9" d="M241.18,107.16l-4.29-2.88c.75,0,1.5,0,2.25,0a3.11,3.11,0,0,1,.65.12c-.18,1.42,1.29,1.21,1.83,1.88C241.88,106.62,241.38,106.89,241.18,107.16Z"/><path class="cls-9" d="M243.56,101.23a4.39,4.39,0,0,0,2.61-.12c.53,1.44.49,1.51-1,1.58-.35,0-.75.22-1,.11s-.87.25-1-.33A1,1,0,0,1,243.56,101.23Z"/><path class="cls-9" d="M243.29,67.67C243,66,243,66,244.7,66.1l.11,0c1.62,0,1.62,0,1.64,1.57l0,0a9.65,9.65,0,0,1-3.08,0Z"/><path class="cls-9" d="M303.84,134.65a28.22,28.22,0,0,1-4.79,2.63c-.25-.71-.23-1.27.75-1.19.64,0,.66-.4.76-.82s.29-.89.94-.5a1.18,1.18,0,0,0,1.24-.06A1,1,0,0,1,303.84,134.65Z"/><path class="cls-9" d="M211.29,210.93c1.4-1.12,3.13-1.14,4.78-1.43,0,1.41,0,1.43-2.09,1.49C213.08,211,212.18,211,211.29,210.93Z"/><path class="cls-9" d="M268.68,214.28a53.85,53.85,0,0,1,5.5,1.2c-1.25.07-2.5.23-3.76.28S268.57,215.6,268.68,214.28Z"/><path class="cls-9" d="M342.1,161.67c.32-1.67.64-3.34.95-5a34.48,34.48,0,0,1,.58,4.49C343.64,162,342.64,161.53,342.1,161.67Z"/><path class="cls-9" d="M308.38,212.61a45.47,45.47,0,0,1,4.78-2.87c.2.33.3.75,0,.95C311.63,211.53,310.37,213,308.38,212.61Z"/><path class="cls-9" d="M258.64,161.67a20.79,20.79,0,0,1-6.22,1.44l.73-1.37c.42.38.75.91,1.46.84a2.58,2.58,0,0,0-.73-.91Z"/><path class="cls-9" d="M193.82,70.34a11.83,11.83,0,0,1-1.64-4.79.23.23,0,0,0,.1.07c2.19.54,1.42,2.27,1.48,3.67C193.77,69.64,193.8,70,193.82,70.34Z"/><path class="cls-9" d="M243.09,163.11a11.43,11.43,0,0,1-4.54-1.2c1.25-.61,2.55.09,3.83-.13C242.86,161.69,243.37,162.38,243.09,163.11Z"/><path class="cls-11" d="M125.23,66.51a32.5,32.5,0,0,1,0-5l0-.59c.21-.43,0-.9.17-1.33l0-.25c.47-.37,0-1.06.51-1.42.47.53.07,1,0,1.57a32.72,32.72,0,0,0-.28,7.53,1.2,1.2,0,0,0,.48.89c-.21-.29-.58.76-.73-.09C125.2,67.39,125.45,66.91,125.23,66.51Z"/><path class="cls-9" d="M122.34,75.35a25.9,25.9,0,0,0,.19,5.35,12.92,12.92,0,0,0,1,2.55c-.27.49-.72.39-1.12.29-.64-.15-.06-.55-.13-.84-.52-2.11,0-4.24-.16-6.36C122.08,76,122,75.61,122.34,75.35Z"/><path class="cls-9" d="M274.18,154.26a19.5,19.5,0,0,1-4.06,2.39c.27-.37.16-1,.72-1.16s1.28-.08,1.06-1.17C271.78,153.78,273.65,153.67,274.18,154.26Z"/><path class="cls-9" d="M81,108.35a1.88,1.88,0,0,1-1.43.71A6.29,6.29,0,0,1,79,106l0,0c1.35-.15,1.35-.15,1.76,1.9C80.85,108,80.74,108.23,81,108.35Z"/><path class="cls-9" d="M327.75,195.15a27.52,27.52,0,0,1,2.87-4.3c.31,1.44.05,2-1.22,2.68-.23.11-.49.29-.41.51C329.45,195.41,328.37,195,327.75,195.15Z"/><path class="cls-9" d="M49.16,182.48l1.19,5c-1.38-.44-1.78-1.26-1.32-2.84a.85.85,0,0,0-.12-.88C48.46,183.25,48.74,182.85,49.16,182.48Z"/><path class="cls-9" d="M123.75,70.33l-1.41,5c-.42-1.29-.08-2.62-.23-3.92,0-.28,0-.58.39-.55S123.3,70.45,123.75,70.33Z"/><path class="cls-9" d="M260.31,212.37a23.46,23.46,0,0,1,5,1.19,3.33,3.33,0,0,1-2.48.34c-.33-.12-.55-.13-.64-.48s-.36-.61-.87-.33C260.66,213.46,260.89,212.29,260.31,212.37Z"/><path class="cls-9" d="M267.23,95.67c-.19-.46-.36-.92.42-1,.5,0,1.07-.1,1,.72s0,1.41,0,2.11-.54.25-.8.3c-.82.18-.55-.5-.62-.9C267.44,96.52,268.33,96.08,267.23,95.67Z"/><path class="cls-9" d="M180.93,225.52a25.79,25.79,0,0,1,3.58-2.13c.05,1.51-.81,2.05-2.19,2.11A3.61,3.61,0,0,1,180.93,225.52Z"/><path class="cls-9" d="M247.64,209.5c1.09.36,2.29.22,3.35.72-.54.08-.51.85-1.3.83-1,0-.9.1-1.49-.57C247.92,210.16,247.89,209.79,247.64,209.5Z"/><path class="cls-9" d="M97.22,101.41a17.38,17.38,0,0,1-3.35,1.2c0-.35-.25-.56-.39-.84s0-.53.11-.47C94.79,101.85,96.05,100.4,97.22,101.41Z"/><path class="cls-9" d="M255.29,211.17a13.3,13.3,0,0,1,3.83,1,26.44,26.44,0,0,1-3.22.37C254.39,212.79,255.56,211.6,255.29,211.17Z"/><path class="cls-9" d="M151,242.68a24,24,0,0,1,3.38-1.65c-.07.56-.77.94-.45,1.61.09.19.08.28-.17.27C152.82,242.86,151.86,243.25,151,242.68Z"/><path class="cls-9" d="M304.55,214.28a25.51,25.51,0,0,1,3.83-1.67c.09.3-1.13.23-.2.84.47.31,0,.54-.38.65A12.18,12.18,0,0,1,304.55,214.28Z"/><path class="cls-9" d="M340.42,168.61a10.83,10.83,0,0,1,1-3.35c.55,0,.87.24.65.86a1.87,1.87,0,0,0-.16.68c0,.72,0,1.34-1,1.31C340.74,168.11,340.58,168.43,340.42,168.61Z"/><path class="cls-9" d="M192.31,219a15.07,15.07,0,0,1,3.19-1.65c.33,1.26-.3,1.74-1.46,1.67C193.46,219,192.88,219.32,192.31,219Z"/><path class="cls-9" d="M51.07,190.37l1,3.11H51c-.39,0-.42-.16-.49-.56A4.13,4.13,0,0,1,51.07,190.37Z"/><path class="cls-9" d="M328.7,131.07a4.75,4.75,0,0,1-2.62-.72c.57.1.91-.38,1.36-.56a1.64,1.64,0,0,1,1.62.07C329.49,130.23,328.9,130.67,328.7,131.07Z"/><path class="cls-9" d="M92.2,103.09a6.13,6.13,0,0,1-2.39,1c.33-.89-.5-.07-.56-.38A1.8,1.8,0,0,1,92.2,103.09Z"/><path class="cls-9" d="M154.35,241a16.4,16.4,0,0,1,2.66-1.39c.46,1.45.31,1.67-1.17,1.66A2.41,2.41,0,0,1,154.35,241Z"/><path class="cls-9" d="M254.77,153.52l2.68-1.39c.36,1.52.32,1.57-1.31,1.65A2.24,2.24,0,0,1,254.77,153.52Z"/><path class="cls-9" d="M284.23,147.33a6.43,6.43,0,0,1-2.39,1.67c-.35-1.5-.35-1.5,1.44-1.64C283.59,147.33,283.91,147.34,284.23,147.33Z"/><path class="cls-9" d="M220.85,37.56,217.51,39c.45-.43-.1-1.3.54-1.52A4.41,4.41,0,0,1,220.85,37.56Z"/><path class="cls-9" d="M137.91,43.81A19.42,19.42,0,0,1,135,45.2c-.05-.27-.09-.53-.16-.79-.15-.61-.06-1,.67-.65S137.11,43.45,137.91,43.81Z"/><path class="cls-9" d="M203.88,213.56a5.16,5.16,0,0,1,2.39-.95c.14.38.51.88,0,1.11s-1,.9-1.66.2A.92.92,0,0,0,203.88,213.56Z"/><path class="cls-9" d="M311.73,131.54l-3.11,1.2c.14-1.47.27-1.59,1.83-1.43C310.88,131.36,311.3,131.47,311.73,131.54Z"/><path class="cls-9" d="M279.92,150.43l-1.67,1.2c-.16-.8-.59-.24-.88-.15s-.65.26-.76-.21.19-.39.53-.52A8.24,8.24,0,0,1,279.92,150.43Z"/><path class="cls-9" d="M337.32,177.46a17.18,17.18,0,0,1,1.19-2.87c0,.6.07,1.23.14,1.8C338.81,177.71,338.17,177.63,337.32,177.46Z"/><path class="cls-9" d="M262.23,160.48a10.75,10.75,0,0,1-2.63,1,.76.76,0,0,1,0-.11c.27-.47-1-.51-.34-.93a1.48,1.48,0,0,1,1.67-.18A2,2,0,0,0,262.23,160.48Z"/><path class="cls-9" d="M249.55,163.35a9.91,9.91,0,0,1-4.78,0A9.67,9.67,0,0,1,249.55,163.35Z"/><path class="cls-9" d="M122.09,250.59H124c-.16.29-.45.28-.72.28h-8.09c-.28,0-.56,0-.75-.26C117,250.61,119.54,250.84,122.09,250.59Z"/><path class="cls-9" d="M340.18,140.39l-1.43-2.15c.87-.68,1.14-.6,1.44.43A2.43,2.43,0,0,1,340.18,140.39Z"/><path class="cls-9" d="M225.64,207.83c.09-.07.19-.2.28-.2h9c.09,0,.19.13.29.2Z"/><path class="cls-9" d="M85,106.2a9.27,9.27,0,0,1-2.4,1.19c-.32-1.31-.19-1.49,1.12-1.42A9.56,9.56,0,0,1,85,106.2Z"/><path class="cls-9" d="M298.34,137.76a11.2,11.2,0,0,1-2.4,1.43c-.43-1.31-.35-1.42,1-1.43Z"/><path class="cls-9" d="M300.73,215.48l2.87-1c-.21.36.07.42.29.59s.12.65-.18.54C302.72,215.29,301.69,216,300.73,215.48Z"/><path class="cls-9" d="M266.53,158.57a6.41,6.41,0,0,1-2.63,1.19C264.2,158.29,264.57,158.12,266.53,158.57Z"/><path class="cls-9" d="M326.08,130.35c-1-.13-2.11.28-3.11-.24a4.6,4.6,0,0,1,2.45-.49C325.93,129.65,326.1,129.88,326.08,130.35Z"/><path class="cls-9" d="M281.84,149c-.39.68-1.14.93-1.68,1.43,0-.43-.52-.93,0-1.27A1.4,1.4,0,0,1,281.84,149Z"/><path class="cls-9" d="M208.9,211.65a4.58,4.58,0,0,1,2.39-.72c-.17.41,0,1.22-.91.67-.26-.17-.32-.09-.48.21C209.53,212.51,209.17,212.16,208.9,211.65Z"/><path class="cls-9" d="M251,210.22a13.09,13.09,0,0,1,3.34.71c-.74.18-1.48-.31-2.27.15A.79.79,0,0,1,251,210.22Z"/><path class="cls-12" d="M268.39,100.94c0-.33-.43-.64-.06-1s.46-.07.58.13c.22.4.76.67.6,1.2s-.48.24-.77.09Z"/><path class="cls-13" d="M272.8,104c-.28-.37-1.46-.16-.76-1.17a.6.6,0,0,0,.23,0c.25.09.5.19.75.26s.57.13.59.45-.32.45-.62.5l-.09,0Z"/><path class="cls-9" d="M205.05,80.4,203.3,79C204.71,78.59,204.71,78.59,205.05,80.4Z"/><path class="cls-9" d="M200.06,78.69,198.62,77h.12l1.51.06Z"/><path class="cls-14" d="M267.23,95.67c.14-.23.3-.6.6-.42.55.32.11.87.15,1.31s-.35.51-.73.39C266.79,96.53,267.08,96.1,267.23,95.67Z"/><path class="cls-9" d="M332.53,132.74a10.77,10.77,0,0,1-2.63-1.2C331.25,130.92,331.88,131.86,332.53,132.74Z"/><path class="cls-9" d="M269.16,157.13a4.71,4.71,0,0,1-1.67,1c-.08-.3-.54-.66-.18-.89A1.64,1.64,0,0,1,269.16,157.13Z"/><path class="cls-15" d="M278.08,91.34c-.16-.25-.54-.51-.16-.79s.76.2,1.11.38.51.34.36.65c-.25.51-.6.13-.9,0Z"/><path class="cls-16" d="M281.32,99.9c-.29.22-.29.81-.83.71a.35.35,0,0,1-.26-.47c.18-.43.25-1.06.7-1.18.71-.19.39.45.45.78A.17.17,0,0,0,281.32,99.9Z"/><path class="cls-9" d="M81,236.82a3,3,0,0,1,1.2.9c-.33.38-.76.7-1.21.38S80.72,237.25,81,236.82Z"/><path class="cls-9" d="M109.6,91.34l1.22-1.5c0,.5.52,1-.06,1.5C110.34,91.72,110,91.54,109.6,91.34Z"/><path class="cls-9" d="M99.4,74.47l-1.22,1.11c.06-.67-.38-1.66.94-1.57C99.38,74,99.35,74.29,99.4,74.47Z"/><path class="cls-9" d="M123.77,83.73a3.28,3.28,0,0,1,1.14,1.2C123.72,85.28,123.49,85,123.77,83.73Z"/><path class="cls-9" d="M341.14,142.31a3.85,3.85,0,0,1-.71-1.2,4,4,0,0,0,.68-.12c.32-.11.65-.18.82.15.26.51-.3.4-.5.56A.83.83,0,0,0,341.14,142.31Z"/><path class="cls-9" d="M276.58,152.59a1.14,1.14,0,0,1-1,.71c0-.32-.81-.2-.43-.73S276.12,152.4,276.58,152.59Z"/><path class="cls-9" d="M342.1,144.94a4.17,4.17,0,0,1-.72-1.92c.34-.13.11-.57.48-.81C342,143.16,342,144.05,342.1,144.94Z"/><path class="cls-9" d="M50.59,188.7a3.63,3.63,0,0,1,.48,1.67c-.55.24-.77,0-.65-.52A4.16,4.16,0,0,0,50.59,188.7Z"/><path class="cls-9" d="M139.43,248.32c.23,0,.33.13.32.31a.53.53,0,0,1-.52.53c-.17,0-.34-.08-.3-.27A.89.89,0,0,1,139.43,248.32Z"/><path class="cls-9" d="M82.63,107.39a4.89,4.89,0,0,1-1.67,1A1.42,1.42,0,0,1,82.63,107.39Z"/><path class="cls-9" d="M200.9,79.47a1,1,0,0,1-.61-.54c.41-.16.81-.46,1.2,0Z"/><path class="cls-9" d="M68.12,226.11c.3.11.49.26.54.5s-.13.34-.35.3a.45.45,0,0,1-.43-.47C67.89,226.32,68,226.21,68.12,226.11Z"/><path class="cls-9" d="M202.68,214a2.44,2.44,0,0,1,1.2-.48.68.68,0,0,0,.36.6C203.62,214.44,203.18,213.93,202.68,214Z"/><path class="cls-9" d="M343.05,156.65c-.16-.4-.44-.8,0-1.19C343.24,155.85,343.89,156.25,343.05,156.65Z"/><path class="cls-9" d="M206.75,212.37c.41-.36.95-.32,1.43-.48C208.1,213.23,207.14,212,206.75,212.37Z"/><path class="cls-9" d="M265.34,213.56a2.76,2.76,0,0,1,1.91.48A3.47,3.47,0,0,1,265.34,213.56Z"/><path class="cls-9" d="M259.12,212.13c.4.06.86-.16,1.19.24a4.23,4.23,0,0,1-1.15.21C258.47,212.54,259.16,212.28,259.12,212.13Z"/><path class="cls-9" d="M125.39,59.56a2,2,0,0,1-.17,1.33,4.82,4.82,0,0,1-.21-1.38C125.1,59,125.25,59.61,125.39,59.56Z"/><path class="cls-9" d="M114.92,97.83c-.51.45-1.12.15-1.68.24C113.75,97.61,114.36,97.92,114.92,97.83Z"/><path class="cls-9" d="M225.6,208.85c0,.16,0,.35-.22.32s-.23-.17-.31-.28.11-.19.2-.24S225.56,208.66,225.6,208.85Z"/><path class="cls-9" d="M202.91,214.77c.07.16.17.28.14.33a.56.56,0,0,1-.31.28c-.22.05-.26-.13-.18-.28S202.76,214.9,202.91,214.77Z"/><path class="cls-9" d="M341.38,164.78c0-.26,0-.54.24-.72.07.21.44.26.35.53S341.59,164.75,341.38,164.78Z"/><path class="cls-9" d="M298,136.49a.24.24,0,0,1-.27.28.37.37,0,0,1-.26-.17.26.26,0,0,1,.2-.35C297.86,136.21,298,136.32,298,136.49Z"/><path class="cls-9" d="M124.35,60.13a.49.49,0,0,1-.24.11c-.17,0-.28-.11-.2-.28s.19-.1.29-.1S124.42,59.93,124.35,60.13Z"/><path class="cls-9" d="M333.49,132.22c-.09-.13-.18-.21-.19-.29s.06-.31.25-.26.13.18.13.27S333.58,132.1,333.49,132.22Z"/><path class="cls-9" d="M322.73,130.11h-1.44A1.1,1.1,0,0,1,322.73,130.11Z"/><path class="cls-9" d="M262.71,159.14c-.06,0-.18-.09-.2-.17s0-.32.21-.32a.35.35,0,0,1,.27.16C263.09,159,262.87,159,262.71,159.14Z"/><path class="cls-9" d="M262.71,160.24a.52.52,0,0,1-.48.24l-.52-.4C262.09,159.89,262.39,160.1,262.71,160.24Z"/><path class="cls-9" d="M244.53,163.35c-.48-.08-1,.19-1.44-.24C243.57,163.19,244.11,162.91,244.53,163.35Z"/><path class="cls-9" d="M252.18,163.11c-.42.43-1,.16-1.43.24C251.17,162.91,251.7,163.19,252.18,163.11Z"/><path class="cls-9" d="M274.18,215.48c.48.07,1-.19,1.44.24C275.14,215.64,274.6,215.91,274.18,215.48Z"/><path class="cls-9" d="M221.08,36.15c.1.13.2.2.21.29s-.08.16-.13.24c-.07-.08-.18-.14-.21-.22S221,36.3,221.08,36.15Z"/><path class="cls-9" d="M48.92,181.28c.39.34.18.8.24,1.2C48.75,182.14,49,181.68,48.92,181.28Z"/><path class="cls-9" d="M269,155.54c.11.08.24.12.27.2a.21.21,0,0,1-.21.3c-.08,0-.2-.12-.22-.2S268.91,155.66,269,155.54Z"/><path class="cls-9" d="M341.86,162.87c.06-.4-.16-.86.24-1.2C342,162.08,342.26,162.53,341.86,162.87Z"/><path class="cls-9" d="M202.78,78.33a.79.79,0,0,1-.85,0C202.17,78.16,202.42,78.19,202.78,78.33Z"/><path class="cls-9" d="M49.3,188.08c0,.17,0,.29-.17.26s-.14-.15-.17-.25.06-.12.1-.19Z"/><path class="cls-9" d="M95.17,246.75c.21.14.42.4.25.54s-.29-.14-.33-.32S95.14,246.83,95.17,246.75Z"/><path class="cls-6" d="M53.47,124.83c-1.37-1.5-1.07-3.32-.88-5.07.13-1.11,1-1.71,2.06-2.1l13.64,0a1.92,1.92,0,0,0,1.06.11h37.34a1.89,1.89,0,0,0,1-.11l2.41,0c0,.56-.5.69-.88.84-5.29,2.09-10.53,4.29-15.81,6.38a4.33,4.33,0,0,1-.86.21,28.8,28.8,0,0,1,5-.07c.26,0,.67,0,.56.53a1.3,1.3,0,0,1-1,.3c-1.82,0-3.65.07-5.47,0a14.61,14.61,0,0,0-2.38-.13c-8.66,0-17.33.12-26-.06-2.72-.06-5.46-.06-8.18-.31C54.51,125.4,54.05,124.92,53.47,124.83Z"/><path class="cls-3" d="M55.13,125.34h35.7c.31,0,.65-.06.89.22a37.25,37.25,0,0,0,6.51.06c.59,0,1.15-.19,1.15.68q-4.93,2.22-10,4.12c-3.43.63-6.89.21-10.33.31-6.37,0-12.75,0-19.12,0-.66,0-1.37.14-1.92-.4.7-1.7,2-3,3-4.77-1.54,0-3,0-4.49,0C56,125.55,55.54,125.73,55.13,125.34Z"/><path class="cls-6" d="M58,130.33l21.06,0c-.12.67-.74.65-1.18.81a15.53,15.53,0,0,0-7.59,5.32,2.09,2.09,0,0,0-.59,1.1,25.85,25.85,0,0,0,3.17.12c.41,0,1-.18,1.13.49a.27.27,0,0,1-.18.05c-6.14-.15-12.29-.35-18.44-.22a5.25,5.25,0,0,1-1.91-.52c-1.45-1.53-1.08-3.4-.83-5.17a2.5,2.5,0,0,1,2.62-2C56.17,130.33,57.08,130.34,58,130.33Z"/><path class="cls-3" d="M155.05,119.79l0-.45a.73.73,0,0,1-.15-.66c.4-1.78.48-3.64,1.37-5.29.77-.77,1.91-.83,2.77-1.48a16.86,16.86,0,0,0,4.63-5.78c.95-1.76,1.74-3.62,2.6-5.44a1.11,1.11,0,0,1,1-.19c4.37.82,8.75,1.63,13.08,2.67,3.32.79,6.65,1.56,9.92,2.56a74,74,0,0,1,10,3.81,1.8,1.8,0,0,0,.67.24l1.36,1.22a13.74,13.74,0,0,1,3.12,3.11c3.18,3.34,6.63,6.39,10,9.49l.5.5a1.89,1.89,0,0,1-1.66.39c-1.65-.11-3.29-.26-4.94-.26a1.49,1.49,0,0,1-1.2-.39c-3.36-.28-6.73-.57-10.1-.82q-12.07-.92-24.16-1.8c-.31,0-.63,0-.95,0a4.61,4.61,0,0,1-2.24.15c-4.79-.47-9.61-.65-14.4-1.15A1.85,1.85,0,0,1,155.05,119.79Z"/><path class="cls-5" d="M155.05,119.79l18,1.42c.66.57,1.45.17,2.17.29.22,0,.54,0,.59.25s-.16.35-.28.5c-3.41,4.36-7.91,7.1-13,9.05a38.35,38.35,0,0,1-16.16,2.12,40.07,40.07,0,0,1-11.77-2.08,4.89,4.89,0,0,1-.51-.26,20.62,20.62,0,0,0,14.33-2.51c3.24-1.87,5.64-4.46,6.46-8.26Z"/><path class="cls-6" d="M64.71,150.89c-3,0-6,0-9.07,0a3,3,0,0,1-3.14-3.12c0-4.06.66-4.75,4.76-4.75l13.72,0a1.17,1.17,0,0,1,0,.2c-.8.56-1.7.3-2.55.3a1.43,1.43,0,0,0-1.56,1.13C66.15,146.77,65.51,148.85,64.71,150.89Z"/><path class="cls-17" d="M98.19,125.36h-6l-.07-.24,4.17-1.69,12.9-5.2a7.79,7.79,0,0,0,.92-.53h10c-2.66,1.35-5.48,2.32-8.23,3.48-3.54,1.49-7.12,2.92-10.69,4.38C100.24,125.64,99.19,126,98.19,125.36Z"/><path class="cls-17" d="M74,138.2c-1.11-.43-2.26-.1-3.39-.19-.47,0-.94,0-1.58,0a12.4,12.4,0,0,1,3.78-4.53c1.83-1.52,4.12-2.16,6.25-3.12l10.31,0c-3.11,1.31-6.18,2.7-9.32,3.91A17.53,17.53,0,0,0,74,138.2Z"/><path class="cls-5" d="M208.23,123.84l7.8.26q3.24,3.06,6.48,6.1a17.59,17.59,0,0,1,2.71,2.61c-5.95-3.18-11.49-6.52-17.68-8.84Z"/><path class="cls-17" d="M64.71,150.89c-.28-.4,0-.77.09-1.13.6-1.85,1.25-3.68,1.83-5.53.21-.7.51-1.07,1.32-1,1,.08,2,0,3,0a62,62,0,0,1-2.43,7.66Z"/><path class="cls-18" d="M195.82,104.26c-.51.12-1-.27-1.51,0-.36.15-.53-.21-.51-.48.09-1.22-.61-1.26-1.49-1-.2-2.11-.2-2.11-1.66-1.67-.09-1.06.2-2.21-1.08-2.9-.64-.35-.56-1.17-.48-1.85Z"/><path class="cls-19" d="M98.19,125.36a6.74,6.74,0,0,0,2.24,0c.3,0,.62-.19.85.15l-1.9.73a1.37,1.37,0,0,0-1.08-.51c-1.82.06-3.65,0-5.47,0-.38,0-.81.14-1.11-.25,1.78,0,3.56,0,5.34,0C97.44,125.55,97.85,125.66,98.19,125.36Z"/><path class="cls-20" d="M275.44,205.67H260.38c-1.9,0-2-.08-2-1.9V190.5c0-1.56,0-1.56-1.62-1.56h-2c-.43,0-.86-.09-.84-.61s.46-.58.88-.58h15.06a1.49,1.49,0,0,1,.93.14.62.62,0,0,1,.24.74c-.15.41-.52.31-.82.31h-8.73c-2.11,0-2.11,0-2.11,2.17,0,4.11,0,8.21,0,12.31,0,.94.18,1.32,1.23,1.32q14.82-.06,29.64,0c1,0,1.21-.28,1.21-1.22q0-14.16,0-28.33c0-1-.26-1.35-1.28-1.34-1.59,0-3.17-.16-4.76-.21-.75,0-.93-.43-.92-1.08,0-1.48,0-2.95,0-4.42,0-.86-.26-1.22-1.16-1.22q-11.47,0-22.95,0c-.79,0-1,.25-1,1q0,4.06,0,8.12c0,.62.29.65.71.66.6,0,1.2,0,1.79,0,.38,0,.76.21.74.62a.67.67,0,0,1-.7.55q-3.65,0-7.29,0a.61.61,0,0,1-.65-.7c0-.53.43-.47.79-.48.83,0,1.67-.05,2.5,0s1.25-.35,1.23-1.27c0-2.79,0-5.58,0-8.36,0-.89.24-1.16,1.14-1.16q12.08,0,24.15,0a2.25,2.25,0,0,1,1.7.69c2.05,2,4.08,4.1,6.14,6.12a3,3,0,0,1,.85,2.34q0,14.71,0,29.41c0,1.15-.72,1.15-1.51,1.15Z"/><path class="cls-21" d="M236.41,176.8a4,4,0,0,1-5.82,3.72,1.74,1.74,0,0,0-2,0c-1,.64-2.12,1.1-3.18,1.65-.38.2-.84.41-.65,1s-.15,1.43.83,1.64a5.26,5.26,0,0,1,1,.4c1.47.66,2.76,1.22,4.53.32,1.94-1,4.58.57,5.17,2.57a4.51,4.51,0,0,1-3,5.52,4,4,0,0,1-5-3.14c-.19-1.86-1.14-2.45-2.61-3-1.23-.47-2.25-.93-3.52,0-1.57,1.18-4.76-.18-5.54-2.35a4.38,4.38,0,0,1,2.77-5.53,4.2,4.2,0,0,1,3.42.49c.28.16.49.52.94.26,1.27-.74,2.57-1.43,3.87-2.12a.78.78,0,0,0,.47-.93,4.21,4.21,0,0,1,5.35-4.66A4.11,4.11,0,0,1,236.41,176.8Z"/><path class="cls-6" d="M305.63,147.08c.52,0,.67.36.83.72a11.19,11.19,0,0,0,6,6,.94.94,0,0,1,.62.79c.05.45-.3.62-.63.77a12,12,0,0,0-6.18,6.16c-.4.87-1.2.89-1.57,0a11.72,11.72,0,0,0-6.15-6.18c-.94-.43-.93-1.08,0-1.54a12.32,12.32,0,0,0,6.12-6.08A.88.88,0,0,1,305.63,147.08Z"/><path class="cls-22" d="M262.52,185.35H255c-.47,0-1.09.08-1.09-.6s.62-.6,1.09-.6h15.15c.45,0,1,0,1,.56s-.51.64-1,.64Z"/><path class="cls-23" d="M262.44,181.52h-7.39c-.46,0-1.1.12-1.12-.55s.66-.64,1.15-.64c4.93,0,9.86,0,14.79,0h.36c.44,0,.8.15.81.66s-.46.53-.85.53Z"/><path class="cls-24" d="M198.14,185.59l0-.42v-2.68C198.27,183.52,198.66,184.57,198.14,185.59Z"/><path class="cls-9" d="M200,212v1.58h-.12v-1.6Z"/><path class="cls-7" d="M156.31,113.39c-.41,2-.81,4-1.22,6a16.29,16.29,0,0,1-5.74-1.26,24.77,24.77,0,0,1-9.48-6.2,33.51,33.51,0,0,1-7.74-14.06c-.25-.92-.48-1.84-.7-2.77a2.06,2.06,0,0,1,.07-.58,39.68,39.68,0,0,0,3.21,5.32,33.05,33.05,0,0,0,12.69,10.89,22.1,22.1,0,0,0,8.11,2.21C155.88,112.91,156.24,112.9,156.31,113.39Z"/><path class="cls-25" d="M171.84,76.52v.25a77.52,77.52,0,0,1-7.54-2.52A29.53,29.53,0,0,1,153,65.37a26.46,26.46,0,0,1-4.33-7.63c-.11-.35-.3-.65,0-1,1.84,2.23,3.4,4.69,5.41,6.79,2.89,3,5.9,5.84,9.83,7.44a11.56,11.56,0,0,0,3.92,1q1.91,0,3.81,0h1A5,5,0,0,1,171.84,76.52Z"/><path class="cls-26" d="M125.23,66.51c.36.38.17.85.18,1.28a.2.2,0,0,0-.15-.06Z"/><path class="cls-27" d="M171.59,72a9.06,9.06,0,0,1-3.81,0A7.24,7.24,0,0,1,171.59,72Z"/><path class="cls-28" d="M270.58,45.47c.17.22.43.18.65.24s.46.18.39.48a.52.52,0,0,1-.48.46c-.28,0-.56,0-.84,0H223.92c-.42,0-.92.16-1.22-.27s.21-.61.33-.91c.32-.24.69-.13,1-.13h45.47C269.89,45.35,270.26,45.24,270.58,45.47Z"/><path class="cls-29" d="M223.26,51.66c-.12-.3-.62-.49-.33-.92s.72-.27,1.1-.27h26.3c1.31,0,2.63,0,3.94,0,.69,0,1.07.23,1,1-.47.59-1.16.47-1.76.47q-14.39,0-28.76,0A3.93,3.93,0,0,1,223.26,51.66Z"/><path class="cls-30" d="M223.26,51.66h30.52a2.7,2.7,0,0,0,1.51-.23c-.35.77-1.11.7-1.71.7q-14.42,0-28.83,0a7.91,7.91,0,0,1-1.5-.28s-.05-.06,0-.09S223.24,51.7,223.26,51.66Z"/><path class="cls-31" d="M223.33,46.93h47.9V47h-48Z"/><path class="cls-32" d="M270.58,45.47H223c-.06-.45.29-.25.45-.25h46.64a3.59,3.59,0,0,1,.46.05.13.13,0,0,1,.05.09A.54.54,0,0,1,270.58,45.47Z"/><path class="cls-33" d="M254.5,50.21H223.57v-.12h31Z"/><path class="cls-6" d="M79,106a6,6,0,0,1,.5,3.09c0,2.46-1.17,3.59-3.62,3.59H74.26c-6.12,0-12.23,0-18.35,0a3.87,3.87,0,0,1-2.45-.72c-1.51-1.52-1-3.41-.81-5.16a2.25,2.25,0,0,1,2-1.77,9.66,9.66,0,0,0,2.46.07c6.68.07,13.35.06,20,0a1.07,1.07,0,0,0,.22-.1C78.05,105.1,78.48,105.65,79,106Z"/><path class="cls-10" d="M106.33,107.15a2.74,2.74,0,0,1-2.76,2.83,2.87,2.87,0,0,1-2.72-2.67,2.72,2.72,0,0,1,2.74-2.84A2.62,2.62,0,0,1,106.33,107.15Z"/><path class="cls-34" d="M107.74,117.68c-.35.38-.82.23-1.24.23h-37c-.41,0-.88.15-1.24-.23Z"/><path class="cls-35" d="M100.84,99.93a19.85,19.85,0,0,1,.23-3.77,16.52,16.52,0,0,1,.19,4.55Z"/><path class="cls-8" d="M243.33,67.69a4,4,0,0,1,3.08,0,3.29,3.29,0,0,1,1,2.66c-.07,2.84,0,5.68,0,8.52a47.1,47.1,0,0,0-.17,5.94c0,1.82,0,3.65,0,5.48,0,1.58-.86,2.51-2.22,2.55s-2.11-.69-2.37-2.35a19.57,19.57,0,0,1-.07-3.9c1-.7.52-1.74.35-2.53a17.93,17.93,0,0,1-.2-3.5c0-.14.24-.51-.22-.24l0-4.78a37.43,37.43,0,0,0,0-6.44C242.42,68.47,242.93,68.12,243.33,67.69Z"/><path class="cls-36" d="M242.42,80.36c.15,0,.46-.52.41,0-.19,1.87.49,3.64.49,5.48a4.14,4.14,0,0,1-.17.92c-.05.18-.06.46-.3.45s-.19-.4-.36-.56Q242.45,83.5,242.42,80.36Z"/><path class="cls-37" d="M242.39,69.14c.5,1.68.11,3.4.21,5.1,0,.45.19,1-.21,1.34A60.15,60.15,0,0,1,242.39,69.14Z"/><path class="cls-38" d="M77.37,105c-.32.36-.74.22-1.12.22H55.78c-.38,0-.81.14-1.12-.22,1.17-.44,2.35,0,3.53,0Z"/><path class="cls-39" d="M242.61,97.34c1-1.37,2.24-1.58,3.82-.67-.28.31-.57.08-.87,0a2.41,2.41,0,0,0-2.66.78C242.64,97.85,242.66,97.49,242.61,97.34Z"/><path class="cls-40" d="M270,91.11c.3,0,.52.18.46.34a1.83,1.83,0,0,1-1.13,1.11.29.29,0,0,1-.37-.34A1.7,1.7,0,0,1,270,91.11Z"/><path class="cls-41" d="M273.92,90.22c-.3,0-.77.16-.79-.28s.53-.47.89-.49.87-.13.85.37S274.26,90.14,273.92,90.22Z"/><path class="cls-42" d="M281.81,95.3c0,.35-.06.69-.43.6-.64-.17-.44-.85-.63-1.3a.35.35,0,0,1,.36-.48C281.79,94.24,281.57,94.94,281.81,95.3Z"/><path class="cls-43" d="M278.28,102.84c-.16.56-.69.66-1.16.81-.26.08-.55,0-.51-.3.09-.63.74-.61,1.16-.84C278,102.37,278.22,102.5,278.28,102.84Z"/><path class="cls-18" d="M189.44,98.84a1.31,1.31,0,0,1,.24.34c0,.14-.1.2-.2.11a2,2,0,0,1-.28-.35Z"/><path class="cls-44" d="M234.48,176.77a2.15,2.15,0,1,1-2.09-2.18A2.2,2.2,0,0,1,234.48,176.77Z"/><path class="cls-44" d="M220.62,181.53a2.15,2.15,0,1,1-2.15,2.11A2.21,2.21,0,0,1,220.62,181.53Z"/><path class="cls-44" d="M232.33,191.57a1.91,1.91,0,0,1-2.15-2,2.1,2.1,0,0,1,2.13-2.23,2.35,2.35,0,0,1,2.17,2.14A2.22,2.22,0,0,1,232.33,191.57Z"/><path class="cls-36" d="M243,89l.27,1.47A1.26,1.26,0,0,1,243,89Z"/><path class="cls-26" d="M178,47c4,4,9.14,9.28,8.33,12C189,66,180.85,69.19,175,71.54c-.84.25-1.68.49-2.53.72a2.59,2.59,0,0,1-1,0,12.07,12.07,0,0,0-3.6,0,6.27,6.27,0,0,1-3.25-.58,24.68,24.68,0,0,1-7.93-5,53.93,53.93,0,0,1-7.31-8.31,4.3,4.3,0,0,1-.84-1.56c-.11-.21-.18-.44-.31-.64-.42-.63-.83-1.34-1.77-1.09s-1,.93-1,1.68c-.23,2.54-.5,5.07-.75,7.61a4.9,4.9,0,0,1-3.39,4.47,4.62,4.62,0,0,0-3.27,4.63q-.09,3.28-.2,6.57c-.06,1.62-.87,2.3-2.47,2.08-3.53-.5-3.8-.86-3.26-4.36.25-1.65.5-3.3.77-5a4.5,4.5,0,0,0-5.42-5.22c-.47.1-.93.24-1.39.36-.58-.09-.72-.5-.78-1a26.3,26.3,0,0,1,.21-6.75,5.86,5.86,0,0,0,.17-2c-.16-1.43.57-2.62,1.05-3.87a17.87,17.87,0,0,1,6.68-8.36,3.28,3.28,0,0,1,1.4-.62H135l0-.07c.75-.94,1.88-1.06,2.91-1.39h0c.93-.94,2.2-1.36,3.23-2.16.77-.6,5.24-.87,5.87-1.65.27-.34,9.54.06,10,0,.08,0,15,4.08,15,4"/></svg>