<svg id="Layer_1" data-name="Layer 1" xmlns="http://www.w3.org/2000/svg" viewBox="0 0 384 288"><defs><style>.cls-1{fill:#fefefe;}.cls-2{fill:#00d3c7;}.cls-3{fill:#b0e9fe;}.cls-4{fill:#213245;}.cls-5{fill:#f8b03d;}.cls-6{fill:#febda9;}.cls-7{fill:#29559c;}.cls-8{fill:#4fa9db;}.cls-9{fill:#0a1f8d;}.cls-10{fill:#0a1e8d;}.cls-11{fill:#e5f6fe;}.cls-12{fill:#fdfdfd;}.cls-13{fill:#0c1f8e;}.cls-14{fill:#0388a6;}.cls-15{fill:#112b9b;}.cls-16{fill:#112b9c;}.cls-17{fill:#112c9c;}.cls-18{fill:#fdfdfe;}.cls-19{fill:#fdfefe;}.cls-20{fill:#fcfefd;}.cls-21{fill:#0a208e;}.cls-22{fill:#0a1f8e;}.cls-23{fill:#a8cbdf;}.cls-24{fill:#fefdfd;}.cls-25{fill:#fcfdfd;}.cls-26{fill:#e6f6fe;}.cls-27{fill:#132d9c;}.cls-28{fill:#55bbe6;}</style></defs><path class="cls-1" d="M192,288q-95.44,0-190.9,0c-.9,0-1.1-.2-1.1-1.1Q0,144,0,1.1C0,.2.2,0,1.1,0Q192,0,382.9,0c.9,0,1.1.2,1.1,1.1q0,142.91,0,285.8c0,.9-.2,1.1-1.1,1.1Q287.46,288,192,288Z"/><path class="cls-2" d="M255.55,246.47l0-.25a1.13,1.13,0,0,1-.27-.68,3.66,3.66,0,0,0-.19-1.27,5.48,5.48,0,0,1-.32-1.84,2.83,2.83,0,0,0-.16-1.26,5.9,5.9,0,0,1-.32-1.85,2.9,2.9,0,0,0-.16-1.27,5.85,5.85,0,0,1-.32-1.85,3.46,3.46,0,0,0-.14-1.28,2.8,2.8,0,0,1-.14-1.85c.1-.47-.2-.84-.34-1.24a5.21,5.21,0,0,1-.34-1.83,3.39,3.39,0,0,0-.11-1.23,7.59,7.59,0,0,1-.37-1.34,24,24,0,0,1,4.11-2.08c1.27-.58,2.51-1.22,3.75-1.84.35-.17.84-.38.61-.86s-.73-.24-1.06-.08c-2.27,1.07-4.55,2.12-6.81,3.2-.6.29-.66.86-.93,1.33a43.53,43.53,0,0,1-5.82,2.75c-4.48,2.07-9,4.07-13.49,6.09a9.76,9.76,0,0,1-3,.77h-2.91a10.78,10.78,0,0,1-8-4q-7.23-8.61-14.36-17.31c-1.69-2.07-3.44-4.09-5.13-6.15-.28-.34-.62-.64-.59-1.14.89-1.42,2.33-2.26,3.56-3.32,3.78-3.26,7.65-6.41,11.45-9.66a2.81,2.81,0,0,1,1.42-.83c1.31.77,2.17,2,3.29,3a3.82,3.82,0,0,0,1,.81c1.49,1.36,2.86,2.83,4.29,4.23a3.73,3.73,0,0,0,1,.8c.78.65,1.45,1.42,2.18,2.11.26.28.53.54.8.8s.4.39.59.59c1.54,1.53,1.59,1.53,3.42.49a3.3,3.3,0,0,0,1.2-.79c3-2.28,6.22-4.32,9.35-6.45s6.13-4.18,9.21-6.24c.37-.25.71-.7,1.28-.45.51.91.33,1.95.5,2.92.85,4.9,3.24,7.57,8.06,8.67a39.64,39.64,0,0,0,11.2.63c8.89-.55,17.54-2.6,26.3-4a44.91,44.91,0,0,0,4.57-1,3.4,3.4,0,0,1,1.76-.23,1.24,1.24,0,0,1,.55.56c1.75,4.74,3.53,9.48,5.21,14.24.95,2.66,2.19,5.23,2.59,8.06,0,1,0,2,0,3a13.41,13.41,0,0,1-8.72,11c-1.92.8-3.8,1.67-5.7,2.51a3.41,3.41,0,0,1-1.59.49c-2.57-3.72-3.86-7.7-2.1-12.15,1-2.57,2.3-5,3.47-7.5a8.76,8.76,0,0,0,.65-1.55c.07-.31.18-.7-.17-.86s-.57.19-.71.47c-.51,1-1,1.9-1.44,2.89-.67,1.63-1.43,3.23-2.22,4.79-2.46,4.84-1.48,9.36,1,13.79a2.5,2.5,0,0,0,1.11.88,15.13,15.13,0,0,1,1.88,3.72c2.31,5,4.76,9.9,6.8,15a34.85,34.85,0,0,1,1.24,3.87,1.08,1.08,0,0,1-.06,1l.2.48a7.25,7.25,0,0,1,.91,3.17,23.24,23.24,0,0,1,.39,2.48,3.58,3.58,0,0,0,.15,1.38,4,4,0,0,1,.09,1c-.1.8.18,1.66-.39,2.38a3.35,3.35,0,0,1-1.76.26H255.28a4.25,4.25,0,0,1-1.66-.18.71.71,0,0,1-.42-.53,1,1,0,0,1,.21-.88l.07-.46a29.92,29.92,0,0,1,1.37-6.48c.06-.24.29-.36.49-.5l0-.72a8.79,8.79,0,0,1,.5-2.92,28.91,28.91,0,0,1,1.18-4.5,1.85,1.85,0,0,0,0-1.59,71.54,71.54,0,0,1-1.25-8.09,3.65,3.65,0,0,0-.1-1.27A2,2,0,0,1,255.55,246.47Z"/><path class="cls-3" d="M234.22,101.53l.06-1.18c-.18-1.71.45-3.3.73-4.94.33-1.87.87-3.72,1.21-5.58s.85-4,1.11-6a1.89,1.89,0,0,1,.54-1.29c.46-.25.24-.63.17-1a18.53,18.53,0,0,1,.88-5.06c.06-.27.28-.72.75-.32a4.15,4.15,0,0,1,.21,1.88c0,1.92,0,3.83.05,5.74,0,.3,0,.72.47.7s.34-.39.38-.66a7.85,7.85,0,0,0,0-1.19V68.58a10.15,10.15,0,0,1,.1-1.91c1.2-5.36,2.19-10.77,3.28-16.15.61-3,1.19-6,1.86-9,.13-.61.17-1.28.84-1.63a3.58,3.58,0,0,1,1.3-.17h29.32a5.69,5.69,0,0,1,.83,0,8.23,8.23,0,0,0,1.28.24c2.49.33,4.93,1,7.39,1.46,3.1.59,6.2,1.22,9.29,1.85A2.77,2.77,0,0,1,298,44a5.4,5.4,0,0,1,.23,2.36c0,1.6,0,3.2,0,4.8,0,.31,0,.75.42.77s.48-.47.49-.8c.05-1.72,0-3.44,0-5.16a3.3,3.3,0,0,1,.23-1.64c.1-.15.21-.15.33,0,2.38.75,4.86,1,7.28,1.57.79.17.83.42.69,1.1Q306,55,304.38,63.15q-2,9.83-3.93,19.66a23.34,23.34,0,0,0-.72,4.06.26.26,0,0,1-.38-.12,4,4,0,0,1-.22-1.88c0-5.87,0-11.74,0-17.61,0-.52.2-1.45-.38-1.45s-.51.93-.51,1.47q0,13.55,0,27.08a12.94,12.94,0,0,1-.09,2.15c-1.06,4.55-1.86,9.16-2.81,13.74-.23,1.13-.48,2.26-.72,3.4-.08.39-.11.81-.52,1a4.46,4.46,0,0,1-1.78.19H244.8a8.61,8.61,0,0,1-1.68-.09c-.7-.24-1.51-.23-2.06-.83a3.66,3.66,0,0,1-.23-1.76c0-3.87,0-7.74,0-11.62,0-.55.21-1.55-.42-1.53s-.48,1-.49,1.59c0,3.71,0,7.43,0,11.14a4.88,4.88,0,0,1-.16,1.78c-.26.5-.73.27-1.12.31a3.55,3.55,0,0,1-1.54-.29,3,3,0,0,0-1.3-.24,14.32,14.32,0,0,1-2.83-.48,1.19,1.19,0,0,1-1.06-1.55c.52-3,1.15-5.87,1.72-8.8A1.32,1.32,0,0,1,234.22,101.53Z"/><path class="cls-4" d="M305.25,200.38c-7.35,1.86-14.86,2.88-22.31,4.19A74.8,74.8,0,0,1,267,205.86a28.3,28.3,0,0,1-6.39-.85,10,10,0,0,1-7.67-8.66,16.75,16.75,0,0,0-.39-3.16,6.47,6.47,0,0,1,.2-3.6,13,13,0,0,1,2.26-5.31,3.64,3.64,0,0,0,.85-1.27,37.62,37.62,0,0,1,4-5.14c.92-1.09,1.69-2.31,2.71-3.31.12-.13.24-.25.35-.38a17.69,17.69,0,0,0,2.73-6,5.11,5.11,0,0,1,1.72-2.86,5.67,5.67,0,0,0,2.28-4.79c-.17-2.11-2.35-4-4.35-3.43s-3.45-.09-5.06-.77a15.85,15.85,0,0,1-3.61-2.34,5.3,5.3,0,0,1-1.83-3.21c0-.66,0-1.32,0-2a1.81,1.81,0,0,1,.62-1.46l0,0a6.27,6.27,0,0,1,3.39-3.66,24,24,0,0,1,9.13-2.95,9.31,9.31,0,0,0,2.3-.14,2.36,2.36,0,0,1,1,0c.75.35,1.55,0,2.32.15a20.93,20.93,0,0,1,5.79,1.74c.38.21.77.4,1.17.59,4.94,2.9,7.39,7.38,8.3,12.9a10.4,10.4,0,0,1-.57,6c-.4.91-.12,2-.74,2.84h0c-.19.69.19,1.3.24,1.95.5,6.08,4.29,9.45,9.59,11.53a37.93,37.93,0,0,0,7.06,1.82,19.78,19.78,0,0,1,9,3.92,10.3,10.3,0,0,1,2.84,3.8,1.55,1.55,0,0,1,.13,1.49,1,1,0,0,0,.16,1,4.28,4.28,0,0,1-.73,3.47,11,11,0,0,1-3.83,3.85,26.15,26.15,0,0,1-5.82,2.72A1.75,1.75,0,0,1,305.25,200.38Z"/><path class="cls-5" d="M89.54,221.24c-.92-2.8-1.84-5.6-2.61-8.45-.45-1.65-1-3.27-1.57-4.88-.13-.36,0-.71-.16-1a15.83,15.83,0,0,1,0-3.83,8.34,8.34,0,0,1,1-3.41c.23-.25.16-.75.67-.75.8.41,1.21,1.24,1.94,1.76a14.21,14.21,0,0,0,7.47,2.59,19.8,19.8,0,0,0,14-4.17c2.68-2.1,4.22-4.77,3.55-8.34a1.52,1.52,0,0,1,.08-1.05.39.39,0,0,1,.31-.18,1.54,1.54,0,0,1,.94.47c4.49,3.92,9.07,7.72,13.57,11.62.51.44,1.05.85,1.63,1.36-.85-3.61-1.7-7.1-2.71-10.55a23.17,23.17,0,0,1-.72-7.12,1.75,1.75,0,0,1,.18-.87c.77-.36,1.16.28,1.61.65,3.88,3.25,7.81,6.44,11.7,9.69.21.18.46.31.67.5a15,15,0,0,1,4.51,7.13,2.14,2.14,0,0,1,.15,1.61,15.84,15.84,0,0,1,0,5.05.92.92,0,0,1,.13.8c-.45,1.66-.95,3.3-1.47,4.94a1.33,1.33,0,0,1-.58.74v.25c.13,1.57-.71,2.92-1,4.39-1.07,3-1.12,6.28-1.53,9.43-.46,3.6-.85,7.21-1.27,10.82-.17,1.41-.61,1.67-1.92,1.16-7.5-2.95-15-6-22.44-9a2.22,2.22,0,0,1-1.46-1.61c-.19-.82-.44-1.62-.59-2.45-.2-1.11.07-1.43,1.21-1.53a2,2,0,0,0,1-.18c.45-.4.28-.89.14-1.33-.77-2.4-1.58-4.78-2.3-7.19a2.21,2.21,0,0,0-.23-.55c-.13-.22-.3-.4-.57-.33s-.4.36-.37.66a5.68,5.68,0,0,0,.34,1.27c.55,1.71,1.17,3.39,1.68,5.12.24.83.13,1.43-.9,1.5-.55,0-.89.52-1.39.66a8.14,8.14,0,0,1-1.91.11H94.91a3.81,3.81,0,0,1-1.77-.21c-2.74.16-2.62-2.07-3.13-3.77C89.6,222.3,89.7,221.73,89.54,221.24Z"/><path class="cls-6" d="M93.14,226.48c.42-.35.92-.18,1.38-.18q9,0,18,0a3.06,3.06,0,0,0,1.92.46,2,2,0,0,1,1.71.28c-.47.47-1.07.25-1.6.24-.76,0-.89.34-.74,1,.24,1,.47,1.93.72,2.9a1.35,1.35,0,0,0,.91,1q11.49,4.6,23,9.26c.82.33,1.15.09,1.24-.73.41-3.67.76-7.35,1.26-11,.44-3.22.4-6.52,1.6-9.61q2.88,4.32,5.86,8.56c1.74,2.48,3.33,5.06,5.19,7.46,2.43,3,5.16,5.79,7.58,8.81a11.66,11.66,0,0,0,6,4.19,12.57,12.57,0,0,1,6.47,4.94,46.42,46.42,0,0,1,3.2,4.79c.94,1.67.73,2.77-.83,4a10.13,10.13,0,0,1-5.87,1.78,3.4,3.4,0,0,0-1.19.08c-.76.44-.84,1.33-1.29,2-.71,1-1.07,1.07-2,.36a11.07,11.07,0,0,1-3-3.52c-.7-1.23-.73-1.24-2-.6-2.2,1.06-4.39,2.13-6.6,3.15-3.92,1.8-7.7,1.23-11.3-1a6.36,6.36,0,0,1-1.33-1.21c-1.53-1.74-1.57-2.24-.4-4.21.46-.79.88-1.61,1.38-2.38s.27-.91-.49-1c-4.4-.54-8.79-1.13-13.19-1.7-6.73-.88-13.47-1.7-20.19-2.66a11.31,11.31,0,0,1-6.63-3.33,5.59,5.59,0,0,1-.73-1,6.66,6.66,0,0,1-1.93-3.15,2.29,2.29,0,0,1-.45-1l-1.23-3.81c-.36-.33-.32-.81-.46-1.23l-3.14-9.57a2.08,2.08,0,0,1-.45-1.22A1.53,1.53,0,0,1,93.14,226.48Z"/><path class="cls-7" d="M101.81,248.2c2.81,2.75,6.4,3.34,10.1,3.79,9.08,1.11,18.14,2.34,27.21,3.52l4.16.53c-.89,1.54-1.67,3-2.57,4.4a1.63,1.63,0,0,0,0,2c1.69,2.81,4.43,3.77,7.44,4.21a9.7,9.7,0,0,0,5.81-1c2.4-1.2,4.82-2.33,7.21-3.54.68-.34,1-.31,1.32.46a10.73,10.73,0,0,0,3.31,4.19c.64.52,1.09.7,1.49-.24.31-.73.77-1.4,1.1-2.13s.34,0,.49.07a3.43,3.43,0,0,1,.64,2.47,13.16,13.16,0,0,1-1.48,6.7c-.65,1.21-.57,1.3.8,1.31,4.79,0,9.57,0,14.36,0,2,0,4-.05,5.95,0,3.63.51,7.29.12,10.93.25.42,0,.87-.17,1.26.16.05.2.21.22.38.22a.77.77,0,0,1,0,1.14l-.18.17a.94.94,0,0,1-1,.28,26.75,26.75,0,0,0-3.23-.06H91.68a4,4,0,0,1-1.42-.08c-.47-.58-.8-1.15,0-1.73,2.77-.23,5.53,0,8.3-.11.37,0,1.09.29.83-.63a2.91,2.91,0,0,1-.46-1.4c-.34-.28,0-.72-.24-1l-.52-2.56c-.23-.41,0-.89-.2-1.31l-.07-1.1c-.2-.66.07-1.37-.18-2a4,4,0,0,0,0-1.69c.26-.74,0-1.52.18-2.26l.06-.91c.23-.39,0-.86.19-1.25a23,23,0,0,1,1.5-5.9,2.87,2.87,0,0,1,.42-1.06l1.23-3C101.54,248.81,101.39,248.33,101.81,248.2Z"/><path class="cls-4" d="M101.28,56.89l1-2.22a5.17,5.17,0,0,1,.93-1.61,18.68,18.68,0,0,1,3.87-4.35c.2-.22.37-.45,0-.68-.59,0-1.19-.06-1.78,0-1.32,0-2.53-.19-3.23-1.45a3.71,3.71,0,0,1,.22-4.3c-2.08,0-4,0-6,0-.76,0-1.58.16-2.23-.45a1.41,1.41,0,0,1-.9-.88,1.31,1.31,0,0,1-.48-.8,5.24,5.24,0,0,1,0-2.16c.36-1.55,1.21-2.24,3-2.44,2-.18,4.07-.06,6.11-.07,4,0,8.07,0,12.11,0,.61,0,1.11.05,1.31.73a4.54,4.54,0,0,0,2.48,2.79,1.61,1.61,0,0,1,.57,1.38c0,.55,0,1.11,0,1.67a3,3,0,0,1-1.64,3.35,3,3,0,0,0-1.46,2.72c0,1,0,2.07,0,3.1a2.84,2.84,0,0,1-.3,1.62c-.63.67-1.4,1.17-2,1.86a7.88,7.88,0,0,0-1.39,8.82,7.57,7.57,0,0,0,7.21,4.88A8,8,0,0,0,126.65,63a8.27,8.27,0,0,0-2.8-9.44,3.89,3.89,0,0,1-.7-.64,3.25,3.25,0,0,1-.35-2,21.11,21.11,0,0,0-.08-3,4.13,4.13,0,0,0-2.1-3c-.41-.24-.88-.4-1.08-.89a11.83,11.83,0,0,1,.1-4.63c1.31-1,2.68-1.88,3.23-3.57a1,1,0,0,1,1.21-.57c3,.4,6,.1,9,.17,2,.05,4,0,6,0,1,0,1.89-.29,2.85-.24a3.64,3.64,0,0,1,1.33,7,1.33,1.33,0,0,1-1.36.05h-4.8c-.61.26-1,.4-.83,1.39a3.56,3.56,0,0,1-.52,3.08A2.77,2.77,0,0,1,133.38,48l-.89,0c-.45.42-1.05.18-1.62.36A18.7,18.7,0,0,1,137.73,60a2,2,0,0,1-.8,1.16,30.84,30.84,0,0,0-7.29,9.08c-1.71,1-3.27,2.23-3.93,4.27a6.55,6.55,0,0,0,.45,5.18c.16.31.43.58.39,1a2.33,2.33,0,0,1-.75.53,14.25,14.25,0,0,1-3.4,1,5.46,5.46,0,0,0-1.5.19,7.17,7.17,0,0,1-1.39.1,3,3,0,0,1-1.18-.31l-1.13-.05c-.48-.26-1,.06-1.51-.22a13.08,13.08,0,0,1-3.58-1,.74.74,0,0,1-.64-.16.49.49,0,0,1-.16-.47c2.11-3.81,1.16-7.31-2.58-9.56a2.32,2.32,0,0,1-.56-.43,33.45,33.45,0,0,0-6.67-8.52,3,3,0,0,1-1.14-1.5.76.76,0,0,1,.21-.67l.26-1.13C101,57.89,100.88,57.32,101.28,56.89Z"/><path class="cls-7" d="M114.16,189.62a1.47,1.47,0,0,0,0,1c.7,3.25-.59,5.82-2.86,8a19.17,19.17,0,0,1-11.35,4.88,17.78,17.78,0,0,1-7.93-.78A11.75,11.75,0,0,1,86.68,199c-.18,0-.2-.19-.23-.33a3.14,3.14,0,0,1-.87-1.47c-.17-.73-.6-.89-1.23-.87-.74-.26-1.52.05-2.25-.19-3.19-.06-4.56-2.93-4.81-5.07-.27-.47,0-1-.22-1.5a20.3,20.3,0,0,1,1.21-8.24,25,25,0,0,1,2.61-4.66A4.36,4.36,0,0,1,82.51,175a11.84,11.84,0,0,1,7-3.13,2.19,2.19,0,0,1,1.43,0l.4,0c.46.29,1.08-.17,1.49.33l2.89.61c.82.24,1.59.33,1.93-.72a.86.86,0,0,1,.28-.63,2.56,2.56,0,0,1,.68-1.53l.49-.77c.25-.52.4-1.11,1-1.33l0,0,0,.06c.31-.84,1.07-1.15,1.77-1.52l2-.72c.83-.27,1.69,0,2.52-.18a2.7,2.7,0,0,1,2,.55.9.9,0,0,1,.14.9,6.81,6.81,0,0,0,.37,4.23,4.22,4.22,0,0,0,4.14,3.21c1,0,1.24.49,1.24,1.34,0,4.39,0,8.78,0,13.17A1.9,1.9,0,0,1,114.16,189.62Z"/><path class="cls-8" d="M111.4,80.49l.23.17c.25.2.07.52.19.76l.07,1.88a5.06,5.06,0,0,1,0,1.9l-.06,2.11c-.23.39,0,.85-.19,1.25l0,.49c.12.35-.16.62-.19,1A39.85,39.85,0,0,1,108,99.57c-.46,0-.42-.41-.5-.69a6.69,6.69,0,0,0-6.92-4.94,6.59,6.59,0,0,0-1.06,13,4.87,4.87,0,0,1,2,.6l-.22.29c-.23.26-.42.58-.81.64a17.52,17.52,0,0,0-2.57,1.86c-.28.45-.78.57-1.21.79h0c-.24.32-.65.33-1,.51A10,10,0,0,1,85.11,111a6,6,0,0,1-.7-.63A2,2,0,0,1,83.05,109a4.28,4.28,0,0,1-1.22-2,3.86,3.86,0,0,1-.69-1.94,12.8,12.8,0,0,1-.21-3.27c0-.51.11-1-.27-1.48a4.67,4.67,0,0,1-.15-1.66q0-15.52,0-31c0-.88-.07-1.75-.06-2.63l.48-.42c.58-.1.86.35,1.2.66a8.93,8.93,0,0,0,12,.5,8.47,8.47,0,0,0,3.24-6c0-.46-.1-1,.35-1.33l.68.44a4.62,4.62,0,0,1,2.11,1.45c1.84,2,4,3.72,5.47,6a15,15,0,0,1,2.22,3.8c-.26.31-.57.2-.89.13a6.49,6.49,0,0,0-8.06,5.33,6.71,6.71,0,0,0,6.2,7.64,6.55,6.55,0,0,0,4.92-1.85C110.7,81,110.94,80.62,111.4,80.49Z"/><path class="cls-6" d="M114.16,189.62c0-4.62-.06-9.25,0-13.87,0-.83-.12-1.13-1.08-1.11a4.12,4.12,0,0,1-4-2.5c-.78-1.74-1.37-3.59-.7-5.55.06-.18.18-.36,0-.53-.17-.32.1-.49.24-.7s.27-.48.49-.66a6,6,0,0,1,3.49-1.35A4.66,4.66,0,0,1,117,166c.54,1,.59,1,1.35.13A29.43,29.43,0,0,0,122.2,161a20.62,20.62,0,0,0,2.28-6.27c.21-1.12.55-1.24,1.36-.4a15.22,15.22,0,0,0,9.65,4.52,2.9,2.9,0,0,1,1.13.37,1.11,1.11,0,0,1,.37.43c.55,2.18,1.12,4.37,1.55,6.58a5,5,0,0,0,.18,1.34,1.21,1.21,0,0,1-.24,1.13,1.24,1.24,0,0,0-.2,1c.5.8,0,1.53-.24,2.25a11.53,11.53,0,0,1-1.83,3.42,11.08,11.08,0,0,1-7,3.81c-1.67.25-1.63.28-1.68,2,0,1.07.24,2.16-.23,3.2l-.1,1a2.45,2.45,0,0,1-1.71.36c-3.11,0-6.22,0-9.34,0-1.39,0-1.46.12-1.52,1.5,0,.81.24,1.68-.39,2.41Z"/><path class="cls-7" d="M136.61,159.38a43,43,0,0,1-4.47-.86,14.86,14.86,0,0,1-7.23-4.75c-.71,5.72-3.63,10-7.51,13.71-.38-.16-.31-.5-.4-.72a4.6,4.6,0,0,0-7.24-2.19c-.23.16-.41.4-.73.35-.38-.21-.37-.65-.58-1a8,8,0,0,1-.53-2.43,9.12,9.12,0,0,0-.13-2.5c-.35-.58-1.07-.79-1.4-1.38a8.63,8.63,0,0,0-1.15-1.53,2.12,2.12,0,0,1-.33-.56,4.46,4.46,0,0,0-.52-1,2.4,2.4,0,0,1-.29-1.18,3.42,3.42,0,0,0-.15-1.05,2.81,2.81,0,0,1,0-1.29,4.18,4.18,0,0,0,.16-1.27,7.34,7.34,0,0,1,6.52-6.08c.89.09,1.83-.25,2.66.31l.48.22a.66.66,0,0,1,.49-.11,6,6,0,0,1,1.59.65,4.58,4.58,0,0,1,1.11.89,2.73,2.73,0,0,0,3.43,1,5.54,5.54,0,0,0,1.67-.2,10.24,10.24,0,0,1,2.82,0,5.25,5.25,0,0,0,1.52.2,5.57,5.57,0,0,1,.9.2c.68.17,1.37.32,2,.53l.95.34,1,.49q.44.24.87.45a16.66,16.66,0,0,1,3.81,3.19,9,9,0,0,1,.85,1.1,13.33,13.33,0,0,1,2.35,6C138.63,159.81,138,159.92,136.61,159.38Z"/><path class="cls-7" d="M127.29,184.31l0-4.44c0-.46,0-.85.64-.88a11.81,11.81,0,0,0,8.14-3.8,1.35,1.35,0,0,1,1.18-.24,9.28,9.28,0,0,0,2,.21,34.57,34.57,0,0,1,3.5.75,2,2,0,0,1,1.29.79.18.18,0,0,0,.27.14c1.37-.08,2.28.85,3.24,1.58a10.31,10.31,0,0,1,4.19,8.11,7.67,7.67,0,0,1-2.94,6.53,11,11,0,0,1-5.9,2.37,5,5,0,0,0-1.29.12,1.4,1.4,0,0,1-.72-.18l-10.67-8.71C129.21,185.87,128.25,185.09,127.29,184.31Z"/><path class="cls-4" d="M80.45,65c.6.07.47.53.47.91q0,16.71,0,33.43c0,.35.08.73-.26,1-.27,0-.58,0-.77-.26s-.65-.23-.92-.47a2.24,2.24,0,0,1-1-.49c-.28-.19-.62-.26-.88-.47a9.11,9.11,0,0,1-2-1.45c-.57-.46-1.36-.68-1.58-1.51h0a2.39,2.39,0,0,1-1-1.1,18.71,18.71,0,0,1-4-8.25,11.24,11.24,0,0,1-.13-1.15c-.25-.66.06-1.37-.19-2a1.53,1.53,0,0,0,0-1c.27-.74-.07-1.52.2-2.26a18.1,18.1,0,0,1,4.09-9.36,2.2,2.2,0,0,1,.67-.72A17.14,17.14,0,0,1,80.45,65Z"/><path class="cls-8" d="M142,35.5c-5.86,0-11.73,0-17.6,0-.87,0-1.32.15-1.59,1.09a4,4,0,0,1-3,2.76c-.6-.82-.24-1.76-.33-2.64a8,8,0,0,0-.08-1.29c-.2-.64-.55-.74-1-.2a10,10,0,0,0-.2,2.78c0,.45.15,1.07-.63,1.15a3.41,3.41,0,0,1-2.64-2.63c-.23-1-.73-1-1.5-1-5.5,0-11,0-16.5,0-.44,0-.87,0-1.31,0,.4-.28.86-.14,1.28-.14h16.19c.48,0,1-.06,1.43-.1a49.67,49.67,0,0,0,.12-5.59c0-1.16-.08-2.31.07-3.47l.07-.44c.23-.81.41-1.64,1.33-2a4,4,0,0,1,2.5-1,2.55,2.55,0,0,1,1.06-.08q9.74,0,19.46,0a2.25,2.25,0,0,1,1.06.09l1.67.74a2.19,2.19,0,0,1,.74.71l.91,1.7a1,1,0,0,1,.25.3,2.64,2.64,0,0,1,0,1.55.59.59,0,0,1-.27.27,4.71,4.71,0,0,1-3.54,3.18c-2.54.18-5.09.05-7.63.08s-5.1,0-7.65,0c-1.38,0-1.42,0-1.37,1.45,0,.64-.29,1.37.33,1.91.36.28.88.27,1.22.62H140.4C141,35.05,141.58,34.6,142,35.5Z"/><path class="cls-1" d="M119.52,82.12l1.36-.06c.49-.24,1.05.09,1.53-.21,1.1-.45,2.34-.43,3.4-1,.36.09.38.37.37.66a34.5,34.5,0,0,0,0,5.75,32.73,32.73,0,0,0,3.63,12.13c.17.74,0,1.52.19,2.26.68,3.42,2.84,5.22,6.21,5.72a12.58,12.58,0,0,1,2.2,1.92,1.13,1.13,0,0,0,1,.68,4.18,4.18,0,0,1,1.16.62,10.62,10.62,0,0,0,7.14,1.92,2.62,2.62,0,0,0,1.21-.14,10.43,10.43,0,0,0,7.56-8.18c.27-1.2-.05-2.43.2-3.63.16-.47.58-.61,1-.79a18.52,18.52,0,0,0,11-13,3.81,3.81,0,0,1,.24-.67,2.25,2.25,0,0,0,.17-1.2,5.15,5.15,0,0,1,.1-1.11,4.72,4.72,0,0,0,0-2.39,5.06,5.06,0,0,1-.1-1.1,2.34,2.34,0,0,0-.16-1.2,26.74,26.74,0,0,0-2.07-5.44A18.3,18.3,0,0,0,158.65,66c-.51-.24-1-.48-1.5-.75a1,1,0,0,1-.57-.67,3.19,3.19,0,0,1,.73-1.59,17,17,0,0,0,1.1-3.24,2.51,2.51,0,0,0,0-1.83,16.91,16.91,0,0,0-1.16-3.36A8.89,8.89,0,0,0,151.14,50a5.53,5.53,0,0,1-1.14-.33,1.81,1.81,0,0,0-1.46,0,12.46,12.46,0,0,0-4,1.48,9.66,9.66,0,0,0-4.07,5.92,8.45,8.45,0,0,1-.42,1.49c-.76.65-1.35,1.59-2.55,1.49a19.23,19.23,0,0,0-7.62-12h2.59c.18.9.25,1.88,1.6,1.72.3,0,.42.35.5.61.23.7.38,1.42,1.43,1.18.31-.08.55.26.54.64s0,.72,0,1.08c0,2.07.71,2.63,2.71,2.18a.7.7,0,0,0,.64-.73c0-.52,0-1,0-1.56,0-.7-.25-1.5,1.07-1.13.77.22,1.31-.63,1-1.45s0-.72.66-.75c1.12,0,2.39.13,3.08-1.25.44-.88,1.53-.7,2.28-.71,1.37,0,2.74,0,4.11-.08.44,0,1-.07,1.18.39.73,1.62,2.42,2.12,3.61,3.18a1.86,1.86,0,0,1,.76,1.14,2.5,2.5,0,0,0,.89,1.47,3.51,3.51,0,0,1,1,2.59c0,1.82-.05,3.65,0,5.47,0,.58-.4,1-.2,1.67.45,1.57,1.85,1.29,2.83,1.78a3.94,3.94,0,0,1,.9.79c1,.92,2.07,1.74,3,2.77.65.72,1.53,1.31,1.29,2.39-.17.74-.19,1.11.73,1.1.74,0,1,.53,1,1.22-.08,1.51,0,2.9,1.69,3.6a.79.79,0,0,1,.44.92c-.38.95,0,2-.47,2.92-.12.22-.23.45-.08.68a2.42,2.42,0,0,1-.17,2.71c-.19.33-.31.65.12.92.91.56.46,1.48.53,2.24,0,.31-.24.79-.63.78-1.5,0-1.31,1.16-1.4,2s-.1,1.68-1.38,2c-1.09.26-.87,1.53-.62,2.32.35,1.08.07,1.47-1,1.35-.54-.06-.71.21-.87.6a.85.85,0,0,0,0,.23c-.14,1.27-1.84,1-2,1.68-.32,1.3-1,1.41-2.05,1.42-.76,0-1.63,0-2,1-.09.25-.34.22-.57.28-.72.18-1.19.55-.94,1.45a4,4,0,0,1,0,2.25,5.33,5.33,0,0,0-.13,3.28c.22.66.22,1.21-.84,1-.63-.16-1.31,0-1.1,1a1,1,0,0,1-.63,1.06,2.49,2.49,0,0,0-1.49,1.72c-.11.32-.32.48-.62.42-1.09-.21-2.14.36-3.29,0-.61-.23-1.45.2-2.19.29a30,30,0,0,1-4.64-.29,4.27,4.27,0,0,0-1.52-.08c-1.27.38-1.57.17-1.66-1.12,0-.52,0-1-.77-.71-.43.16-1-.09-1-.46-.08-1-.77-1.21-1.55-1.39-.62-.15-.6-.91-1.07-1.23a5,5,0,0,0-3.08-.73c-1.67,0-1.95-.22-2.07-1.84,0-.48-.22-.52-.61-.41-.95.26-1.09-.14-.72-.92.49-1-.47-1.94-.3-3,0-.14-.11-.3-.12-.46-.13-1.47.46-3.18-1.38-4.08.15-1.4-1.22-2.55-.61-4,.18-.44-.17-.66-.61-.64-.8,0-1-.37-1-1.09a25.62,25.62,0,0,1,0-5.74,18.43,18.43,0,0,0-.22-2.48c0-.69-.6-.57-1-.5a21.37,21.37,0,0,1-3.75.37,1.24,1.24,0,0,1-1.24-.64C118.85,82.08,119.24,82.34,119.52,82.12Z"/><path class="cls-9" d="M242.89,114.43l40,0c3.75,0,7.51,0,11.26,0a3.16,3.16,0,0,1,1.74-.32c1.45,0,1.54-.11,1.54-1.59q0-5.69,0-11.37a27,27,0,0,1,.36-4.4q0-7.72,0-15.46c0-4.84,0-9.67,0-14.51a6,6,0,0,1,0-1,.8.8,0,0,1,.89-.79c.54,0,.77.36.77.88,0,1.43,0,2.87,0,4.31q0,8.34,0,16.66c.09,6.18,0,12.36,0,18.55q0,4.54,0,9.09c0,.38.13.8-.14,1.15l-.7.51c-1.69.25-3.39,0-5.08.14a4.81,4.81,0,0,1-2.13.23c-13,0-26,.07-39,0a74.81,74.81,0,0,0-12.16,0c-1.16-.44-1.3-.76-1.1-2.41a1.38,1.38,0,0,1,.23-.39q0-6.89,0-13.76a4.78,4.78,0,0,1,.08-1.07.76.76,0,0,1,.81-.57.74.74,0,0,1,.76.64,6.46,6.46,0,0,1,0,1.08q0,7,0,14C241.71,114.48,242.34,114.28,242.89,114.43Z"/><path class="cls-6" d="M256.8,153.81a15.45,15.45,0,0,0,6.08,3.18,3,3,0,0,0,1.74,0,4.21,4.21,0,0,1,5,5.8,6.84,6.84,0,0,1-2.79,3.48c-.53.28-.52.8-.62,1.22a18.13,18.13,0,0,1-3.17,7,13.35,13.35,0,0,1-1.67.09c-3.5-.37-5.89-3.15-6-7l.28-1.63c.31-.53-.11-1-.1-1.53a5.16,5.16,0,0,1,.1-1.41c.24-.69,0-1.49.44-2.15v-.24a1.1,1.1,0,0,1-.18-.73,5,5,0,0,0,.1-1.5,7,7,0,0,1,.1-1.37,7.68,7.68,0,0,0,.14-2.19C256.3,154.38,256.19,153.88,256.8,153.81Z"/><path class="cls-10" d="M278.57,40.09c-3.88,0-7.75-.05-11.63-.05l-20.26,0a1.77,1.77,0,0,1-1.34.39c-.6,0-1.2,0-1.8,0-1.94,0-2,0-2,1.92,0,5.63,0,11.26,0,16.9a50.54,50.54,0,0,1-.31,7.17q0,8.44-.05,16.89v1c0,.56-.23.94-.84.94s-.83-.42-.84-1c0-1.11,0-2.23,0-3.35l0-4.79c-.48-.34-.38-.85-.38-1.32,0-11,0-22,0-32.94,0-.76,0-1.52-.06-2.28s.13-1.28.9-1.49c1.17-.24,2.29.24,3.45.18,7.09-.41,14.2-.48,21.29-.24,11.27.39,22.52.08,33.78.25l1,.35a29.11,29.11,0,0,1,.11,5.6l0,6.94c0,.63,0,1.32-.82,1.32s-.88-.65-.88-1.3q0-3.65,0-7.3a2.71,2.71,0,0,1-.33-1.72c0-.58.12-1.2-.26-1.73s-1-.28-1.48-.28c-4.06,0-8.11,0-12.17,0C281.89,40.22,280.23,40.05,278.57,40.09Z"/><path class="cls-3" d="M252.44,116.19c1.64,0,3.27,0,4.91,0H292.3c.48,0,1,0,1.44,0,.09,0,.12.08.1.13s0,.08-.07.08a1,1,0,0,0-.23,1,2.63,2.63,0,0,1,0,1.64q-.42,2.19-.87,4.35c-.19.87-.65,1.38-1.6,1.2-2.2-.41-4.39-.85-6.57-1.35a3.08,3.08,0,0,1-1-.58l-.24,0a2.54,2.54,0,0,1-1.86,0c-5.26-1.12-10.55-2.11-15.81-3.2-3.93-.82-7.9-1.49-11.81-2.39a2.07,2.07,0,0,1-1.2-.46A.37.37,0,0,1,252.44,116.19Z"/><path class="cls-1" d="M253.18,229.9l.27,1.87a.73.73,0,0,1,0,.78c-.43-.09-.86-.18-1.29-.25-.2,0-.52-.19-.45-.29.48-.76-.36-1.42-.13-2.12s-.16-1.13-.86-1.16-1.08.2-.89,1-.2.94-.87.89a9.42,9.42,0,0,0-1.68,0c-.61.07-1.28.09-1.31,1a.91.91,0,0,1-1.13.82c-1.35-.32-2.58.37-3.88.29-.33,0-.64,0-.7.47-.17,1.19-1,1.24-2,1.21-.43,0-1-.33-1.26.08a4.37,4.37,0,0,1-2.95,1.74c-.35.05-.68.37-1.1.34a.68.68,0,0,0-.73.3c-.71,1.25-1.27,1.47-2.61,1-.2-.07-.43-.15-.57,0-1,1-2.19.24-3.29.35-.36,0-.85-.16-.93-.46-.47-1.83-2-1.21-3.16-1.41-.52-.09-1-.15-1.06-.73-.21-1.63-1.54-2.23-2.73-2.86-.65-.34-1.22-.5-1.18-1.38,0-.49-2.35-2.75-2.81-2.72-.87.06-1.2-.28-.92-1.13.06-.2.13-.52,0-.54-1.57-.19-1.47-2.44-3.25-2.51-.77,0-.76-1.16-.71-1.81.08-.93,0-1.6-1.07-1.73a.66.66,0,0,1-.55-.56c-.16-.69-.73-.86-1.26-1.22a22.66,22.66,0,0,1-2.71-2.66c-.46-.46-.6-1.34-1.44-1.64-.36-.12-.47-.53-.56-.88a2.33,2.33,0,0,0-.75-1.33,2.38,2.38,0,0,1-1.23-2.37.5.5,0,0,0-.41-.54c-1.48-.19-1.42-1.64-2.07-2.5a1,1,0,0,1-.08-.93,11.6,11.6,0,0,0,.79-4.24c0-.94,0-1.72-1.06-2.11-.29-.11-.7-.32-.75-.54-.42-1.86-2-1.34-3.16-1.51-.76-.11-1.11-.16-1-1s-.42-.87-1-.91-1-.07-1.43-.07c-.79,0-1.19-.33-1.09-1.17s-.13-1.07-1-.82-1.46-.23-1.12-1.05c.51-1.25-.1-2.6.56-3.78,0,0,0-.1,0-.12-1.4-1.27.07-2.8-.37-4.16-.08-.23,0-.61.21-.63,1.52-.19,1.2-1.56,1.57-2.45s.56-1.55,1.61-1.69c.3,0,1-.28.75-.86-.45-1,.2-.84.81-1,2.19-.51,4.4.24,6.59-.18,1-.19,1.58.31,2.29,1.2s1.34,2.36,2.66,2.8,1.15,1.76,2,2.44a.54.54,0,0,1-.33.4c-.79.24-1.26-.24-1.7-.78-.71-.85-1.37-1.74-2.15-2.53a10.54,10.54,0,0,0-3.93-2.39,5.16,5.16,0,0,0-2.59,0c-4.08,1.13-5.57,4.24-6.14,8.05a11.4,11.4,0,0,0,0,3.3,4.82,4.82,0,0,0,2.36,3.44c1.52,1.06,3.2,1.82,4.7,2.89,0,.42.17.67.64.44a7.75,7.75,0,0,1,1.28.74,7.65,7.65,0,0,0,.81.8c1.17,1.57,2.3,3.15,3.33,4.82,0,.58-.46.88-.85,1.22s-.69.52-1,.82c-1,1-1,1.09-.23,2.25,1.59,2.28,3.47,4.32,5.23,6.46q6.17,7.55,12.45,15c1.69,2,3.16,4.26,5.62,5.53a11.51,11.51,0,0,0,4.37,1.41,13.33,13.33,0,0,0,3.34,0c2.64-.5,4.93-1.86,7.35-2.93l10.93-4.85c1.26-.56,2.51-1.15,3.77-1.72.3,0,.41.34.66.44.08.44.46.79.35,1.28C253.2,229,252.92,229.51,253.18,229.9Z"/><path class="cls-1" d="M203,118.07c0-.66.09-1.41.91-1.14,1.64.53,3.24-.28,4.86,0,.44.08.85,0,1.14.43.07.09.12.2.18.29,1.23-1.2,1.25.46,1.82.8a3.25,3.25,0,0,0,1.73.35h2.4c.54,0,1,.24,1.06.77.18,1.48,1.29,1.35,2.22,1.23s1.39-.09,1.5.93c.08.77.3,1.29,1.36,1,.83-.25,1.51,0,2.22,1,.87,1.17,2.35,2,3.45,3,.07.07.3,0,.34.07.61,1,1.69,1.37,2.5,2a7.5,7.5,0,0,0,2.9,1.49c.36.1.82.13.79.55-.07.94.58,1.26,1.18,1.75.82.66,1.26,1.74,2.47,2,.41.09.34.83.21,1.21a6,6,0,0,0,.18,3.16c.19.95-.18,1.41-1.08,1.39-.71,0-1,.2-1,.93,0,.15-.1.41-.18.43-1.4.25-1.81,1.75-3,2.3-.25.13-.65.22-.61.5.18,1.25-.54,1.68-1.57,1.92a.6.6,0,0,0-.36.44c-.21,1.52-1.44,1.37-2.38,1.27s-1.41-.07-1.52.91c0,.25-.11.52-.35.58a2.33,2.33,0,0,0-1.7,1.7c-.15.43-.69.28-1.08.32-1.32.14-2.66.21-3.14,1.84-.13.43-.51.45-1,.44-1.05,0-2.06-.05-2.62,1.25-.43,1-1.64.64-2.46.66s-1.35-.25-1.14.89c.06.29-.21.69-.43.6-1-.39-1.88.6-2.88.15a1.08,1.08,0,0,0-1.42.2,1,1,0,0,1-1.12.12,8.74,8.74,0,0,0-4.45-.23c-.68.09-1-.09-1.19-.64.69-.61,1.6-.14,2.35-.47a6.43,6.43,0,0,1,1.38-.11,4.36,4.36,0,0,0,1.44-.09,41,41,0,0,0,11.84-4.09A58.68,58.68,0,0,0,231.53,143c1.43-1.33,2.78-2.75,4.15-4.14s1.26-1.49,0-2.72c-2-2-3.92-4.09-6.09-5.93a1.68,1.68,0,0,1-.36-.47c-.14-.47-.54-.62-1-.73-2.45-1.72-4.81-3.56-7.4-5.07a40.5,40.5,0,0,0-12.44-4.86,6.54,6.54,0,0,1-1.15-.32,2.63,2.63,0,0,0-1.24-.15,5.53,5.53,0,0,1-1.15-.1C204.32,118.28,203.57,118.62,203,118.07Z"/><path class="cls-1" d="M255.33,167.52c.55,1,.43,2.11,1,3.1a6.62,6.62,0,0,0,5,3.65c.42.33,1.14-.3,1.43.44l-5.8,7.17c-.32.4-.6.82-.91,1.23a4.32,4.32,0,0,0-.73,1.15,16.74,16.74,0,0,0-2.2,5.08c-.3,1.26-.41,2.57-.61,3.85-2.2,1.77-4.61,3.24-6.94,4.83q-6.3,4.32-12.64,8.61c-.6-.13-.68.57-1.12.7a.39.39,0,0,0-.11.06c-1.67,1.32-1.76,1.32-3.27-.17-.33-.33-.63-.7-1-1.05-.16-.33-.33-.66-.75-.72l-2.15-2.07a3.36,3.36,0,0,0-.93-.83c-1.55-1.3-2.94-2.76-4.35-4.2a3,3,0,0,0-.93-.84,31.24,31.24,0,0,1-3.21-3.09.9.9,0,0,1,.09-.58c.11-.32.15-.64-.2-.84a.77.77,0,0,0-.87.17,13.06,13.06,0,0,1-2.31,1.67,1.63,1.63,0,0,1-1.36-.57c-.86-.69-1.67-1.45-2.53-2.14-1.14-.91-1.17-1.1-.41-2.34a6.11,6.11,0,0,0,.49-.95,2.06,2.06,0,0,0,0-1.56,3.82,3.82,0,0,0-2.31-2.27c-.28-.17-.64-.18-.85-.46.07-.74.61-.83,1.14-.67a5.71,5.71,0,0,0,2.13.18c1-.07,1.3.38,1.29,1.27,0,1.8,0,3.6,0,5.39,0,.8.22,1.08,1.07,1.35,1,.33,1.83,1.12,2.57-.29,1.12.23,2.24-.14,3.35,0a.84.84,0,0,1,.83,1c-.65,2.26,1.07,3.27,2.29,4.53a19.86,19.86,0,0,0,1.51,1.62c.9.72,1.66,1.53,2.47,2.31a6.08,6.08,0,0,0,2.57,1.57c1.31.32,2.82.34,2.91,2.26,0,.09.49.18.76.25a4.73,4.73,0,0,0,4.27-1c.91-.7,1.92-1.16,1.94-2.56,0-.44.63-.37,1-.36a3.47,3.47,0,0,0,3.16-1.32c1-1.19,2.33-2.63,4.3-2.54a.77.77,0,0,0,.79-.45c.3-.84.71-1.5,1.73-1.54.2,0,.23-.25.23-.48,0-.68.47-.85,1-.88h.12c2.17-.17,3.07-1.46,2.91-3.68-.07-.95-.42-2.35,1.22-2.66.12,0,.33-.25.3-.32-.3-1.07,1.13-1.68.71-2.78a.51.51,0,0,1,.32-.59c1.39-.48,1-1.61,1-2.63,0-.65.2-1.19,1-1.25s1.35-.27,1.41-1.16c0-.07,0-.2.08-.21,1.37-.3,1.54-1.88,2.63-2.45.41-.22.67-.43.58-.9s-.59-.58-1-.56-1.13.37-1.72-.06c-.39-.28-.86-.44-.81-1.05a.78.78,0,0,0-.54-.84,1.87,1.87,0,0,1-1.13-2.34C255.55,169.61,254.71,168.58,255.33,167.52Z"/><path class="cls-1" d="M306,200.16c1.38-.8,2.95-1.16,4.35-1.95,3.19-1.78,5.76-4,6.17-7.9.8.18.84.84.72,1.41a17.26,17.26,0,0,0-.22,2.37,2.21,2.21,0,0,1-1.07,1.91,2.29,2.29,0,0,0-1,1.14.87.87,0,0,1-.8.61c-.66,0-1.16.2-1.25,1a1,1,0,0,1-.42.51c-1.34-.82-2,1-3.15.81-.23,0-.49.14-.7.08-1.27-.36-1.3.46-1.11,1.25a8.7,8.7,0,0,1,.1,3.09c-.07.55,0,.68.54.74,1,.1,1.39.6,1.11,1.65a1.59,1.59,0,0,0,1.23,2.2.91.91,0,0,1,.64,1.29c-.36,1.28-.54,2.9.38,3.74,1.64,1.48,1.66,3.22,1.7,5.1,0,.69.16,1.27,1.15,1.3.72,0,.59.79.45,1.25a1.55,1.55,0,0,0,.22,1.56c.65.82-.35,1.55-.23,2.37,0,.17-.26.43-.2.54.75,1.43-.28,2.12-1.17,2.88-.28.25-.13.56-.11.89a2.28,2.28,0,0,1-1.24,2.56c-.46.22-.73.52-.64,1,.16.88-.39,1-1,.9-.82-.06-1.21.21-1.1,1.07,0,.27.06.75-.19.76-1.66.06-2.13,2.31-4,2.1-.65-.08-1.58,0-1.63,1.27,0,.73-.85,1-1.51.72-1.08-.4-2.12.08-3.18,0-.38,0-.44.73,0,1,.72.4.73.89.72,1.66a2.74,2.74,0,0,0,1.29,2.76c.22.11.63.18.43.57-.56,1.14.41,1.91.64,2.85a.32.32,0,0,0,.15.19c1.61.57,1.31,2.16,1.75,3.35.12.34.27.58.63.62,1,.11,1.09.78,1.05,1.57a2.1,2.1,0,0,0,.89,2.18,2,2,0,0,1,.63,1.7c-.07,1.5.66,2.85.63,4.3,0,.54.15,1.19-.68,1.3-1.14-4.64-3.22-8.91-5.23-13.22-1.58-3.4-3.12-6.83-4.68-10.25a1.61,1.61,0,0,1,.42-1.1c3.6-1.75,7.53-2.83,10.81-5.24a12.06,12.06,0,0,0,4.65-7.44c.07-.31.17-.61.26-.91a11.4,11.4,0,0,0,0-3.35c-2.13-7.3-5.14-14.3-7.59-21.49a5.78,5.78,0,0,1-.12-.57C305.17,200.31,305.74,200.34,306,200.16Z"/><path class="cls-1" d="M201.6,157c-.2.36-.47.76-.9.69-1.37-.21-2.75,0-4.12-.09a6.58,6.58,0,0,0-1.06-.11c-.93.12-2,.51-2-1.08,0-.11-.29-.33-.44-.33-1.38.08-2.66-.67-4-.47-.68.1-1.08-.15-1-.79.11-.8-.41-.89-.91-.92A7.06,7.06,0,0,0,185,154c-.49.13-1-.07-.91-.61.28-1.45-.8-1.26-1.58-1.41-.47-.09-1,0-1.42-.11-.88-.23-.34-1.37-.86-1.64s-1.23.31-1.73-.36a1.32,1.32,0,0,1-.22-.79c0-.42-.24-.71-.66-.69-.73,0-1-.39-1.14-1a1.62,1.62,0,0,0-1.92-1.22c-.86.09-1.61.07-1.61-1.15,0-.51-.52-.78-1.06-.76s-.91-.06-1.07-.57a1.78,1.78,0,0,0-1.51-1.47c-.47-.07-.44-.65-.36-1,.2-.84-.12-1.08-.91-1s-1.49,0-.87-1.09c.14-.24,0-.45-.12-.67a1.75,1.75,0,0,1,.92-2.57,1.2,1.2,0,0,0,.53-.74c.21-.52.39-1.07,1.19-.81.58.19.66-.28.67-.7s0-1.06.39-1c1.59.08,1.79-1.67,2.95-2.12a1.17,1.17,0,0,0,.52-.63c.29-.7.46-1.45,1.51-1.34.37,0,.47-.49.67-.79.3-.45.52-1,1.23-1s.69-.57.66-1.06c-.08-1,.5-1.15,1.29-1,1.78.22,1.9.16,2.6-1.45.06-.14.18-.35.28-.36,1,0,1.67-.41,1.79-1.55,0-.3.59-.51,1-.44,1.31.19,2.47.1,3.27-1.23a1.55,1.55,0,0,1,1.45-.7c1,.2,2-.27,2.94-.06s1.75-.59,2.47-1.17a1.14,1.14,0,0,1,1.27-.34c1,.35,1.83-.4,2.75-.58s1.92.52,3,.37c.62-.08-.25.62-.14,1-.52.54-1.27.21-1.86.47a4.38,4.38,0,0,1-1,.1,3.78,3.78,0,0,0-1.42.14c-1.44.51-3,.64-4.42,1.09a49.77,49.77,0,0,0-17.18,9.74,55.35,55.35,0,0,0-7.16,6.87c-.78.94-.84,1.15,0,2a68.78,68.78,0,0,0,13,11.25,41,41,0,0,0,16.2,6.54,3.69,3.69,0,0,0,1.24.12,4.74,4.74,0,0,1,1.5.13A.6.6,0,0,1,201.6,157Z"/><path class="cls-4" d="M97.73,58.37A9.31,9.31,0,0,1,82,65.53l-1.06-.94a9,9,0,0,1-1.75-4.34,9.86,9.86,0,0,1,0-2.87,8.88,8.88,0,0,1,7.41-7.68c.42-.06.84-.17,1.26-.26a1.56,1.56,0,0,1,1.2,0,12,12,0,0,1,6,2.67c.92.31,1.2,1.11,1.49,1.9l.14.28c.56.21.46.75.58,1.17A18.12,18.12,0,0,1,97.73,58.37Z"/><path class="cls-1" d="M279.33,142.81a41.08,41.08,0,0,0-5.74-1.7c-.82-.3-1.69.06-2.5-.21a.83.83,0,0,1-.75,0c-.82.26-1.69-.07-2.51.2a29.41,29.41,0,0,0-8.76,2.85,13.36,13.36,0,0,0-3.68,3.46c-.09-.59-.21-1.17-.27-1.77a1.35,1.35,0,0,1,1-1.64c.88-.24,1.32-1.1,2-1.63,1.22-1,2.56-.29,3.77-.74A1.72,1.72,0,0,0,263,141a3.78,3.78,0,0,1,3.66-1.06c1.15.58,2.39.2,3.58.26.46,0,.91-.28,1.33.19.07.07.27.14.3.11.84-.93,1.65-.4,2.47,0a.44.44,0,0,0,.55-.08c.78-.86,1.8-.42,2.72-.5a1,1,0,0,1,1,.82,1.42,1.42,0,0,0,1.36,1.12,4.17,4.17,0,0,1,2.59,1.51c.66.75,1.95.93,2.2,2.18,1.82-.11,1.53,2.2,3,2.6.33.09.54.66.48,1.15a17.68,17.68,0,0,0,.23,3.08.92.92,0,0,0,.79,1,1.21,1.21,0,0,1,.75,1.85.92.92,0,0,0-.05,1.09.77.77,0,0,1,.16.44c-.15,2,.63,4.18-.49,6a3.75,3.75,0,0,1-2.15,2,5.51,5.51,0,0,1,.36-2.8c1.33-2.93.73-5.81,0-8.71a16.4,16.4,0,0,0-7.52-10C280.1,142.92,279.65,143,279.33,142.81Z"/><path class="cls-1" d="M174.25,229.66l-1.68.27a2.45,2.45,0,0,1-.6-1.52,44.66,44.66,0,0,0-3.69-11,10.75,10.75,0,0,0-2.73-3.29c-2.12-1.72-5.38-1-7.45,1.66a15.58,15.58,0,0,0-2.84,7.64c-.19.46,0,1-.46,1.41-1.79-1.52-1.86-2.06-.38-3.57a3.71,3.71,0,0,0,.88-2.9c-.05-1.31.12-2.41,1.5-3a.71.71,0,0,0,.39-.56,2.47,2.47,0,0,1,2.66-2.23c.53,0,.92-.09,1.07-.69s.6-.72.92-.49c.83.61,1.93,0,2.58.5,1,.72,2.74.5,2.89,2.26,0,.08,0,.2.08.21,1.2.29,1.48,1.55,2.28,2.14a2.83,2.83,0,0,1,1.15,2.16,9.51,9.51,0,0,0,2.08,5.43,1.19,1.19,0,0,1,.26,1.22,7.14,7.14,0,0,0-.11,2.26c0,.37.06.78.42.92s.78-.23.89-.45c.6-1.16,2.08-1.76,2-3.31a3.56,3.56,0,0,0,0-.93c-.2-.79-.27-1.51,1-1.22.38.08.44-.26.51-.53s.21-.85.27-1.28c.15-1.09.13-2.28,1.73-2.35.3,0,.49-.46.5-.75.06-1,.72-1.05,1.5-1.06s1.66-.14,2.49-.22a1.24,1.24,0,0,1,1.37.72,10.72,10.72,0,0,0-7,4.75c-1.11,1.72-1.47,3.75-2.1,5.66-.19.6-.34,1.22-.51,1.83C175.55,229.74,174.85,229.34,174.25,229.66Z"/><path class="cls-1" d="M208.8,246.7l0-.48a1.54,1.54,0,0,0,0-1.19c-.77-4-3-6.24-6.75-7a7.86,7.86,0,0,0-2.86,0,18.78,18.78,0,0,0-4.55,1.22c-.31.08-.68.36-.75-.25a39.24,39.24,0,0,1,2.69-5,14.89,14.89,0,0,0,1.66-4.56,7,7,0,0,0,0-2.62,10.92,10.92,0,0,0-9.14-9.63.56.56,0,0,1-.24-.22.76.76,0,0,1,.76-.48l3.69.26c.07,0,.21,0,.22.07.33,1.38,2,1.57,2.5,2.79.09.21.2.57.34.59,2.09.29,1.43,2.37,2.28,3.47.13.17.08.56.23.64,2.23,1.18.95,3,.7,4.48a2.09,2.09,0,0,0,.3,1.55,1,1,0,0,1-.49,1.56c-1.43.35-1.31,1.49-1.37,2.44s0,1.89-1.31,2.16c-.51.1-.57.75-.3,1.1s.77,0,1-.15c1.64-1.25,2.88-1,4.68-.41a8.45,8.45,0,0,0,3.6.82c.91-.09,1.93-.18,1.88,1.28,0,.37.35.36.63.39,1,.09,1.24.7,1.26,1.57a21.7,21.7,0,0,0,.17,3.94C209.82,245.63,209.77,246.51,208.8,246.7Z"/><path class="cls-4" d="M101.51,107.52c-4-.23-6.51-2.23-7.23-5.71a6.9,6.9,0,0,1,13.53-2.68,3.73,3.73,0,0,0,.14.44l0,2.08a3,3,0,0,1-.73,2c-.25.08-.2.29-.21.48s-.14.63-.52.72l-1.43,1.35c-.11.52-.63.37-.94.58-.31.38-.88,0-1.2.41s-.87,0-1.24.3l-.1,0Z"/><path class="cls-3" d="M298.49,38.32c-.24,0-.47,0-.71,0H240.92l-.72,0c.59-.89,1.27-.5,2-.15,1.23,0,2.48,0,3.7.1,1,.12,1.29-.5,1.34-1.19s.43-1.6.47-2.38c0-.94.4-.76,1-.64,6.57,1.34,13.16,2.64,19.74,4a11.8,11.8,0,0,0,2.37.21h27C298,38.27,298.26,38.3,298.49,38.32Z"/><path class="cls-1" d="M316.35,189.35c-.92-3.84-3.77-5.85-7.08-7.4-3-1.4-6.26-1.57-9.37-2.42-3.68-1-7.1-2.52-9.64-5.52a10.62,10.62,0,0,1-2.78-7.12,2.13,2.13,0,0,1,.07-1.53c1,.51.61,1.56.87,2.34.16.48.23.74.79.8.78.1,1,.6.84,1.39-.34,1.53-.05,1.93,1.27,2.8.9.6,1.06,2.13,2.53,2.07,0,2.09,1.57,1.6,2.81,1.65.49,0,.76.4,1,.73s.32,1.09.83,1.09c1,0,2,.62,3,.26a3,3,0,0,1,3.76,1.19,1.46,1.46,0,0,0,1.32.7c1-.22,2,.1,3-.08.75-.14,1.26,0,1.51.74a1.21,1.21,0,0,0,1.47.88c1.19-.09,2.39-.14,2.55,1.54,0,.14.28.26.42.4.4.41,1.24.38,1.32,1.09a29.67,29.67,0,0,1,.18,3.4A1.32,1.32,0,0,1,316.35,189.35Z"/><path class="cls-1" d="M131.26,148.39l-1-.44c-.15-.51-.46-.6-.91-.37l-2.16-.5c-.3-.55-.78-.41-1.25-.32a2.87,2.87,0,0,1-1-.1H122c-.57.25-1.2-.07-1.76.21s-1.14.26-1.69.43a.44.44,0,0,1-.6-.2c-.51-1-1.52-1.43-2.27-2.15-.27-.66-1-.48-1.44-.71l-.48,0c.7-1.15,1.7-.65,2.64-.47s1.12.63.86,1.47c-.16.52.28.5.58.47,2-.2,4.07.12,6.14-.09a12.24,12.24,0,0,1,6.21.64c.75.32,1.12,1.45,2.12,1.39,1.25-.08,2.26.06,2.46,1.57,1.39.24,1.73,2,3.22,2.18.53.06.78.61.63,1.23-.31,1.34-.25,2.57,1.21,3.27a1,1,0,0,1,.31.36c.85,1.35.14,4.41-1.27,5.28-.44.27-.75.61-.46,1,.51.78-.25,2.26,1.33,2.45.06,0,.15.27.13.29-1,.86.07,1.23.36,1.85s-.23,1.21-.62,1.69-.78.14-1.14-.11v-1.17c-.26-.38,0-.84-.21-1.21a67.86,67.86,0,0,1-1.47-6.73,3.6,3.6,0,0,1,1.6-.11c.64,0,.86-.24.57-.85a22,22,0,0,0-2.41-5.74c-.14-.41-.28-.82-.75-1a26,26,0,0,0-3.8-3.14C131.84,148.5,131.66,148.24,131.26,148.39Z"/><path class="cls-1" d="M142.8,195.14c3.4-.47,7.39-2.34,8.25-6.31a9.55,9.55,0,0,0-2.15-8.61,13.21,13.21,0,0,0-4.65-3.38,2.17,2.17,0,0,1,3.48.34c.28.71.58,1.2,1.43,1.14a.71.71,0,0,1,.84.78,1.12,1.12,0,0,0,1,1.22c.87.2,1.29,1.6.94,2.94a10.38,10.38,0,0,0,.07,3.1,16.61,16.61,0,0,1-.24,5.12.89.89,0,0,1-.29.51c-.83.41-1.73.72-1.69,1.9,0,.08-.33.25-.5.24-.77,0-1.08.45-1.22,1.07a1,1,0,0,1-1.31.87c-.78-.12-1.53.45-2.34.07-.26-.13-.46.16-.41.42.08.45,0,1.09.62,1.15,1.38.16,1.48,1.08,1.52,2.15,0,.91.14,1.82.23,2.72a1.28,1.28,0,0,1-.69,1.4,16.63,16.63,0,0,0-4.89-8.61l.72,0C141.94,195.11,142.41,195.36,142.8,195.14Z"/><path class="cls-1" d="M242.16,38.19l-2,.15c-.63.2-1,.47-.7,1.26a2.92,2.92,0,0,1,0,1.07q0,16.77,0,33.53c0,.65,0,1.3,0,2-.72,1-.44,2.3-.88,3.38-.28.67-.08,1.46-.58,2.06-.9-.81-.21-1.84-.31-2.76s.23-2,.18-3c0-.79.69-1.38.69-2.31-.07-10.71,0-21.42,0-32.14a1.87,1.87,0,0,0-.49-1.65.75.75,0,0,1-.2-.77,8.32,8.32,0,0,1,3-2.6C241.66,36.28,242.13,36.94,242.16,38.19Z"/><path class="cls-1" d="M153.33,236.18c-1.78-2.05-3.09-4.42-4.66-6.6-1.93-2.66-3.73-5.42-5.59-8.13a2.68,2.68,0,0,1-.57-1.42l1.29-4.27a2.65,2.65,0,0,1,.51,2.2c-.27,1.45-.4,3.29.78,4.1s.82,2.87,2.75,3.09c.44,0,1,1.09,1.79,1.45.58.26.63.93.37,1.57-.41,1-.39,1.77.93,2,.59.12.76.78,1,1.25s.51.71,1,.6a1,1,0,0,0,.84-1c0-.69.13-1.21,1-1.14a1.49,1.49,0,0,1,.48.85,11.24,11.24,0,0,1,.1,2.17,3.8,3.8,0,0,0,.13,1.34C155.52,235.61,155,236.09,153.33,236.18Z"/><path class="cls-1" d="M104.2,151.05v1.26c.1.34-.23.76.18,1.05.17.34-.16.81.29,1.08.1.37.07.81.44,1.08l.28.38a2.56,2.56,0,0,0,1.15,1.54l1.46,1.23c.32.93-.08,1.92.23,2.85l.51,2.36a16,16,0,0,0,0,1.7l-.43.48-1.72-.49a.47.47,0,0,1-.24-.22c0-.44.36-.44.68-.51a.64.64,0,0,0,.49-.83,21.8,21.8,0,0,1-.45-3.78c0-.3-.07-.57-.42-.61-.62-.06-.79-.44-.79-1s-.36-.63-.77-.77a2.19,2.19,0,0,1-1.61-2.39c-.06-1.64,0-3.29-.23-4.93-.15-1.39.49-2.74.25-4.15a.58.58,0,0,1,.71-.62c1,.21,1.23-.23,1.18-1.08,0-.66.3-.9.94-.94,1.17-.09,2.39.09,3.11-1.32.37-.73,3.14-.83,3.65-.25.37.42.07,1.06.22,1.58-.94.32-1.93-.07-2.88.21-3.12.77-5.31,2.5-6,5.79C104,150.14,104.47,150.66,104.2,151.05Z"/><path class="cls-1" d="M252.54,116.38c1.87.4,3.74.82,5.62,1.2,3,.61,6,1.19,8.94,1.79l7.67,1.55c2.17.44,4.35.85,6.51,1.33.63.14,1.33,0,1.91.41,0,.46-.48.74-.73.63-1-.45-2.1.25-3.16-.11a3,3,0,0,0-2.07.08c-.81.31-1.69-.43-2.61-.21-.25.06-.33-.32-.3-.55.15-1-.53-1.17-1.29-1.3a23.4,23.4,0,0,0-5,0c-.47,0-.88-.35-1.27-.27-1.33.3-2.18.19-2.71-1.41-.28-.86-1.58,0-2.42-.17-.25,0-.61.26-.79.16-1.19-.7-2.44-.09-3.64-.22a2.33,2.33,0,0,1-2.08-1.15c-.51-1-1.6-.47-2.39-.69a3.22,3.22,0,0,1-1.92-1A3.15,3.15,0,0,1,252.54,116.38Z"/><path class="cls-4" d="M153.37,17.76a2.09,2.09,0,0,1-1.6-2.25c0-1.63,0-3.26-.06-4.89a1.86,1.86,0,0,1,.45-1.27,1.49,1.49,0,0,1,.79-.67l.66-.29a2.58,2.58,0,0,1,1.43,0,3.16,3.16,0,0,1,1.87,3.36c0,1.27,0,2.54,0,3.81a2.09,2.09,0,0,1-1.35,2c-.6-.05-.46-.55-.52-.89a7.47,7.47,0,0,0-.11-1.06c-.08-.27-.17-.57-.53-.52s-.34.31-.38.54,0,.71-.07,1.06S153.89,17.56,153.37,17.76Z"/><path class="cls-4" d="M153.37,17.76a4.62,4.62,0,0,0,.23-2.21c0-.53.19-1,.75-1s.8.45.91.94c.15.68-.22,1.43.25,2.07-.38.34-.3.8-.3,1.23q0,3.7,0,7.41c0,1.47-.2,1.66-1.63,1.67l-7.65.05a5.51,5.51,0,0,1-2.39-.05V26.17c2.81-.24,5.62,0,8.43-.11a3.06,3.06,0,0,0,1.41-.12h0a49.54,49.54,0,0,0,0-8.08Z"/><path class="cls-1" d="M198,255.11a21.75,21.75,0,0,0,8.72-5,10.34,10.34,0,0,0,2-3.19c.54.07,1,.36.94.89-.11.72-.27,1.57-1,1.9-.56.24-.83.5-.83,1.12a1,1,0,0,1-.92,1c-1.21.13-1.7,1.25-2.63,1.75-.27.15-.23.47-.28.75-.17.83-.28,1.75-1.55,1.35a.44.44,0,0,0-.54.35.47.47,0,0,0,.22.62,3.18,3.18,0,0,1,2,2,.69.69,0,0,0,.58.36c1.12-.14,1,.6,1,1.29a8.53,8.53,0,0,1-.73,4.16,1.4,1.4,0,0,1-1.47,1,11.3,11.3,0,0,0,.45-4.36c-.46-2.47-2.11-3.92-4.25-4.95-.39-.19-.8-.35-1.2-.52C198.38,255.37,197.86,255.58,198,255.11Z"/><path class="cls-1" d="M151.68,167c-1.26.47-1.67.29-1.9-.95-.09-.48-.48-.8-.51-1.32a3.77,3.77,0,0,1,2.58-3.17A3.74,3.74,0,0,0,154,160a2,2,0,0,1,2.44-1,1.07,1.07,0,0,0,.82-.05c.62-.27,1.56,0,1.62.31.31,1.76,2.88,1.46,2.92,3.35a.88.88,0,0,1-.85,1c-.68,0-1,.58-1.47.82a5.21,5.21,0,0,1-2.26.91,1.31,1.31,0,0,0-1.46,1.09c-.2.79-.76,1.34-1.7.78a1.3,1.3,0,0,0-1-.14c-.46.13-.52-.21-.57-.54.44-.81,1.33-1,2-1.39,1.25-.77,2.61-1.36,3.9-2.06.65-.36.83-.7.47-1.41-.83-1.64-.88-1.71-2.47-.85-1.79,1-3.59,1.91-5.38,2.85-.61.32-.7.66-.36,1.22A8.63,8.63,0,0,1,151.68,167Z"/><path class="cls-11" d="M151.68,167a9.45,9.45,0,0,1-1.65-2.58c-.29-.51.14-.67.41-.81,2.28-1.22,4.58-2.41,6.87-3.61.47-.25.83-.21,1.09.29s.69,1.26,1,1.89-.14.74-.47.92q-3.27,1.73-6.56,3.43Z"/><path class="cls-11" d="M120.73,113.05v7.48c0,1.63,0,1.63-1.68,1.64a2.22,2.22,0,0,1-1.68,0,73,73,0,0,1,0-9.12h0A10,10,0,0,1,120.73,113.05Z"/><path class="cls-11" d="M197.28,81.37H205a.58.58,0,0,1,.8,0c.33,1.08-.11,2.17.05,3.26a.63.63,0,0,1-.35.27,70.62,70.62,0,0,0-8,0c-.7.06-1.26-.08-1.06-.95s-.44-1.72,0-2.57A.59.59,0,0,1,197.28,81.37Z"/><path class="cls-11" d="M215,81.37h8.16c.43-.25.83-.33,1.11.21-.06,1,0,2-.05,3.07a.66.66,0,0,1-.34.3c-1.7,0-3.4-.17-5.11-.11-1,0-2.07,0-3.11,0-.31,0-.82,0-.77-.34C215.07,83.46,214.52,82.39,215,81.37Z"/><path class="cls-11" d="M179,81.37h7.2c.73-.41,1.17-.11,1.26.63a4.17,4.17,0,0,1-.25,2.78c-1.41.15-2.84,0-4.26.06s-2.78,0-4.17,0c-.38,0-.9,0-.83-.4.15-1-.54-2,0-3A.75.75,0,0,1,179,81.37Z"/><path class="cls-11" d="M120.73,94.57c0,2.63,0,5.25,0,7.88,0,.42.16.89-.23,1.24a12.59,12.59,0,0,1-2.6.11c-.45,0-.64-.16-.64-.62,0-2.7,0-5.41,0-8.11,0-.47.19-.65.64-.62A14.19,14.19,0,0,1,120.73,94.57Z"/><path class="cls-1" d="M239.49,114l.06,1.41c0,.45.2.75.69.77.53.29,1.15-.08,1.67.22-.18.74-.53,1.2-1.35.76a1.34,1.34,0,0,0-1,0c-1.11.28-1.68,0-1.89-1.13-.09-.5-.18-.84-.75-.86a.37.37,0,0,1-.29-.18c-.53-1.78-2-1.15-3.15-1.21a7.66,7.66,0,0,1-1.9-.19c-.48-.15-1.13,0-1.12-.77s-.37-1.53.76-1.7c.37-.06.38-.34.42-.63.15-1.27.34-2.53.46-3.79s.53-2.27-.13-3.47c-.45-.8.36-1.67,1.33-1.69.32,0,.64,0,1,0-.53,2.6-1.09,5.19-1.56,7.8a8.83,8.83,0,0,1-.32,1.21c-.57,1.56.11,2,1.51,2.18.69.06,1.38.21,2.07.33.36.28.85,0,1.22.23s1,0,1.42.27S239.24,113.73,239.49,114Z"/><path class="cls-1" d="M169.66,159.62a3.77,3.77,0,0,0-2.14-.06.52.52,0,0,1-.67-.51c0-.78-.5-1.17-1-1.66a3,3,0,0,1-1-2.36,1.59,1.59,0,0,1,1.73-1.67q.54,0,1.08,0c.79,0,1.23-.29,1.08-1.15-.07-.38-.06-.74.33-.93s.61.07.84.3a.63.63,0,0,0,.74.18c1.2-.42,2,.11,2.12,1.38a7.61,7.61,0,0,0,.3,1.87c.49,1.24-.14,1.92-1.07,2.43a1.43,1.43,0,0,0-.94,1.36C171.08,159.65,170.33,159.55,169.66,159.62Z"/><path class="cls-12" d="M90.26,277l68.25,0H200c.52,0,1-.07,1.55-.11a.77.77,0,0,1-1,.51,13.93,13.93,0,0,0-3.7-.16l-105.16,0C91.25,277.17,90.71,277.36,90.26,277Z"/><path class="cls-11" d="M120.73,131.52v7.68a.88.88,0,0,1-.22.1c-3.26.27-3.28.27-3.25-3a31.64,31.64,0,0,1,.11-4.77h0A10,10,0,0,1,120.73,131.52Z"/><path class="cls-1" d="M257.29,258.51c-.55,2.26-1.12,4.51-1.65,6.78a2.53,2.53,0,0,1-.32.61.69.69,0,0,1-.43-.78c.48-1.54-.53-3.15.28-4.67.23-.43-.29-.77-.21-1.25a6.35,6.35,0,0,1,.88-2.78c.26-.36.4-.92.19-1.11-1.27-1.15-.76-2.64-.86-4a27.85,27.85,0,0,1-.32-3.43,1.47,1.47,0,0,1,.7-1.4,1,1,0,0,1,.3.92c.24.38,0,.85.2,1.23.42,2.77.83,5.54,1.25,8.31A2.83,2.83,0,0,1,257.29,258.51Z"/><path class="cls-12" d="M324,277.19H221.28a1.88,1.88,0,0,1-1.87.18c-.21-.08-.43-.22-.22-.51a3.7,3.7,0,0,1,2.22-.31H323a3.92,3.92,0,0,1,2.11.27C325.06,277.47,324.84,277.55,324,277.19Z"/><path class="cls-1" d="M283.43,122.63c2.58.55,5.16,1.13,7.74,1.66.79.17,1-.37,1.14-1,.39-2,.81-3.93,1.23-5.89.9.6.68,1.63.58,2.36-.14,1.19-.09,2.37-.12,3.56,0,1.51-.8,2.23-2.3,2a22.87,22.87,0,0,0-6.86-.08c-.67.08-1-.24-.92-.88A2.24,2.24,0,0,0,283.43,122.63Z"/><path class="cls-13" d="M82.81,275.24l.42.28a.92.92,0,0,1,0,1.16l-.21.19c-.16.25-.42.18-.64.18H71.28a1.22,1.22,0,0,1-.46-.09c-.46-.58-.81-1.15,0-1.73,3-.22,5.94-.06,8.91-.09A14.41,14.41,0,0,1,82.81,275.24Z"/><path class="cls-1" d="M237.87,82.58a57.33,57.33,0,0,1-1,5.66c-.52,2.75-1.15,5.48-1.67,8.23a13.45,13.45,0,0,1-.91,3.88,1.2,1.2,0,0,1-.51-1.15c.14-1.36-.11-2.75.32-4.08a1.72,1.72,0,0,0,.06-1.16c-.3-.86.15-1.39.56-2.12.52-.93,1.65-1.67,1.25-3.11-.29-1,0-2.21-.13-3.33-.08-.47.27-.81.72-1s.43-.56.14-.92-.75-.35-.38-.82a.76.76,0,0,1,1-.18A1.87,1.87,0,0,0,237.87,82.58Z"/><path class="cls-1" d="M142,35.5c-.51-.32-1.09,0-1.62-.19a3.57,3.57,0,0,1,4.15-1.05c.26.09.47.27.78.24,1.08-.11,1.26.51.91,1.32a2.38,2.38,0,0,0,0,2.27,1.62,1.62,0,0,1,0,1.38,2.31,2.31,0,0,0-.28,1.25c.43,1.28-.42,1.64-1.29,2-.33.12-.66.27-1,.38-.82.29-1.59.3-1.86-.79a3.45,3.45,0,0,0,3.29-2.93,3.27,3.27,0,0,0-1.46-3.28A2.75,2.75,0,0,0,142,35.5Z"/><path class="cls-1" d="M137.19,175.22l-1.15,0c1-1.74,2.07-3.44,2.24-5.51a10.61,10.61,0,0,1,1.37.36c.36.13.84.29.68.81a.74.74,0,0,1-1,.43c-.7-.25-.9-.11-.66.62a2.54,2.54,0,0,1,0,.83c0,1.48.1,1.65,1.6,1.73a23.17,23.17,0,0,0,2.5,0c.93-.05,1.64,0,1.2,1.28a3.3,3.3,0,0,0,0,.95l-4.78-1.27C138.56,175.13,137.84,175.47,137.19,175.22Z"/><path class="cls-1" d="M256.33,157l-.06,1.41c-.21.48.05,1-.18,1.48l0,.67c-.35-.21-.75-.47-.68-.9.3-1.85-.52-3.65-.15-5.54.16-.83.19-2.2-1.41-2.24-.11,0-.27-.16-.33-.28a2.8,2.8,0,0,1,1.91-4.21l-.3,1.41a4.27,4.27,0,0,0,0,2.16,6.06,6.06,0,0,0,1.68,2.85c-.29.28-.16.67-.27,1C256.25,155.52,256.61,156.29,256.33,157Z"/><path class="cls-1" d="M253.66,233l.27,1.86c.23.39-.05.86.21,1.25l.27,1.87c.23.39,0,.87.21,1.25l.27,1.88c.24.38,0,.86.2,1.24l.28,1.88c.24.38,0,.86.2,1.24a.79.79,0,0,1,0,.72,1.78,1.78,0,0,1-1.34-2.19c.11-.54,0-.86-.43-1.08-.71-.37-.66-.89-.6-1.6.13-1.35-.24-2.71-.08-4.09s0-2.84.31-4.23C253.51,232.92,253.58,232.92,253.66,233Z"/><path class="cls-1" d="M308.19,270.71c-.34-1.92-.67-3.85-1-5.77,1.25-.4,2.23.66,2.17,2.3a22.74,22.74,0,0,0,.21,5.71,1,1,0,0,1-.24,1c-.41.31-.29.68-.21,1.07-.57.25-.57-.14-.6-.52a5.58,5.58,0,0,0-.1-1.63l-.05-.9C308.16,271.57,308.38,271.11,308.19,270.71Z"/><path class="cls-1" d="M219.14,276.87c.64.62,1.43.17,2.14.32a2.07,2.07,0,0,1-.24,1.19,3.2,3.2,0,0,1-1.11.39,1,1,0,0,1-1.38-.94c0-.52-.11-.93-.63-1.13-.46-.37-1.45-.26-1.19-1.27s.93-1.09,1.73-1.13a9.1,9.1,0,0,0,1.64-.11.9.9,0,0,1,1.18.83c-.47.49-1.14.2-1.67.41C218.77,275.69,219.17,276.35,219.14,276.87Z"/><path class="cls-1" d="M209.52,277.19c0,1.41-.48,1.91-1.56,1.65-.52-.13-.92-.47-.81-1a11,11,0,0,0-.09-2.57c0-.76,0-1.17,1-1,.81.11,1.75-.38,2.15.8-.32.39-.84.21-1.22.44-.57.37-.6.79-.1,1.25C209.11,276.88,209.38,277,209.52,277.19Z"/><path class="cls-1" d="M143.8,215.51l1.92-6.48a.65.65,0,0,1,.67.69c0,1.23.21,2.48-.36,3.65-.09.18-.26.38-.24.54C146,215.58,144.87,215.49,143.8,215.51Z"/><path class="cls-1" d="M133.38,48c2.77-1.14,3.45-3,2-5.7h1.63a2.74,2.74,0,0,0,.21.42c.59.77,1,1.43-.47,1.63a.67.67,0,0,0-.38,1.07,2,2,0,0,1-.14,2.63c-.71.78-1.76.47-2.66,0A.79.79,0,0,0,133.38,48Z"/><path class="cls-12" d="M219.36,275.25c.59-.47,1.28-.12,1.92-.23H252a1.35,1.35,0,0,1,1.4-.23l0,.42c-.42.5-1,.43-1.55.43q-15.44,0-30.88,0A2,2,0,0,1,219.36,275.25Z"/><path class="cls-1" d="M255.34,266.62c-.73,2.3-1,4.71-1.86,7a2.56,2.56,0,0,1-.19-2.75,1.37,1.37,0,0,0,.05-1.55c-.65-.82-.19-1.48.22-2.16S254.66,266.51,255.34,266.62Z"/><path class="cls-1" d="M324,277.19c.4-.08.89.18,1.19-.29-.05-.48.29-1-.25-1.41-.27-.25-.71-.15-.94-.47.57-1.11,1.48-1.3,2.29-.47.21.22.4.47.59.71a3,3,0,0,1-.09,2c-.38,1.34-.87,1.58-2.31,1.14A1.42,1.42,0,0,1,324,277.19Z"/><path class="cls-12" d="M299.48,115.67c0-1,.06-1.9.06-2.86q0-13,0-25.93a.19.19,0,0,0,.15,0q0,13.92,0,27.82C299.74,115,299.85,115.43,299.48,115.67Z"/><path class="cls-1" d="M187.2,84.73c0-.82,0-1.64,0-2.46s-.3-1-1-.9c.42-1,1.26-.75,2-.62a.49.49,0,0,1,.29.77,4.26,4.26,0,0,0-.37,2.43,1.31,1.31,0,0,1-.41,1.06c-.21.2-.37.43-.13.72s.36.57-.11.73-.68,0-.79-.46-.17-.69-.25-1C186.67,84.74,187,85,187.2,84.73Z"/><path class="cls-1" d="M212.88,275c.1-.58.4-1,1-.88s1.19.31,1.15,1.15c0,.63.35,1.23.22,1.88s0,1.46-1,1.45-1.21-.6-1.16-1.43c.12-.21.35-.28.52-.43a2.08,2.08,0,0,0,.27-.32.78.78,0,0,0,0-.71,1.46,1.46,0,0,0-.17-.24C213.53,275.23,213.1,275.33,212.88,275Z"/><path class="cls-12" d="M140.16,22.8H118.58c.33-.33.76-.21,1.14-.21H139C139.41,22.58,139.83,22.45,140.16,22.8Z"/><path class="cls-12" d="M123.37,35.3c-.56-1.17-.17-2.41-.22-3.61,0-.6.57-.43.93-.43h15.83c-.37.35-.83.2-1.25.2-4.63,0-9.25.05-13.87,0-1.17,0-1.59.34-1.43,1.47a11.52,11.52,0,0,1,0,1.44A.71.71,0,0,1,123.37,35.3Z"/><path class="cls-1" d="M179,81.37h-1c-.33.52.07,1.15-.24,1.68-.89.06-1.44-.24-1.45-1.24,0-.76.18-1.37,1.06-1.38C178.14,80.42,179.07,80.12,179,81.37Z"/><path class="cls-12" d="M324,275c.4.08.89-.2,1.18.3a2.33,2.33,0,0,1-1.61.32c-4.47,0-8.95,0-13.43,0-.58,0-1.22.1-1.68-.43l0-2.34c.36.36.17.82.21,1.24s-.11.83.49.91Z"/><path class="cls-1" d="M205.92,84a1.44,1.44,0,0,1,1.4,2.12.68.68,0,0,1-1,.41c-.64-.33-1.26-.73-1.31-1.57.19-.23.53,0,.72-.24h0C205.91,84.54,205.69,84.2,205.92,84Z"/><path class="cls-1" d="M205.67,81.37H205c0-1.26.9-1,1.59-.91.53.05,1.22,1.49,1,1.93-.43.8-1,.51-1.6.18C205.63,82.21,206,81.73,205.67,81.37Z"/><path class="cls-12" d="M120.73,94.57c-1.06.07-2.41-.45-3.11.21s-.21,2-.24,3.09c0,1.55.05,3.11,0,4.65-.06,1,.33,1.26,1.23,1.18.63-.06,1.27,0,1.91,0-.94.49-1.94.17-2.91.2-.43,0-.45-.38-.45-.7V95.06c0-.32,0-.72.45-.7C118.63,94.41,119.71,94.05,120.73,94.57Z"/><path class="cls-1" d="M224.4,84.49c1,.68.29,1.6,0,2.11-.42.71-.86-.06-1.24-.43a3.19,3.19,0,0,1-.92-1.2c.61-.32,1.31.09,1.92-.24h0C224.24,84.65,224.25,84.5,224.4,84.49Z"/><path class="cls-1" d="M178.8,85c.17.63.35,1.27-.52,1.53-.37.11-1.62-1.06-1.62-1.49,0-.83.63-.75,1.18-.76C177.89,84.85,178.41,84.83,178.8,85Z"/><path class="cls-12" d="M189.12,275.23a2.43,2.43,0,0,1,1.21-.43c.36.37.82.21,1.24.21,2.86,0,5.72,0,8.58,0,.4,0,.89-.19,1.2.28Z"/><path class="cls-1" d="M215,85c0,.35.06.72-.21,1s-.38.44-.7.37-.27-.33-.23-.58a.56.56,0,0,0,0-.34c-.7-1.35-.67-1.4.92-1.43C215,84.3,214.86,84.67,215,85Z"/><path class="cls-12" d="M178.8,85c-.51,0-1,0-1-.72v-1.2c.1-.56-.22-1.18.24-1.68,0,3.36,0,3.36,3.29,3.36h5.83c-.17.28-.46.23-.72.24Z"/><path class="cls-12" d="M215,85c-.35-.25-.21-.63-.24-1V82.57c-.25-.46-.54-.94.24-1.2h0c.07,1.06-.45,2.4.21,3.11s2,.21,3.08.24c1.94,0,3.88,0,5.83,0-.59.48-1.29.13-1.92.24Z"/><path class="cls-12" d="M205.68,84.73c-.17.28-.46.23-.72.24h-7.2a1,1,0,0,1-1.38.06c-.37-.28-.31-.66-.06-1v-1.2c-.18-.52-.59-1.09.24-1.44,0,3.36,0,3.36,3.29,3.36Z"/><path class="cls-12" d="M241.91,116.4c-.55-.09-1.16.22-1.67-.22h12.2a1.14,1.14,0,0,0,.1.19l-1.75,0Z"/><path class="cls-12" d="M70.82,277l10.9,0c.44,0,.87-.06,1.31-.08-.14.32-.43.31-.71.31h-11A1.64,1.64,0,0,1,70.82,277Z"/><path class="cls-1" d="M255.85,163l-.06,1.41c-.17.21,0,.52-.21.71-.9-.13-.78-.83-.65-1.38s.5-1.21.22-1.94c-.16-.43.2-.73.68-.76A3.62,3.62,0,0,1,255.85,163Z"/><path class="cls-12" d="M82.81,275.24h-12c.24-.28.57-.22.88-.22H81.92C82.24,275,82.57,275,82.81,275.24Z"/><path class="cls-1" d="M196.32,84c-.15,1.27.78.91,1.44,1-.08.47.22,1.29-.42,1.29a2.14,2.14,0,0,1-1.76-1.2C195.32,84.53,195.69,84.1,196.32,84Z"/><path class="cls-12" d="M117.37,131.52c0,2.22,0,4.44,0,6.65,0,.75.2,1.1,1,1s1.59,0,2.38,0c-1,.52-2.1.15-3.14.21-.35,0-.45-.27-.45-.58,0-2.34,0-4.68,0-7C117.18,131.71,117.3,131.62,117.37,131.52Z"/><path class="cls-1" d="M215,81.37c-.4.34-.18.8-.24,1.2-1.25.11-1.21-.85-1.35-1.63-.06-.34.23-.5.53-.5C214.58,80.43,215.08,80.61,215,81.37Z"/><path class="cls-1" d="M196.56,81.37c-.44.42-.16,1-.24,1.44-.62-.3-.6-1-.82-1.49s.25-.79.68-.88c.71-.14,1.15.13,1.1.93Z"/><path class="cls-12" d="M99.38,274.5c.53.71.1.77-.49.77l-8.64,0c.36-.37.82-.21,1.24-.21,2.26,0,4.51,0,6.76,0C98.68,275,99.26,275.23,99.38,274.5Z"/><path class="cls-12" d="M153.37,25.94c-.31.4-.74.19-1.11.19-2.91,0-5.82,0-8.73,0a.59.59,0,0,0-.05-.22Z"/><path class="cls-12" d="M114.68,26.19c0,2.65,0,5.29,0,7.94,0,.37.15.79-.18,1.12,0-2.6,0-5.19,0-7.79C114.5,27,114.35,26.57,114.68,26.19Z"/><path class="cls-12" d="M117.37,113v9.12a.69.69,0,0,1-.24-.63v-7.85A.72.72,0,0,1,117.37,113Z"/><path class="cls-12" d="M153.34,17.86a45.43,45.43,0,0,1,0,8.08Z"/><path class="cls-1" d="M217.92,276.7c.33,0,.87-.05.79.44-.27,1.8.76,1.54,1.86,1.25a1.83,1.83,0,0,1,.47,0c-1.35,1.17-2.29.91-2.63-.75C218.33,277.25,218.05,277,217.92,276.7Z"/><path class="cls-1" d="M224.16,81.61c-.26-.35-.63-.2-1-.24.14-.18.27-.38.43-.55.35-.37.76-.64,1.15-.07s.45,1.1-.38,1.34C224.23,82,224.32,81.73,224.16,81.61Z"/><path class="cls-12" d="M155,230.63c-.28-.18-.23-.46-.24-.72v-5c.08-.48-.19-1,.24-1.44a.9.9,0,0,1,.32.62,49.22,49.22,0,0,1,0,5.95A.94.94,0,0,1,155,230.63Z"/><path class="cls-1" d="M324.46,278.38c2.11,0,2.39-.37,2.4-3.12.6,1.63,0,3.19-1.28,3.52C325.1,278.9,324.71,278.87,324.46,278.38Z"/><path class="cls-12" d="M299.57,44.27c0-1.87-.07-3.73-.11-5.6.52.39.27.95.28,1.43,0,1.39,0,2.77,0,4.15h-.07Z"/><path class="cls-12" d="M100.52,60.26a8.09,8.09,0,0,1-2.11-1.45c.89-.27,1.42.52,2.16.72Z"/><path class="cls-12" d="M82.51,175a7,7,0,0,1-1.62,1.68C81.11,175.77,81,174.62,82.51,175Z"/><path class="cls-1" d="M123.37,35.3v-1c.69,0,1.5-.16,1.44,1Z"/><path class="cls-12" d="M212.88,275c.4.13,1.07-.34,1.15.51a28.29,28.29,0,0,1-4.51.05.91.91,0,0,1-.72-.35c.43-.38,1-.14,1.44-.21Z"/><path class="cls-12" d="M97.68,172.08c-.29,1.5-.29,1.5-1.93.72A4.49,4.49,0,0,0,97.68,172.08Z"/><path class="cls-12" d="M73.51,95.7a7.3,7.3,0,0,1,1.58,1.51C74,97.32,73.39,96.88,73.51,95.7Z"/><path class="cls-12" d="M293.77,116.4a.39.39,0,0,1,0-.21h5C297.13,116.67,295.44,116.28,293.77,116.4Z"/><path class="cls-12" d="M213.81,276.87c-.12.36-.42.29-.69.32h-3.6c-.26,0-.53,0-.72-.21A7.43,7.43,0,0,1,213.81,276.87Z"/><path class="cls-12" d="M116.08,23.78l-1.33,2C114.7,24.76,114.57,23.71,116.08,23.78Z"/><path class="cls-12" d="M96.49,54,95,52.11C96.3,52.12,96.54,53,96.49,54Z"/><path class="cls-12" d="M200.4,118.29c.6-.42,1.28-.1,1.92-.22H203c.63.12,1.32-.19,1.92.21A5.42,5.42,0,0,1,200.4,118.29Z"/><path class="cls-1" d="M253.39,274.79a2.34,2.34,0,0,1-1.4.23c.09-.89.9-.72,1.42-1A.89.89,0,0,1,253.39,274.79Z"/><path class="cls-12" d="M85.18,203c0,1.28,0,2.55,0,3.83A7.12,7.12,0,0,1,85.18,203Z"/><path class="cls-12" d="M101.93,166.31l-1.77,1.52A1.62,1.62,0,0,1,101.93,166.31Z"/><path class="cls-12" d="M83.05,109l1.36,1.37C83.43,110.47,83,110,83.05,109Z"/><path class="cls-12" d="M100.17,167.82l-1,1.33C99.15,168.45,99,167.6,100.17,167.82Z"/><path class="cls-12" d="M205.67,81.37c.41.33.19.8.25,1.2V84c0,.26,0,.55-.24.72C205.68,83.61,205.68,82.49,205.67,81.37Z"/><path class="cls-12" d="M120.73,113.05h-3.36A5,5,0,0,1,120.73,113.05Z"/><path class="cls-12" d="M120.73,131.52h-3.36A5,5,0,0,1,120.73,131.52Z"/><path class="cls-12" d="M224.16,81.61a.51.51,0,0,1,.24.48v2.4l-.24.24Z"/><path class="cls-12" d="M72.49,94.61a3,3,0,0,1,1,1.1C72.84,95.66,72.23,95.54,72.49,94.61Z"/><path class="cls-12" d="M101.81,248.2c-.18.28-.19.66-.52.84l-.24-1.59A1.58,1.58,0,0,1,101.81,248.2Z"/><path class="cls-12" d="M98.64,169.92a3.64,3.64,0,0,1-.68,1.53C97.61,170.68,97.66,170.09,98.64,169.92Z"/><path class="cls-12" d="M188.88,217l.24.22-3.12,0C186.93,216.69,187.92,217.07,188.88,217Z"/><path class="cls-12" d="M110.41,144c.93-.44,1.92-.1,2.88-.21V144Z"/><path class="cls-12" d="M201.6,157l-.24-.2a2.46,2.46,0,0,1,2.88,0c-.77.4-1.6.11-2.4.2Z"/><path class="cls-12" d="M103.18,53.06a3.79,3.79,0,0,1-.93,1.61A1.4,1.4,0,0,1,103.18,53.06Z"/><path class="cls-12" d="M79.18,57.38v2.87A4.28,4.28,0,0,1,79.18,57.38Z"/><path class="cls-12" d="M106.33,165.35l.24.22-2.64,0C104.69,165.12,105.53,165.46,106.33,165.35Z"/><path class="cls-12" d="M107.25,103.67c.25-.67.49-1.34.73-2C108,102.42,108.25,103.27,107.25,103.67Z"/><path class="cls-12" d="M89.54,221.24a3.07,3.07,0,0,1,.47,1.47C89.09,222.46,89.38,221.83,89.54,221.24Z"/><path class="cls-12" d="M81.14,105.1l.69,1.94C81,106.63,81.14,105.83,81.14,105.1Z"/><path class="cls-12" d="M101.28,56.89a3.2,3.2,0,0,1-.45,1.51C100.69,57.81,100.33,57.16,101.28,56.89Z"/><path class="cls-12" d="M143.53,27.84l2.39.05c-.8.43-1.64.13-2.47.18A1.55,1.55,0,0,0,143.53,27.84Z"/><path class="cls-12" d="M255.85,163c0-.65,0-1.31,0-2l.22-.24A5.12,5.12,0,0,1,255.85,163Z"/><path class="cls-12" d="M97.21,55.46l-.58-1.17C97.46,54.37,97.49,54.84,97.21,55.46Z"/><path class="cls-12" d="M68.4,79.93a8.17,8.17,0,0,1-.2,2.26C68.26,81.44,68,80.65,68.4,79.93Z"/><path class="cls-12" d="M117.37,122.16h1.68C118.49,122.37,117.93,123,117.37,122.16Z"/><path class="cls-12" d="M97.89,261.11a7.8,7.8,0,0,1-.18,2.26C97.77,262.62,97.49,261.83,97.89,261.11Z"/><path class="cls-12" d="M92.61,37.94l0,2.16A2.35,2.35,0,0,1,92.61,37.94Z"/><path class="cls-12" d="M82.1,196.1a6.35,6.35,0,0,1,2.25.19C83.6,196.24,82.82,196.52,82.1,196.1Z"/><path class="cls-12" d="M96.7,111.1a2.9,2.9,0,0,1,1.21-.79A1,1,0,0,1,96.7,111.1Z"/><path class="cls-12" d="M287.55,165.36c0,.51,0,1-.07,1.53a3.2,3.2,0,0,1,0-2C287.51,165,287.53,165.19,287.55,165.36Z"/><path class="cls-12" d="M97.71,265.06a5.79,5.79,0,0,1,.18,2C97.49,266.45,97.77,265.74,97.71,265.06Z"/><path class="cls-12" d="M107.05,48h.89a1.16,1.16,0,0,1-.89.68Z"/><path class="cls-12" d="M93.39,227.48a2.59,2.59,0,0,1,.45,1.22C93.35,228.42,93,228.1,93.39,227.48Z"/><path class="cls-12" d="M97,238.27a2.41,2.41,0,0,1,.46,1.23C96.68,239.32,96.8,238.81,97,238.27Z"/><path class="cls-12" d="M68.2,83.18a5.78,5.78,0,0,1,.19,2C68,84.57,68.26,83.85,68.2,83.18Z"/><path class="cls-12" d="M111.89,85.2V83.3A2,2,0,0,1,111.89,85.2Z"/><path class="cls-12" d="M104.15,106.8l.94-.58C105.28,107.22,104.64,106.89,104.15,106.8Z"/><path class="cls-12" d="M93.13,40.9l.9.88C93.41,41.81,93.1,41.53,93.13,40.9Z"/><path class="cls-12" d="M153,8.68c-.24.25-.42.57-.79.67C152.12,8.76,152.43,8.61,153,8.68Z"/><path class="cls-12" d="M155,8.39h-1.43A1.17,1.17,0,0,1,155,8.39Z"/><path class="cls-12" d="M106.52,104.87l.52-.72C107.39,104.76,107.12,104.93,106.52,104.87Z"/><path class="cls-12" d="M98.67,243.31a1.62,1.62,0,0,1,.45,1C98.74,244.07,98.35,243.85,98.67,243.31Z"/><path class="cls-12" d="M255.58,165.12c0-.25,0-.53.21-.71a2.51,2.51,0,0,1-.18,1.48Z"/><path class="cls-12" d="M91,171.82H89.54A1.13,1.13,0,0,1,91,171.82Z"/><path class="cls-12" d="M92.86,172.19c-.48-.16-1,0-1.49-.33C91.88,171.94,92.49,171.55,92.86,172.19Z"/><path class="cls-12" d="M115.69,81.85a3.26,3.26,0,0,1,1.51.22C116.69,82,116.14,82.28,115.69,81.85Z"/><path class="cls-12" d="M205,184.55c.33,0,.69-.1,1,.21a1,1,0,0,1-1.44,0l.24-.22Z"/><path class="cls-12" d="M77.07,189.53a3.35,3.35,0,0,1,.22,1.5C76.86,190.58,77.12,190,77.07,189.53Z"/><path class="cls-12" d="M73.16,69.85a1,1,0,0,1-.67.72C72.45,70.08,72.63,69.8,73.16,69.85Z"/><path class="cls-12" d="M111.82,81.42a1.14,1.14,0,0,1-.19-.76.48.48,0,0,1,.48.18Z"/><path class="cls-12" d="M100.06,252a2.18,2.18,0,0,1-.42,1.06C99.58,252.61,99.61,252.22,100.06,252Z"/><path class="cls-12" d="M89.05,49.44h-1.2A.83.83,0,0,1,89.05,49.44Z"/><path class="cls-12" d="M98.14,259A2.07,2.07,0,0,1,98,260.2C98,259.78,97.78,259.32,98.14,259Z"/><path class="cls-12" d="M253.66,233h-.23v-.48c0-.26,0-.52,0-.78A2,2,0,0,1,253.66,233Z"/><path class="cls-12" d="M119.52,82.12c-.26.31-.62.18-1,.21l-.24-.21Z"/><path class="cls-12" d="M111.64,88.56a2,2,0,0,1,.19-1.25C111.8,87.73,112,88.19,111.64,88.56Z"/><path class="cls-12" d="M98,268.19a2.27,2.27,0,0,1,.2,1.31C97.77,269.11,98,268.63,98,268.19Z"/><path class="cls-12" d="M98.68,272.06a1.42,1.42,0,0,1,.24,1C98.27,272.89,98.68,272.42,98.68,272.06Z"/><path class="cls-12" d="M111.41,90a1.49,1.49,0,0,1,.19-1C112,89.46,111.6,89.71,111.41,90Z"/><path class="cls-12" d="M77.06,98.66a.93.93,0,0,1,.88.47A.79.79,0,0,1,77.06,98.66Z"/><path class="cls-12" d="M95.76,111.6a1.67,1.67,0,0,1,1-.51C96.57,111.58,96.18,111.62,95.76,111.6Z"/><path class="cls-12" d="M79,99.62a1.26,1.26,0,0,1,.92.47A.83.83,0,0,1,79,99.62Z"/><path class="cls-12" d="M86.45,198.63l.23.33-.51.67A1.87,1.87,0,0,1,86.45,198.63Z"/><path class="cls-12" d="M83.24,276.68a1.46,1.46,0,0,0,0-1.16A.67.67,0,0,1,83.24,276.68Z"/><path class="cls-12" d="M201.75,276.67a1.41,1.41,0,0,0,0-1.14C202.26,275.9,202.24,276.28,201.75,276.67Z"/><path class="cls-12" d="M101.71,107.51l1.24-.3C102.64,107.74,102.13,107.45,101.71,107.51Z"/><path class="cls-12" d="M142.57,24.25l-.74-.71A.68.68,0,0,1,142.57,24.25Z"/><path class="cls-12" d="M100.48,108.45a1.56,1.56,0,0,1,.81-.64A.64.64,0,0,1,100.48,108.45Z"/><path class="cls-14" d="M262.49,252.82a28.61,28.61,0,0,0,0-3.34c-.12-1,.34-1,1.06-.86l10.11,1.8c1.14.2,2.27.44,3.42.58.65.09.91.33.85,1-.15,1.83-.14,3.68-.43,5.48a7.35,7.35,0,0,1-7.63,6.48,7.75,7.75,0,0,1-7.26-7.65c0-1.16,0-2.32,0-3.48Z"/><path class="cls-15" d="M308.44,275.21l15.05.06c.56,0,1.12,0,1.67.05a.92.92,0,0,1,0,1.58c-.48,0-1,.05-1.44.05h-103c-.51,0-1-.05-1.55-.08-.75-.65-.64-1.18.22-1.62h33.41c.2,0,.4,0,.6-.05s.71.05,1.07.05h52.93C307.73,275.26,308.08,275.23,308.44,275.21Z"/><path class="cls-16" d="M297.49,239.89a1.24,1.24,0,0,1-.42,1.1c-.49,0-.94,0-1.21-.54-1.52-3-3-6.08-2.62-9.67a17,17,0,0,1,1.8-5.53c1.08-2.31,2.18-4.62,3.27-6.92.25-.53.53-1.11,1.23-.81s.54,1,.27,1.53c-1.29,2.79-2.6,5.57-3.88,8.35a10.7,10.7,0,0,0,0,9.26C296.44,237.74,297,238.81,297.49,239.89Z"/><path class="cls-16" d="M211.88,194.67l1.91-1.55c.51-.41,1.05-.84,1.67-.31s.1,1.12-.27,1.61l-13.47,11.24L198.9,208c-1.21-.72-1.27-1-.36-2.05.72-.83,1.77-1.29,2.41-2.21,3.33-2.91,6.77-5.7,10.14-8.57C211.33,195,211.64,194.88,211.88,194.67Z"/><path class="cls-17" d="M252.62,227.36c-.44.18-.55-.13-.66-.44a1.18,1.18,0,0,1,.83-1.38c2.31-1.07,4.6-2.19,6.91-3.27.53-.25,1.18-.62,1.56.13s-.23,1.13-.84,1.41C257.81,225,255.32,226.4,252.62,227.36Z"/><path class="cls-12" d="M229.91,236.42a5.93,5.93,0,0,1-3.34,0Z"/><path class="cls-12" d="M313.21,223a5.55,5.55,0,0,1,0,3.35Z"/><path class="cls-12" d="M231.84,207.33c.29-.37.43-1,1.12-.7A1.56,1.56,0,0,1,231.84,207.33Z"/><path class="cls-12" d="M226.76,205.45c.82-.35.72.25.75.72Z"/><path class="cls-12" d="M218.4,197.51a1,1,0,0,1,.93.84Z"/><path class="cls-12" d="M257.29,258.51v-1.58A1.5,1.5,0,0,1,257.29,258.51Z"/><path class="cls-12" d="M223.68,202.55a1,1,0,0,1,.93.83Z"/><path class="cls-12" d="M256.05,248.62c-.37-.36-.17-.82-.2-1.23A1.94,1.94,0,0,1,256.05,248.62Z"/><path class="cls-12" d="M308.19,270.71c.34.38.15.83.17,1.26A2.27,2.27,0,0,1,308.19,270.71Z"/><path class="cls-12" d="M253.18,229.9c-.39-.37-.18-.83-.21-1.26A2,2,0,0,1,253.18,229.9Z"/><path class="cls-12" d="M254.14,236.14c-.38-.36-.18-.83-.21-1.25A2,2,0,0,1,254.14,236.14Z"/><path class="cls-12" d="M306,200.16c-.16.24-.52.35-.49.73l-.25-.51A.77.77,0,0,1,306,200.16Z"/><path class="cls-12" d="M254.62,239.26c-.38-.36-.18-.83-.21-1.25A2.09,2.09,0,0,1,254.62,239.26Z"/><path class="cls-12" d="M255.09,242.38c-.37-.36-.17-.82-.2-1.24A1.9,1.9,0,0,1,255.09,242.38Z"/><path class="cls-12" d="M255.57,245.5c-.37-.36-.17-.82-.2-1.24A2,2,0,0,1,255.57,245.5Z"/><path class="cls-1" d="M280.14,50.24c-.13.65-.26,1.12-.31,1.59-.06.63-.32.81-.95.65-1.09-.26-2.2-.39-3.28-.68-.63-.17-.82,0-1,.6-.51,2-.52,2,1.5,2.41a13.25,13.25,0,0,0,1.75.36c.87.06,1,.39.82,1.23-.43,1.77-.37,1.79-2.14,1.45-.28-.05-.55-.12-.82-.18-2.14-.44-2.1-.43-2.51,1.69-.13.7.12.82.68.91,1.1.19,2.19.49,3.29.65.66.1.73.36.61,1-.41,2.06-.38,2.06-2.42,1.64-1.76-.37-3.51-.76-5.28-1.07-.61-.11-.79-.28-.65-.93.86-4.17,1.68-8.36,2.51-12.54.11-.57.32-.82,1-.68,2.14.47,4.29.9,6.44,1.33C279.83,49.72,280.28,49.76,280.14,50.24Z"/><path class="cls-1" d="M284.17,74.47c-.06,2.79-2.12,4.47-5,4.07-2.08-.3-2.08-.3-2.47,1.75-.07.35-.16.7-.22,1-.3,1.55-.28,1.48-1.86,1.28-1.16-.15-1.39-.53-1.13-1.69.77-3.34,1.4-6.72,2-10.09.18-1,.45-1.46,1.6-1.1s2.66.51,4,.86A3.73,3.73,0,0,1,284.17,74.47Z"/><path class="cls-18" d="M241.27,66.47c0-8.54,0-17.09-.05-25.63,0-.61.15-.86.8-.83,1.55.05,3.11.05,4.66.07q-2.51,12.39-5,24.77C241.57,65.39,241.4,65.93,241.27,66.47Z"/><path class="cls-5" d="M266.39,75.59c-1.15-.23-2.06-.36-2.94-.62-.7-.2-.91.06-1,.7-.19,1.14-.46,2.26-.66,3.4-.12.66-.3.93-1.09.74-2.06-.48-2.06-.42-1.65-2.41.67-3.29,1.38-6.56,2-9.86.16-.9.53-1,1.26-.79,1.83.4,3.67.8,5.51,1.12.69.12.91.37.71,1a4.49,4.49,0,0,0-.17.81c-.05.72-.32,1-1.08.76s-1.81-.35-2.69-.58c-1.33-.36-1,.75-1.22,1.34s-.2,1.14.68,1.25,1.64.36,2.47.46c.68.08.85.45.61,1S267.32,75.51,266.39,75.59Z"/><path class="cls-19" d="M269.15,87.29A4.75,4.75,0,0,1,274,92.17a4.93,4.93,0,0,1-4.86,5,4.8,4.8,0,0,1-4.83-4.89A4.94,4.94,0,0,1,269.15,87.29Z"/><path class="cls-19" d="M288.83,91.3l-6.12,6.56c1.28.27,2.39.59,3.52.72.95.11.66.6.59,1.16s-.26.92-1,.76c-2.34-.51-4.68-1-7.27-1.5l6.1-6.55c-1.17-.24-2.16-.5-3.18-.65-.77-.11-.75-.5-.59-1.09s.14-1,1-.82C284.13,90.43,286.37,90.81,288.83,91.3Z"/><path class="cls-19" d="M297.8,96.74c0,5.65,0,11.3.06,16.94,0,.67-.25.81-.84.78-.95,0-1.91,0-2.86,0,.94-4.79,1.87-9.58,2.84-14.37A13,13,0,0,1,297.8,96.74Z"/><path class="cls-19" d="M286.28,109.72a3.73,3.73,0,0,1-4.3,3.89c-2.34-.34-2.34-.34-1.88-2.67.29-1.44.63-2.88.89-4.33.09-.54.22-.71.83-.61,1.92.33,3.71.78,4.31,3A6.3,6.3,0,0,1,286.28,109.72Z"/><path class="cls-19" d="M250.29,83.19c2.2.45,4,.79,5.79,1.17.84.18.4.79.35,1.25s-.2.87-.83.61c-.18-.08-.4,0-.58-.1-.73-.29-1-.12-1.17.72-.31,1.93-.77,3.83-1.13,5.74-.11.56-.27,1-.91.69s-1.53.15-1.27-1.06c.38-1.75.64-3.53,1.09-5.27.3-1.15.07-1.72-1.17-1.75-.65,0-.8-.38-.63-1S249.84,83.09,250.29,83.19Z"/><path class="cls-20" d="M262,103.79a2.28,2.28,0,0,1-2.72,2.41c-1.28-.31-1.47.24-1.63,1.25-.07.47.16,1.4-1,1.11-.71-.18-.91-.35-.74-1.09.43-1.82.77-3.66,1.11-5.5.12-.66.32-1,1.08-.74s1.57.3,2.32.54A2.11,2.11,0,0,1,262,103.79Z"/><path class="cls-20" d="M271.4,111.52a1.06,1.06,0,0,0-.19,0c-3.57-.53-3.57-.53-2.83-4.07.23-1.09.46-2.18.66-3.27.09-.49.27-.67.81-.54,1,.24,1.94.42,2.92.58.57.1.6.4.46.86s-.1.82-.73.62a10.83,10.83,0,0,0-1.16-.24c-.49-.11-.79-.08-.93.55s.06.86.67.9c.35,0,.7.16,1.05.21.51.07.57.38.43.77s0,.89-.69.7c-.38-.1-.78-.13-1.16-.24-.58-.17-.77.11-.9.61s.06.8.61.87c.39,0,.78.16,1.17.23s.64.38.47.85S272,111.73,271.4,111.52Z"/><path class="cls-21" d="M269.48,64.35H272a1,1,0,0,1,1.11,1.1c0,1.43,0,2.87,0,4.3,0,.59-.25,1-.9,1s-.78-.54-.78-1.1c0-.16,0-.32,0-.48-.08-1,.45-2.34-.24-3s-2-.15-3-.19c-.44,0-.88,0-1.32,0a.8.8,0,0,1-.89-.77.83.83,0,0,1,.9-.9c.87,0,1.75,0,2.63,0Z"/><path class="cls-21" d="M256.79,83c-3.89,0-3.54.43-3.54-3.5a19.23,19.23,0,0,1,.06-2.15.8.8,0,0,1,.87-.8c.56,0,.74.4.75.89s0,.72,0,1.08c0,2.79,0,2.79,2.84,2.79h1.44c.59,0,1.2,0,1.16.83s-.59.87-1.2.86Z"/><path class="cls-22" d="M273.09,79.79V81.7c0,1.47-.14,1.6-1.56,1.61h-3.82c-.58,0-1.08-.14-1.06-.83s.49-.85,1.08-.85c.91,0,1.83,0,2.75,0,.75,0,1-.26.93-1-.05-1.12,0-2.23,0-3.35,0-.59.17-1.08.82-1.09s.87.45.87,1Z"/><path class="cls-21" d="M253.25,67.59c0-.8,0-1.6,0-2.4a1,1,0,0,1,1.2-1.14c1.36,0,2.72,0,4.08,0,.6,0,1.18.07,1.15.85s-.62.84-1.21.84a23.8,23.8,0,0,1-2.39,0c-.87-.08-1.24.17-1.17,1.11s0,2.16,0,3.23c0,.53-.12,1-.76,1s-.9-.43-.92-1C253.23,69.26,253.25,68.42,253.25,67.59Z"/><path class="cls-20" d="M249.53,106.77l-3.22-.91c-.54-.16-.33-.56-.24-.88.52-1.92,1.08-3.82,1.58-5.75.16-.62.45-.62.95-.46s.93.23.71.93c-.37,1.22-.59,2.49-1.06,3.67s-.12,1.66,1.05,1.77c.85.09,1.2.48.78,1.34A.42.42,0,0,1,249.53,106.77Z"/><path class="cls-23" d="M242.89,114.43c-.55-.12-1.33.58-1.63-.44A5.19,5.19,0,0,1,242.89,114.43Z"/><path class="cls-12" d="M237.14,113.28c-.41,0-.88.17-1.22-.23A1.76,1.76,0,0,1,237.14,113.28Z"/><path class="cls-12" d="M239.49,114a1.36,1.36,0,0,1-.93-.45l.93.13Z"/><path class="cls-12" d="M267.83,141.1c.81-.46,1.67-.13,2.51-.2A9.2,9.2,0,0,1,267.83,141.1Z"/><path class="cls-12" d="M271.09,140.9c.83.08,1.7-.27,2.5.21A9.13,9.13,0,0,1,271.09,140.9Z"/><path class="cls-12" d="M255.12,151a2.19,2.19,0,0,1,0-2.16C255.1,149.52,255.11,150.24,255.12,151Z"/><path class="cls-12" d="M262.79,174.71c-.37-.49-1,0-1.43-.44a3.54,3.54,0,0,1,1.68.19C263,174.6,263,174.72,262.79,174.71Z"/><path class="cls-12" d="M255.35,184.26a1.13,1.13,0,0,1,.73-1.15A1.71,1.71,0,0,1,255.35,184.26Z"/><path class="cls-12" d="M279.33,142.81c.4,0,.93-.18,1,.53Z"/><path class="cls-1" d="M114.23,189.57c0-1.08.07-2.16,0-3.24,0-.86.29-1.07,1.11-1.06,4,0,7.9,0,11.85,0-.33,6.38,2.56,12.14,3.56,18.46Z"/><path class="cls-24" d="M125.88,215.06a12,12,0,0,1-6.8-2.15c-.52-.31-.81-.7-.48-1.27s.83-.49,1.33-.19a11.22,11.22,0,0,0,6.18,2,12.46,12.46,0,0,0,5-1.49,7.52,7.52,0,0,1,1.21-.5.8.8,0,0,1,1.06.51.76.76,0,0,1-.45,1C130.66,214,128.45,215.24,125.88,215.06Z"/><path class="cls-24" d="M116.16,227c-.82,0-1.64,0-2.46.08a.92.92,0,0,1-1.17-.82,1,1,0,0,1,1.17-.76c.74.07.77-.25.57-.85-.7-2.08-1.35-4.17-2-6.26-.19-.6-.39-1.24.4-1.5s1,.34,1.21,1c.83,2.58,1.68,5.16,2.51,7.74C116.51,226.09,116.7,226.61,116.16,227Z"/><path class="cls-12" d="M199.21,238.05a4,4,0,0,1,2.86,0Z"/><path class="cls-12" d="M198.26,226.8a3.36,3.36,0,0,1,0,2.62Z"/><path class="cls-12" d="M193.91,239c.18.29.47.24.75.25a1.87,1.87,0,0,1-1.11.55A.84.84,0,0,1,193.91,239Z"/><path class="cls-12" d="M174.25,229.66c.59-.47,1.27-.13,1.91-.23C175.57,229.91,174.88,229.56,174.25,229.66Z"/><path class="cls-12" d="M208.82,245a.85.85,0,0,1,0,1.19Z"/><path class="cls-12" d="M198,255.11l.48.47c-.29,0-.64.06-.78-.27C197.63,255.15,197.86,255.12,198,255.11Z"/><path class="cls-8" d="M147.81,112.79c-3.24.39-5.93-1-8.55-2.65a3,3,0,0,1-1-.74c-.49-.79-1.53-1-1.93-1.88A3.25,3.25,0,0,1,138,107a6.54,6.54,0,0,0,5.22-5.91,6.55,6.55,0,0,0-12.33-3.63,8,8,0,0,1-1,1.91.18.18,0,0,1-.3-.07,27.07,27.07,0,0,1-3.37-9.62c-.11-.77-.18-1.55-.28-2.32a39.79,39.79,0,0,1,0-6,.45.45,0,0,0-.17-.56c.17-.28.43-.21.68-.16.52.08.79.5,1.14.81a6.58,6.58,0,0,0,10.54-7.2A6.58,6.58,0,0,0,130.93,70a1.88,1.88,0,0,1-1.28,0c-.13-.45.18-.75.38-1.09a29.78,29.78,0,0,1,6.41-7.81c.39-.33.72-.74,1.08-1.1.93-.31,1.53-1.13,2.4-1.51a2.65,2.65,0,0,1,.54,1.55,8.74,8.74,0,0,0,5.95,7.19,8.54,8.54,0,0,0,8.75-1.66c.48-.38.79-1,1.52-1l.48.43c-.11,11.12,0,22.25,0,33.37a4.29,4.29,0,0,1-.22,1.88c-.17,1.37.1,2.77-.14,4.14a10.72,10.72,0,0,1-5.18,7.18,16,16,0,0,1-2.53,1C148.67,112.84,148.19,112.53,147.81,112.79Z"/><path class="cls-1" d="M123.31,52.79a8.6,8.6,0,1,1-8.81,0c.65.17.53.72.55,1.16,0,1.12,0,2.24,0,3.36a3.88,3.88,0,0,0,3.6,4,4,4,0,0,0,4.09-3.74c.1-1.15,0-2.32,0-3.48C122.82,53.64,122.67,53.05,123.31,52.79Z"/><path class="cls-8" d="M123.31,52.79c-.42,1.56-.11,3.15-.19,4.72a4.25,4.25,0,0,1-5.75,3.89,4,4,0,0,1-2.7-3.75c-.09-1.62.22-3.25-.17-4.86a14.34,14.34,0,0,0,.16-4,4.2,4.2,0,0,1,2.59-4.3c.29-.13.64-.23.64-.62,0-1.44,0-2.87-.06-4.3,0-.12-.18-.24-.29-.36.59-.57.21-1.29.3-1.93.12-.81-.23-1.66.24-2.44a2.06,2.06,0,0,1,.37,1.57c0,1.82.06,3.65,0,5.47,0,1.09.15,1.93,1.28,2.32,2.55,1,3.37,2.22,3.41,5A11.54,11.54,0,0,0,123.31,52.79Z"/><path class="cls-4" d="M129.65,70.06a6.82,6.82,0,0,1,8.62,3.62,6.89,6.89,0,0,1-2.71,8.78,6.9,6.9,0,1,1-5.91-12.4Z"/><path class="cls-4" d="M111.4,80.49a6.78,6.78,0,0,1-7.57,2.7A6.94,6.94,0,0,1,104,69.84a7.41,7.41,0,0,1,4.2.22,6.92,6.92,0,0,1,4.47,5.8A6,6,0,0,1,111.4,80.49Z"/><path class="cls-25" d="M119.72,44.17c-1.62,0-1.61,0-1.62-1.64,0-2.57,0-5.14,0-7.72,1.13-.69,1.63-.42,1.66.91s0,2.44,0,3.66Z"/><path class="cls-12" d="M122.41,81.85c-.46.44-1,.17-1.53.21A3.2,3.2,0,0,1,122.41,81.85Z"/><path class="cls-1" d="M82.35,88.62a6.1,6.1,0,1,1,6.05,6.16A6.16,6.16,0,0,1,82.35,88.62Z"/><path class="cls-12" d="M139,158.64c.46.64.25.94-.5,1H136.8a2,2,0,0,1-.19-.22c.57,0,1.15,0,1.72,0S139,159.1,139,158.64Z"/><path class="cls-12" d="M108.72,165.58a1.3,1.3,0,0,1,0-1.7c.26.3.21.68.28,1S109,165.45,108.72,165.58Z"/><path class="cls-12" d="M138.27,166.33c.37.35.16.8.21,1.21C138.15,167.18,138.28,166.74,138.27,166.33Z"/><path class="cls-12" d="M129.37,147.58c.09-.58.54-.53.89-.4s.05.51,0,.77A1.67,1.67,0,0,1,129.37,147.58Z"/><path class="cls-12" d="M106.55,157.44a1.24,1.24,0,0,1-1.15-1.54C105.79,156.41,106.17,156.92,106.55,157.44Z"/><path class="cls-12" d="M108.24,161.52c-.48-.92-.12-1.9-.23-2.85A12.38,12.38,0,0,1,108.24,161.52Z"/><path class="cls-12" d="M114.25,144.24c.52.16,1.41-.45,1.44.71Z"/><path class="cls-12" d="M104.39,153.36c-1.11-.18-.25-.68-.18-1.05A1.8,1.8,0,0,1,104.39,153.36Z"/><path class="cls-12" d="M126.25,146.64c.61-.49.82-.11,1,.44l-.72-.22A.47.47,0,0,1,126.25,146.64Z"/><path class="cls-12" d="M131.26,148.39c.67-.65.71-.14.75.4Z"/><path class="cls-12" d="M104.2,151.05c.24-.4-.69-1,.21-1.29A2.7,2.7,0,0,1,104.2,151.05Z"/><path class="cls-12" d="M120.25,146.87c.54-.44,1.17-.16,1.76-.21A4.38,4.38,0,0,1,120.25,146.87Z"/><path class="cls-12" d="M105.12,155.52c-1.07,0-.24-.74-.44-1.08A1.71,1.71,0,0,1,105.12,155.52Z"/><path class="cls-12" d="M126.25,146.64l.24.22a3.22,3.22,0,0,1-1.54-.2Z"/><path class="cls-12" d="M135.81,151.93c.66,0,.78.43.75,1Z"/><path class="cls-12" d="M137.19,175.22c.68.06,1.39-.26,2,.21A5.5,5.5,0,0,1,137.19,175.22Z"/><path class="cls-12" d="M142.8,195.14c-.37.36-.83.17-1.25.19A2.33,2.33,0,0,1,142.8,195.14Z"/><path class="cls-4" d="M156.77,100.33q0-17.06,0-34.1c0-.41-.32-1,.38-1.22,6.27,2.54,10.35,7,11.85,13.66,0,.11.13.2.2.3.25.39,0,.87.21,1.27l.06,1.14a7.91,7.91,0,0,1,0,2.38l-.06,1.16c-.25.39,0,.86-.21,1.25a24.69,24.69,0,0,1-2.44,6.12,19.26,19.26,0,0,1-9.82,8.07C156.88,100.45,156.82,100.44,156.77,100.33Z"/><path class="cls-4" d="M156.68,64.58c-4.26,4.62-10.43,4.76-14.37.34a10.3,10.3,0,0,1-2.39-6.37c.33-4.55,3.7-8.36,7.73-8.86a7.79,7.79,0,0,0,.92-.24,2,2,0,0,1,1.43,0,11.22,11.22,0,0,1,5.07,2.08,8.85,8.85,0,0,1,3.35,5.66,4.49,4.49,0,0,0,.24.67,3.86,3.86,0,0,1,0,1.91A12.46,12.46,0,0,1,156.68,64.58Z"/><path class="cls-4" d="M129.83,99.36c1.18-3.8,3.59-5.78,7-5.75a6.91,6.91,0,0,1,1.17,13.7c-.54.1-1.1.14-1.65.21a6.8,6.8,0,0,1-6.5-5.76A6.06,6.06,0,0,1,129.83,99.36Z"/><path class="cls-12" d="M126,81.38v6A17.16,17.16,0,0,1,126,81.38Z"/><path class="cls-12" d="M156.77,100.33a.31.31,0,0,1,.19,0c-.12,1.35.26,2.71-.21,4C156.75,103,156.76,101.69,156.77,100.33Z"/><path class="cls-12" d="M169.49,83.76c0-.79,0-1.59,0-2.38A3.07,3.07,0,0,1,169.49,83.76Z"/><path class="cls-12" d="M129.83,99.36v2.4c-.46-.79-.13-1.64-.2-2.46A.76.76,0,0,0,129.83,99.36Z"/><path class="cls-12" d="M158.66,59.77V57.86A1.89,1.89,0,0,1,158.66,59.77Z"/><path class="cls-12" d="M138.26,109.4c.5,0,.72.42,1,.74C138.65,110.27,138.41,109.9,138.26,109.4Z"/><path class="cls-12" d="M150,49.45h-1.43A1.09,1.09,0,0,1,150,49.45Z"/><path class="cls-12" d="M169.22,86.17a2.16,2.16,0,0,1,.21-1.25C169.39,85.34,169.6,85.8,169.22,86.17Z"/><path class="cls-12" d="M169.42,80.24a2.23,2.23,0,0,1-.21-1.27C169.6,79.34,169.39,79.81,169.42,80.24Z"/><path class="cls-12" d="M147.81,112.79a2,2,0,0,1,1.23-.22C148.69,113,148.23,112.75,147.81,112.79Z"/><path class="cls-12" d="M256.33,157c.07-.73-.24-1.5.2-2.19A5.09,5.09,0,0,1,256.33,157Z"/><path class="cls-12" d="M256.09,159.89c0-.49-.19-1,.18-1.48A2.51,2.51,0,0,1,256.09,159.89Z"/><path class="cls-6" d="M211.88,194.67c-1.14,1.51-2.76,2.48-4.14,3.71-1.92,1.7-3.91,3.3-5.87,4.94-.27.23-.5.54-.92.45a37.25,37.25,0,0,1-3.47-4.82,3.37,3.37,0,0,1-.68-.68,2.53,2.53,0,0,1-1.26-.76c-.21-.17-.53-.17-.66-.45a27.38,27.38,0,0,1-6-3.8,3.66,3.66,0,0,1-1.21-2.48,17,17,0,0,1,0-3.57,9.52,9.52,0,0,1,4.11-7.35,11.59,11.59,0,0,1,2.18-.85,8.38,8.38,0,0,1,2.87,0,12.18,12.18,0,0,1,5.94,4.77c.45.6.87,1.18,1.74,1h1.44a3.86,3.86,0,0,1,2.45,2.45,4.57,4.57,0,0,1,0,1.65.83.83,0,0,0-.08.22c-.16.76-1.23,1.27-.93,2s1.09,1.09,1.71,1.57C210,193.35,210.64,194.41,211.88,194.67Z"/><path class="cls-12" d="M187.64,187.21v3.57A6.56,6.56,0,0,1,187.64,187.21Z"/><path class="cls-12" d="M196.8,179l-2.87,0A4,4,0,0,1,196.8,179Z"/><path class="cls-12" d="M196.8,198.27c.39.06.54.37.68.68A.66.66,0,0,1,196.8,198.27Z"/><path class="cls-12" d="M194.88,197.06c.26.09.53.16.66.45C195.14,197.62,194.78,197.68,194.88,197.06Z"/><path class="cls-11" d="M204.24,156.76h-2.88l-1.61-.07c-.4-.22-.86,0-1.26-.19a34,34,0,0,1-9.63-2.82c-7.65-3.47-13.94-8.72-19.6-14.81-1.28-1.37-1.25-1.34,0-2.74a64,64,0,0,1,15.09-12.44A38.73,38.73,0,0,1,197,118.82c.35-.07.7-.17,1-.26.47-.28,1,0,1.49-.22l.91,0H205l1.14.06c.39.24.86,0,1.25.2a52.86,52.86,0,0,1,8.06,2.39,54,54,0,0,1,12.68,7.7,3.34,3.34,0,0,0,.4.25c.37.18.79.3.93.76,2.3,2.08,4.5,4.28,6.65,6.51,1.32,1.35,1.29,1.35,0,2.74a70.63,70.63,0,0,1-13.22,11.3,45.78,45.78,0,0,1-13.75,6c-.64.16-1.34.15-2,.33-.46.24-1-.06-1.47.2Z"/><path class="cls-12" d="M229.42,129.64l-.93-.76C229,128.86,229.43,129,229.42,129.64Z"/><path class="cls-12" d="M205.64,156.7a2.65,2.65,0,0,1,1.47-.2C206.67,156.9,206.13,156.65,205.64,156.7Z"/><path class="cls-12" d="M207.35,118.54a1.94,1.94,0,0,1-1.25-.2C206.52,118.37,207,118.17,207.35,118.54Z"/><path class="cls-12" d="M208.37,188.86v-1.65A1.67,1.67,0,0,1,208.37,188.86Z"/><path class="cls-12" d="M199.49,118.34a2.73,2.73,0,0,1-1.49.22C198.44,118.13,199,118.39,199.49,118.34Z"/><path class="cls-12" d="M198.49,156.5a2.11,2.11,0,0,1,1.26.19C199.32,156.67,198.86,156.87,198.49,156.5Z"/><path class="cls-8" d="M95.81,57.15a7.55,7.55,0,0,1-14.16,5c.24-2,1.67-3.16,3-4.25a9.9,9.9,0,0,1,10.14-1.41A2.82,2.82,0,0,1,95.81,57.15Z"/><path class="cls-1" d="M95.81,57.15a12.61,12.61,0,0,0-5.89-1.06,10.06,10.06,0,0,0-8,5.66,4.25,4.25,0,0,1-.25.39,7.56,7.56,0,1,1,14.16-5Z"/><path class="cls-8" d="M101.06,95.3a5.24,5.24,0,0,1,0,10.48,5.24,5.24,0,1,1,0-10.48Z"/><path class="cls-12" d="M155,233c.4.34.19.8.24,1.2C154.88,233.89,155.1,233.43,155,233Z"/><path class="cls-26" d="M168,158.33c-.73-.49-.85-1.49-1.42-2.17-.24-.29-.35-.75,0-.95a30.06,30.06,0,0,1,3.89-2.05c.38-.14.65.09.89.42,1.37,2,1.28,2.36-.87,3.45C169.67,157.44,168.86,157.87,168,158.33Z"/><path class="cls-27" d="M213.81,276.87l-5,.11c-.82-.58-.8-1.17,0-1.75,1.29,0,2.58,0,3.88,0a2.34,2.34,0,0,1,1.35.27v0a1,1,0,0,1,0,1.17Z"/><path class="cls-12" d="M214,276.68a1.68,1.68,0,0,0,0-1.17A.69.69,0,0,1,214,276.68Z"/><path class="cls-3" d="M281,74.34a1.61,1.61,0,0,1-1.83,1.71c-.54,0-1.39.27-1.49-.68s.61-2.86,1-2.86A2.2,2.2,0,0,1,281,74.34Z"/><path class="cls-3" d="M271.63,92a2.83,2.83,0,0,1-2.5,3.09,2.36,2.36,0,0,1-2.5-2.56c0-1.76,1.18-3.17,2.61-3.13A2.45,2.45,0,0,1,271.63,92Z"/><path class="cls-3" d="M284.42,109.94a2.26,2.26,0,0,1-1,1.83A1.44,1.44,0,0,1,282,112c-.55-.29-.15-.85-.08-1.28.11-.71.25-1.41.4-2.11.21-1,.55-1.09,1.34-.49A2,2,0,0,1,284.42,109.94Z"/><path class="cls-3" d="M258.42,104c.25-.29-.25-1.19.63-1.16.58,0,1.2.29,1.13,1.1s-.56.91-1.17.87C258.63,104.77,258.15,104.72,258.42,104Z"/><path class="cls-1" d="M143.27,88.64a6.07,6.07,0,1,1,6,6.14A6.1,6.1,0,0,1,143.27,88.64Z"/><path class="cls-8" d="M137.24,76.48A5.39,5.39,0,0,1,132,81.79c-2.55,0-5.13-2.3-5.19-4.6-.1-3.3,2.19-5.88,5.19-5.89A5.36,5.36,0,0,1,137.24,76.48Z"/><path class="cls-8" d="M100.57,76.58a5.27,5.27,0,0,1,5.24-5.28c2.94,0,5.1,2.45,5.12,5.79,0,2.41-2.5,4.69-5.16,4.7A5.32,5.32,0,0,1,100.57,76.58Z"/><path class="cls-8" d="M156,62.18c-1.69,4.32-7.92,5.66-11.58,2.46A7.36,7.36,0,0,1,142,56.7a5.51,5.51,0,0,0,1.49-.42A10.34,10.34,0,0,1,155.8,61,1.28,1.28,0,0,1,156,62.18Z"/><path class="cls-1" d="M156,62.18a10,10,0,0,0-13-5.43c-.27.11-.72.81-1-.06a7.6,7.6,0,1,1,14.41,4.8A3.54,3.54,0,0,1,156,62.18Z"/><path class="cls-8" d="M141.89,100.5a5.19,5.19,0,1,1-5.16-5.2A5.21,5.21,0,0,1,141.89,100.5Z"/><path class="cls-1" d="M209.36,150a12.49,12.49,0,1,1,12.42-12.51A12.43,12.43,0,0,1,209.36,150Z"/><path class="cls-28" d="M213.13,139.28a5,5,0,1,1,5-4.93A5,5,0,0,1,213.13,139.28Z"/></svg>