<svg id="Layer_1" data-name="Layer 1" xmlns="http://www.w3.org/2000/svg" viewBox="0 0 640 480"><defs><style>.cls-1{fill:#fff;}</style></defs><path class="cls-1" d="M283.22,412.28c0-.84.09-1.69.09-2.53V255.14H232.44c-2.25,0-2.26,0-2.26-2.17,0-19.05,0-38.1,0-57.14,0-1.74.52-2.18,2.21-2.17,16.23.06,32.46,0,48.69,0h2.27v-1.84c0-15.83-.1-31.67.13-47.5a86.46,86.46,0,0,1,8.21-36.63,66.36,66.36,0,0,1,35.49-33.6,83.5,83.5,0,0,1,33.62-6.38c13.29.2,26.57.79,39.86,1.27,2.47.09,4.93.51,7.4.64,1.37.07,1.84.58,1.83,2-.05,7.89,0,15.78,0,23.67,0,9.3,0,18.6,0,27.9,0,1.62-.45,2.11-2.09,2.1-10.08-.07-20.18-.19-30.26,0a70.87,70.87,0,0,0-13.7,1.59c-8.63,1.89-13.74,7.59-15.46,16.18a56.55,56.55,0,0,0-1.12,10.54c-.13,12.9-.06,25.81-.05,38.71,0,.39,0,.77.08,1.36h58c2.43,0,2.47,0,2.17,2.32-1.32,10.15-2.68,20.29-4,30.44q-1.63,12.72-3.17,25.45c-.38,3.24-.31,3.24-3.56,3.24H347.17V408.56c0,1.24,0,2.48,0,3.72Z"/></svg>