<svg id="Layer_1" data-name="Layer 1" xmlns="http://www.w3.org/2000/svg" viewBox="0 0 640 480"><defs><style>.cls-1{fill:#fff;}</style></defs><path class="cls-1" d="M194.22,94.85c.52-2.25,1-4.5,1.59-6.74C199.36,74.11,210.56,65,225,65q97.32-.12,194.63,0c16.43,0,25.94,10,26.13,26.41.14,11.79-2.93,23.06-5.26,34.44q-12,58.83-24.28,117.61c-2.57,12.3-5.09,24.63-8.36,36.75-4,14.81-13.67,21.67-29.09,21.69-17.77,0-35.54.12-53.31-.08a10.33,10.33,0,0,0-8.71,4q-24.12,28.25-48.4,56.34c-13.18,15.32-26.29,30.69-39.54,45.94-5.85,6.74-13.55,8.16-21.72,5.88-8-2.22-11.29-8.45-12-16.32a16.35,16.35,0,0,0-.86-3Zm38.65,255.34c1.57-1.65,2.46-2.45,3.2-3.37,19.44-24.21,39.07-48.29,58.19-72.75,5.57-7.12,11.95-10.33,20.89-10.16,16.47.33,33,.11,49.43.09,6.17,0,10.27-3.25,11.49-9.13q3.92-19,7.71-38a18.2,18.2,0,0,0,.49-6.54c-1-5.51-5.37-8.51-11.94-8.52-19.75,0-39.5,0-59.25,0-9.07,0-14.74-5.78-14.83-14.89,0-2.1.18-4.22,0-6.3-1.06-10.38,7.67-16.47,16.12-16.32,23.13.43,46.27.16,69.41.14,7.39,0,11.31-3.09,12.84-10.23q3.95-18.42,7.69-36.89c2-10-2.11-15-12.18-15H313.21q-34,0-68,0c-8.22,0-12.68,4.25-12.69,12q0,115.56,0,231.12C232.51,346.67,232.69,347.87,232.87,350.19Z"/></svg>