<svg id="Layer_1" data-name="Layer 1" xmlns="http://www.w3.org/2000/svg" viewBox="0 0 640 480"><defs><style>.cls-1{fill:#fff;}</style></defs><path class="cls-1" d="M319.88,148.18a91.4,91.4,0,1,0,91.4,91.4A91.4,91.4,0,0,0,319.88,148.18Zm0,150.77a59.37,59.37,0,1,1,59.37-59.37A59.37,59.37,0,0,1,319.88,299Z"/><circle class="cls-1" cx="414.89" cy="144.81" r="21.31"/><path class="cls-1" d="M496.9,167a130.85,130.85,0,0,0-8.31-43.83,91,91,0,0,0-52-52,130.71,130.71,0,0,0-43.23-8.31c-19-.84-25-1.08-73.34-1.08s-54.43,0-73.34,1.08a130.71,130.71,0,0,0-43.23,8.31,91,91,0,0,0-52,52,130.71,130.71,0,0,0-8.31,43.23c-.84,19-1.08,25-1.08,73.34s0,54.43,1.08,73.34a130.71,130.71,0,0,0,8.31,43.23,91.07,91.07,0,0,0,52,52,130.74,130.74,0,0,0,43.23,8.91c19,.84,25,1.08,73.34,1.08s54.43,0,73.34-1.08a130.71,130.71,0,0,0,43.23-8.31,91,91,0,0,0,52-52,131,131,0,0,0,8.31-43.23c.84-19,1.08-25.05,1.08-73.34S498,185.87,496.9,167ZM464.75,311.59h-.24A98.71,98.71,0,0,1,458.36,345a59,59,0,0,1-33.83,33.84,98.66,98.66,0,0,1-33,6.14c-18.79.84-24.08,1.08-72.25,1.08s-53.11,0-72.26-1.08a98.65,98.65,0,0,1-33-6.14,58.92,58.92,0,0,1-34-33.84,98.42,98.42,0,0,1-6.14-33c-.84-18.78-1.09-24.08-1.09-72.25s0-53.11,1.09-72.25a98.46,98.46,0,0,1,6.14-33.36,58.87,58.87,0,0,1,34-33.84,98.4,98.4,0,0,1,33-6.14c18.79-.84,24.09-1.08,72.26-1.08s53.1,0,72.25,1.08a98.42,98.42,0,0,1,33,6.14,59,59,0,0,1,33.83,33.84,98.68,98.68,0,0,1,6.15,33c.84,18.78,1.08,24.08,1.08,72.25S465.59,292.68,464.75,311.59Z"/></svg>