<svg id="Layer_1" data-name="Layer 1" xmlns="http://www.w3.org/2000/svg" viewBox="0 0 640 480"><defs><style>.cls-1{fill:#fff;}</style></defs><path class="cls-1" d="M338.34,209.94c26.74-32.34,59.19-36.85,94.92-26.65,26.74,7.63,39.94,28,45,54A211.43,211.43,0,0,1,482.05,275c.47,39,0,78,.33,116.94.06,7.86-1.85,11.12-10.29,10.82-16.46-.58-33-.51-49.44,0-7.92.24-10.15-2.87-10.09-10.36q.38-50.94,0-101.88a134.9,134.9,0,0,0-2.41-26.34c-3.14-15-11.61-22-26.77-24-15-2-30.59,4.59-35.69,17.22a86.81,86.81,0,0,0-6.52,29.87c-.78,35.13-.54,70.28-.19,105.42.08,7.89-2.55,10.27-10.18,10.07-16.76-.45-33.55-.36-50.32,0-6.73.13-9.45-2-9.43-9.08q.27-100.56,0-201.11c0-6.6,2.54-8.78,8.91-8.67,16.19.29,32.38.37,48.56,0,7.21-.18,10.38,2.26,9.86,9.61C338.07,198.1,338.34,202.81,338.34,209.94Z"/><path class="cls-1" d="M162.93,292.8c0-32.75.22-65.5-.16-98.25-.09-7.86,1.83-11.09,10.26-10.79,16.45.58,32.94.42,49.4.06,7-.16,10.08,1.93,10.06,9.43q-.27,100,0,200.05c0,6.61-2.06,9.58-9.16,9.42-17-.38-34.12-.43-51.17,0-7.59.2-9.38-2.85-9.32-9.9C163.09,359.49,162.93,326.15,162.93,292.8Z"/><path class="cls-1" d="M197.48,156.74c-22.43,0-39.79-17.13-39.86-39.45-.07-22.55,17-40,39.23-40.08,22.65-.11,40.77,17.68,40.63,39.89A39.85,39.85,0,0,1,197.48,156.74Z"/></svg>