<svg id="Layer_1" data-name="Layer 1" xmlns="http://www.w3.org/2000/svg" viewBox="0 0 640 480"><defs><style>.cls-1{fill:#fff;}</style></defs><path class="cls-1" d="M504.29,125.69a151.34,151.34,0,0,1-43.43,11.91,75.88,75.88,0,0,0,33.25-41.84,151.31,151.31,0,0,1-48,18.35,75.69,75.69,0,0,0-128.86,69,214.67,214.67,0,0,1-155.86-79,75.7,75.7,0,0,0,23.4,101,75.36,75.36,0,0,1-34.25-9.46c0,.32,0,.63,0,1a75.67,75.67,0,0,0,60.66,74.15A76,76,0,0,1,177,272a75.7,75.7,0,0,0,70.64,52.51,151.72,151.72,0,0,1-93.91,32.37,153.33,153.33,0,0,1-18-1.06,214,214,0,0,0,115.92,34c139.09,0,215.15-115.23,215.15-215.15,0-3.28-.08-6.54-.22-9.79A153.8,153.8,0,0,0,504.29,125.69Z"/></svg>