<svg id="Layer_1" data-name="Layer 1" xmlns="http://www.w3.org/2000/svg" viewBox="0 0 640 480"><defs><style>.cls-1{fill:#313d4e;}</style></defs><path class="cls-1" d="M149.3,408h-3.07c.35-2,.53-4,1.06-6,7.34-27.08,14.93-54.1,21.88-81.28a20.92,20.92,0,0,0-1.42-13.48c-18.78-37-25.3-76.1-17.79-116.79C167.72,94.26,253.42,30.83,350.6,41.08c106.83,11.27,181.61,116.86,157,221.6C480.2,378.8,355.1,437.89,247.65,385.6a18.53,18.53,0,0,0-11.51-1.12c-18.1,4.36-36.08,9.22-54.06,14.09C171.11,401.54,160.22,404.84,149.3,408Zm40.37-44c3.25-.61,5.21-.85,7.11-1.34,13.82-3.6,27.7-7,41.43-11,5.74-1.64,10.41-1.28,15.79,1.84a150.13,150.13,0,0,0,59.88,19.71c95.32,10.32,178-72,166.26-167.39-7.6-62-41.72-105.69-100.77-126.33C320.59,58.94,267.14,72,222.5,115.32,172.89,163.41,164,238,199.33,299.25c4.09,7.08,4.83,13,2.46,20.6C197.38,334,193.9,348.35,189.67,364Z"/><path class="cls-1" d="M377.37,309.7c-17.85-.11-34-6.83-49.38-14.66-37.45-19-64.63-48.8-83.89-85.55-12.81-24.46-8.88-47.41,7.94-65.13,7.52-7.92,16.57-7.06,25.59-5.55,2.44.41,5,4.29,6.22,7.12,5,11.17,9.73,22.47,14,33.93,1,2.73.51,6.41-.32,9.36-.73,2.57-2.74,4.86-4.47,7.05-10.83,13.67-10.79,13.6-.4,28.11,13.9,19.43,32.09,33.29,54.06,42.49,4.76,2,8.23,1.58,11.4-2.51,4.07-5.25,8.52-10.2,12.42-15.56,2.84-3.9,6.14-5.39,10.5-3.34,12.47,5.84,25,11.5,37.12,18.07,2.37,1.29,4,6.41,3.76,9.62-1.19,19.57-17.08,34.7-37.68,36.52C382,309.87,379.67,309.7,377.37,309.7Z"/></svg>