<svg id="Layer_1" data-name="Layer 1" xmlns="http://www.w3.org/2000/svg" viewBox="0 0 32 30"><defs><style>.cls-1{fill:#fff;}</style></defs><path class="cls-1" d="M26.57,12.35c0-.33-.24-.51-.67-.51h-.21V12.9h.2c.44,0,.68-.19.68-.55Zm.32-7H6.32A2.06,2.06,0,0,0,4.26,7.38V22.46a2.06,2.06,0,0,0,2.06,2.06H26.89A2.06,2.06,0,0,0,29,22.46V7.38A2.06,2.06,0,0,0,26.89,5.32ZM25,11.27c1,0,2.27-.17,2.27,1.05a.92.92,0,0,1-.8,1l1.1,1.48h-.84l-.95-1.41h-.09v1.41H25Zm-2.39,0h1.94v.6H23.29v.78H24.5v.59H23.29v.95h1.26v.59H22.61Zm-2.95,0,.94,2.36.95-2.36h.75l-1.52,3.61h-.37l-1.5-3.61Zm-2.39-.13a1.91,1.91,0,1,1-1.92,1.91A1.92,1.92,0,0,1,17.27,11.15Zm-2.12.26v.82a1.14,1.14,0,0,0-2,.81,1.14,1.14,0,0,0,2,.82v.82a1.85,1.85,0,1,1,0-3.27ZM11,14.25c.49,0,1-.65-.14-1-.65-.24-.87-.49-.87-1,0-1,1.31-1.34,2.13-.61l-.36.46c-.45-.49-1.07-.26-1.07.11,0,.19.12.3.53.44.78.29,1,.54,1,1.1a1.28,1.28,0,0,1-2.42.48l.44-.42a.81.81,0,0,0,.75.46Zm-4.35.54h-1V11.28h1a1.76,1.76,0,1,1,0,3.51Zm2.89,0H8.84V11.28h.69Zm18,7.72a.65.65,0,0,1-.65.64H9.75a63.43,63.43,0,0,0,17.83-6.86ZM7.44,12.16a1.25,1.25,0,0,0-.94-.28H6.32V14.2H6.5a1.32,1.32,0,0,0,.94-.27A1.23,1.23,0,0,0,7.82,13,1.19,1.19,0,0,0,7.44,12.16Z"/></svg>