<svg id="Layer_1" data-name="Layer 1" xmlns="http://www.w3.org/2000/svg" viewBox="0 0 32 30"><defs><style>.cls-1{fill:#fff;}</style></defs><path class="cls-1" d="M18.06,11.83c0-.66-.56-.74-1.09-.74H15.41v2.76h.65v-1h.72c.73,0,.58.41.59,1H18V13.3c0-.36-.06-.6-.44-.73a.79.79,0,0,0,.47-.74Zm-1.17.45h-.83v-.61h.84c.2,0,.43,0,.43.29s-.22.32-.44.32Zm-.67,3.57h-2.1l-.84.9-.82-.9H9.81v2.76h2.61l.85-.92.81.92h1.28v-.93c.75,0,2,.18,2-.93,0-.69-.49-.9-1.11-.9ZM12.08,18H10.46v-.55h1.45v-.57H10.46v-.49h1.66l.72.8Zm2.63.32-1-1.12,1-1.09Zm1.5-1.23h-.84v-.7h.85c.23,0,.41.09.41.33S16.45,17.12,16.21,17.12ZM15,11.67v-.59H12.74v2.77H15v-.57H13.4v-.55h1.51v-.57H13.4v-.49Zm13.12,3.65h0ZM20.3,16.59c0-.65-.56-.74-1.08-.74H17.65v2.76h.66v-1H19c.44,0,.59.08.59.55v.46h.66v-.55c0-.36-.07-.6-.44-.73A.79.79,0,0,0,20.3,16.59ZM19.14,17h-.83v-.62h.84c.21,0,.43,0,.43.29S19.36,17,19.14,17Zm-6.89-3.19V11.08h-1.1L10.36,13,9.5,11.08H8.42V13.7L7.29,11.08h-1L5.13,13.85h.72l.25-.61H7.48l.25.61H9.08V11.69l1,2.16h.58l1-2.16v2.16ZM6.34,12.66l.44-1.1.46,1.1Zm19,6.34v-.18c-.43.22-.16.18-6.25.18V18h-.38v1H17.17V17.84a2.62,2.62,0,0,1-1.36.24c0,.59,0,.33,0,.92h-2l-.61-.69L12.6,19H9.32V15.32h3.32l.62.68c.13-.13.48-.53.62-.68H16.2a1.91,1.91,0,0,1,1,.22v-.22c2.16,0,2.56-.06,3,.2v-.2H23.3v.21c.46-.28.79-.21,2.59-.21v.2c.41-.24.66-.21,2.17-.2v-7a1.92,1.92,0,0,0-1.92-1.91H7A1.91,1.91,0,0,0,5.09,8.32V12.7L6,10.55H7.59c.17.41.06.15.36.84v-.84H9.78l.56,1.2c.23-.54.4-.95.5-1.2h4.57c1.74,0,2.14,0,2.57.21v-.21h1.59v.37a1.92,1.92,0,0,1,1.23-.37h1.1s.07,0,.09,0h1.29l.35.83v-.83h1.73l.44.74v-.74h1.6v3.67H25.74c-.22-.35-.06-.08-.53-.87v.87H23.1l-.26-.61h-.76c-.16.4-.08.21-.25.61H20.76a1.91,1.91,0,0,1-1.19-.35v.35H16.92c0-.55,0-1,0-1h-.39v1H11.12v-.46l-.2.46H9.74l-.2-.46v.46H7.43c-.17-.4-.09-.21-.25-.61H6.41l-.26.61H5.09v8.12A1.92,1.92,0,0,0,7,24.28H26.16a1.92,1.92,0,0,0,1.91-1.92v-3.6c-.51.33-1.3.24-2.69.24Zm1.45-2.57H28v-.58H26.71c-.51,0-.95.26-.95.82,0,1.32,1.71.51,1.71,1.09,0,.21-.17.26-.34.26H25.86v.59h1.28a1,1,0,0,0,.9-.36v-1c-.42-.56-1.57-.06-1.57-.54C26.46,16.46,26.64,16.43,26.83,16.43ZM24.55,18H23.27v.59h1.29c.59,0,1-.23,1-.88,0-1.33-1.71-.45-1.71-1.05,0-.22.2-.26.37-.26h1.21v-.58H24.14a.83.83,0,0,0-.94.83c0,1.31,1.7.5,1.7,1.09C24.9,18,24.72,18,24.55,18Zm-1.68-1.6v-.57h-2.2v2.76h2.21V18H21.33v-.55h1.51v-.57H21.33v-.49ZM20.62,12.1a.59.59,0,0,0-.05.31c0,.24,0,.3,0,.31s.05,0,.14,0l.29-.67h-.12A.61.61,0,0,0,20.62,12.1Zm.82-.41h0Zm-.65-.61c-.94,0-1.35.48-1.35,1.41s.4,1.35,1.31,1.35h.77l.25-.61h1.37l.26.61h1.35V11.77L26,13.84h.94V11.09h-.67V13L25.1,11.09h-1V13.7L23,11.09H22l-.94,2.17h-.29c-.53,0-.65-.32-.65-.79,0-1,.63-.8,1.32-.78v-.61Zm1.68.48.45,1.1H22Zm-4-.48v2.77h.67V11.08Z"/></svg>