<svg id="Layer_1" data-name="Layer 1" xmlns="http://www.w3.org/2000/svg" viewBox="0 0 32 30"><defs><style>.cls-1{fill:#fff;}</style></defs><path class="cls-1" d="M23.74,14.51l.39,1.92H22.71l.68-1.86.23-.63.12.57Zm4.51-6.45v15a2,2,0,0,1-2.05,2H5.76a2,2,0,0,1-2-2v-15A2,2,0,0,1,5.76,6H26.2A2,2,0,0,1,28.25,8.06Zm-18,10.7,2.69-6.61H11.09L9.42,16.67l-.19-.92-.59-3a.72.72,0,0,0-.78-.56H5.11l0,.13A7.06,7.06,0,0,1,6.87,13L8.4,18.76Zm4,0,1.07-6.62H13.59l-1.07,6.62Zm6-2.16c0-.76-.45-1.33-1.44-1.8-.6-.31-1-.51-1-.82s.31-.57,1-.57a3,3,0,0,1,1.27.25l.16.07.23-1.43A4.25,4.25,0,0,0,18.9,12c-1.69,0-2.88.9-2.89,2.19,0,.95.85,1.48,1.5,1.8s.89.53.89.82c0,.44-.54.65-1,.65a3.41,3.41,0,0,1-1.61-.36l-.22-.1-.24,1.48a5.1,5.1,0,0,0,1.91.36c1.8,0,3-.89,3-2.26Zm6,2.16-1.38-6.62H23.5a.85.85,0,0,0-.9.55l-2.54,6.07h1.8s.29-.82.36-1h2.19c.06.23.21,1,.21,1Z"/></svg>