<svg id="Layer_1" data-name="Layer 1" xmlns="http://www.w3.org/2000/svg" viewBox="0 0 32 30"><defs><style>.cls-1{fill:#fff;}</style></defs><path class="cls-1" d="M12.34,15a.87.87,0,0,1-.89.87.58.58,0,0,1-.64-.61.87.87,0,0,1,.87-.88A.6.6,0,0,1,12.34,15ZM8.08,13H7.89a.11.11,0,0,0-.12.11l-.18,1.07h.33c.45,0,.79-.06.87-.57S8.54,13,8.08,13ZM19.5,13h-.18a.12.12,0,0,0-.13.11L19,14.19h.33c.52,0,.88-.12.88-.72,0-.43-.39-.45-.73-.45ZM28,7.8V22a1.94,1.94,0,0,1-1.93,1.93H6.78A1.93,1.93,0,0,1,4.85,22V7.8A1.92,1.92,0,0,1,6.78,5.87h19.3A1.93,1.93,0,0,1,28,7.8ZM10,13.24c0-.84-.66-1.13-1.4-1.13H7a.21.21,0,0,0-.21.19l-.66,4.11a.14.14,0,0,0,.13.16H7a.26.26,0,0,0,.22-.23l.18-1.07c0-.29.53-.19.72-.19A1.7,1.7,0,0,0,10,13.24Zm3.38.35h-.76c-.16,0-.16.23-.17.33a1,1,0,0,0-1-.4,1.8,1.8,0,0,0-1.74,1.82A1.2,1.2,0,0,0,11,16.63a1.55,1.55,0,0,0,1.07-.47,1,1,0,0,0,0,.24c0,.1,0,.17.13.17h.69c.11,0,.2-.12.22-.23l.41-2.59a.14.14,0,0,0-.13-.16ZM15,17.53l2.56-3.72a.08.08,0,0,0,0-.07.14.14,0,0,0-.13-.14H16.7a.22.22,0,0,0-.18.1l-1.07,1.57L15,13.76a.24.24,0,0,0-.22-.16H14a.14.14,0,0,0-.13.14s.78,2.28.85,2.5a10,10,0,0,0-.82,1.27.12.12,0,0,0,.13.12h.77a.22.22,0,0,0,.18-.1Zm6.4-4.29c0-.84-.65-1.13-1.39-1.13h-1.6a.22.22,0,0,0-.22.19l-.65,4.1a.15.15,0,0,0,.13.17h.82a.17.17,0,0,0,.16-.13l.19-1.17c0-.29.53-.19.72-.19a1.69,1.69,0,0,0,1.84-1.84Zm3.39.35h-.76c-.16,0-.16.23-.18.33a1,1,0,0,0-.95-.4,1.8,1.8,0,0,0-1.74,1.82,1.2,1.2,0,0,0,1.28,1.29,1.51,1.51,0,0,0,1.06-.47,2,2,0,0,0,0,.24c0,.1,0,.17.13.17h.7c.11,0,.2-.12.22-.23l.41-2.59a.14.14,0,0,0-.13-.16Zm1.91-1.33a.14.14,0,0,0-.13-.15h-.74a.14.14,0,0,0-.13.11l-.65,4.18v0a.15.15,0,0,0,.14.15h.66a.26.26,0,0,0,.21-.23l.65-4.07ZM23.1,14.34a.87.87,0,0,0-.87.88.59.59,0,0,0,.65.61.86.86,0,0,0,.87-.87A.59.59,0,0,0,23.1,14.34Z"/></svg>