<svg id="Layer_1" data-name="Layer 1" xmlns="http://www.w3.org/2000/svg" viewBox="0 0 32 30"><defs><style>.cls-1{fill:#fff;}</style></defs><path class="cls-1" d="M23.11,21.34a.46.46,0,0,1-.47.49.5.5,0,1,1,.47-.49ZM10,20.84a.5.5,0,0,0,0,1,.45.45,0,0,0,.46-.49A.46.46,0,0,0,10,20.84Zm5,0a.4.4,0,0,0-.4.37h.81A.4.4,0,0,0,14.93,20.83Zm4.56,0a.5.5,0,1,0,.48.5A.47.47,0,0,0,19.49,20.84ZM24,22s0,0,0,0,0,0,0,.05l0,0s0,0,0,0,0,0-.05,0l-.05,0,0,0s0,0,0,0a.09.09,0,0,1,0-.05s0,0,0,0a.08.08,0,0,1,0-.05l0,0h.1l0,0S24,21.93,24,22Zm-.1.06s0,0,0,0a0,0,0,0,0,0-.06l-.05,0H23.8v.15h0V22h0l0,.06h0l-.05,0Zm3.17-14.6V22.3a2,2,0,0,1-2,2H4.71a2,2,0,0,1-2-2V7.41a2,2,0,0,1,2-2H25A2,2,0,0,1,27.05,7.41ZM5.39,13.31a5.86,5.86,0,0,0,5.86,5.86,5.93,5.93,0,0,0,3.24-1,6.3,6.3,0,0,1,0-9.75,5.93,5.93,0,0,0-3.24-1A5.87,5.87,0,0,0,5.39,13.31Zm9.48,4.6a5.86,5.86,0,0,0,0-9.2A5.85,5.85,0,0,0,14.87,17.91Zm-6,3.23a.6.6,0,0,0-.63-.62.6.6,0,0,0-.54.28.54.54,0,0,0-.51-.28.53.53,0,0,0-.45.23v-.19H6.37v1.56h.35c0-.8-.11-1.28.38-1.28s.35.43.35,1.28h.33c0-.78-.11-1.28.38-1.28s.35.42.35,1.28h.34v-1Zm1.9-.58h-.34v.19a.59.59,0,0,0-.49-.23.78.78,0,0,0-.77.82.77.77,0,0,0,.77.81.59.59,0,0,0,.49-.22v.19h.34Zm1.71,1.09c0-.64-1-.35-1-.65s.5-.2.78,0l.14-.28c-.4-.26-1.28-.25-1.28.35s1,.35,1,.63-.57.25-.87,0l-.15.26c.47.33,1.38.26,1.38-.31ZM14,22l-.1-.29c-.16.09-.51.19-.51-.17v-.7h.55v-.32h-.55v-.47H13v.47h-.32v.31H13v.71c0,.74.73.61,1,.46Zm.56-.57h1.16c0-.68-.31-.95-.73-.95a.76.76,0,0,0-.77.81.84.84,0,0,0,1.43.6l-.16-.25C15.12,22,14.62,21.93,14.52,21.47Zm2.5-.91a.5.5,0,0,0-.64.19v-.19H16v1.56h.35v-.88a.35.35,0,0,1,.54-.36l.1-.32Zm.45.78c0-.48.49-.64.87-.36l.16-.27a.84.84,0,1,0,0,1.27l-.16-.28C18,22,17.47,21.81,17.47,21.34Zm2.82-.78h-.35v.19a.74.74,0,0,0-1.26.59c0,.81.95,1,1.26.59v.19h.35Zm1.43,0a.52.52,0,0,0-.65.19v-.19h-.33v1.56h.33v-.88a.36.36,0,0,1,.54-.36l.11-.32Zm1.7-.63h-.33v.82a.77.77,0,1,0,0,1.18v.19h.33V19.93Zm.32-3.17V17h0v-.19h.08v0h-.2v0ZM24,22a.13.13,0,0,0,0-.06l0-.05-.05,0-.07,0s0,0-.06,0l0,0a.05.05,0,0,0,0,.05.18.18,0,0,0,0,.12.05.05,0,0,0,0,.05l0,0a.08.08,0,0,0,.06,0,.1.1,0,0,0,.07,0l.05,0,0-.05A.13.13,0,0,0,24,22Zm.14-5.27H24.1l-.07.15L24,16.72H23.9V17h0v-.18l.06.15h.05l.06-.15V17h.05Zm.18-3.41a5.85,5.85,0,0,0-9.09-4.87,6.31,6.31,0,0,1,0,9.75,5.85,5.85,0,0,0,9.09-4.88Z"/></svg>