<svg id="Layer_1" data-name="Layer 1" xmlns="http://www.w3.org/2000/svg" viewBox="0 0 32 30"><defs><style>.cls-1{fill:#fff;}</style></defs><path class="cls-1" d="M22.2,15V13.67c1.72,0,1.6,0,1.6,0a.67.67,0,0,1,0,1.33Zm1.78.84a16.42,16.42,0,0,0-1.78,0v1.47a13,13,0,0,0,1.78,0,.71.71,0,0,0,.57-.71A.72.72,0,0,0,24,15.86Zm4.26-7.71V22.87a2,2,0,0,1-2,2H6.17a2,2,0,0,1-2-2V8.15a2,2,0,0,1,2-2H26.23A2,2,0,0,1,28.24,8.15Zm-16.47,4.7H9.38c0,2.8.45,4.58-1.49,4.58a5.41,5.41,0,0,1-2.39-.62V18a12.49,12.49,0,0,0,2.84.35C12.43,18.33,11.77,16.34,11.77,12.85Zm7.46.19c-2.65-.67-6.9-.63-6.9,2.47s4.52,3.08,6.9,2.48V16.81c-2,1-4.5.91-4.5-1.3s2.5-2.32,4.5-1.3Zm7.67,3.74c0-.77-.69-1.27-1.59-1.33v0a1.31,1.31,0,0,0,1.27-1.26c0-.79-.66-1.25-1.55-1.29,0,0,.26,0-5,0v5.33h5.13C26.15,18.18,26.9,17.63,26.9,16.78Z"/></svg>